<svg xmlns="http://www.w3.org/2000/svg" viewBox="0 0 512 512">
    <!--! Font Awesome Pro 6.1.1 by @fontawesome - https://fontawesome.com License - https://fontawesome.com/license (Commercial License) Copyright 2022 Fonticons, Inc.-->
    <path d="M0 256a256 256 0 1 1 512 0 256 256 0 0 1-512 0zm160 80c-9 0-16 7-16 16s7 16 16 16h192c9 0 16-7 16-16s-7-16-16-16H160zm-16-112h64c9 0 16-7 16-16s-7-16-16-16h-64c-9 0-16 7-16 16s7 16 16 16zm160-32c-9 0-16 7-16 16s7 16 16 16h64c9 0 16-7 16-16s-7-16-16-16h-64z" />
</svg>
