<svg xmlns="http://www.w3.org/2000/svg" viewBox="0 0 512 512">
    <!--! Font Awesome Pro 6.1.1 by @fontawesome - https://fontawesome.com License - https://fontawesome.com/license (Commercial License) Copyright 2022 Fonticons, Inc.-->
    <path d="M0 256a256 256 0 1 1 512 0 256 256 0 0 1-512 0zm159.3 132.7A100.4 100.4 0 0 1 256 320c46.1 0 84.5 29.4 96.7 68.7a16 16 0 1 0 30.6-9.4A133 133 0 0 0 256 287.1c-59.7 0-110.8 39-127.3 92.2a16 16 0 1 0 30.6 9.4zM176.4 176a32 32 0 1 0 0 64 32 32 0 0 0 0-64zm160 64a32 32 0 1 0 0-64 32 32 0 0 0 0 64z" />
</svg>
