<svg width="1em" height="1em" fill="currentColor" xmlns="http://www.w3.org/2000/svg" viewBox="0 0 211.07 87.64"><path d="M736.58,405.06v-3.73h-3.41v-2.76h-4.08v2.76h-4v-2.76H721v2.76h-4v-2.76H713v2.76h-4v-2.76H704.9v2.76h-4v-2.76h-4.08v2.76h-4v-2.76h-4.08v2.76h-4v-2.76h-4.08v2.76h-4v-2.76h-4.08v2.76h-4v-2.76h-4.08v2.76h-3.22v3.73h3.22v9.16h-3.21V418h3.21v2.75h4.08V418h4v2.75h4.08V418h4v2.75h4.08V418h4v2.75h4.08V418h4v2.75h4.08V418h4v2.75H709V418h4v2.75H717V418h4v2.75h4.08V418h4v2.75h4.08V418h3.41v-3.73h-3.41v-9.16Zm-63.94,9.16h-4v-9.16h4Zm4.08-9.16h4v9.16h-4Zm8.07,0h4v9.16h-4Zm8.06,0h4v9.16h-4Zm8.06,0h4v9.16h-4Zm8.07,0h4v9.16h-4Zm8.06,0h4v9.16h-4Zm8.06,0h4v9.16h-4Z" transform="translate(-647.44 -369.13)"/><circle cx="85.78" cy="76.32" r="2"/><circle cx="73.74" cy="76.31" r="2"/><circle cx="17.3" cy="76.31" r="2"/><circle cx="29.34" cy="76.31" r="2"/><path d="M654,419.38h0a1.48,1.48,0,0,0,1.48-1.48l0-31h87.08v4.52a1.49,1.49,0,0,0,3,0v-6a1.49,1.49,0,0,0-1.49-1.48h-3.77l-11.94-7.52a17.46,17.46,0,0,0-9.32-2.69h-1.6a14.66,14.66,0,0,1-4.91-.85l-7.57-2.72a17.51,17.51,0,0,0-11.82,0l-7.58,2.72a14.66,14.66,0,0,1-4.91.85H679a17.49,17.49,0,0,0-9.32,2.69l-11.94,7.52h-3.77a1.49,1.49,0,0,0-1.49,1.48l0,32.48a1.48,1.48,0,0,0,1.48,1.48Zm17.27-40.44A14.53,14.53,0,0,1,679,376.7h1l2.38,2.39a5.51,5.51,0,0,0,3.89,1.62h8.54a1.49,1.49,0,0,0,0-3h-8.54a2.54,2.54,0,0,1-1.78-.74l-.6-.6a17.49,17.49,0,0,0,2.64-.72l7.58-2.72a14.62,14.62,0,0,1,9.81,0l6.83,2.46a23.06,23.06,0,0,0-4.61,2.61,1.49,1.49,0,0,0,.88,2.69,1.52,1.52,0,0,0,.88-.29,19.55,19.55,0,0,1,9.55-3.72H719a14.53,14.53,0,0,1,7.74,2.24l7.94,5H663.29Z" transform="translate(-647.44 -369.13)"/><path d="M748.19,430h-2.71V398.37a1.49,1.49,0,0,0-3,0V430H726.12a1.49,1.49,0,0,0,0,3h20.59v5H651.22v-5h68a1.49,1.49,0,0,0,0-3H655.43v-5.13a1.49,1.49,0,0,0-3,0V430h-2.71a1.49,1.49,0,0,0-1.49,1.49v8a1.49,1.49,0,0,0,1.49,1.49h9a7.49,7.49,0,1,0,12,9,7.49,7.49,0,1,0,12-9h4.73v6.5a1.49,1.49,0,0,0,1.49,1.49h20a1.49,1.49,0,0,0,1.49-1.49v-6.5h4.74a7.41,7.41,0,0,0-1.51,4.5,7.48,7.48,0,0,0,13.49,4.47,7.49,7.49,0,1,0,12-9h9a1.48,1.48,0,0,0,1.49-1.49v-8a1.49,1.49,0,0,0-1.49-1.49Zm-83.44,20a4.52,4.52,0,0,1-.41-9h.82a4.52,4.52,0,0,1-.41,9Zm16.52-4.52a4.52,4.52,0,1,1-4.93-4.5h.82A4.53,4.53,0,0,1,681.27,445.44Zm26.22.51h-17v-5h17Zm13.69,4a4.52,4.52,0,0,1-.41-9h.82a4.52,4.52,0,0,1-.41,9Zm16.52-4.52a4.52,4.52,0,1,1-4.93-4.5h.83A4.52,4.52,0,0,1,737.7,445.44Z" transform="translate(-647.44 -369.13)"/><path d="M844.6,405.06v-3.73h-3.41v-2.76h-4.08v2.76h-4v-2.76h-4.08v2.76h-4v-2.76H821v2.76h-4v-2.76h-4.08v2.76h-4v-2.76h-4.08v2.76h-4v-2.76H796.8v2.76h-4v-2.76h-4.08v2.76h-4v-2.76h-4.08v2.76h-4v-2.76h-4.08v2.76h-3.22v3.73h3.22v9.16h-3.22V418h3.22v2.75h4.08V418h4v2.75h4.08V418h4v2.75h4.08V418h4v2.75h4.08V418h4v2.75h4.08V418h4v2.75H817V418h4v2.75h4.08V418h4v2.75h4.08V418h4v2.75h4.08V418h3.41v-3.73h-3.41v-9.16Zm-63.94,9.16h-4v-9.16h4Zm4.08-9.16h4v9.16h-4Zm8.07,0h4v9.16h-4Zm8.07,0h4v9.16h-4Zm8.06,0h4v9.16h-4Zm8.06,0h4v9.16h-4Zm8.06,0h4v9.16h-4Zm8.07,0h4v9.16h-4Z" transform="translate(-647.44 -369.13)"/><circle cx="193.8" cy="76.32" r="2"/><circle cx="181.76" cy="76.31" r="2"/><circle cx="125.33" cy="76.31" r="2"/><circle cx="137.36" cy="76.31" r="2"/><path d="M762,419.38h0a1.48,1.48,0,0,0,1.48-1.48l0-31h87.08v4.52a1.49,1.49,0,0,0,3,0v-6a1.48,1.48,0,0,0-1.49-1.48h-3.77l-11.94-7.52a17.44,17.44,0,0,0-9.32-2.69h-1.6a14.64,14.64,0,0,1-4.9-.85l-7.58-2.72a17.51,17.51,0,0,0-11.82,0l-7.58,2.72a14.66,14.66,0,0,1-4.91.85H787a17.49,17.49,0,0,0-9.32,2.69l-11.93,7.52H762a1.47,1.47,0,0,0-1.48,1.48l0,32.48a1.49,1.49,0,0,0,1.49,1.48Zm17.27-40.44A14.5,14.5,0,0,1,787,376.7h1l2.37,2.39a5.53,5.53,0,0,0,3.89,1.62h8.55a1.49,1.49,0,0,0,0-3h-8.55a2.54,2.54,0,0,1-1.78-.74l-.6-.6a17.17,17.17,0,0,0,2.64-.72l7.58-2.72a14.65,14.65,0,0,1,9.82,0l6.82,2.46a23,23,0,0,0-4.6,2.61,1.49,1.49,0,0,0-.33,2.08,1.52,1.52,0,0,0,1.2.61,1.5,1.5,0,0,0,.88-.29,19.59,19.59,0,0,1,9.55-3.72H827a14.53,14.53,0,0,1,7.74,2.24l7.94,5H771.31Z" transform="translate(-647.44 -369.13)"/><path d="M856.22,430H853.5V398.37a1.49,1.49,0,0,0-3,0V430H834.14a1.49,1.49,0,0,0,0,3h20.59v5H759.25v-5h68a1.49,1.49,0,0,0,0-3H763.45v-5.13a1.49,1.49,0,0,0-3,0V430h-2.72a1.49,1.49,0,0,0-1.49,1.49v8a1.49,1.49,0,0,0,1.49,1.49h9a7.41,7.41,0,0,0-1.51,4.5,7.48,7.48,0,0,0,13.49,4.47,7.49,7.49,0,1,0,12-9h4.74v6.5a1.49,1.49,0,0,0,1.48,1.49h20a1.49,1.49,0,0,0,1.49-1.49v-6.5h4.74a7.41,7.41,0,0,0-1.51,4.5,7.48,7.48,0,0,0,13.49,4.47,7.49,7.49,0,0,0,13.5-4.47,7.41,7.41,0,0,0-1.51-4.5h9a1.48,1.48,0,0,0,1.48-1.49v-8a1.49,1.49,0,0,0-1.48-1.49Zm-83.45,20a4.52,4.52,0,0,1-.41-9h.82a4.52,4.52,0,0,1-.41,9Zm16.52-4.52a4.52,4.52,0,1,1-4.93-4.5h.83A4.52,4.52,0,0,1,789.29,445.44Zm26.22.51h-17v-5h17Zm13.69,4a4.52,4.52,0,0,1-.41-9h.82a4.52,4.52,0,0,1-.41,9Zm16.53-4.52a4.52,4.52,0,1,1-4.93-4.5h.82A4.53,4.53,0,0,1,845.73,445.44Z" transform="translate(-647.44 -369.13)"/><line x1="1.78" y1="85.87" x2="209.29" y2="85.87"/><path d="M856.74,456.78H649.22a1.78,1.78,0,0,1,0-3.56H856.74a1.78,1.78,0,0,1,0,3.56Z" transform="translate(-647.44 -369.13)"/><path d="M759.2,434.92v-1.77H754V431.9a1.07,1.07,0,0,0-2.13,0v1.25h-5.15v1.77h5.15V436h-5.15v1.77h5.15V439a1.07,1.07,0,0,0,2.13,0v-1.25h5.16V436H754v-1.07Z" transform="translate(-647.44 -369.13)"/></svg>
