<svg width="1em" height="1em" fill="currentColor" xmlns="http://www.w3.org/2000/svg" viewBox="0 0 182.7 127.8"><path d="M97.5,41.1a18.819,18.819,0,0,1-5.3-.7,1.308,1.308,0,0,1-1-1.4,4.241,4.241,0,0,0-2.1-3.7,4.155,4.155,0,0,0-4.3.1,1.346,1.346,0,0,1-1.7-.2,27.94,27.94,0,0,1-3.4-4.3,1.491,1.491,0,0,1,.2-1.7,4.276,4.276,0,0,0,1.2-4.1,4.459,4.459,0,0,0-3.1-3,1.41,1.41,0,0,1-1.1-1.4,19.523,19.523,0,0,1,.7-5.4,1.308,1.308,0,0,1,1.4-1,4.241,4.241,0,0,0,3.7-2.1,4.393,4.393,0,0,0-.1-4.3,1.346,1.346,0,0,1,.2-1.7,27.94,27.94,0,0,1,4.3-3.4,1.491,1.491,0,0,1,1.7.2,4.276,4.276,0,0,0,4.1,1.2,4.28,4.28,0,0,0,3-3.1A1.41,1.41,0,0,1,97.3,0a19.523,19.523,0,0,1,5.4.7,1.308,1.308,0,0,1,1,1.4,4.241,4.241,0,0,0,2.1,3.7,4.155,4.155,0,0,0,4.3-.1,1.346,1.346,0,0,1,1.7.2,27.94,27.94,0,0,1,3.4,4.3,1.491,1.491,0,0,1-.2,1.7,4.152,4.152,0,0,0,1.9,7.1,1.41,1.41,0,0,1,1.1,1.4,19.523,19.523,0,0,1-.7,5.4,1.412,1.412,0,0,1-1.4,1,4.241,4.241,0,0,0-3.7,2.1,4.155,4.155,0,0,0,.1,4.3,1.346,1.346,0,0,1-.2,1.7,27.94,27.94,0,0,1-4.3,3.4,1.491,1.491,0,0,1-1.7-.2A4.152,4.152,0,0,0,99,40a1.41,1.41,0,0,1-1.4,1.1Zm-3.6-3.2a12.413,12.413,0,0,0,2.7.3,6.984,6.984,0,0,1,4.6-4.1,7.062,7.062,0,0,1,6.1,1.2,18.4,18.4,0,0,0,2.2-1.7,7.09,7.09,0,0,1,5.5-9.7,12.413,12.413,0,0,0,.3-2.7,6.984,6.984,0,0,1-4.1-4.6,7.062,7.062,0,0,1,1.2-6.1,18.4,18.4,0,0,0-1.7-2.2A7.09,7.09,0,0,1,101,2.8a12.413,12.413,0,0,0-2.7-.3,6.984,6.984,0,0,1-4.6,4.1,7.062,7.062,0,0,1-6.1-1.2,18.4,18.4,0,0,0-2.2,1.7,7.09,7.09,0,0,1-5.5,9.7,12.413,12.413,0,0,0-.3,2.7,6.984,6.984,0,0,1,4.1,4.6,7.062,7.062,0,0,1-1.2,6.1,18.4,18.4,0,0,0,1.7,2.2,7.09,7.09,0,0,1,9.7,5.5Z"/><path d="M97.5,31.8a11.4,11.4,0,0,1-11-8.4,11.543,11.543,0,0,1,1.1-8.7,11.289,11.289,0,0,1,6.9-5.4,11.543,11.543,0,0,1,8.7,1.1,11.289,11.289,0,0,1,5.4,6.9h0a11.543,11.543,0,0,1-1.1,8.7,11.289,11.289,0,0,1-6.9,5.4A11.479,11.479,0,0,1,97.5,31.8Zm0-20a9.079,9.079,0,0,0-2.3.3,8.392,8.392,0,0,0-5.2,4,8.673,8.673,0,0,0-.8,6.5,8.539,8.539,0,0,0,10.6,6,8.392,8.392,0,0,0,5.2-4,8.673,8.673,0,0,0,.8-6.5h0a8.392,8.392,0,0,0-4-5.2A9.16,9.16,0,0,0,97.5,11.8Z"/><path d="M152.9,104c-.9-.1-1.8-.1-2.8-.2l1.3-11.9a16.352,16.352,0,0,0,2.2.2Zm-7.2-.8c-.9-.2-1.8-.3-2.7-.5L145.5,91a18.457,18.457,0,0,0,2.3.4Zm-6.8-1.5c-.9-.2-1.7-.5-2.6-.7l3.2-11.6c.8.2,1.5.4,2.3.6Zm-6.6-1.9c-.8-.3-1.7-.5-2.5-.8l3.8-11.4c.8.3,1.6.5,2.3.7Zm-6.5-2.2-2.4-.9,4-11.3c.8.3,1.6.6,2.3.8Zm-6.2-2.2-2.4-.9,4.2-11.3,2.4.9Zm-6.2-2.3-2.4-.9,4.1-11.3,2.4.9Zm-6.1-2.2a22.5,22.5,0,0,0-2.4-.8l4-11.3,2.4.9Zm-6.1-2.2c-.8-.3-1.6-.5-2.4-.8l3.8-11.4c.8.3,1.6.5,2.4.8Zm-6.1-2c-.8-.2-1.6-.5-2.4-.7l3.5-11.5c.8.3,1.7.5,2.5.8ZM5.7,85.4,2.4,73.9c.8-.2,1.6-.5,2.5-.7L8.1,84.8A14.009,14.009,0,0,0,5.7,85.4ZM89,84.9a21.718,21.718,0,0,1-2.4-.7l3.2-11.6c.8.2,1.7.5,2.5.7ZM11.8,83.7,8.9,72.1c.8-.2,1.7-.4,2.5-.6l2.7,11.7A18.915,18.915,0,0,1,11.8,83.7Zm71-.5-2.4-.6,2.9-11.7c.8.2,1.7.4,2.5.6ZM18,82.3,15.6,70.5c.8-.2,1.7-.3,2.6-.5l2.3,11.8C19.6,82,18.8,82.2,18,82.3Zm58.6-.6c-.8-.2-1.5-.3-2.3-.5h-.1l2.5-11.7h.1a20.481,20.481,0,0,0,2.4.5Zm-52.4-.5-2-11.8c.8-.1,1.7-.3,2.6-.4l1.8,11.9A9.863,9.863,0,0,0,24.2,81.2Zm46.3-.7c-.8-.1-1.6-.3-2.4-.4l1.8-11.9c.9.1,1.7.3,2.6.4Zm-40-.3L28.9,68.3c.9-.1,1.7-.2,2.6-.3l1.4,11.9Zm33.8-.6a19.419,19.419,0,0,0-2.4-.2l1.1-12c.9.1,1.8.2,2.6.3Zm-27.5-.1L35.7,67.6a22.752,22.752,0,0,1,2.6-.2l.9,12A19.269,19.269,0,0,0,36.8,79.5Zm21.3-.4c-.8,0-1.6-.1-2.4-.1l.5-12c.9,0,1.8.1,2.6.1Zm-15-.1-.6-12c.9,0,1.7-.1,2.6-.1l.4,12A19.269,19.269,0,0,1,43.1,79Zm8.7-.2H49.4l-.1-12H52Z"/><path d="M124,66.6a8.6,8.6,0,1,1,8.6-8.6A8.6,8.6,0,0,1,124,66.6Zm0-14.4a5.8,5.8,0,1,0,5.8,5.8A5.8,5.8,0,0,0,124,52.2Z"/><path d="M125.9,56.6h-.7V54.5a1.4,1.4,0,0,0-2.8,0V58a1.367,1.367,0,0,0,1.4,1.4h2.1a1.4,1.4,0,0,0,0-2.8Z"/><path d="M119.6,83.7c-12.2-4.5-26-9.6-43-13.2C43.2,63.4,9.6,72.6,0,75.7l.8,2.7c9.3-2.9,42.4-12.1,75.2-5.1,16.8,3.6,30.5,8.6,42.7,13.1,14.1,5.2,25.5,9.4,37.1,9.7V93.3C144.6,93,133.5,88.9,119.6,83.7Z"/><path d="M117.1,90.3c-11.9-4.4-25.5-9.4-42-12.9-31.6-6.7-64.2,2.2-73.1,5l.8,2.7c8.7-2.7,40.7-11.5,71.6-4.9C90.7,83.7,104.2,88.6,116,93c14.3,5.3,26.7,9.8,39.6,10.1v-2.8C143.4,100,131.2,95.5,117.1,90.3Z"/><path d="M18.9,64.7h0A38.2,38.2,0,0,1,17.4,58a11.563,11.563,0,0,0,6.8-8.6A11.687,11.687,0,0,0,20.9,39a35.553,35.553,0,0,1,3.7-5.8,11.67,11.67,0,0,0,15.9-11,30.724,30.724,0,0,1,6.7-1.4,11.563,11.563,0,0,0,8.6,6.8,11.687,11.687,0,0,0,10.4-3.3A35.553,35.553,0,0,1,72,28,11.67,11.67,0,0,0,83,43.9a30.724,30.724,0,0,1,1.4,6.7,11.563,11.563,0,0,0-6.8,8.6,11.4,11.4,0,0,0-.2,2.6c1,.2,1.9.4,2.9.7a8.173,8.173,0,0,1,.1-2.7,8.856,8.856,0,0,1,6-6.8,1.539,1.539,0,0,0,1-1.5,39.252,39.252,0,0,0-2-9.5,1.35,1.35,0,0,0-1.5-.9,8.642,8.642,0,0,1-8.2-3.8,8.823,8.823,0,0,1-.6-9,1.361,1.361,0,0,0-.3-1.7,37.14,37.14,0,0,0-8.2-5.3,1.388,1.388,0,0,0-1.7.4,8.8,8.8,0,0,1-15.3-2.8,1.539,1.539,0,0,0-1.5-1,39.252,39.252,0,0,0-9.5,2,1.35,1.35,0,0,0-.9,1.5,8.642,8.642,0,0,1-3.8,8.2,8.823,8.823,0,0,1-9,.6,1.361,1.361,0,0,0-1.7.3,37.14,37.14,0,0,0-5.3,8.2,1.388,1.388,0,0,0,.4,1.7,8.8,8.8,0,0,1-2.8,15.3,1.539,1.539,0,0,0-1,1.5,34.031,34.031,0,0,0,1.7,8.3A23.041,23.041,0,0,1,18.9,64.7Z"/><path d="M35.7,61.1a16.341,16.341,0,0,1-1.2-10,17.03,17.03,0,0,1,7-10.9,16.769,16.769,0,0,1,9.6-3,16.279,16.279,0,0,1,3.1.3A16.918,16.918,0,0,1,67.8,57.2c-.2,1-.5,1.9-.8,2.9,1,.1,1.9.2,2.9.3a26.808,26.808,0,0,0,.7-2.7,19.771,19.771,0,1,0-38.9-7.1,19.617,19.617,0,0,0,1.1,11A29.311,29.311,0,0,1,35.7,61.1Z"/><path d="M180.4,117.2l-.2-.3a56.979,56.979,0,0,0-9.7-8,16.5,16.5,0,0,0-4.6-2.3,30.687,30.687,0,0,0-11.1-1.4h-9.9V81.4a1.528,1.528,0,0,0-.4-1,1.777,1.777,0,0,0-1-.4,32.523,32.523,0,0,1-5.4-.2V48.5a1.255,1.255,0,0,0-.6-1.1l-12.7-9.8a1.354,1.354,0,0,0-1.7,0l-12.7,9.8a1.738,1.738,0,0,0-.6,1.1V71.7c-9.5-3.5-20.3-7.4-33.5-10.2-30.7-6.5-62.7,4.7-63,4.8a1.291,1.291,0,0,0-.9,1.3v58.8a1.367,1.367,0,0,0,1.4,1.4H177c3.9-.1,5.7-1.7,5.7-5.2A7.569,7.569,0,0,0,180.4,117.2ZM138.1,79.8c-1.6-.2-3.3-.4-5-.7A46.145,46.145,0,0,0,138.1,79.8Zm-25.4-7V49.3L124,40.6l11.3,8.7V79.1h-2.1c-6.8-1.3-13.9-3.9-22.2-7A8.651,8.651,0,0,1,112.7,72.8ZM45.1,125H23V109.3a11.1,11.1,0,0,1,22.2,0V125Zm31.6,0H54.6V109.3a11.1,11.1,0,1,1,22.2,0V125Zm31.6,0H86.2V109.3a11.1,11.1,0,0,1,22.2,0V125Zm33.9,0h-31V109.3a13.9,13.9,0,0,0-27.8,0V125H79.6V109.3a13.9,13.9,0,1,0-27.8,0V125H48V109.3a13.9,13.9,0,1,0-27.8,0V125H15.4V68.7c5.4-1.8,33.6-10.1,60.5-4.4,13.5,2.9,24.5,6.9,34.2,10.5,11.7,4.3,21.8,8.1,32.1,8.1V125Zm32.5-10.2a11.486,11.486,0,0,0,1,.8c.5.4,1.2,1,1.6,1.4.6.6,1,1.1,1.4,1.5l-16.1-.1a.265.265,0,0,1-.3-.3V115a.265.265,0,0,1,.3-.3l11.7-.2C174.4,114.6,174.6,114.7,174.7,114.8Zm-29.7-.1h11.6v3.8H145Zm31.9,10.9c-2.2.1-18.6,0-31.9,0v-5.1h11.9a1.793,1.793,0,0,0,1.8-1.8v-4.4a1.793,1.793,0,0,0-1.8-1.8H145v-5.1h10.1a30.843,30.843,0,0,1,10.2,1.3,14.985,14.985,0,0,1,4.2,2.1,25.621,25.621,0,0,1,2.3,1.6l-9.1.2a2.476,2.476,0,0,0-2.5,2.5v3.1a2.476,2.476,0,0,0,2.5,2.5h8.9l8.4-.5a4.5,4.5,0,0,1,.6,2.4C180.5,124.3,180.2,125.6,176.9,125.6Z"/></svg>
