<svg width="1em" height="1em" fill="currentColor" xmlns="http://www.w3.org/2000/svg" viewBox="0 0 142.6 126.48"><path d="M664.53,447.26h-40a1.56,1.56,0,0,1-1.55-1.55V426.18a1.55,1.55,0,0,1,1.55-1.55h40a1.54,1.54,0,0,1,1.55,1.55v19.53A1.55,1.55,0,0,1,664.53,447.26Zm-38.44-3.1H663V427.73H626.09Z" transform="translate(-523.48 -321.09)"/><path d="M664.53,427.11h-44a1.56,1.56,0,0,1-1.55-1.55V322.64a1.55,1.55,0,0,1,1.55-1.55h8.68a1.54,1.54,0,0,1,1.45,1l35.34,93a1.54,1.54,0,0,1,.1.56v9.92A1.55,1.55,0,0,1,664.53,427.11ZM622.06,424H663v-8.09l-34.86-91.73h-6.06Z" transform="translate(-523.48 -321.09)"/><path d="M620.51,427.11a1.56,1.56,0,0,1-1.55-1.55c0-3.78,1.1-6.72,3.26-8.74a11.07,11.07,0,0,1,7.63-2.73h34.68a1.55,1.55,0,1,1,0,3.1H629.71a8,8,0,0,0-5.4,1.92c-1.49,1.41-2.25,3.58-2.25,6.46A1.55,1.55,0,0,1,620.51,427.11Z" transform="translate(-523.48 -321.09)"/><path d="M613.38,334.11v-7.44h-4.72l.38-5.58h-3.72l-.49,5.58H583.24l2.24-5.58h-3.72l-2.38,5.58h-4.44l-3.72,7.44h5l-2.39,5.61-5.08,0L565,347.75h5.37l-3.17,7.44H561.3l-3.72,8.68h5.94l-3.17,7.44h-6.49l-4.34,9.3h6.86l-3.7,8.68H545.8l-4.34,9.92h7l-4.23,9.92h-7.1l-5,11.16h7.3l-4.52,10.59-7.12-.05L523.48,442h6.72l-2.38,5.58h6.82l2.25-5.58h57.77l-.5,5.58h6.2l.39-5.58h6.43V431.45l-5.71-.05.76-11.11h5.57l.62-11.16H603l.68-9.92H609l.62-9.92h-5.3l.6-8.68h5.32v-9.3H605.6l.51-7.44h4.79l.62-8.68H606.7l.51-7.44h4.31l.62-7.75-4.39,0,.4-5.85Zm-17.79,97.25-54.26-.43,4.28-10.64h51Zm2-22.23H550.09l4-9.92h44.35Zm1.76-19.84H558.07l3.49-8.68h38.51Zm1.58-18H565.3l3-7.44h33.26Zm1.42-16.12H571.78l3-7.44H603Zm1.35-15.25L578,339.75l2.27-5.64h23.92Z" transform="translate(-523.48 -321.09)"/></svg>
