<svg width="1em" height="1em" fill="currentColor" xmlns="http://www.w3.org/2000/svg" viewBox="0 0 63.957 76.139"><path d="M26.8,22.262a.7.7,0,0,0-.7.7v7.38a.7.7,0,0,0,1.4,0v-7.38A.7.7,0,0,0,26.8,22.262Z"/><path d="M37.549,22.262a.7.7,0,0,0-.7.7v7.38a.7.7,0,0,0,1.4,0v-7.38A.7.7,0,0,0,37.549,22.262Z"/><path d="M0,29.638V67.657a2.1,2.1,0,0,0,2.1,2.1H3.265v6.386H60.693V69.753h1.169a2.1,2.1,0,0,0,2.095-2.1V29.638Zm58.9,44.7H5.063V69.753H58.9Zm3.263-6.683a.3.3,0,0,1-.3.3H2.1a.3.3,0,0,1-.3-.3V31.437H62.158Z"/><path d="M48.191,50.533c0-.041.007-.088.008-.126.009-.377.015-.614.017-.692h.007s-.007-.266-.019-.73c0-.037-.006-.082-.008-.121l.554-.029-.039-.505c-.01-.126-.019-.252-.029-.347s-.019-.156-.019-.156l-.551.061c-.012-.084-.02-.164-.031-.252-.025-.18-.044-.37-.084-.567s-.073-.4-.113-.613c-.032-.138-.066-.283-.1-.428l.536-.123-.035-.154c-.025-.093-.05-.217-.088-.339-.071-.244-.141-.488-.141-.488l-.53.155c-.062-.216-.138-.432-.213-.652-.13-.369-.291-.744-.456-1.117l.519-.22-.214-.461c-.053-.116-.108-.231-.154-.315s-.074-.141-.074-.141l-.507.251c-.144-.281-.278-.564-.44-.837s-.343-.524-.518-.783l.484-.313-.087-.134c-.054-.08-.131-.182-.2-.286l-.3-.411L44.9,40c-.25-.326-.5-.651-.764-.946-.158-.177-.317-.326-.477-.49l.418-.387s-.178-.185-.36-.365l-.374-.349-.386.4c-.276-.253-.552-.5-.811-.709-.237-.182-.453-.348-.662-.5l.333-.442-.422-.294c-.105-.073-.21-.148-.293-.2l-.136-.086-.3.458-.108-.068c-.2-.124-.356-.225-.468-.285a1.5,1.5,0,0,1-.184-.12s-.058-.034-.169-.1l-.2-.114c-.083-.041-.177-.088-.282-.142l-.111-.055.25-.482-.144-.073c-.087-.042-.2-.1-.32-.152l-.473-.208-.22.5c-.079-.034-.152-.069-.237-.1l-.545-.209c-.307-.112-.654-.219-1-.324l.137-.446-.5-.138c-.062-.018-.125-.035-.184-.05l-.161-.037-.159-.037-.11.457c-.233-.055-.454-.118-.7-.164-.388-.074-.8-.123-1.2-.171l.054-.459-.161-.018c-.1-.014-.225-.022-.354-.032l-.516-.038-.027.467c-.32-.018-.639-.045-.961-.045s-.634.028-.951.046l-.034-.565-.515.038c-.258.016-.515.052-.515.052l.067.555c-.414.048-.827.1-1.22.175-.236.045-.448.107-.674.16l-.133-.548-.158.036-.162.038-.182.05-.5.14.165.532c-.363.108-.718.219-1.035.334l-.543.211c-.083.032-.155.066-.232.1l-.224-.5-.472.211c-.119.05-.233.109-.319.152l-.145.072.254.487-.116.058c-.105.053-.2.1-.281.143s-.148.082-.2.114c-.111.061-.169.095-.169.095a1.374,1.374,0,0,0-.2.094c-.112.06-.268.16-.468.286l-.1.065-.3-.453-.137.087c-.082.049-.187.123-.292.2l-.422.294.332.437c-.21.153-.428.321-.667.506-.258.209-.531.454-.805.707l-.383-.4-.372.351c-.182.18-.36.365-.36.365l.412.38c-.16.166-.321.317-.48.5-.261.293-.511.617-.759.942l-.454-.331-.3.413c-.074.1-.151.205-.2.286l-.087.132.476.306c-.176.262-.359.518-.52.791s-.294.553-.437.832l-.518-.255-.074.141c-.045.084-.1.2-.152.315l-.213.463.529.221c-.165.376-.327.752-.456,1.123-.075.22-.149.433-.21.648l-.538-.156s-.071.243-.141.488c-.037.122-.063.247-.086.339l-.037.154.545.124c-.034.146-.069.293-.1.433-.039.212-.076.417-.112.613s-.058.386-.082.566c-.011.087-.019.164-.029.246l-.558-.061s-.007.063-.019.157-.019.222-.029.347l-.037.506.559.028c0,.04-.007.087-.008.125-.009.379-.015.616-.017.693h-.007s.007.265.019.73c0,.036.006.081.008.12l-.554.029.038.505c.011.126.02.252.03.347s.019.157.019.157l.551-.062c.012.084.021.164.031.253.025.18.044.37.084.566s.073.4.113.613l.1.428-.536.123.035.155c.025.092.05.216.089.338.07.244.141.488.141.488l.529-.154c.062.216.138.431.213.651.13.37.291.744.456,1.118l-.519.219.214.462c.053.115.108.231.154.315s.074.141.074.141l.507-.251c.144.28.278.563.44.836s.343.524.518.784l-.484.313.087.133c.054.08.131.182.2.286.151.2.3.412.3.412l.461-.339c.249.327.5.651.764.946.158.177.318.326.477.49l-.418.388s.178.184.36.364.374.35.374.35l.386-.405c.276.254.552.5.811.71.237.181.453.348.662.5l-.333.442.422.293c.105.073.21.148.293.2l.136.086.3-.458.108.068c.2.125.356.225.468.285a1.434,1.434,0,0,1,.184.121s.058.034.169.1c.055.03.124.068.2.113l.282.142.111.055-.25.483.144.071c.087.043.2.1.32.153l.473.209.22-.5c.079.035.153.069.237.1.173.068.355.137.545.21.315.114.669.224,1.03.331l-.162.527.5.137c.062.018.125.035.184.05s.114.027.161.037l.159.037.13-.54c.227.053.441.115.679.159.391.075.8.125,1.215.172l-.065.546.161.019c.1.014.225.021.354.031l.517.038.031-.554c.318.017.635.045.956.045s.634-.029.952-.047l.033.565.515-.038c.258-.015.515-.052.515-.052l-.067-.555c.414-.048.827-.1,1.22-.175.237-.045.448-.106.674-.159l.133.548s.063-.016.158-.037l.162-.037.182-.05.5-.14-.165-.532c.363-.108.718-.22,1.034-.335l.544-.21c.083-.033.154-.067.232-.1l.224.5.472-.211c.119-.05.233-.108.319-.152l.145-.072-.254-.487.116-.058c.1-.052.2-.1.281-.142l.2-.114.169-.095a1.46,1.46,0,0,0,.2-.095c.112-.06.268-.16.468-.286l.1-.065.3.453.137-.086c.082-.05.187-.123.293-.2l.421-.3-.332-.437c.21-.153.428-.321.667-.505.258-.21.531-.455.8-.707l.383.4.373-.35c.181-.18.359-.365.359-.365l-.412-.381c.16-.166.321-.316.48-.495.261-.294.511-.618.759-.943l.454.331.3-.413c.074-.1.151-.206.2-.286l.087-.132-.476-.306c.176-.262.359-.517.52-.791s.294-.553.437-.831l.518.255.074-.141c.045-.084.1-.2.152-.315l.213-.463-.529-.222c.165-.375.327-.752.456-1.123.075-.219.15-.433.211-.647l.538.156.14-.489c.037-.122.063-.247.086-.338l.037-.155-.545-.123c.034-.146.069-.294.1-.434q.059-.318.112-.613c.038-.2.058-.386.082-.566.011-.087.019-.164.029-.246l.558.061s.007-.063.019-.157.019-.222.029-.346l.037-.506Zm-1.255-4.31c.032.137.064.275.095.406q.056.3.107.581c.038.186.055.366.079.537.01.084.019.158.029.238l-3.517.392c-.008-.063-.015-.121-.023-.188-.019-.131-.031-.272-.061-.416s-.054-.3-.082-.45c-.024-.1-.049-.206-.073-.311Zm-.878-2.576c.156.355.309.71.432,1.061.071.207.144.411.2.615l-3.392.994c-.044-.161-.1-.32-.158-.483-.094-.269-.213-.542-.332-.814Zm-.823-1.63c.152.258.28.526.416.791L42.5,44.37c-.107-.208-.207-.419-.327-.621s-.249-.38-.377-.569l2.952-1.907C44.909,41.519,45.083,41.76,45.235,42.017Zm-2.209-2.868c.151.156.3.3.453.466.248.279.487.586.723.895l-2.829,2.078c-.186-.243-.375-.485-.571-.7-.113-.128-.228-.234-.343-.353Zm-2.062-1.807c.2.144.4.3.629.474.245.2.5.432.767.672l-2.417,2.53c-.207-.19-.414-.373-.608-.531-.17-.128-.326-.248-.476-.358Zm-2.223-1.366c.033.018.073.037.1.053l.268.133.193.109.16.09a1.3,1.3,0,0,0,.173.115c.106.057.254.152.444.27l.1.064-1.929,2.906-.093-.057c-.148-.093-.262-.168-.346-.21a.533.533,0,0,1-.117-.084l-.125-.07-.149-.085-.208-.1-.08-.039Zm-2.551-1c.332.1.661.2.952.307l.515.2c.08.032.15.064.224.1l-1.409,3.179c-.058-.026-.113-.051-.175-.076l-.4-.154c-.223-.08-.474-.157-.728-.233Zm-2.729-.555c.388.044.775.091,1.143.161.231.044.44.1.661.156l-.812,3.371c-.175-.041-.34-.088-.523-.123-.282-.054-.58-.089-.877-.124ZM31.6,34.3c.3,0,.607.026.91.043l-.2,3.457c-.239-.014-.477-.034-.719-.034s-.463.021-.694.035l-.2-3.457C31,34.331,31.3,34.3,31.6,34.3Zm-3,.284c.371-.071.763-.119,1.155-.164l.416,3.439c-.308.036-.615.075-.907.131-.169.032-.321.077-.483.115l-.821-3.369C28.171,34.69,28.372,34.631,28.6,34.588Zm-3.051.9.515-.2c.3-.109.635-.214.978-.316l1.029,3.315c-.271.081-.535.164-.771.25l-.4.155c-.056.023-.1.045-.155.069l-1.417-3.177C25.4,35.555,25.466,35.523,25.546,35.492Zm-2.439,1.239c.189-.12.337-.214.443-.271a1.192,1.192,0,0,1,.189-.089s.055-.032.16-.09l.193-.109.267-.134.107-.054,1.612,3.089c-.029.014-.072.033-.1.047l-.207.1-.15.084-.124.071a.565.565,0,0,0-.135.058c-.082.043-.2.118-.344.21l-.075.048-1.937-2.9ZM21.6,37.8c.225-.173.432-.332.631-.477l2.112,2.781c-.156.113-.316.238-.494.373-.189.154-.389.334-.59.519l-2.424-2.524C21.093,38.235,21.353,38,21.6,37.8Zm-1.885,1.8c.15-.169.3-.312.454-.469l2.573,2.377c-.119.124-.239.236-.357.369-.191.215-.373.452-.555.689L18.993,40.5C19.228,40.191,19.466,39.884,19.713,39.6ZM17.962,42.01c.152-.258.325-.5.491-.747l2.956,1.9c-.13.194-.267.384-.386.587s-.212.4-.316.6L17.547,42.8C17.683,42.536,17.809,42.268,17.962,42.01ZM16.709,44.7c.123-.351.276-.707.432-1.063L20.392,45c-.122.279-.242.559-.337.834-.054.156-.108.309-.151.463l-3.394-.985C16.567,45.113,16.639,44.91,16.709,44.7Zm-.722,3.038c.023-.169.041-.35.079-.535s.069-.381.105-.581c.031-.132.063-.271.095-.409L19.715,47l-.077.329-.081.451c-.031.144-.042.284-.06.416-.007.059-.013.111-.02.167l-3.518-.384C15.969,47.9,15.977,47.823,15.987,47.74Zm-.113,2.74c0-.037-.006-.08-.007-.115-.008-.352-.015-.576-.017-.655h.006s.006-.251.016-.691c0-.036.006-.08.008-.118l3.536.177c0,.033-.007.078-.008.109-.005.238-.01.4-.012.481H19.39s0,.2.014.539c0,.024,0,.061.006.087Zm.391,2.688c-.032-.137-.064-.276-.095-.406-.037-.2-.073-.4-.107-.582s-.055-.366-.079-.537c-.01-.084-.019-.158-.029-.237l3.517-.393c.008.063.015.122.023.188.019.132.031.273.061.416s.054.3.082.451c.024.1.049.206.073.31Zm.878,2.575c-.156-.354-.309-.71-.432-1.06-.071-.208-.144-.411-.2-.616l3.391-.993c.044.16.1.319.158.482.094.269.213.542.332.814Zm.823,1.63c-.152-.258-.28-.526-.416-.79l3.156-1.562c.107.208.207.418.327.62s.25.381.377.569l-2.952,1.908C18.292,57.871,18.118,57.631,17.966,57.373Zm2.21,2.868c-.152-.156-.3-.3-.453-.466-.249-.279-.487-.586-.724-.894L21.828,56.8c.186.244.375.485.571.7.113.127.228.234.343.352Zm2.061,1.808c-.2-.144-.4-.3-.629-.475-.245-.2-.5-.432-.767-.672l2.417-2.53c.207.19.414.374.608.531.17.129.326.249.476.359Zm2.224,1.365-.106-.053c-.1-.05-.19-.094-.268-.134l-.193-.108-.16-.09a1.3,1.3,0,0,0-.173-.115c-.106-.057-.254-.151-.444-.27l-.1-.064,1.929-2.906.093.058c.148.092.262.167.346.209a.539.539,0,0,1,.118.085l.124.069.149.085.208.1.08.04Zm2.575,1.006c-.342-.1-.678-.206-.977-.314l-.515-.2c-.08-.031-.149-.064-.224-.1l1.409-3.179c.058.026.113.052.176.077l.4.153c.23.083.489.163.753.241Zm2.714.549c-.391-.045-.781-.092-1.152-.163-.225-.042-.427-.1-.642-.151l.812-3.371c.168.039.327.085.5.118.285.055.585.091.886.126Zm1.851.117c-.3,0-.6-.025-.9-.042l.2-3.458c.238.014.474.034.714.034s.463-.021.694-.034l.205,3.456C32.2,65.06,31.9,65.086,31.6,65.086Zm1.266-4.938s-.162.025-.325.033l-.324.025.031.529c-.214.012-.427.032-.644.032s-.444-.019-.665-.031l.031-.541s-.163-.011-.324-.024c-.082-.005-.164-.01-.224-.019l-.1-.013-.065.542c-.279-.032-.558-.066-.823-.117-.164-.031-.311-.073-.467-.11l.127-.526-.1-.022c-.06-.011-.138-.032-.216-.055l-.312-.086-.16.521c-.244-.073-.484-.147-.7-.225-.13-.049-.254-.1-.371-.142-.058-.023-.109-.047-.163-.071l.223-.5-.3-.131c-.075-.03-.145-.07-.2-.1l-.09-.045-.254.489-.076-.036-.191-.1-.14-.079-.115-.065a.47.47,0,0,0-.109-.079c-.077-.04-.184-.109-.32-.194l-.087-.054.3-.457s-.139-.082-.269-.177l-.266-.184-.328.435c-.14-.1-.284-.214-.443-.333-.18-.147-.371-.317-.563-.494l.376-.394-.237-.219-.225-.23-.394.366c-.107-.11-.214-.209-.319-.328-.182-.2-.357-.428-.53-.653l.433-.319-.188-.259c-.046-.065-.1-.128-.128-.179l-.056-.084-.45.291c-.118-.176-.241-.346-.35-.529s-.2-.383-.3-.576l.492-.243-.047-.088c-.03-.052-.062-.125-.1-.2l-.134-.29-.507.215c-.112-.253-.221-.506-.31-.756-.051-.151-.105-.3-.146-.447l.539-.158-.09-.306c-.025-.075-.038-.154-.053-.212l-.023-.1-.548.125-.068-.288-.077-.418c-.029-.133-.039-.263-.056-.386-.007-.062-.013-.116-.021-.174l.555-.062-.013-.1c0-.059-.011-.139-.017-.218l-.026-.318-.557.029c0-.024-.005-.058-.006-.081-.006-.219-.01-.368-.012-.444h0s.005-.182.013-.5c0-.028,0-.07.007-.1l.553.028.024-.318c.007-.079.009-.16.018-.219l.013-.1-.551-.06c.007-.052.012-.1.018-.156.017-.122.027-.253.056-.387s.048-.273.075-.417c.023-.1.048-.2.072-.306l.541.123s.008-.039.022-.1.029-.136.054-.211l.088-.306-.53-.154c.04-.142.09-.284.14-.43.089-.255.2-.515.313-.773l.5.21.132-.291c.017-.035.033-.072.048-.106s.034-.064.048-.091l.047-.088-.483-.237c.1-.188.186-.378.294-.56s.237-.365.358-.546l.461.3.054-.084c.033-.05.082-.114.129-.179l.129-.179.059-.081-.443-.323c.169-.221.339-.441.516-.641.11-.123.221-.227.332-.342l.4.371.07-.072c.042-.043.1-.1.154-.158l.236-.221-.382-.4c.187-.172.373-.34.548-.483.169-.127.314-.238.461-.344l.332.436.264-.183c.066-.047.131-.094.185-.125l.085-.053-.308-.461.071-.044c.136-.086.242-.155.32-.2a.464.464,0,0,1,.125-.052l.115-.067c.038-.02.084-.047.138-.077l.193-.1c.025-.013.065-.031.092-.044l.252.483s.037-.017.091-.045.125-.065.2-.1c.147-.064.3-.131.3-.131l-.222-.5c.049-.022.093-.043.145-.063l.37-.144c.219-.079.465-.157.716-.232l.16.515.311-.088.114-.032.1-.023.1-.022-.126-.518c.15-.035.291-.077.448-.107.271-.052.556-.088.842-.121l.064.532s.162-.025.325-.032l.324-.026-.031-.529c.215-.012.428-.031.644-.032s.447.019.67.032l-.035.628s.162.011.323.024c.082,0,.164.01.224.019l.1.013.075-.628c.276.032.552.065.814.115.17.032.324.076.486.115l-.146.609.1.022c.06.011.138.032.216.055l.312.086.185-.6c.235.071.467.142.673.217l.371.142c.059.023.109.047.163.071l-.223.5.3.13c.075.03.145.07.2.1l.09.045.253-.488c.022.011.055.025.076.036l.192.1.139.078.115.065a.437.437,0,0,0,.109.079c.077.04.184.109.32.2l.087.054-.3.456s.139.082.269.178l.266.183.328-.434c.14.1.284.213.443.333.18.146.371.317.563.493l-.376.394.237.219.225.23.394-.366c.107.11.214.209.319.328.182.2.357.428.53.654l-.433.318.188.259c.046.065.1.128.129.18l.055.083.45-.29c.118.175.241.346.35.529s.2.382.3.575L41.227,45l.046.089c.03.051.062.124.1.2l.134.289.508-.214c.111.252.22.506.309.756.051.15.1.3.146.447l-.538.158s.044.153.09.3c.024.075.037.154.052.212s.023.1.023.1l.548-.126.068.288.077.418c.029.134.039.264.056.387.007.061.013.116.021.174l-.555.062.013.1c.005.059.011.139.017.218l.026.318.557-.029c0,.024.005.059.006.081.006.22.01.369.012.444h0s-.005.182-.013.5c0,.028,0,.07-.007.1l-.553-.027-.024.317c-.007.08-.009.161-.018.219l-.013.1.551.06c-.007.052-.012.1-.018.155-.017.122-.027.253-.056.386s-.048.274-.075.419c-.023.1-.048.2-.072.3l-.541-.123s-.008.04-.022.1-.029.136-.053.212l-.089.3.53.154c-.04.143-.09.285-.139.43-.089.256-.2.515-.314.774l-.5-.21s-.066.144-.132.29c-.017.036-.033.072-.048.106s-.034.065-.049.091l-.046.089.483.237c-.1.187-.186.377-.294.56s-.237.365-.358.545l-.461-.3-.054.084c-.033.05-.082.114-.129.18s-.093.129-.129.179l-.059.08.443.323c-.169.221-.339.441-.516.641-.11.124-.221.228-.332.342l-.4-.371-.069.072c-.043.043-.1.1-.155.158l-.236.221.382.4c-.187.172-.374.34-.549.483-.168.127-.313.238-.46.344l-.332-.437-.264.185a2.214,2.214,0,0,1-.185.124l-.085.054.308.46-.071.045c-.136.085-.242.154-.32.194l-.115.065a.5.5,0,0,0-.125.054l-.138.077-.193.1c-.025.012-.065.03-.092.044l-.252-.484-.091.045c-.053.028-.125.066-.2.1l-.295.131.222.5c-.048.022-.093.043-.145.064l-.37.143c-.219.08-.464.157-.715.232l-.16-.514-.312.087-.114.032-.1.023-.1.022.126.518c-.15.036-.291.077-.448.107-.27.052-.556.088-.842.122ZM34.6,64.8c-.371.071-.763.119-1.155.165l-.416-3.44c.308-.036.616-.075.907-.131.169-.032.321-.076.483-.115l.821,3.369C35.03,64.7,34.829,64.759,34.6,64.8Zm3.052-.9-.516.2c-.3.109-.635.214-.978.316L35.134,61.1c.27-.081.535-.164.77-.25l.4-.155c.056-.022.1-.045.156-.068L37.876,63.8C37.8,63.836,37.735,63.868,37.656,63.9Zm2.438-1.239c-.189.119-.337.214-.443.271a1.236,1.236,0,0,1-.189.088l-.16.091-.193.109-.266.134-.108.054-1.612-3.089.1-.048.208-.1c.058-.033.108-.062.149-.084l.124-.071a.53.53,0,0,0,.135-.057c.082-.044.2-.118.344-.211l.075-.047,1.937,2.9Zm1.51-1.073c-.226.174-.432.333-.632.478L38.86,59.283c.156-.113.317-.238.494-.373.189-.154.389-.334.59-.519l2.424,2.525C42.108,61.155,41.849,61.388,41.6,61.587Zm1.884-1.8c-.15.17-.3.312-.454.469l-2.573-2.377c.119-.123.239-.235.357-.368.191-.215.374-.452.555-.69l2.835,2.072C43.973,59.2,43.735,59.506,43.488,59.785Zm1.751-2.4c-.152.258-.325.5-.491.747l-2.956-1.9c.131-.2.267-.385.387-.588s.212-.4.315-.6l3.16,1.554C45.518,56.855,45.392,57.122,45.239,57.38Zm1.253-2.691c-.123.35-.276.707-.432,1.062l-3.251-1.365c.122-.278.242-.558.338-.834.053-.156.107-.309.15-.463l3.394.985C46.634,54.278,46.563,54.48,46.492,54.689Zm.722-3.039c-.024.17-.041.351-.079.536s-.069.38-.1.58c-.031.132-.063.272-.095.409l-3.449-.781c.026-.112.052-.224.077-.33l.081-.451c.031-.143.042-.283.06-.416.007-.059.012-.111.02-.167l3.518.385C47.232,51.493,47.224,51.567,47.214,51.65Zm.131-1.97s-.006.252-.016.691c0,.036-.005.08-.008.118l-3.536-.177c0-.032.007-.078.008-.108.006-.239.01-.4.012-.481h.006s-.005-.2-.014-.539c0-.025,0-.062-.006-.088l3.536-.186c0,.037.006.081.007.116.008.351.015.575.017.654Z"/><circle class="cls-2" cx="32.218" cy="43.38" r="2.361"/><path d="M28.277,46.786H33a1.289,1.289,0,0,1,1.263,1.545l-1.488,7.324s-.213.985.346,1.251,1.456-.293,1.456-.293l.136-.1a.5.5,0,0,1,.662.044h0a.5.5,0,0,1,.022.689,4.711,4.711,0,0,1-4.006,1.527,4.19,4.19,0,0,1-1.743-.488,2.6,2.6,0,0,1-1.241-2.724l1.216-6.943a.575.575,0,0,0-.567-.675h-.781a.577.577,0,0,1-.548-.756h0A.576.576,0,0,1,28.277,46.786Z"/><path d="M40.772,16.191c-.03-.715-.069-1.842-.069-2.878A33.135,33.135,0,0,0,39.69,6.842,7.764,7.764,0,0,0,24.585,5.4l-.024,0,0,.082a7.733,7.733,0,0,0-.3,1.451,31.134,31.134,0,0,0-1.007,6.333c0,1.352-.065,2.848-.091,3.388a9.378,9.378,0,0,0-2,5.934v7.947h1.4v-8a7.4,7.4,0,0,1,4.107-6.866,5.063,5.063,0,0,0,5.18,3.64c.115,0,.216-.009.323-.015s.208.015.323.015a5.063,5.063,0,0,0,5.18-3.641A7.319,7.319,0,0,1,41.78,22.59v7.947h1.4l0-7.895A9.288,9.288,0,0,0,40.772,16.191ZM25.337,7.318A4.6,4.6,0,0,1,28.265,4.6c.754,1.208,3.386,2.07,4.993,2.136,0,0,3.849.085,5.141-.764a6.646,6.646,0,0,1,.252,1.8c0,3.607-2.976,7.964-6.672,7.964s-6.665-4.357-6.665-7.964C25.314,7.616,25.327,7.468,25.337,7.318Zm6.931,10.587v-.011l-.1.007-.092-.007v.011c-.768.033-3.3-.053-4.016-2.474a6.481,6.481,0,0,0,3.919,1.4,6.6,6.6,0,0,0,4.182-1.6l.175.022C35.7,17.852,33.055,17.941,32.268,17.905Z"/></svg>
