<svg width="1em" height="1em" fill="currentColor" xmlns="http://www.w3.org/2000/svg" viewBox="0 0 210.811 109.6"><path d="M48.2,83.5A35.3,35.3,0,1,1,83.5,48.2,35.359,35.359,0,0,1,48.2,83.5Zm0-67.8A32.5,32.5,0,1,0,80.7,48.2,32.563,32.563,0,0,0,48.2,15.7Z"/><path d="M82.2,89.7a7.5,7.5,0,1,1,7.5-7.5A7.555,7.555,0,0,1,82.2,89.7Zm0-12.2a4.7,4.7,0,1,0,4.7,4.7A4.695,4.695,0,0,0,82.2,77.5Z"/><path d="M48.2,78.5A30.3,30.3,0,1,1,78.5,48.2,30.344,30.344,0,0,1,48.2,78.5Zm0-57.8A27.5,27.5,0,1,0,75.7,48.2,27.484,27.484,0,0,0,48.2,20.7Z"/><path d="M46.5,14.3a27.01,27.01,0,0,0-5.7.8L38,2.5a40.62,40.62,0,0,1,7.8-1Z"/><path d="M35.4,16.7a30.569,30.569,0,0,0-5.1,2.6L23.5,8.4a42.986,42.986,0,0,1,7.1-3.6Z"/><path d="M25.7,22.8a39.71,39.71,0,0,0-4,4.2l-10-8.1c1.1-1.3,2.2-2.6,3.4-3.8.7-.7,1.4-1.3,2.1-2Z"/><path d="M18.5,31.7a48.961,48.961,0,0,0-2.4,5.2L4,32.6a58.3,58.3,0,0,1,3.2-7.2Z"/><path d="M14.7,42.4a36.573,36.573,0,0,0-.5,5.7H1.4a41.458,41.458,0,0,1,.7-7.9Z"/><path d="M209.5,42.4V36.7h-10V33.1h-5.7v3.6h-8.2V33.1h-5.7v3.6h-8.2V33.1H166v3.6h-8.2V33.1h-5.7v3.6h-8.2V33.1h-5.7v3.6H130V33.1h-5.7v3.6h-8.2V33.1h-5.7v3.6h-9.8v5.7h9.9l.1,16.3h-10v5.7h10V68h5.7V64.4h8.2V68h5.7V64.4h8.2V68h5.7V64.4h8.2V68H158V64.4h8.2V68h5.7V64.4h8.2V68h5.7V64.4H194V68h5.7V64.4h9.9V58.7h-9.9l-.1-16.3ZM116.3,58.7l-.1-16.3h8.2l.1,16.3Zm13.9,0-.1-16.3h8.2l.1,16.3Zm13.8,0-.1-16.3h8.2l.1,16.3Zm13.9,0-.1-16.3H166l.1,16.3Zm13.9,0-.1-16.3h8.2l.1,16.3Zm22.1,0h-8.2l-.1-16.3h8.2Z"/><path d="M209.5,75.7H101.8V72.4a1.367,1.367,0,0,0-1.4-1.4h-4V48.2A48.859,48.859,0,0,0,92,28h0l3.7-3.7a1.374,1.374,0,0,0,.4-1.2L95,16.9a1.491,1.491,0,0,0-1.3-1.2,13.564,13.564,0,0,1-8.3-4.2,13.661,13.661,0,0,1-4.1-8.3,1.38,1.38,0,0,0-1.2-1.3L73.9.8a1.286,1.286,0,0,0-1.2.4L69.1,4.8A47.515,47.515,0,0,0,48.2,0a48.2,48.2,0,0,0,0,96.4h52.2a1.367,1.367,0,0,0,1.4-1.4V92.7h96.5v3.6a1.5,1.5,0,0,0,1,1.4c2.1.6,4.2,4.7,4.2,10.5a1.367,1.367,0,0,0,1.4,1.4h4.5a1.367,1.367,0,0,0,1.4-1.4v-31A1.272,1.272,0,0,0,209.5,75.7ZM71.7,6.1l2.5-2.4,4.4.8a16.624,16.624,0,0,0,4.8,9,17.5,17.5,0,0,0,9,4.9l.8,4.4-2.6,2.5A48.469,48.469,0,0,0,71.7,6.1ZM83.4,93.5H48.2A45.4,45.4,0,1,1,93.6,48.1V83.3A10.243,10.243,0,0,1,83.4,93.5Zm15.6,0H91.5a12.9,12.9,0,0,0,4.9-10.2V73.7H99Zm99.3-3.7H101.9V78.4h.5v6.8a1.3,1.3,0,0,0,2.6,0V78.4h2.3v2.4a1.4,1.4,0,0,0,2.8,0V78.4h2.3v6.8a1.3,1.3,0,0,0,2.6,0V78.4h2.3v2.4a1.4,1.4,0,1,0,2.8,0V78.4h2.3v6.8a1.3,1.3,0,0,0,2.6,0V78.4h2.3v2.4a1.4,1.4,0,0,0,2.8,0V78.4h2.3v6.8a1.3,1.3,0,0,0,2.6,0V78.4h2.3v2.4a1.4,1.4,0,1,0,2.8,0V78.4h2.3v6.8a1.3,1.3,0,0,0,2.6,0V78.4h2.3v2.4a1.4,1.4,0,1,0,2.8,0V78.4h2.3v6.8a1.3,1.3,0,0,0,2.6,0V78.4h2.3v2.4a1.4,1.4,0,1,0,2.8,0V78.4h2.3v6.8a1.3,1.3,0,0,0,2.6,0V78.4h2.3v2.4a1.4,1.4,0,1,0,2.8,0V78.4h2.3v6.8a1.3,1.3,0,0,0,2.6,0V78.4h2.3v2.4a1.4,1.4,0,0,0,2.8,0V78.4h2.3v6.8a1.3,1.3,0,0,0,2.6,0V78.4h2.3v2.4a1.4,1.4,0,0,0,2.8,0V78.4h2.3v6.8a1.3,1.3,0,0,0,2.6,0V78.4h3.2V89.8Zm9.8,16.9h-1.7c-.3-5.4-2.3-9.8-5.2-11.3V78.5h6.9Z"/></svg>
