<svg xmlns="http://www.w3.org/2000/svg" viewBox="0 0 100.8 100.8"><path d="M701.33,386.41c-3.31-3.58-9.58-5.4-18.64-5.4s-15.37,1.82-18.67,5.41a7.75,7.75,0,0,0-2.26,5.35v32.12a4.35,4.35,0,0,0,4.35,4.35h2.3l-3.26,4.14a1.26,1.26,0,0,0,2,1.56l1-1.28h29.1l1,1.28a1.26,1.26,0,0,0,2-1.56L697,428.24h1a6.21,6.21,0,0,0,4.13-1.48,5,5,0,0,0,1.47-3.71v-31.2A7.75,7.75,0,0,0,701.33,386.41Zm-37.05,9.71h36.81v13.21H664.28Zm1.67-8.07c1.95-2.06,6.43-4.52,16.74-4.52S697.45,386,699.41,388a5.26,5.26,0,0,1,1.68,3.73v1.83H664.28v-1.92A5.29,5.29,0,0,1,666,388.05Zm29.3,42.09H670.12l1.5-1.9h22.13Zm5.84-7.08a2.44,2.44,0,0,1-.66,1.87,3.87,3.87,0,0,1-2.6.79H666.11a1.84,1.84,0,0,1-1.83-1.83v-12h36.81Z" transform="translate(-632.47 -333.9)"/><path d="M673.44,414.75a4.19,4.19,0,1,0,4.18,4.19A4.2,4.2,0,0,0,673.44,414.75Zm0,5.85a1.67,1.67,0,1,1,1.66-1.66A1.67,1.67,0,0,1,673.44,420.6Z" transform="translate(-632.47 -333.9)"/><path d="M691.94,414.75a4.19,4.19,0,1,0,4.19,4.19A4.2,4.2,0,0,0,691.94,414.75Zm0,5.85a1.67,1.67,0,1,1,1.66-1.66A1.67,1.67,0,0,1,691.94,420.6Z" transform="translate(-632.47 -333.9)"/><path d="M677.76,390.1h9.85a1.26,1.26,0,1,0,0-2.52h-9.85a1.26,1.26,0,1,0,0,2.52Z" transform="translate(-632.47 -333.9)"/><path d="M732,333.9H633.73a1.26,1.26,0,0,0,0,2.52h4.4v11.36h-4.4a1.26,1.26,0,0,0-1.26,1.26v7a1.26,1.26,0,0,0,1.26,1.26h4.4v76.11a1.26,1.26,0,0,0,1.26,1.26h15.16a1.25,1.25,0,0,0,1.26-1.26V398.86a26.88,26.88,0,1,1,53.75,0v34.58a1.26,1.26,0,0,0,1.26,1.26h15.32a1.25,1.25,0,0,0,1.26-1.26V357.33h4.4a1.25,1.25,0,0,0,1.26-1.26v-7a1.25,1.25,0,0,0-1.26-1.26h-4.4V336.42H732a1.26,1.26,0,0,0,0-2.52Zm-17,13.88V336.42h3.67v11.36Zm-68.16,0V336.42h3.67v11.36ZM653,336.42h3.68v11.36H653Zm6.2,0h3.68v11.36h-3.68Zm6.2,0h3.67v11.36h-3.67Zm6.19,0h3.68v11.36h-3.68Zm6.2,0h3.68v11.36h-3.68Zm6.2,0h3.67v11.36H684Zm6.19,0h3.68v11.36h-3.68Zm6.2,0h3.68v11.36h-3.68Zm6.2,0h3.67v11.36h-3.67Zm6.19,0h3.68v11.36h-3.68Zm-68.16,0h3.68v11.36h-3.68Zm13.28,46,3.22,1.91a29.44,29.44,0,0,0-2.91,7.12h-3.88A33,33,0,0,1,653.93,382.42ZM649.49,399a32.93,32.93,0,0,1,.38-5h3.84a29.16,29.16,0,0,0-.42,4.89v2.74h-3.8Zm3.8,5.16v8.59h-3.8v-8.59Zm-3.8,11.11h3.8v8.59h-3.8Zm0,16.95v-5.84h3.8v5.84Zm9-50-3.22-1.91a33.32,33.32,0,0,1,7.19-7.61l2.65,2.65A29.58,29.58,0,0,0,658.49,382.19Zm25.14-12.7v-3.7A32.92,32.92,0,0,1,701,371.3L698.32,374A29.2,29.2,0,0,0,683.63,369.49Zm-2.52,0a29.09,29.09,0,0,0-13.88,4.37l-2.69-2.69a33,33,0,0,1,16.57-5.38Zm19.32,5.93,2.64-2.65a33.51,33.51,0,0,1,7,7.45l-3.23,1.91A29.43,29.43,0,0,0,700.43,375.44Zm7.77,8.84,3.22-1.91a33.06,33.06,0,0,1,3.6,9.08h-3.88A29.88,29.88,0,0,0,708.2,384.28Zm3.88,19.84h3.8v8.59h-3.8Zm3.8-5.16v2.64h-3.8v-2.74a29.16,29.16,0,0,0-.41-4.89h3.84A34.28,34.28,0,0,1,715.88,399Zm-3.8,16.27h3.8v8.59h-3.8Zm0,11.11h3.8v5.84h-3.8Zm12.8,5.84H718.4V399a35.64,35.64,0,0,0-.55-6.23v0a1.44,1.44,0,0,0-.07-.36,35.8,35.8,0,0,0-13.88-22.1l0,0a1.22,1.22,0,0,0-.41-.27A35.69,35.69,0,0,0,647,399v33.22h-6.32V357.33h84.23Zm5.66-77.37H635v-4.52h95.55Zm-5.66-7H721.2V336.42h3.68Z" transform="translate(-632.47 -333.9)"/></svg>
