<svg width="1em" height="1em" fill="currentColor" xmlns="http://www.w3.org/2000/svg" viewBox="0 0 27.472 98.71"><path d="M27.472,8.207v-5.5H24.724V0H21.978V2.712H5.493V0H2.747V2.712H0v5.5H2.747V13.7H0v5.5H2.747v5.495H0v5.5H2.747v5.493H0v5.495H2.747v5.5H0v5.495H2.747v5.492H0v5.494H2.747v5.495H0v5.5H2.747v5.5H0V85.13H2.747v5.5H0v5.5H2.747v2.59H5.493V96.12H21.978v2.59h2.746V96.12h2.748v-5.5H24.724v-5.5h2.748V79.637H24.724v-5.5h2.748v-5.5H24.724V63.151h2.748V57.657H24.724V52.165h2.748V46.67H24.724v-5.5h2.748V35.679H24.724V30.186h2.748v-5.5H24.724V19.2h2.748V13.7H24.724V8.207ZM21.978,90.625H5.493v-5.5H21.978Zm0-10.988H5.493v-5.5H21.978Zm0-10.991H5.493V63.151H21.978Zm0-10.989H5.493V52.165H21.978Zm0-10.987H5.493v-5.5H21.978Zm0-10.991H5.493V30.186H21.978Zm0-10.988H5.493V19.2H21.978Zm0-10.99H5.493V8.207H21.978Z"/></svg>
