<?xml version="1.0" encoding="utf-8"?>
<!-- Generator: Adobe Illustrator 26.5.0, SVG Export Plug-In . SVG Version: 6.00 Build 0)  -->
<svg version="1.1" id="Layer_1" xmlns="http://www.w3.org/2000/svg" xmlns:xlink="http://www.w3.org/1999/xlink" x="0px" y="0px"
	 viewBox="0 0 787.2 295.9" style="enable-background:new 0 0 787.2 295.9;" xml:space="preserve">
<style type="text/css">
	.st0{fill:#004D71;}
	.st1{fill:url(#SVGID_1_);}
	.st2{fill:url(#SVGID_00000021086729083534529760000006212153536049252016_);}
	.st3{fill:url(#SVGID_00000087405446368489523590000005432138739830615690_);}
	.st4{fill:url(#SVGID_00000137120635027929527300000013254171734580406712_);}
	.st5{fill:url(#SVGID_00000173123047965309837280000011459378518830126746_);}
	.st6{fill:url(#SVGID_00000062877085840923425060000008982937446139427969_);}
</style>
<path class="st0" d="M29,0h27.6l18.1,62.5H75L88,0h21.5L89.9,90.1H62.4L43.9,27.8h-0.3L30.8,90.1H9.3L29,0L29,0z M160.6,88.1
	c-7.7,2.3-15.9,3.5-22.2,3.5c-21.2,0-32.7-13.1-32.6-29.1c0.1-14.8,10-37.5,38.3-37.5c16.7,0,29.3,8.4,29.2,27.7
	c0,2.6-0.8,8.2-1.6,12h-45.1c0.2,6.8,3.6,12.2,17,12.2c5.9,0,13.8-1.5,19.9-4.4L160.6,88.1L160.6,88.1z M154.9,52.3
	c0-6.8-2.6-12.6-10.7-12.6c-9.5,0-14.7,6.5-16.3,12.6H154.9z M181.3,26.5h10l4.5-19.9l21.9-0.1l-4.5,19.9h17.7l-2.8,15.4h-18.6
	l-3.9,17.7c-1,4.8-1.9,7.9-1.9,11c0,4.3,5.3,6.6,9.7,6.6c2.3,0,4.8-1,7.1-1.8l-2.5,15c-4.6,0.7-9.3,1.2-13.7,1.2
	c-11.2,0-22.7-5.5-22.6-18.8c0-3.2,0.5-6.3,2-13.1l3.9-17.8h-9.2L181.3,26.5L181.3,26.5z M316.6,90.1h-25.5l-0.6-46h-0.3l-22.1,46
	h-25.6l-5.8-63.6h21.9l0.4,46h0.2l21.1-46h26.6l0.3,46h0.2l20.6-46h22.2L316.6,90.1L316.6,90.1z M379.1,91.6
	c-23.6,0-33-13.1-32.9-29.1c0.1-22.3,16.3-37.5,41.2-37.5c21.6,0,33,12.5,32.9,28.5C420.2,80,402.9,91.6,379.1,91.6z M386.2,40.4
	c-10.6,0-17.3,11.5-17.3,21.6c-0.1,8.5,4.4,14.3,11.9,14.2c10.3,0,16.8-8.5,16.8-22.9C397.7,46.7,394.8,40.4,386.2,40.4L386.2,40.4z
	 M455.9,26.5l-2.5,13.1h0.2c3.6-7.4,10.7-14.5,19.7-14.5c2.9,0,6.4,0.4,9.3,1.6l-5.1,19.4c-2.8-2.2-6-2.7-10.1-2.7
	c-9.3,0-14.8,8.1-16.5,17.5l-6.4,29.3h-22l10.1-47c1.1-5.5,2.1-10.9,2.8-16.6L455.9,26.5L455.9,26.5z M497.9,0h22.2l-11.7,53.2h0.2
	l21.3-26.7h25l-26.4,30.6l16.3,33h-24.4l-12.9-31.5h-0.3l-6.9,31.5H478L497.9,0L497.9,0z M574.4,0h27.4c17.2,0.1,37.8,0.6,37.7,23
	c-0.1,15.3-11.1,24-24.9,25.7V49c7.1,0.6,9.4,10.2,10.6,16l6.3,25.2h-22.6l-4.5-23c-2.3-11.8-5.9-12.7-16.7-12.7h-2.6l-7.4,35.6H555
	L574.4,0z M588.7,37.4h9.5c10.5,0,18.6-2.6,18.7-11.1c0-6.5-3.8-9.2-11.1-9.3h-12.9L588.7,37.4z M681.3,81.2l-0.2-0.2v0.2
	c-4.7,7.3-12.9,10.4-21.4,10.4c-13.7,0-21.2-6.1-21.1-18.4c0.1-15.6,15.7-23.3,35.2-23.3c4.4,0,8.8,0.4,11.8,0.6
	c0.2-0.9,0.2-1.7,0.3-2.6c0-4.5-4.5-8.2-11.7-8.2c-7.9,0-13.3,1.2-20.7,5l2.3-16c6.5-2.2,13.4-3.7,23.3-3.7c15.1,0,27.6,6,27.5,21.6
	c0,10-5.7,24.3-8.3,43.5h-18L681.3,81.2L681.3,81.2z M666.7,77c9.4,0,15-6.5,16.7-15c-1.8-0.4-4.5-0.4-5.9-0.4
	c-10.5-0.4-18.2,3.4-18.2,9C659.3,73.5,662.1,77,666.7,77z M723.5,26.5h22.2l-13.5,63.6H710L723.5,26.5z M729.3,0h22.2L748,16.1
	h-22.2L729.3,0z M765,0h22.2L768,90.1h-22.2L765,0z"/>
<linearGradient id="SVGID_1_" gradientUnits="userSpaceOnUse" x1="555.032" y1="312.1844" x2="388.068" y2="22.9953" gradientTransform="matrix(1 0 0 -1 0 295.8898)">
	<stop  offset="2.200000e-02" style="stop-color:#F7AC45"/>
	<stop  offset="0.101" style="stop-color:#F39435"/>
	<stop  offset="0.179" style="stop-color:#F0842A"/>
	<stop  offset="0.238" style="stop-color:#F07E26"/>
</linearGradient>
<path class="st1" d="M764.6,104.7l-423.5,90.1l-162.6-42.9L764.6,104.7z"/>
<linearGradient id="SVGID_00000054987747799214027820000013150370842887549848_" gradientUnits="userSpaceOnUse" x1="477.8745" y1="356.7303" x2="286.7255" y2="25.6494" gradientTransform="matrix(1 0 0 -1 0 295.8898)">
	<stop  offset="2.100000e-02" style="stop-color:#F1949F"/>
	<stop  offset="6.900000e-02" style="stop-color:#EB6A79"/>
	<stop  offset="0.12" style="stop-color:#E64356"/>
	<stop  offset="0.167" style="stop-color:#E3283D"/>
	<stop  offset="0.208" style="stop-color:#E1172E"/>
	<stop  offset="0.239" style="stop-color:#E01129"/>
</linearGradient>
<path style="fill:url(#SVGID_00000054987747799214027820000013150370842887549848_);" d="M0,104.7h764.6l-586.1,47.2L0,104.7z"/>
<linearGradient id="SVGID_00000024708767990234444740000005088969609031774399_" gradientUnits="userSpaceOnUse" x1="660.1902" y1="251.4706" x2="526.2097" y2="19.409" gradientTransform="matrix(1 0 0 -1 0 295.8898)">
	<stop  offset="2.100000e-02" style="stop-color:#FFE98C"/>
	<stop  offset="2.300000e-02" style="stop-color:#FFE88A"/>
	<stop  offset="7.500000e-02" style="stop-color:#FFDF59"/>
	<stop  offset="0.123" style="stop-color:#FFD832"/>
	<stop  offset="0.168" style="stop-color:#FFD217"/>
	<stop  offset="0.207" style="stop-color:#FFCF06"/>
	<stop  offset="0.237" style="stop-color:#FFCE00"/>
</linearGradient>
<path style="fill:url(#SVGID_00000024708767990234444740000005088969609031774399_);" d="M421.8,216.2l73.3,19.3l269.5-130.8
	L421.8,216.2z"/>
<linearGradient id="SVGID_00000000189023383984194560000001718995079956998562_" gradientUnits="userSpaceOnUse" x1="691.8563" y1="233.1883" x2="567.8438" y2="18.3914" gradientTransform="matrix(1 0 0 -1 0 295.8898)">
	<stop  offset="1.900000e-02" style="stop-color:#8CD1A7"/>
	<stop  offset="0.238" style="stop-color:#00983B"/>
</linearGradient>
<path style="fill:url(#SVGID_00000000189023383984194560000001718995079956998562_);" d="M495.1,235.5l65.7,17.3l203.8-148.1
	L495.1,235.5z"/>
<linearGradient id="SVGID_00000155868475003020212350000004237388914995225994_" gradientUnits="userSpaceOnUse" x1="790.7337" y1="176.1015" x2="690.8052" y2="3.0213" gradientTransform="matrix(1 0 0 -1 0 295.8898)">
	<stop  offset="2.800000e-02" style="stop-color:#CF98C6"/>
	<stop  offset="6.900000e-02" style="stop-color:#BF74B2"/>
	<stop  offset="0.119" style="stop-color:#AD4E9D"/>
	<stop  offset="0.166" style="stop-color:#A0328E"/>
	<stop  offset="0.207" style="stop-color:#982184"/>
	<stop  offset="0.238" style="stop-color:#951B81"/>
</linearGradient>
<path style="fill:url(#SVGID_00000155868475003020212350000004237388914995225994_);" d="M672.5,282.3l51.4,13.6l40.7-191.2
	L672.5,282.3z"/>
<linearGradient id="SVGID_00000183939654701936638010000001806716410153973391_" gradientUnits="userSpaceOnUse" x1="748.7756" y1="200.326" x2="641.4519" y2="14.4345" gradientTransform="matrix(1 0 0 -1 0 295.8898)">
	<stop  offset="2.200000e-02" style="stop-color:#8CD1E1"/>
	<stop  offset="0.238" style="stop-color:#0098BD"/>
</linearGradient>
<path style="fill:url(#SVGID_00000183939654701936638010000001806716410153973391_);" d="M617.8,267.8l54.7,14.5l92.1-177.6
	L617.8,267.8z"/>
</svg>
