<svg id="Layer_1" data-name="Layer 1" xmlns="http://www.w3.org/2000/svg" viewBox="0 0 834.52 514.46">
  <defs>
    <clipPath id="clip-path" transform="translate(-258.07 -126.36)">
      <path fill="none" d="M258.07 126.36h849.66v514.46H258.07z"/>
    </clipPath>
    <style>
      .cls-2{clip-path:url(#clip-path)}.cls-3{fill:#0eb5c9}.cls-4{fill:#fff}
    </style>
  </defs>
  <g class="cls-2">
    <path class="cls-3" d="M515.3 126.36c-142.06 0-257.23 115.16-257.23 257.23S373.24 640.82 515.3 640.82s257.23-115.17 257.23-257.23S657.36 126.36 515.3 126.36M513.15 441a59.33 59.33 0 1159.32-59.33A59.33 59.33 0 01513.15 441" transform="translate(-258.07 -126.36)"/>
  </g>
  <path class="cls-3" d="M803.71 453.23a7.55 7.55 0 01-7.6 7.65 7.56 7.56 0 01-7.61-7.65v-25.44h4.7v25a3.73 3.73 0 00.79 2.54 2.71 2.71 0 002.12.87q2.89 0 2.9-3.41v-25h4.7zM809.94 427.79h4.7v15l7-15h4.72L819.91 441l7.58 19.65h-5L817.18 446l-2.54 4.75v9.81h-4.7z" transform="translate(-258.07 -126.36)"/>
  <path class="cls-4" d="M858.92 437.24h-4.7v-1.06a4.89 4.89 0 00-.77-2.88 3 3 0 00-2.54-1.09 2.67 2.67 0 00-2.47 1.18 5.9 5.9 0 00-.71 3.06 6.42 6.42 0 00.46 2.86 4.18 4.18 0 002.21 1.52l3.59 1.43a6.68 6.68 0 014 3.14 13.72 13.72 0 011 5.85 11.77 11.77 0 01-1.99 7.05c-1.26 1.72-3.33 2.58-6.23 2.58a7.93 7.93 0 01-5.7-2.21 7.36 7.36 0 01-2.31-5.58v-1.75h4.7v1.47a3.59 3.59 0 00.81 2.4 3 3 0 002.5 1c1.48 0 2.42-.38 2.82-1.13a8.72 8.72 0 00.59-3.76 7.93 7.93 0 00-.46-3.43 4.49 4.49 0 00-2.25-1.54l-3.36-1.38a7.8 7.8 0 01-4-3.18 10.9 10.9 0 01-1.1-5.26 9.78 9.78 0 012.08-6.47 7.28 7.28 0 016-2.52 7.49 7.49 0 015.59 2.29 7.15 7.15 0 012.23 5.13zM869.48 427.79h3.92l7.33 32.81H876l-1.38-7.05h-6.36l-1.38 7.05h-4.72zm2 9.52l-2.4 11.82h4.71zM886.72 446.73l-6.46-18.94h5l3.78 13 3.89-13h5l-6.45 18.94v13.87h-4.7zM916.34 437.24h-4.7v-1.06a4.89 4.89 0 00-.77-2.88 3 3 0 00-2.54-1.09 2.67 2.67 0 00-2.47 1.18 5.9 5.9 0 00-.71 3.06 6.42 6.42 0 00.46 2.86 4.18 4.18 0 002.22 1.52l3.58 1.43a6.68 6.68 0 014 3.14 13.72 13.72 0 011 5.85 11.7 11.7 0 01-1.88 7.05c-1.26 1.72-3.33 2.58-6.23 2.58a7.93 7.93 0 01-5.7-2.21 7.36 7.36 0 01-2.31-5.58v-1.75h4.7v1.47a3.59 3.59 0 00.81 2.4 3 3 0 002.5 1c1.48 0 2.42-.38 2.82-1.13a8.72 8.72 0 00.59-3.76 7.93 7.93 0 00-.46-3.43 4.49 4.49 0 00-2.25-1.54l-3.36-1.38a7.8 7.8 0 01-4-3.18 10.9 10.9 0 01-1.1-5.26 9.78 9.78 0 012.08-6.47 7.3 7.3 0 016-2.52 7.49 7.49 0 015.59 2.29 7.15 7.15 0 012.23 5.13zM931.93 427.79h4.54l7.11 19.76.06-19.76h4.7v32.81h-4.42l-7.19-19.72-.09 19.72h-4.71zM1003.46 427.79h4.54l6 17.38 6.09-17.38h4.56v32.81H1020v-20l-4.74 14.11h-2.35l-4.61-14.11-.08 20h-4.7zM1031.56 435.54a7.53 7.53 0 012.38-5.91 8.28 8.28 0 0111 0 7.53 7.53 0 012.35 5.93v17.32a7.54 7.54 0 01-2.37 5.9 8.28 8.28 0 01-11 0 7.5 7.5 0 01-2.36-5.92zm4.71 17.32a3.24 3.24 0 00.9 2.47 3.48 3.48 0 004.56 0 3.24 3.24 0 00.9-2.47v-17.32a3.24 3.24 0 00-.9-2.47 3.45 3.45 0 00-4.56 0 3.24 3.24 0 00-.9 2.47zM1054.25 427.79h7.55q8.29 0 8.3 9.63a11.87 11.87 0 01-.92 5 7.23 7.23 0 01-3.14 3.23l5.08 15h-5l-4.4-14H1059v14h-4.7zm4.7 14.66h2.67c1.5 0 2.51-.41 3-1.22a7.51 7.51 0 00.77-3.9 7.29 7.29 0 00-.79-3.91c-.52-.81-1.59-1.21-3.22-1.21H1059zM1076.65 427.79h14v4.42h-9.3v9.68h8.11v4.43h-8.11v9.58h9.3v4.7h-14z" transform="translate(-258.07 -126.36)"/>
  <g class="cls-2">
    <path class="cls-3" d="M973 425.11a19.17 19.17 0 1019.17 19.16A19.16 19.16 0 00973 425.11m-.16 23.44a4.42 4.42 0 114.43-4.43 4.42 4.42 0 01-4.43 4.43" transform="translate(-258.07 -126.36)"/>
  </g>
  <path class="cls-4" d="M841.25 346.92h-12.86V344a13.11 13.11 0 00-2.14-7.87c-1.42-2-3.73-3-6.92-3s-5.45 1.07-6.75 3.22a16 16 0 00-2 8.38q0 5.55 1.26 7.81c.84 1.51 2.85 2.89 6.05 4.16l9.82 3.9c5.39 2 9 4.87 10.78 8.57s2.71 9 2.71 16q0 12.22-5.17 19.28t-17 7.05a21.62 21.62 0 01-15.62-6.05 20.2 20.2 0 01-6.31-15.24v-4.79H810v4a9.91 9.91 0 002.21 6.56q2.19 2.64 6.87 2.64 6 0 7.68-3.09c1.09-2.05 1.63-5.48 1.63-10.26s-.42-7.92-1.26-9.39-2.89-2.88-6.16-4.22l-9.21-3.66q-7.92-3.27-11-8.69t-3-14.37q0-10.83 5.68-17.7t16.37-6.86a20.55 20.55 0 0115.31 6.23q6.11 6.24 6.11 14.05zM851.7 321.09H871a27.35 27.35 0 019.44 1.45 19.33 19.33 0 017.19 4.85 18.36 18.36 0 014.53 8.13 52.23 52.23 0 011.26 12.91 62.78 62.78 0 01-.69 10.46 23 23 0 01-3.21 8 18 18 0 01-7 6.49 24.16 24.16 0 01-11.41 2.39h-6.55v35H851.7zm12.85 42.59h6.18q7 0 8.81-3.47t1.76-11.66q0-8.06-1.63-11.71c-1.1-2.43-3.91-3.66-8.44-3.66h-6.68zM913.56 321.09h10.72l20 89.71h-12.87l-3.8-19.28h-17.38l-3.79 19.28h-12.9zm5.43 26l-6.57 32.3h12.88zM992.3 390.76a20.32 20.32 0 01-6 14.55 19.27 19.27 0 01-14.42 6.24 23.16 23.16 0 01-14.93-5q-6.24-5-6.24-16.19V341a20.24 20.24 0 015.8-14.75q5.79-5.91 15.12-5.91a19.83 19.83 0 0114.74 6q5.91 6 5.91 15.38v5h-12.83v-4.28a10.12 10.12 0 00-2.2-6.61 7 7 0 00-5.73-2.72c-2.95 0-5 .91-6.18 2.72s-1.76 4.39-1.76 7.74v45.93a11.38 11.38 0 001.76 6.74q1.77 2.46 6 2.46a8.29 8.29 0 005.61-2.14q2.44-2.15 2.45-6.93v-4.41h12.9zM1003.64 321.09H1042v12.09h-25.5v26.46h22.18v12.1h-22.18v26.2h25.5v12.86h-38.31zM1092.59 346.92h-12.85V344a13.11 13.11 0 00-2.14-7.87c-1.43-2-3.73-3-6.92-3s-5.45 1.07-6.75 3.22a16 16 0 00-2 8.38q0 5.55 1.26 7.81c.84 1.51 2.85 2.89 6 4.16l9.82 3.9q8.07 3 10.78 8.57t2.7 16q0 12.22-5.16 19.28t-17 7.05a21.63 21.63 0 01-15.62-6.05 20.19 20.19 0 01-6.3-15.24v-4.79h12.85v4a9.91 9.91 0 002.2 6.56q2.21 2.64 6.87 2.64 6 0 7.68-3.09c1.09-2.05 1.64-5.48 1.64-10.26s-.42-7.92-1.26-9.39-2.89-2.88-6.17-4.22l-9.2-3.78q-7.93-3.27-11-8.69t-3-14.37q0-10.83 5.67-17.7t16.38-6.86a20.55 20.55 0 0115.31 6.23q6.1 6.24 6.1 14.05zM619 346.54h-12.85v-2.9a13.13 13.13 0 00-2.14-7.87c-1.43-2-3.73-3-6.92-3s-5.45 1.07-6.75 3.21a16 16 0 00-2 8.38q0 5.55 1.26 7.81c.84 1.51 2.85 2.9 6.05 4.16l9.82 3.9q8.07 3 10.78 8.57t2.7 16q0 12.23-5.16 19.28t-17 7.05a21.67 21.67 0 01-15.62-6 20.21 20.21 0 01-6.3-15.25v-4.78h12.85v4a9.9 9.9 0 002.2 6.55q2.2 2.64 6.87 2.64 6 0 7.68-3.08t1.68-10.21q0-7.19-1.26-9.39c-.84-1.47-2.89-2.87-6.17-4.22l-9.2-3.78q-7.93-3.27-11-8.69t-3-14.36q0-10.84 5.67-17.7t16.4-6.86a20.59 20.59 0 0115.31 6.23q6.11 6.24 6.1 14.05zM642.81 320.72h10.71l20 89.7h-12.87l-3.79-19.27h-17.39l-3.79 19.27h-12.9zm5.42 26L641.66 379h12.89zM679.85 320.72h38.31v12.09h-25.45V360h22.18v12.1h-22.18v38.3h-12.86zM726.47 320.72h38.3v12.09h-25.45v26.46h22.18v12.09h-22.18v26.21h25.45v12.85h-38.3z" transform="translate(-258.07 -126.36)"/>
</svg>