<svg width="150px" height="150px" viewBox="5 -40 31 41" version="1.1" xmlns="http://www.w3.org/2000/svg">
  <path transform="scale(0.037, -0.037)" glyph-name="applications_and_diversity" d="M933.547 530.773l-146.773 273.067c-3.413 3.413-6.827 6.827-13.653 6.827-3.413 0-10.24 0-13.653-6.827l-44.373-81.92-17.067 13.653c-54.613 47.787-126.293 71.68-201.387 71.68-47.787 0-95.573-10.24-136.533-30.72l-10.24-3.413v3.413c-27.307 23.893-64.853 37.547-102.4 37.547-88.747 0-160.427-71.68-160.427-160.427 0-61.44 37.547-119.467 95.573-146.773l10.24-3.413v-10.24c0-112.64 61.44-215.040 160.427-269.653l6.827-3.413v-133.12c0-6.827 6.827-13.653 13.653-13.653h256c6.827 0 13.653 6.827 13.653 13.653v129.707l10.24 3.413c98.987 54.613 163.84 157.013 163.84 273.067v17.067h105.813c3.413 0 10.24 3.413 10.24 6.827 3.413 3.413 3.413 10.24 0 13.653v0zM117.76 653.653c0 71.68 58.027 133.12 133.12 133.12 30.72 0 61.44-10.24 81.92-30.72 6.827-6.827 13.653-13.653 20.48-20.48 17.067-23.893 27.307-51.2 27.307-78.507 0-71.68-58.027-133.12-133.12-133.12-10.24 0-17.067 0-23.893 3.413-10.24 3.413-20.48 3.413-27.307 10.24-47.787 17.067-78.507 64.853-78.507 116.053v0zM616.107 100.693h-225.28v225.28h225.28v-225.28zM786.773 493.226c0-88.747-44.373-174.080-119.467-228.693l-27.307-17.067v95.573c0 6.827-6.827 13.653-13.653 13.653h-256c-6.827 0-13.653-6.827-13.653-13.653v-92.16l-27.307 20.48c-68.267 51.2-109.227 126.293-112.64 208.213v17.067h27.307c88.747 0 160.427 71.68 160.427 160.427 0 27.307-6.827 54.613-20.48 78.507l-10.24 17.067 17.067 6.827c34.133 13.653 71.68 23.893 109.227 23.893 71.68 0 143.36-27.307 194.56-75.093l10.24-10.24-88.747-163.84c-3.413-3.413-3.413-10.24 0-13.653s6.827-6.827 10.24-6.827h157.013l3.413-20.48zM653.653 537.6l122.88 228.693 122.88-228.693h-245.76z" />
</svg>