<svg width="150px" height="150px" viewBox="5 -40 31 41" version="1.1" xmlns="http://www.w3.org/2000/svg">
  <path transform="scale(0.037, -0.037)" glyph-name="apprenticeships" d="M903.817 561.493c-13.653 17.067-37.547 27.307-58.027 27.307-17.067 0-34.133-6.827-47.787-17.067l-204.8-170.667-6.827-3.413-23.893 10.24v34.133c0 20.48 10.24 40.96 23.893 61.44 64.853 71.68 64.853 129.707 64.853 187.733 0 112.64-88.747 201.387-201.387 204.8-112.64-3.413-201.387-92.16-197.973-204.8 0-61.44 0-119.467 64.853-187.733 17.067-17.067 23.893-37.547 23.893-58.027l3.413-34.133-160.427-40.96c-47.787-13.653-81.92-54.613-81.92-105.813 0-10.24 10.24-20.48 20.48-20.48s20.48 10.24 20.48 20.48c0 34.133 20.48 61.44 54.613 68.267l150.187 37.547c23.893 6.827 37.547 27.307 37.547 47.787v27.307c0 30.72-13.653 61.44-34.133 85.333-54.613 58.027-54.613 105.813-54.613 163.84 0 92.16 71.68 163.84 160.427 167.253 92.16 0 160.427-75.093 160.427-167.253 0-58.027 0-102.4-54.613-163.84-23.893-23.893-34.133-54.613-34.133-85.333v-27.307c0-20.48 13.653-37.547 34.133-47.787l-228.693-187.733c-40.96-34.133-71.68-85.333-78.507-139.947v-3.413l-27.307-20.48c-3.413-3.413-6.827-6.827-6.827-10.24s0-10.24 3.413-10.24c3.413-3.413 6.827-6.827 13.653-6.827 3.413 0 6.827 0 10.24 3.413l27.307 20.48c0 0 10.24 0 13.653 0 51.2 0 98.987 17.067 139.947 51.2l413.013 341.333 17.067-30.72c10.24-17.067 3.413-37.547-10.24-51.2l-102.4-85.333c-6.827-6.827-17.067-10.24-27.307-13.653l-13.653-3.413c-40.96-10.24-68.267-40.96-71.68-81.92 0-3.413 0-6.827 3.413-10.24s6.827-6.827 13.653-6.827c6.827 0 13.653 6.827 17.067 13.653 3.413 27.307 20.48 47.787 47.787 54.613l13.653 3.413c13.653 3.413 27.307 10.24 37.547 20.48l102.4 85.333c27.307 23.893 34.133 61.44 17.067 92.16l-20.48 37.547 30.72 27.307c30.72 20.48 34.133 68.267 6.827 102.4v0zM402.057 90.453c-30.72-23.893-64.853-40.96-105.813-40.96h-17.067l3.413 17.067c10.24 37.547 30.72 71.68 61.44 95.573l382.293 310.613 54.613-68.267-378.88-314.027zM873.097 479.573l-64.853-54.613-54.613 68.267 64.853 54.613c6.827 6.827 17.067 10.24 27.307 10.24 13.653 0 23.893-6.827 34.133-17.067 6.827-10.24 10.24-20.48 10.24-30.72-3.413-13.653-6.827-23.893-17.067-30.72z" />
</svg>