<svg width="150px" height="150px" viewBox="5 -40 31 41" version="1.1" xmlns="http://www.w3.org/2000/svg">
  <path transform="scale(0.037, -0.037)" glyph-name="accessibility_at_stations" d="M329.387 424.96v105.813h6.827v-290.133c0-30.72 40.96-27.307 40.96 0v170.667h6.827v-170.667c0-27.307 44.373-30.72 44.373 0v290.133h6.827v-105.813c0-23.893 30.72-23.893 30.72 0v112.64c0 23.893-20.48 47.787-47.787 47.787h-78.507c-27.307 0-47.787-20.48-47.787-47.787v-112.64c6.827-23.893 37.547-23.893 37.547 0v0zM421.547 633.173c0-20.736-16.81-37.547-37.547-37.547s-37.547 16.81-37.547 37.547c0 20.736 16.81 37.547 37.547 37.547s37.547-16.81 37.547-37.547zM718.507 626.346c3.413 0 6.827 0 10.24 3.413l40.96 40.96v-174.080c0-10.24 6.827-17.067 17.067-17.067s17.067 6.827 17.067 17.067v174.080l40.96-40.96c3.413-3.413 6.827-3.413 10.24-3.413s6.827 0 10.24 3.413c6.827 6.827 6.827 17.067 0 23.893l-68.267 68.267c-3.413 3.413-6.827 3.413-10.24 3.413s-6.827 0-10.24-3.413l-68.267-68.267c-6.827-6.827-6.827-17.067 0-23.893 0-3.413 6.827-3.413 10.24-3.413v0zM868.693 257.706c-3.413 3.413-6.827 3.413-10.24 3.413s-6.827 0-10.24-3.413l-40.96-40.96v174.080c0 10.24-6.827 17.067-17.067 17.067s-17.067-6.827-17.067-17.067v-174.080l-40.96 40.96c-3.413 3.413-6.827 3.413-10.24 3.413s-6.827 0-10.24-3.413c-6.827-6.827-6.827-17.067 0-23.893l68.267-68.267c3.413-3.413 6.827-3.413 10.24-3.413s6.827 0 10.24 3.413l68.267 68.267c6.827 6.827 6.827 17.067 0 23.893zM599.040 779.946h-433.493c-6.827 0-17.067-6.827-17.067-17.067v-641.707c0-6.827 6.827-17.067 17.067-17.067h433.493c6.827 0 17.067 6.827 17.067 17.067v645.12c0 6.827-6.827 13.653-17.067 13.653v0zM585.387 138.24h-402.773v610.987h402.773v-610.987z" />
</svg>
