<svg width="150px" height="150px" viewBox="5 -40 31 41" version="1.1" xmlns="http://www.w3.org/2000/svg">
  <path transform="scale(0.037, -0.037)" glyph-name="benefits_and_locations" d="M510.293 865.28c-184.32 0-334.507-150.187-334.507-337.92 0-105.813 102.4-269.653 293.547-477.867 3.413-3.413 6.827-6.827 10.24-10.24 6.827-10.24 20.48-17.067 30.72-17.067s27.307 6.827 30.72 17.067c3.413 3.413 6.827 10.24 17.067 20.48 71.68 78.507 283.307 317.44 283.307 471.040 6.827 184.32-143.36 334.507-331.093 334.507zM537.6 83.626c-13.653-17.067-20.48-20.48-20.48-23.893h-6.827c0 0 0 3.413-3.413 3.413 0 0-6.827 6.827-10.24 13.653-249.173 262.827-283.307 395.947-283.307 450.56 0 167.253 133.12 303.787 300.373 303.787s300.373-133.12 300.373-300.373c-3.413-92.16-95.573-242.347-276.48-447.147zM667.307 558.080h-139.947v139.947c0 10.24-6.827 17.067-17.067 17.067s-17.067-6.827-17.067-17.067v-139.947h-139.947c-10.24 0-17.067-6.827-17.067-17.067s6.827-17.067 17.067-17.067h139.947v-139.947c0-10.24 6.827-17.067 17.067-17.067s17.067 6.827 17.067 17.067v139.947h139.947c10.24 0 17.067 6.827 17.067 17.067s-6.827 17.067-17.067 17.067z" />
</svg>