<svg width="150px" height="150px" viewBox="5 -40 31 41" version="1.1" xmlns="http://www.w3.org/2000/svg">
  <path transform="scale(0.037, -0.037)" glyph-name="careers" d="M844.8 711.68h-180.907v10.24c0 47.787-37.547 85.333-85.333 85.333h-133.12c-47.787 0-85.333-37.547-85.333-85.333v-10.24h-180.907c-27.307 0-51.2-23.893-51.2-51.2v-529.067c0-27.307 23.893-51.2 51.2-51.2h662.187c27.307 0 51.2 23.893 51.2 51.2v529.067c3.413 27.307-20.48 51.2-47.787 51.2zM397.653 725.333c0 27.307 20.48 47.787 47.787 47.787h133.12c27.307 0 47.787-20.48 47.787-47.787v-10.24h-228.693v10.24zM858.453 674.133v-327.68h-692.907v327.68h692.907zM165.547 114.346v194.56h692.907v-194.56h-692.907zM541.013 428.373c0-15.081-12.226-27.307-27.307-27.307s-27.307 12.226-27.307 27.307c0 15.081 12.226 27.307 27.307 27.307s27.307-12.226 27.307-27.307z" />
</svg>