<svg width="150px" height="150px" viewBox="5 -40 31 41" version="1.1" xmlns="http://www.w3.org/2000/svg">
  <path transform="scale(0.037, -0.037)" glyph-name="consulting_services" d="M512.375 829.713c4.949 0 9.728 1.809 13.414 5.052 3.755 3.789 5.905 8.875 6.076 14.165-0.034 5.188-2.014 10.172-5.564 13.926-7.851 6.383-19.217 6.383-27.068 0-3.721-3.789-5.871-8.841-6.076-14.165 0.068-4.915 1.843-9.66 5.052-13.414 3.891-3.55 8.943-5.53 14.165-5.564v0zM764.723 683.417c-4.881 0.171-9.66-1.468-13.414-4.54-3.311-3.789-5.222-8.636-5.325-13.687 0.068-4.915 1.843-9.66 5.052-13.414 3.857-3.584 8.909-5.666 14.199-5.803 4.915 0.068 9.66 1.877 13.414 5.052 3.413 3.925 5.291 8.977 5.291 14.165-0.068 5.052-1.946 9.899-5.291 13.687-3.925 3.209-8.875 4.847-13.926 4.54v0zM950.716 426.052c-7.885 6.485-19.422 6.485-27.307 0-3.686-3.823-5.769-8.875-5.837-14.199 0.068-4.915 1.843-9.66 5.052-13.414 3.857-3.652 8.875-5.803 14.199-6.042 4.915 0.034 9.66 1.809 13.414 5.052 3.686 3.789 5.871 8.841 6.076 14.165 0.102 5.359-1.877 10.547-5.598 14.438zM848.486 431.104c-4.881 0.205-9.66-1.399-13.414-4.54-3.686-3.823-5.769-8.909-5.837-14.199 0-4.915 1.809-9.694 5.086-13.414 3.789-3.721 8.841-5.871 14.165-6.076 5.018 0.102 9.796 2.082 13.414 5.564 3.823 3.652 6.007 8.67 6.076 13.926 0 5.052-1.911 9.933-5.325 13.687-3.891 3.413-8.977 5.222-14.165 5.052zM847.223 718.848c3.721 3.823 5.905 8.875 6.076 14.199-0.068 5.018-1.98 9.899-5.325 13.653-3.857 3.55-8.943 5.427-14.165 5.325-4.813 0.137-9.489-1.468-13.175-4.574-3.652-3.823-5.734-8.875-5.803-14.165 0.102-4.949 1.98-9.728 5.325-13.414 3.823-3.618 8.875-5.7 14.165-5.837 4.71 0.102 9.284 1.809 12.902 4.813v0zM195.038 748.202c-4.813 0.171-9.489-1.468-13.175-4.54-3.721-3.789-5.905-8.875-6.076-14.165 0-4.949 1.809-9.728 5.052-13.414 3.823-3.721 8.875-5.905 14.199-6.076 4.915 0.068 9.66 1.843 13.414 5.052 3.721 3.789 5.871 8.875 6.042 14.165-0.068 5.052-1.946 9.899-5.291 13.687-3.857 3.516-8.943 5.427-14.165 5.291zM512.375 729.224c4.949 0.068 9.694 1.843 13.414 5.086 7.646 7.714 7.646 20.343 0 28.092-3.789 3.413-8.772 5.222-13.892 5.052-4.881 0.137-9.66-1.468-13.414-4.574-3.721-3.789-5.871-8.841-6.076-14.165 0.034-4.915 1.809-9.694 5.052-13.414 3.994-3.891 9.353-6.076 14.916-6.076zM176.026 431.104c-4.847 0.171-9.626-1.468-13.414-4.54-3.652-3.823-5.7-8.909-5.803-14.199 0.068-4.915 1.843-9.66 5.052-13.414 3.652-3.959 8.806-6.212 14.165-6.212 10.581 0 19.251 8.67 19.251 19.217 0 0.068 0 0.102 0 0.171-0.034 5.052-1.946 9.899-5.325 13.653-3.789 3.482-8.772 5.393-13.926 5.325zM260.062 683.417c-4.881 0.171-9.626-1.468-13.414-4.54-3.857-3.584-6.315-8.431-6.827-13.687 0.068-4.915 1.843-9.66 5.052-13.414 3.789-3.755 8.841-5.939 14.165-6.042 4.949 0.068 9.694 1.843 13.414 5.052 3.721 3.789 5.871 8.841 6.076 14.165-0.068 5.052-1.946 9.899-5.291 13.653-3.686 3.14-8.363 4.847-13.175 4.813zM87.962 431.104c-4.881 0.137-9.626-1.468-13.414-4.54-3.618-3.857-5.7-8.909-5.803-14.199 0.068-4.915 1.843-9.66 5.052-13.414 7.68-7.305 19.9-7.305 27.58 0 2.935 3.755 4.54 8.397 4.574 13.175-0.068 5.052-1.98 9.899-5.325 13.653-3.482 3.209-7.953 5.086-12.663 5.325zM511.898 636.859c-0.375 0-0.717 0-1.092 0-122.607 0-223.471-100.864-223.471-223.471 0-48.572 15.838-95.881 45.124-134.656l3.277-5.564c70.349-89.327 75.913-103.492 77.449-151.825v-12.151c4.437-50.449 47.206-89.566 97.826-89.566s93.355 39.117 97.792 89.566v11.127c1.775 48.333 7.1 62.498 75.947 149.299l6.076 9.899c29.184 38.059 45.193 84.617 45.534 132.608 0 123.187-101.274 224.597-224.461 224.734zM581.222 115.268c-1.229-37.205-32.154-67.106-69.325-67.072-36.796-0.58-67.857 28.535-69.598 65.297l-3.311 32.393h115.166l28.092-2.287-1.024-28.331zM666.249 292.42l-6.315-9.865c-24.542-28.877-46.080-60.177-64.273-93.389l-7.612-15.701h-151.825l-7.612 15.701c-18.807 34.27-41.028 66.594-66.287 96.427l-3.038 5.052c-27.955 34.338-43.315 77.21-43.554 121.481 0 107.52 88.508 195.994 196.028 195.994s195.994-88.474 195.994-195.994c-0.034-43.042-14.677-84.787-41.506-118.443v-1.263zM511.898 469.333c4.676-0.341 9.318 1.229 12.902 4.301 3.584 4.062 5.632 9.25 5.803 14.677 0.341 5.052-1.502 10.035-5.052 13.653-3.584 3.243-8.329 4.983-13.175 4.813-4.471 0.171-8.875-1.263-12.39-4.062-4.062-3.857-6.588-9.079-7.066-14.677-0.341-4.676 1.229-9.318 4.301-12.902 4.028-3.618 9.25-5.666 14.677-5.803zM543.505 276.719h-15.94v132.369c0 7.782-6.383 14.165-14.165 14.165h-30.618c-7.851 0-14.302-6.451-14.302-14.302s6.451-14.302 14.302-14.302h15.94v-117.18h-15.94c-7.851 0-14.302-6.451-14.302-14.302 0-7.817 6.451-14.302 14.302-14.302h59.221c7.782 0 14.165 6.417 14.165 14.199 0.034 0.41 0.068 0.819 0.068 1.263 0 6.793-5.598 12.39-12.39 12.39-0.102 0-0.205 0-0.341 0z" />
</svg>