<svg width="150px" height="150px" viewBox="5 -40 31 41" version="1.1" xmlns="http://www.w3.org/2000/svg">
  <path transform="scale(0.037, -0.037)" glyph-name="clouds" d="M718.541 468.104c0.239-59.597 0.614-119.159-0.102-178.756-0.273-6.929-1.536-13.756-4.028-20.241-6.451-16.725-20.343-29.969-37.41-35.601-6.076-2.014-12.39-2.97-18.807-3.072h-322.628l-132.71-132.71-22.084-20.924 0.99 153.634c-11.776 0-23.552-0.102-35.328 0.034-6.554 0.239-12.971 1.365-19.149 3.55-16.623 5.973-30.106 19.149-36.489 35.635-2.56 6.588-3.823 13.517-4.096 20.548-1.331 111.343-1.331 222.686 0 334.029 0.273 7.031 1.536 13.961 4.096 20.548 6.554 16.964 20.651 30.379 37.922 36.079 6.178 2.048 12.595 3.038 19.081 3.106h271.565c-0.102 27.887-0.273 55.808 0.068 83.695 0.239 6.929 1.502 13.756 4.028 20.241 6.281 16.247 19.593 29.252 35.977 35.123 6.076 2.185 12.425 3.277 18.876 3.516 127.966 1.57 255.966 1.604 383.898 0 6.861-0.239 13.619-1.502 20.036-3.994 16.077-6.178 28.911-19.354 34.714-35.567 2.15-6.007 3.243-12.254 3.482-18.671 1.058-80.179 0.99-160.393 0-240.572-0.273-7.031-1.536-13.926-4.096-20.514-6.519-16.896-20.582-30.345-37.82-36.045-6.178-2.014-12.595-3.004-19.081-3.072l-9.523 0.102v-130.116l-21.845 21.026-108.988 108.988h-0.546zM419.396 634.436h-271.292c-1.502 0-2.97-0.239-4.369-0.785-4.437-1.707-7.373-5.939-7.509-10.65-3.959-5.393-1.673-292.762 0.034-332.425 0.171-4.54 3.482-8.397 7.714-9.933 1.331-0.478 2.731-0.683 4.13-0.683h83.183v-83.797l83.797 83.797c114.688 0 229.786-9.865 344.030 0.068 0.819 0.068 1.604 0.239 2.355 0.478 4.335 1.502 7.305 5.461 7.475 10.069v177.527c-63.522 0-127.078-0.785-190.635 0-6.929 0.273-13.756 1.536-20.241 4.062-16.247 6.281-29.252 19.558-35.123 35.977-2.321 6.519-3.447 13.312-3.55 20.207v106.086zM718.473 517.632h21.129l60.041-60.075c0 20.036 0 40.038 0 60.075 20.275 0 40.619-1.707 60.826 0.034 0.751 0.102 1.502 0.239 2.219 0.444 4.574 1.468 7.782 5.495 8.226 10.274 4.915 79.292 0.034 158.857 0.034 238.285 0 0.478-0.034 0.956-0.068 1.434-0.546 3.789-3.072 7.066-6.69 8.363-1.024 0.375-2.082 0.546-3.174 0.58-127.454 1.604-255.351 10.991-382.259-0.034-4.164-0.478-7.782-3.209-9.182-7.168-0.41-1.126-0.614-2.253-0.649-3.413-0.341-27.477-0.171-54.989-0.068-82.466h0.068v-155.307c0-1.331 0.205-2.56 0.614-3.823 1.502-4.13 5.359-6.929 9.728-7.202h239.206z" />
</svg>