<svg width="150px" height="150px" viewBox="5 -40 31 41" version="1.1" xmlns="http://www.w3.org/2000/svg">
  <path transform="scale(0.037, -0.037)" glyph-name="cc_forms_and_requests" d="M736.768 744.106h-68.267l-10.24 3.413v10.24c0 10.24-6.827 17.067-17.067 17.067h-58.027l-3.413 6.827c-6.827 27.307-34.133 47.787-64.853 47.787s-54.613-20.48-64.853-47.787l-3.413-6.827h-58.027c-10.24 0-17.067-6.827-17.067-20.48v-10.24h-78.507c-37.547 0-64.853-30.72-64.853-64.853v-556.373c0-37.547 30.72-64.853 64.853-64.853h436.907c37.547 0 64.853 30.72 64.853 64.853v556.373c6.827 37.547-20.48 64.853-58.027 64.853zM497.835 785.066c6.827 6.827 13.653 10.24 23.893 10.24 17.067 0 30.72-13.653 30.72-30.72s-13.653-30.72-30.72-30.72c-17.067 0-30.72 13.653-30.72 27.307 0 10.24 0 20.48 6.827 23.893zM767.488 126.293v-10.24h-3.413c-3.413-10.24-13.653-20.48-27.307-20.48h-436.907c-17.067 0-27.307 13.653-27.307 27.307v556.373c0 17.067 13.653 27.307 27.307 27.307h78.507v-10.24c0-10.24 6.827-17.067 17.067-17.067h249.173c10.24 0 17.067 6.827 17.067 20.48v10.24h78.507c17.067 0 27.307-13.653 27.307-27.307v-556.373zM653.653 404.48h-286.72c-10.24 0-17.067-6.827-17.067-17.067s6.827-17.067 17.067-17.067h283.307c10.24 0 20.48 6.827 20.48 17.067 3.413 10.24-6.827 17.067-17.067 17.067zM653.653 558.080h-286.72c-10.24 0-17.067-6.827-17.067-17.067s6.827-17.067 17.067-17.067h283.307c10.24 0 20.48 6.827 20.48 17.067 3.413 6.827-6.827 17.067-17.067 17.067zM653.653 254.293h-286.72c-10.24 0-17.067-6.827-17.067-17.067s6.827-17.067 17.067-17.067h283.307c10.24 0 20.48 6.827 20.48 17.067 3.413 10.24-6.827 17.067-17.067 17.067z" />
</svg>