<svg width="150px" height="150px" viewBox="5 -40 31 41" version="1.1" xmlns="http://www.w3.org/2000/svg">
  <path transform="scale(0.037, -0.037)" glyph-name="community_rail" d="M851.627 134.826h-78.507v187.733h78.507c10.24 0 17.067 6.827 17.067 17.067s-6.827 17.067-17.067 17.067h-78.507v44.373c0 6.827-6.827 13.653-13.653 13.653h-75.093c-6.827 0-13.653-6.827-13.653-13.653v-44.373h-112.64v44.373c0 6.827-6.827 13.653-13.653 13.653h-75.093c-6.827 0-13.653-6.827-13.653-13.653v-44.373h-105.813v44.373c0 6.827-6.827 13.653-13.653 13.653h-75.093c-6.827 0-13.653-6.827-13.653-13.653v-44.373h-78.507c-10.24 0-17.067-6.827-17.067-17.067s6.827-17.067 17.067-17.067h78.507v-187.733h-78.507c-10.24 0-17.067-6.827-17.067-17.067s6.827-17.067 17.067-17.067h78.507v-44.373c0-6.827 6.827-13.653 13.653-13.653h75.093c6.827 0 13.653 6.827 13.653 13.653v44.373h112.64v-44.373c0-6.827 6.827-13.653 13.653-13.653h75.093c6.827 0 13.653 6.827 13.653 13.653v44.373h112.64v-44.373c0-6.827 6.827-13.653 13.653-13.653h68.267c6.827 0 13.653 6.827 13.653 13.653v44.373h78.507c10.24 0 17.067 6.827 17.067 17.067s-6.827 17.067-17.067 17.067zM349.867 134.826v187.733h112.64v-187.733h-112.64zM561.493 134.826v187.733h112.64v-187.733h-112.64zM196.267 510.293h180.907c10.24 0 17.067 3.413 23.893 10.24 6.827-6.827 13.653-10.24 23.893-10.24h180.907c10.24 0 17.067 3.413 23.893 6.827 6.827-3.413 13.653-6.827 23.893-6.827h174.080c20.48 0 37.547 17.067 37.547 37.547v40.96c0 47.787-30.72 85.333-71.68 102.4 20.48 17.067 34.133 40.96 34.133 68.267 0 47.787-40.96 88.747-88.747 88.747s-88.747-40.96-88.747-88.747c0-27.307 13.653-51.2 34.133-68.267-23.893-10.24-47.787-27.307-58.027-51.2-13.653 23.893-34.133 40.96-58.027 47.787 20.48 17.067 34.133 40.96 34.133 68.267 0 47.787-40.96 88.747-88.747 88.747s-88.747-40.96-88.747-88.747c0-27.307 13.653-51.2 34.133-68.267-27.307-10.24-47.787-27.307-61.44-51.2-13.653 23.893-34.133 40.96-58.027 51.2 20.48 17.067 34.133 40.96 34.133 68.267 0 47.787-40.96 88.747-88.747 88.747s-88.747-40.96-88.747-88.747c0-27.307 13.653-51.2 34.133-68.267-40.96-13.653-71.68-54.613-71.68-102.4v-40.96c3.413-20.48 17.067-34.133 37.547-34.133zM735.573 814.080c34.133 0 61.44-27.307 61.44-61.44s-27.307-61.44-61.44-61.44c-34.133 0-61.44 27.307-61.44 61.44s30.72 61.44 61.44 61.44zM718.507 667.306h37.547c44.373 0 81.92-37.547 81.92-81.92v-40.96c0-3.413-3.413-10.24-10.24-10.24h-180.907c-3.413 0-6.827 3.413-10.24 6.827v44.373c3.413 47.787 37.547 81.92 81.92 81.92zM513.707 814.080c34.133 0 61.44-27.307 61.44-61.44s-27.307-61.44-61.44-61.44c-34.133 0-61.44 27.307-61.44 61.44s27.307 61.44 61.44 61.44zM414.72 585.386c0 44.373 37.547 81.92 81.92 81.92h37.547c44.373 0 78.507-34.133 81.92-75.093v-44.373c0-3.413-3.413-6.827-10.24-6.827h-180.907c-3.413 0-10.24 3.413-10.24 10.24v34.133zM288.427 814.080c34.133 0 61.44-27.307 61.44-61.44s-27.307-61.44-61.44-61.44c-34.133 0-61.44 27.307-61.44 61.44s27.307 61.44 61.44 61.44zM189.44 585.386c0 44.373 37.547 81.92 81.92 81.92h37.547c44.373 0 81.92-37.547 81.92-81.92v-40.96c0-3.413-3.413-10.24-10.24-10.24h-180.907c-3.413 0-10.24 3.413-10.24 10.24v40.96z" />
</svg>