<svg width="150px" height="150px" viewBox="5 -40 31 41" version="1.1" xmlns="http://www.w3.org/2000/svg">
  <path transform="scale(0.037, -0.037)" glyph-name="contact_us" d="M643.413 356.693c-10.24 10.24-23.893 13.653-34.133 13.653-13.653 0-27.307-6.827-34.133-13.653l-54.613-54.613c-3.413-3.413-6.827-3.413-13.653-3.413-3.413 0-10.24 3.413-13.653 3.413l-122.88 122.88c-3.413 3.413-3.413 6.827-3.413 13.653 0 3.413 3.413 10.24 3.413 13.653l54.613 54.613c20.48 20.48 20.48 51.2 0 71.68l-122.88 122.88c-20.48 20.48-51.2 20.48-71.68 0l-64.853-64.853c-51.2-51.2-58.027-133.12-17.067-194.56 95.573-139.947 215.040-256 354.987-354.987 27.307-17.067 58.027-27.307 88.747-27.307 37.547 0 78.507 13.653 105.813 44.373l64.853 64.853c10.24 10.24 13.653 23.893 13.653 34.133 0 13.653-6.827 27.307-13.653 34.133l-119.467 119.467zM738.987 186.026l-64.853-64.853c-40.96-40.96-105.813-47.787-153.6-13.653-136.533 95.573-252.587 211.627-344.747 344.747-34.133 47.787-27.307 112.64 13.653 153.6l64.853 64.853c3.413 3.413 6.827 3.413 13.653 3.413 3.413 0 10.24-3.413 13.653-3.413l122.88-122.88c6.827-6.827 6.827-17.067 0-23.893l-54.613-54.613c-10.24-10.24-13.653-23.893-13.653-34.133s6.827-27.307 13.653-34.133l122.88-122.88c10.24-10.24 23.893-13.653 34.133-13.653 13.653 0 27.307 6.827 34.133 13.653l54.613 54.613c3.413 3.413 6.827 3.413 13.653 3.413s10.24-3.413 13.653-3.413l122.88-122.88c3.413-3.413 3.413-6.827 3.413-13.653-3.413-3.413-6.827-6.827-10.24-10.24zM510.293 834.56c-10.24 0-17.067-6.827-17.067-17.067s6.827-17.067 17.067-17.067c197.973 0 358.4-160.427 358.4-358.4 0-10.24 6.827-17.067 17.067-17.067s17.067 6.827 17.067 17.067c0 218.453-174.080 392.533-392.533 392.533zM510.293 732.16c-10.24 0-17.067-6.827-17.067-17.067s6.827-17.067 17.067-17.067c139.947 0 256-116.053 256-256 0-10.24 6.827-17.067 17.067-17.067s17.067 6.827 17.067 17.067c0 160.427-129.707 290.133-290.133 290.133zM663.893 445.44c0-10.24 6.827-17.067 17.067-17.067s17.067 6.827 17.067 17.067c0 102.4-85.333 187.733-187.733 187.733-10.24 0-17.067-6.827-17.067-17.067s6.827-17.067 17.067-17.067c85.333-3.413 153.6-71.68 153.6-153.6z" />
</svg>