<svg width="150px" height="150px" viewBox="5 -40 31 41" version="1.1" xmlns="http://www.w3.org/2000/svg">
  <path transform="scale(0.037, -0.037)" glyph-name="communities" d="M940.373 322.56l-112.64 27.307c-3.413 0-3.413 3.413-3.413 3.413v20.48c0 13.653 6.827 30.72 17.067 40.96 47.787 54.613 47.787 95.573 47.787 143.36 0 85.333-68.267 153.6-153.6 157.013-47.787 0-92.16-23.893-119.467-61.44-6.827 6.827-13.653 10.24-20.48 13.653 0 3.413-6.827 6.827-10.24 6.827-3.413 3.413-6.827 3.413-10.24 3.413-6.827 3.413-13.653 6.827-20.48 6.827-3.413 0-3.413 0-6.827 0-10.24 3.413-20.48 3.413-30.72 3.413s-20.48 0-27.307-3.413c-3.413 0-3.413 0-6.827 0-6.827-3.413-13.653-3.413-20.48-6.827-20.48-6.827-37.547-20.48-54.613-34.133-27.307 40.96-75.093 64.853-126.293 68.267-85.333 0-150.187-68.267-150.187-157.013 0-44.373 0-88.747 47.787-143.36 10.24-13.653 17.067-27.307 17.067-40.96v-20.48c0-3.413 0-3.413-3.413-3.413l-112.64-27.307c-37.547-10.24-64.853-44.373-64.853-81.92 0-10.24 6.827-17.067 17.067-17.067s17.067 6.827 17.067 17.067c0 23.893 17.067 40.96 37.547 47.787l112.64 27.307c17.067 3.413 30.72 20.48 30.72 40.96v20.48c0 23.893-10.24 47.787-27.307 64.853-40.96 44.373-40.96 75.093-40.96 119.467 0 64.853 51.2 119.467 116.053 119.467 40.96 0 81.92-23.893 102.4-61.44-17.067-27.307-27.307-58.027-27.307-88.747 0-47.787 0-95.573 51.2-150.187 10.24-13.653 17.067-30.72 17.067-44.373v-20.48c0-3.413-3.413-6.827-3.413-6.827l-116.053-30.72c-40.96-10.24-68.267-44.373-68.267-85.333 0-10.24 6.827-17.067 17.067-17.067s17.067 6.827 17.067 17.067c0 23.893 17.067 44.373 40.96 51.2l116.053 30.72c17.067 3.413 30.72 20.48 30.72 40.96v20.48c0 23.893-10.24 47.787-27.307 68.267-40.96 47.787-40.96 81.92-40.96 126.293 0 30.72 10.24 58.027 27.307 81.92 23.893 27.307 58.027 44.373 95.573 47.787 10.24 0 17.067 0 27.307-3.413 27.307-6.827 51.2-20.48 68.267-44.373 17.067-20.48 27.307-51.2 27.307-81.92 0-44.373 0-78.507-40.96-126.293-17.067-20.48-27.307-44.373-27.307-68.267v-20.48c0-20.48 13.653-37.547 30.72-40.96l116.053-30.72c23.893-6.827 40.96-27.307 40.96-51.2 0-10.24 6.827-17.067 17.067-17.067s17.067 6.827 17.067 17.067c0 40.96-27.307 75.093-68.267 85.333l-116.053 30.72c-3.413 0-3.413 3.413-3.413 6.827v20.48c0 17.067 6.827 30.72 17.067 44.373 51.2 54.613 51.2 102.4 51.2 150.187 0 37.547-13.653 71.68-30.72 98.987 20.48 30.72 58.027 51.2 95.573 51.2 64.853 0 116.053-54.613 116.053-119.467 0-40.96 0-75.093-40.96-119.467-17.067-17.067-27.307-40.96-27.307-64.853v-20.48c0-17.067 13.653-34.133 30.72-40.96l112.64-27.307c20.48-6.827 37.547-23.893 37.547-47.787 0-10.24 6.827-17.067 17.067-17.067s17.067 6.827 17.067 17.067c10.24 40.96-17.067 75.093-54.613 85.333z" />
</svg>