<svg width="150px" height="150px" viewBox="5 -40 31 41" version="1.1" xmlns="http://www.w3.org/2000/svg">
  <path transform="scale(0.037, -0.037)" glyph-name="corporate_services" d="M769.707 390.826l-143.36 37.547c-3.413 0-6.827 3.413-6.827 10.24v23.893c0 20.48 10.24 40.96 23.893 58.027 61.44 68.267 61.44 122.88 61.44 184.32 0 109.227-85.333 194.56-194.56 197.973-109.227-3.413-194.56-88.747-194.56-197.973 0-58.027 0-116.053 61.44-184.32 13.653-17.067 23.893-37.547 23.893-58.027v-23.893c0-3.413-3.413-6.827-6.827-10.24l-143.36-37.547c-47.787-10.24-81.92-54.613-81.92-102.4 0-10.24 10.24-20.48 20.48-20.48s20.48 10.24 20.48 20.48c0 30.72 20.48 58.027 51.2 64.853l143.36 37.547c6.827 0 10.24 3.413 17.067 6.827l64.853-68.267-75.093-215.040c-3.413-6.827 0-13.653 3.413-17.067l81.92-102.4c3.413-3.413 6.827-3.413 10.24-6.827h6.827c3.413 0 6.827 3.413 10.24 6.827l81.92 102.4c3.413 6.827 6.827 13.653 3.413 17.067l-75.093 215.040 64.853 64.853c3.413-3.413 10.24-6.827 17.067-6.827l143.36-37.547c30.72-6.827 51.2-34.133 51.2-64.853 0-10.24 10.24-20.48 20.48-20.48s20.48 10.24 20.48 20.48c0 51.2-34.133 92.16-81.92 105.813zM571.733 114.346l-58.027-75.093-61.44 75.093 58.027 167.253 61.44-167.253zM513.707 360.106l-68.267 71.68v27.307c0 30.72-13.653 58.027-34.133 81.92-51.2 58.027-51.2 102.4-51.2 157.013 0 88.747 68.267 157.013 153.6 160.427 85.333 0 153.6-71.68 153.6-160.427 0-54.613 0-98.987-51.2-157.013-20.48-23.893-34.133-54.613-34.133-81.92v-27.307l-68.267-71.68z" />
</svg>