<svg width="150px" height="150px" viewBox="5 -40 31 41" version="1.1" xmlns="http://www.w3.org/2000/svg">
  <path transform="scale(0.037, -0.037)" glyph-name="digital_railway" d="M510.293 479.573c34.133 0 68.267 10.24 95.573 30.72 6.827 3.413 6.827 13.653 3.413 20.48s-13.653 6.827-20.48 3.413c-23.893-17.067-51.2-23.893-81.92-23.893-40.96 0-81.92 17.067-109.227 47.787s-40.96 71.68-37.547 112.64c6.827 64.853 61.44 119.467 126.293 126.293 40.96 3.413 81.92-6.827 112.64-37.547 30.72-27.307 47.787-68.267 47.787-109.227v-27.307c0-17.067-13.653-30.72-27.307-30.72-6.827 0-17.067 3.413-20.48 6.827-6.827 6.827-10.24 13.653-10.24 20.48v27.307c0 47.787-37.547 85.333-85.333 85.333s-85.333-37.547-85.333-85.333c0-47.787 37.547-85.333 85.333-85.333 27.307 0 47.787 10.24 64.853 30.72 3.413-3.413 6.827-10.24 10.24-13.653 10.24-10.24 27.307-17.067 40.96-17.067 30.72 0 54.613 27.307 54.613 61.44v27.307c0 47.787-20.48 95.573-58.027 129.707s-85.333 47.787-136.533 44.373c-78.507-10.24-143.36-71.68-153.6-153.6-6.827-47.787 10.24-98.987 44.373-136.533 44.373-30.72 92.16-54.613 139.947-54.613zM510.293 595.626c-30.72 0-58.027 27.307-58.027 58.027s27.307 58.027 58.027 58.027c30.72 0 58.027-27.307 58.027-58.027s-23.893-58.027-58.027-58.027zM851.627 148.48h-78.507v187.733h78.507c10.24 0 17.067 6.827 17.067 17.067s-6.827 13.653-17.067 13.653h-78.507v44.373c0 6.827-6.827 13.653-13.653 13.653h-75.093c-6.827 0-13.653-6.827-13.653-13.653v-44.373h-112.64v44.373c0 6.827-6.827 13.653-13.653 13.653h-75.093c-6.827 0-13.653-6.827-13.653-13.653v-44.373h-105.813v44.373c0 6.827-6.827 13.653-13.653 13.653h-75.093c-6.827 0-13.653-6.827-13.653-13.653v-44.373h-78.507c-10.24 0-17.067-6.827-17.067-17.067s6.827-17.067 17.067-17.067h78.507v-187.733h-78.507c-10.24 0-17.067-6.827-17.067-17.067s6.827-17.067 17.067-17.067h78.507v-44.373c0-6.827 6.827-13.653 13.653-13.653h75.093c6.827 0 13.653 6.827 13.653 13.653v44.373h112.64v-44.373c0-6.827 6.827-13.653 13.653-13.653h75.093c6.827 0 13.653 6.827 13.653 13.653v44.373h112.64v-44.373c0-6.827 6.827-13.653 13.653-13.653h68.267c6.827 0 13.653 6.827 13.653 13.653v44.373h78.507c10.24 0 17.067 6.827 17.067 17.067s-6.827 20.48-17.067 20.48zM349.867 148.48v187.733h112.64v-187.733h-112.64zM561.493 148.48v187.733h112.64v-187.733h-112.64z" />
</svg>