<svg width="150px" height="150px" viewBox="5 -40 31 41" version="1.1" xmlns="http://www.w3.org/2000/svg">
  <path transform="scale(0.037, -0.037)" glyph-name="disabled_acces" d="M339.627 582.075c5.291-0.717 10.206-2.15 14.746-4.949 9.762-6.042 15.974-16.828 16.213-28.297 0.068-3.516-0.41-6.997-1.365-10.342-0.99-3.345-2.492-6.554-4.437-9.455-2.901-4.335-6.827-7.987-11.366-10.581-2.048-1.161-2.594-1.331-4.745-2.253-4.676-1.57-9.455-2.97-14.131-4.574-25.19-8.943-48.777-21.914-69.598-38.741-34.782-28.16-61.099-66.321-75.025-108.885-7.339-22.528-11.196-46.182-11.469-69.871-0.205-20.412 2.253-40.858 7.339-60.655 6.588-25.6 17.647-50.039 32.461-71.987 16.213-23.962 36.898-44.919 60.689-61.406 24.883-17.237 53.111-29.594 82.705-36.045 31.403-6.827 64.239-7.1 95.744-0.751 33.587 6.724 65.57 20.992 93.082 41.438 22.050 16.384 41.165 36.693 56.183 59.733 6.178 9.523 11.571 19.49 16.418 29.764l1.195 2.321c1.399 2.253 2.833 4.369 4.642 6.315 4.164 4.506 9.523 7.817 15.394 9.523 3.345 0.99 6.827 1.468 10.308 1.399s6.963-0.683 10.274-1.809c11.742-3.959 20.548-14.302 22.665-26.487 0.751-4.301 0.683-8.738-0.239-13.005-0.922-4.301-2.833-8.158-4.745-12.117-3.174-6.554-6.588-12.971-10.206-19.285-13.414-23.245-29.935-44.681-49.015-63.556-22.596-22.357-48.742-41.062-77.175-55.296-23.825-11.913-49.22-20.651-75.332-25.873-44.407-8.943-90.761-7.714-134.622 3.584-30.822 7.953-60.348 20.821-87.142 38.025-31.471 20.173-59.119 46.217-81.135 76.425-20.139 27.58-35.533 58.573-45.261 91.307-8.602 28.877-12.8 59.017-12.493 89.156 0.341 30.652 5.325 61.201 14.848 90.351 19.866 60.791 59.29 114.517 111.343 151.689 26.658 19.046 56.252 33.382 87.484 43.076l2.833 0.819c2.594 0.683 5.052 1.126 7.714 1.365 2.628 0.068 2.594 0.068 5.222-0.068zM360.892 709.598c-29.901 11.605-51.098 40.346-51.098 73.899 0 43.827 36.113 79.394 80.589 79.394s80.589-35.567 80.589-79.394c0-29.867-16.794-55.91-41.574-69.461l23.45-134.281c61.372 1.126 122.778 0.922 184.149-0.58 5.632-0.41 10.991-1.911 15.872-4.813 10.718-6.417 17.169-18.5 16.555-30.959-0.171-3.345-0.819-6.656-1.946-9.83-1.331-3.686-3.277-7.134-5.769-10.138-2.833-3.482-6.349-6.349-10.308-8.465-4.471-2.389-9.353-3.618-14.404-3.994-57.31-1.399-114.688-1.673-172.032-0.785l15.223-87.040 202.411-0.102c3.618-0.444 7.031-1.092 10.377-2.492 6.622-2.731 12.288-7.578 16.043-13.687 1.434-2.287 2.423-4.71 3.379-7.27l71.646-219.546h95.642l2.833-0.102c2.458-0.307 3.106-0.341 5.53-0.956 3.652-0.922 7.168-2.458 10.308-4.506 11.23-7.339 17.203-20.958 14.985-34.202-0.614-3.686-1.843-7.305-3.652-10.615-1.775-3.311-4.13-6.315-6.895-8.875-4.847-4.471-10.991-7.475-17.476-8.533-2.492-0.41-3.14-0.375-5.632-0.478h-120.388c-2.697 0.102-5.325 0.307-7.953 0.956-7.851 1.877-14.882 6.554-19.627 13.073-2.15 2.935-3.618 6.11-4.881 9.523l-71.646 219.546-206.507 0.102c-2.833 0.375-5.53 0.819-8.226 1.741-8.021 2.731-14.848 8.465-18.91 15.872-1.843 3.345-2.901 6.827-3.686 10.547l-56.969 326.451z" />
</svg>