<svg width="150px" height="150px" viewBox="5 -40 31 41" version="1.1" xmlns="http://www.w3.org/2000/svg">
  <path transform="scale(0.037, -0.037)" glyph-name="engineering_and_project_management" d="M237.227 271.36c10.24 0 20.48 10.24 20.48 20.48 0 27.307 17.067 47.787 40.96 54.613l126.293 30.72c20.48 3.413 34.133 23.893 34.133 44.373v20.48c0 27.307-10.24 51.2-30.72 71.68-44.373 47.787-44.373 85.333-44.373 133.12 0 3.413 0 6.827 0 10.24v10.24h259.413v-20.48c0-47.787 0-85.333-44.373-133.12-20.48-20.48-30.72-47.787-30.72-71.68v-20.48c0-20.48 13.653-37.547 34.133-44.373l122.88-30.72c23.893-6.827 40.96-27.307 40.96-54.613 0-10.24 10.24-20.48 20.48-20.48s20.48 10.24 20.48 20.48c0 44.373-30.72 81.92-71.68 92.16l-129.707 30.72v27.307c0 17.067 6.827 34.133 20.48 47.787 54.613 58.027 54.613 109.227 54.613 160.427 0 6.827 0 13.653 0 20.48h23.893c10.24 0 20.48 10.24 20.48 20.48 0 92.16-37.547 167.253-98.987 208.213-3.413 3.413-3.413 3.413-6.827 3.413-27.307 17.067-61.44 23.893-98.987 23.893s-71.68-10.24-98.987-23.893c-64.853-37.547-105.813-116.053-105.813-211.627 0-10.24 10.24-20.48 20.48-20.48h17.067c0-6.827 0-13.653 0-20.48 0-51.2 0-98.987 54.613-160.427 13.653-13.653 20.48-30.72 20.48-47.787v-27.307l-129.707-30.72c-40.96-10.24-71.68-47.787-71.68-92.16-10.24-10.24 0-20.48 10.24-20.48zM346.453 718.506c6.827 54.613 27.307 95.573 54.613 126.293v-23.893c0-10.24 10.24-20.48 20.48-20.48s20.48 10.24 20.48 20.48v51.2c17.067 6.827 34.133 13.653 54.613 13.653v-61.44c0-10.24 10.24-20.48 20.48-20.48s20.48 10.24 20.48 20.48v61.44c20.48-3.413 37.547-6.827 54.613-13.653v-51.2c0-10.24 10.24-20.48 20.48-20.48s20.48 10.24 20.48 20.48v23.893c30.72-27.307 47.787-71.68 54.613-126.293v-13.653h-337.92l-3.413 13.653zM868.693 145.066l-6.827 3.413v75.093c0 10.24-6.827 17.067-17.067 17.067h-658.773c-10.24 0-17.067-6.827-17.067-17.067v-75.093l-6.827-3.413c-40.96-10.24-68.267-47.787-68.267-92.16 0-51.2 40.96-95.573 95.573-95.573 51.2 0 95.573 40.96 95.573 95.573 0 40.96-27.307 78.507-68.267 92.16l-6.827 3.413v58.027h293.547v-58.027h-17.067c-40.96-10.24-68.267-47.787-68.267-92.16 0-51.2 40.96-95.573 95.573-95.573 51.2 0 95.573 40.96 95.573 95.573 0 40.96-27.307 78.507-68.267 92.16l-6.827 3.413v58.027h296.96v-58.027l-6.827-3.413c-40.96-10.24-68.267-47.787-68.267-92.16 0-51.2 40.96-95.573 95.573-95.573 51.2 0 95.573 40.96 95.573 95.573-10.24 40.96-40.96 78.507-78.507 88.747zM223.573 100.693c10.24-10.24 17.067-27.307 17.067-44.373 0-34.133-27.307-58.027-58.027-58.027-34.133 0-58.027 27.307-58.027 58.027 0 34.133 27.307 58.027 58.027 58.027h3.413c13.653 0 27.307-3.413 37.547-13.653zM554.667 100.693c10.24-10.24 17.067-27.307 17.067-44.373 0-34.133-27.307-58.027-58.027-58.027-34.133 0-58.027 27.307-58.027 58.027 0 34.133 27.307 58.027 58.027 58.027h3.413c10.24 0 23.893-3.413 37.547-13.653zM841.387-1.707c-34.133 0-58.027 27.307-58.027 58.027 0 34.133 27.307 58.027 58.027 58.027 34.133 0 58.027-27.307 58.027-58.027 0-34.133-23.893-58.027-58.027-58.027z" />
</svg>