<svg width="150px" height="150px" viewBox="5 -40 31 41" version="1.1" xmlns="http://www.w3.org/2000/svg">
  <path transform="scale(0.037, -0.037)" glyph-name="ex_forces" d="M590.541 440.729v5.291l105.472 92.467c3.345 2.935 5.257 7.168 5.257 11.605v271.428c0 8.465-6.963 15.462-15.462 15.462h-346.317c-8.465 0-15.462-6.997-15.462-15.462v-271.087c0-4.437 1.946-8.67 5.291-11.605l105.472-92.467v-5.257c-75.435-31.437-124.826-105.54-124.826-187.255 0-111.275 91.58-202.854 202.854-202.854 111.309 0 202.854 91.58 202.854 202.854 0 81.715-49.357 155.819-124.791 187.255l-0.341-0.375zM668.57 557.124l-78.029-69.632v316.45h78.029v-246.818zM559.241 805.683v-345.6l-8.090-7.373h-16.179c-14.95 1.741-30.037 1.741-44.988 0h-16.179l-8.090 7.373v345.6h93.525zM356.386 557.124v248.559h78.029v-316.416l-78.029 67.857zM511.42 83.183c-93.969 0.205-171.213 77.585-171.213 171.588 0 78.78 54.272 147.9 130.799 166.639l8.772 2.116h1.775c9.148 1.673 18.432 2.628 27.75 2.799h3.516c9.318-0.171 18.603-1.126 27.785-2.799h1.741l8.806-2.116c76.527-18.739 130.765-87.859 130.765-166.639 0-93.73-76.766-171.008-170.496-171.588zM511.42 394.001c-77.141 0-140.629-63.488-140.629-140.629 0-8.602 7.066-15.667 15.633-15.667 8.602 0 15.667 7.066 15.667 15.667 0 59.972 49.357 109.329 109.329 109.329 8.567 0 15.633 7.066 15.633 15.633 0 8.602-7.066 15.667-15.633 15.667 0 0 0 0 0 0z" />
</svg>