<svg width="150px" height="150px" viewBox="5 -40 31 41" version="1.1" xmlns="http://www.w3.org/2000/svg">
  <path transform="scale(0.037, -0.037)" glyph-name="facilities" d="M518.144 920.849c22.255-0.444 44.442-2.082 66.458-5.461 44.578-6.827 88.132-20.036 128.99-39.117 48.606-22.733 93.286-53.692 131.686-91.17 38.332-37.478 70.349-81.34 94.242-129.365 20.002-40.243 34.27-83.354 42.189-127.625 8.875-49.766 9.83-100.966 2.799-151.040-6.793-48.538-21.163-95.983-42.462-140.151-24.951-51.746-59.324-98.884-100.898-138.513-43.076-41.062-93.764-74.001-148.855-96.529-57.071-23.347-118.613-35.294-180.292-35.294s-123.221 11.947-180.292 35.294c-55.091 22.528-105.779 55.467-148.855 96.529-41.574 39.629-75.947 86.767-100.898 138.513-21.299 44.169-35.669 91.614-42.462 140.151-7.031 50.074-6.076 101.274 2.799 151.040 7.919 44.271 22.187 87.381 42.189 127.625 23.893 48.026 55.91 91.887 94.242 129.365 38.4 37.478 83.081 68.437 131.686 91.17 40.858 19.081 84.412 32.29 128.99 39.117 22.016 3.379 44.203 5.018 66.458 5.461 6.144 0.034 6.144 0.034 12.288 0zM506.709 852.582c-19.081-0.375-38.093-1.809-56.969-4.676-38.161-5.837-75.469-17.135-110.421-33.485-40.209-18.773-77.244-44.169-109.363-74.752-33.246-31.71-61.133-68.983-82.091-109.875-17.545-34.236-30.174-70.929-37.41-108.681-8.499-44.237-9.626-89.941-3.379-134.554 5.837-41.574 18.125-82.193 36.352-120.013 21.402-44.339 50.893-84.753 86.528-118.75 36.932-35.191 80.35-63.42 127.556-82.705 48.947-20.036 101.649-30.242 154.487-30.242s105.54 10.206 154.487 30.242c47.206 19.285 90.624 47.514 127.556 82.705 35.635 33.997 65.126 74.411 86.528 118.75 18.227 37.82 30.515 78.438 36.352 120.013 6.246 44.612 5.12 90.317-3.379 134.554-7.236 37.751-19.866 74.445-37.41 108.681-20.958 40.892-48.845 78.165-82.091 109.875-32.119 30.583-69.154 55.979-109.363 74.752-34.953 16.35-72.26 27.648-110.421 33.485-18.876 2.867-37.888 4.301-56.969 4.676-5.325 0.034-5.291 0.034-10.581 0zM514.628 531.968c3.516-0.375 6.929-1.058 10.24-2.423 8.738-3.55 15.735-10.718 19.081-19.558 1.229-3.345 1.877-6.758 2.15-10.308 1.946-76.425 0.034-152.917 0.034-229.376-0.137-5.325-1.195-10.479-3.618-15.258-1.809-3.686-4.301-6.997-7.339-9.796-3.004-2.799-6.519-5.018-10.308-6.554-11.571-4.71-25.156-2.594-34.748 5.393-2.697 2.253-5.018 4.915-6.929 7.885-3.209 5.052-4.813 10.65-5.291 16.589-1.946 76.425-0.034 152.917-0.034 229.376 0.102 4.13 0.717 8.158 2.185 12.049 3.55 9.387 11.264 16.896 20.719 20.173 3.379 1.195 6.827 1.707 10.342 1.911 1.775 0 1.775 0 3.516-0.102zM512.205 641.638c4.779-0.034 9.557-1.058 13.892-3.038 3.857-1.775 7.373-4.233 10.342-7.27 2.492-2.56 4.608-5.53 6.212-8.772 6.417-13.107 3.618-29.286-6.827-39.492-2.799-2.731-6.11-5.018-9.728-6.656-4.028-1.809-8.431-2.867-12.834-3.004-3.857-0.137-7.68-0.102-11.469 0.683-8.294 1.741-15.804 6.656-20.719 13.551-2.389 3.345-4.164 7.066-5.222 11.025-0.956 3.618-1.331 7.407-1.092 11.127 0.853 12.629 8.909 24.030 20.514 29.047 3.516 1.502 7.27 2.423 11.059 2.697 1.946 0.137 3.925 0.102 5.871 0.102z" />
</svg>