<svg width="150px" height="150px" viewBox="5 -40 31 41" version="1.1" xmlns="http://www.w3.org/2000/svg">
  <path transform="scale(0.037, -0.037)" glyph-name="features" d="M677.547 462.506h-327.68c-10.24 0-17.067-6.827-17.067-17.067s6.827-17.067 17.067-17.067h327.68c10.24 0 17.067 6.827 17.067 17.067 0 6.827-10.24 17.067-17.067 17.067zM677.547 298.666h-327.68c-10.24 0-17.067-6.827-17.067-17.067s6.827-17.067 17.067-17.067h327.68c10.24 0 17.067 6.827 17.067 17.067s-10.24 17.067-17.067 17.067zM773.12 820.906h-358.4l-215.040-204.8v-501.76c0-27.307 23.893-51.2 51.2-51.2h525.653c27.307 0 51.2 23.893 51.2 51.2v658.773c-3.413 27.307-23.893 47.787-54.613 47.787zM424.96 790.186v-184.32h-184.32l184.32 184.32zM233.813 100.693v471.040h174.080c27.307 0 51.2 23.893 51.2 51.2v163.84h331.093v-686.080h-556.373z" />
</svg>