<svg version="1.1" id="Layer_1" xmlns="http://www.w3.org/2000/svg" xmlns:xlink="http://www.w3.org/1999/xlink" x="0px" y="0px"
   viewBox="0 0 134.5 111" style="enable-background:new 0 0 134.5 111;" xml:space="preserve">
<g>
  <defs>
    <rect id="SVGID_1_" x="7.1" y="6.4" width="121" height="96.5"/>
  </defs>
  <clipPath id="SVGID_2_">
    <use xlink:href="#SVGID_1_"  style="overflow:visible;"/>
  </clipPath>
  <path class="st0" d="M24.8,63.7v-1.2c0-1.2-1.1-2.3-2.4-2.3c-0.5,0-1.1,0.1-1.5,0.5c-0.5,0.4-0.8,1.1-0.8,1.8v1.2"/>
  <path class="st0" d="M98.9,63.7v-1.2c0-1.2-1.1-2.3-2.4-2.3c-0.5,0-1.1,0.1-1.5,0.5c-0.5,0.4-0.8,1.1-0.8,1.8v1.2"/>
  <path class="st0" d="M98.9,63.7v29.8c0,5.1-3.8,9.3-8.5,9.3H28.7c-4.7,0-8.5-4.2-8.5-9.3V63.7h4.6v29.9c0,2.6,1.7,4.6,3.9,4.6h61.7
    c2.1,0,3.9-2.1,3.9-4.6V63.7"/>
  <path class="st0" d="M104.8,63h-1.2c-1.2,0-2.3,1.1-2.3,2.4c0,0.5,0.1,1.1,0.5,1.5c0.4,0.5,1.1,0.7,1.8,0.7h1.2"/>
  <path class="st0" d="M104.8,81.4h-1.2c-1.2,0-2.3,1.1-2.3,2.4c0,0.5,0.1,1.1,0.5,1.5c0.4,0.5,1.1,0.7,1.8,0.7h1.2"/>
  <path class="st0" d="M125,93.3L107.3,86h-2.6v-4.6h3.2c0.5,0,1,0.2,1.4,0.5l14.1,5.9V59.6L109,67.3c-0.3,0.2-0.7,0.3-1,0.3h-3.2V63
    h2.6l17.4-9.3c0.7-0.4,1.5-0.4,2.2,0c0.7,0.4,1.1,1.2,1.1,2v35.5c0,0.8-0.3,1.5-1,1.9C126.7,93.4,125.3,93.4,125,93.3"/>
  <path class="st0" d="M82.7,6.4c-11.4,0-21.1,7.3-24.7,17.4C54.4,13.6,44.7,6.4,33.3,6.4C18.8,6.4,7.1,18.1,7.1,32.6
    c0,14.5,11.8,26.2,26.2,26.2c11.4,0,21-7.3,24.7-17.4c3.6,10.1,13.3,17.4,24.7,17.4c14.5,0,26.2-11.8,26.2-26.2
    C108.9,18.1,97.2,6.4,82.7,6.4 M33.3,54.2c-11.9,0-21.6-9.7-21.6-21.6c0-11.9,9.7-21.6,21.6-21.6s21.6,9.7,21.6,21.6
    C54.9,44.5,45.2,54.2,33.3,54.2 M82.7,54.2c-11.9,0-21.6-9.7-21.6-21.6c0-11.9,9.7-21.6,21.6-21.6s21.6,9.7,21.6,21.6
    C104.3,44.5,94.6,54.2,82.7,54.2"/>
  <path class="st0" d="M33.2,44.9c-6.8,0-12.4-5.5-12.4-12.4c0-6.8,5.5-12.3,12.4-12.3s12.4,5.5,12.4,12.3
    C45.6,39.4,40.1,44.9,33.2,44.9 M33.2,24.9c-4.3,0-7.7,3.5-7.7,7.7c0,4.3,3.5,7.7,7.7,7.7s7.7-3.5,7.7-7.7
    C41,28.3,37.5,24.9,33.2,24.9"/>
  <path class="st0" d="M82.6,44.9c-6.8,0-12.4-5.5-12.4-12.4c0-6.8,5.5-12.3,12.4-12.3c6.8,0,12.4,5.5,12.4,12.3
    C95,39.4,89.5,44.9,82.6,44.9 M82.6,24.9c-4.3,0-7.7,3.5-7.7,7.7c0,4.3,3.5,7.7,7.7,7.7c4.3,0,7.7-3.5,7.7-7.7
    C90.4,28.3,86.9,24.9,82.6,24.9"/>
</g>
<rect x="57.1" y="69.1" class="st1" width="24.5" height="4.6"/>
<g>
  <defs>
    <rect id="SVGID_3_" x="7.1" y="6.4" width="121" height="96.5"/>
  </defs>
  <clipPath id="SVGID_4_">
    <use xlink:href="#SVGID_3_"  style="overflow:visible;"/>
  </clipPath>
  <path class="st2" d="M57.7,69.1h-1.2c-1.2,0-2.3,1.1-2.3,2.4c0,0.5,0.1,1.1,0.5,1.5c0.4,0.5,1.1,0.7,1.8,0.7h1.2"/>
  <path class="st2" d="M80.5,73.7h1.2c1.2,0,2.3-1.1,2.3-2.4c0-0.5-0.1-1.1-0.5-1.5c-0.4-0.5-1.1-0.7-1.8-0.7h-1.2"/>
</g>
</svg>
