<svg width="150px" height="150px" viewBox="5 -40 31 41" version="1.1" xmlns="http://www.w3.org/2000/svg">
  <path transform="scale(0.037, -0.037)" glyph-name="food_drink_and_shopping" d="M582.144 683.724c0.512 2.219 1.502 4.233 2.799 6.11 41.95 54.067 85.538 106.871 130.662 158.276 3.004 3.038 6.622 4.813 10.854 5.359 1.058 0.068 2.048 0.068 3.106 0 2.389-0.273 4.71-0.922 6.827-2.082 6.451-3.618 9.899-11.196 8.397-18.432-0.512-2.389-1.536-4.54-2.901-6.554-35.294-45.466-71.782-90.078-109.329-133.7 7.612-5.257 15.258-10.513 22.869-15.804 36.318 45.978 73.865 91.068 112.538 135.1 3.004 3.038 6.588 4.813 10.854 5.359 1.024 0.068 2.048 0.068 3.072 0 2.423-0.273 4.71-0.887 6.861-2.082 6.451-3.618 9.899-11.196 8.363-18.398-0.478-2.423-1.536-4.54-2.901-6.554-35.362-45.568-71.919-90.283-109.568-134.007 6.042-4.267 12.015-8.533 18.022-12.834 35.089 44.271 71.339 87.689 108.612 130.15 3.004 3.038 6.588 4.813 10.854 5.325 1.024 0.068 2.048 0.068 3.072 0.034 2.423-0.307 4.71-0.922 6.861-2.116 6.451-3.584 9.899-11.162 8.397-18.398-0.512-2.389-1.536-4.54-2.935-6.554-34.167-44.032-69.461-87.279-105.745-129.57 5.7-4.198 11.435-8.431 17.135-12.629l0.034-0.034c36.42 46.148 74.069 91.341 112.845 135.543 3.038 3.038 6.622 4.813 10.854 5.325 1.058 0.068 2.048 0.068 3.106 0.034 2.423-0.307 4.71-0.922 6.861-2.116 6.451-3.584 9.899-11.162 8.363-18.398-0.478-2.389-1.536-4.54-2.901-6.554-41.916-54.033-85.504-106.837-130.628-158.242-2.935-4.847-6.997-8.943-11.059-12.834-7.851-7.543-16.725-13.961-26.522-18.637-8.465-4.062-17.51-6.724-26.795-8.158-11.264-1.775-22.699-1.57-34.099-1.877-2.799-0.102-5.598-0.239-8.363-0.546-5.12-0.614-10.103-1.741-14.814-3.891-0.58-0.273-1.161-0.546-1.707-0.853-105.95-136.397-220.74-265.728-331.025-398.677-1.365-1.536-1.673-1.98-3.209-3.379-4.028-3.652-8.909-6.349-14.165-7.782-2.799-0.751-5.734-1.126-8.636-1.161h-0.375c-0.853 0-1.707 0.034-2.526 0.102-14.268 1.092-26.59 11.332-30.31 25.122-1.229 4.506-1.502 9.25-0.819 13.892 0.819 5.495 3.004 10.377 6.076 14.95 106.769 138.001 222.72 268.663 334.165 402.876 0.41 0.717 0.785 1.434 1.126 2.185 0.478 1.058 0.853 2.116 1.126 3.243 1.229 5.803-0.512 11.947-2.082 17.476-2.082 7.339-4.471 14.541-6.519 21.879-0.853 3.14-1.604 6.281-2.287 9.421-1.058 5.325-1.877 10.684-2.253 16.077-0.239 3.994-0.307 7.987-0.068 11.981 0.444 8.772 2.116 17.476 4.949 25.805 1.263 3.789 2.697 7.646 4.779 11.093l0.102 0.137zM570.914 400.588c2.287-0.171 4.574-0.478 6.793-1.092 5.666-1.502 10.615-4.471 14.916-8.431 72.363-73.591 141.005-150.733 211.524-226.133 3.857-4.369 6.758-9.353 8.158-15.019 3.004-11.947-0.819-24.849-9.796-33.246-2.526-2.355-5.427-4.335-8.533-5.837-3.652-1.741-7.578-2.833-11.605-3.209-4.608-0.41-9.25 0.102-13.653 1.502-5.018 1.638-9.387 4.403-13.244 7.953-72.363 73.557-141.005 150.733-211.524 226.133-3.482 3.925-6.178 8.329-7.714 13.346-0.99 3.311-1.502 6.793-1.468 10.24 0.102 11.674 6.349 22.733 16.316 28.843 4.506 2.765 9.421 4.233 14.643 4.881 1.741 0.102 3.447 0.137 5.188 0.068v0zM182.613 847.496c2.082-0.205 4.096-0.478 6.144-0.99 6.178-1.536 11.469-4.813 16.043-9.216 96.427-104.721 186.436-215.211 279.62-322.833 2.628-3.243 4.813-6.656 6.246-10.581 0.956-2.594 1.57-5.291 1.877-8.021 0.683-6.144-0.341-12.425-2.935-18.057-1.365-3.038-3.243-5.871-5.222-8.533-5.393-7.27-12.459-13.244-20.617-17.169-2.697-1.297-5.495-2.355-8.363-3.209-15.667-4.642-32.324-1.98-47.275 3.959-14.882 5.905-28.535 14.78-41.267 24.405-17.067 12.902-32.768 27.511-47.753 42.735-25.054 25.498-48.128 52.975-69.666 81.442-22.562 29.833-43.622 60.928-62.054 93.457-12.39 21.845-23.859 44.476-32.051 68.267-5.769 16.725-9.899 34.202-9.011 51.985l0.137 2.048c0.512 3.482 1.297 6.793 2.731 10.035 3.652 8.294 10.615 14.916 19.115 18.125 3.277 1.229 6.656 1.843 10.138 2.15 2.082 0.068 2.082 0.068 4.164 0v0z" />
</svg>