<svg width="150px" height="150px" viewBox="5 -40 31 41" version="1.1" xmlns="http://www.w3.org/2000/svg">
  <path transform="scale(0.037, -0.037)" glyph-name="freight" d="M824.32 298.666h-624.64c-10.24 0-17.067-6.827-17.067-17.067s6.827-17.067 17.067-17.067h54.613c-10.24-13.653-17.067-27.307-17.067-44.373 0-37.547 30.72-71.68 71.68-71.68 37.547 0 71.68 30.72 71.68 71.68 0 17.067-6.827 30.72-17.067 44.373h296.96c-10.24-13.653-17.067-27.307-17.067-44.373 0-37.547 30.72-71.68 71.68-71.68 37.547 0 71.68 30.72 71.68 71.68 0 17.067-6.827 30.72-17.067 44.373h54.613c10.24 0 17.067 6.827 17.067 17.067s-10.24 17.067-17.067 17.067zM308.907 179.2c-23.893 0-44.373 20.48-44.373 44.373s20.48 44.373 44.373 44.373c23.893 0 44.373-20.48 44.373-44.373-3.413-23.893-20.48-44.373-44.373-44.373zM715.093 179.2c-23.893 0-44.373 20.48-44.373 44.373s20.48 44.373 44.373 44.373c23.893 0 44.373-20.48 44.373-44.373s-20.48-44.373-44.373-44.373zM206.507 339.626h607.573c10.24 0 17.067 6.827 17.067 17.067v361.813c0 10.24-6.827 17.067-17.067 17.067h-607.573c-10.24 0-17.067-6.827-17.067-17.067v-365.227c3.413-6.827 10.24-13.653 17.067-13.653zM496.64 370.346h-119.467v331.093h119.467v-331.093zM527.36 704.853h119.467v-331.093h-119.467v331.093zM800.427 370.346h-119.467v331.093h119.467v-331.093zM223.573 704.853h119.467v-331.093h-119.467v331.093z" />
</svg>