<svg width="150px" height="150px" viewBox="5 -40 31 41" version="1.1" xmlns="http://www.w3.org/2000/svg">
  <path transform="scale(0.037, -0.037)" glyph-name="gsm_r" d="M607.471 557.158c0 0 0 0 0 0 0-7.782 6.383-14.131 14.131-14.131 3.755 0 7.339 1.468 10.001 4.13 46.251 46.387 46.251 122.539 0 168.926-2.662 2.662-6.246 4.13-10.001 4.13s-7.339-1.468-10.001-4.13c-2.662-2.662-4.13-6.246-4.13-10.001s1.468-7.339 4.13-10.001c35.26-35.396 35.26-93.525 0-128.922-2.662-2.662-4.13-6.246-4.13-10.001zM402.33 543.027c0 0 0 0 0 0 7.748 0 14.131 6.383 14.131 14.131 0 3.755-1.468 7.339-4.13 10.001-17.135 17.067-26.761 40.277-26.761 64.478 0 24.166 9.626 47.377 26.761 64.444 2.662 2.662 4.13 6.246 4.13 10.001 0 7.748-6.383 14.131-14.131 14.131-3.755 0-7.339-1.468-10.001-4.13-22.426-22.357-35.055-52.77-35.055-84.446 0-31.71 12.629-62.123 35.055-84.48 2.662-2.662 6.246-4.13 10.001-4.13zM706.082 769.536c0 0-0.034 0-0.034 0-7.748 0-14.131-6.383-14.131-14.131 0-3.755 1.502-7.373 4.164-10.001 30.242-30.276 47.275-71.339 47.275-114.142 0-42.769-17.033-83.866-47.275-114.108-2.662-2.662-4.164-6.246-4.164-10.001 0-7.748 6.383-14.131 14.165-14.131 3.721 0 7.339 1.502 9.967 4.13 73.421 73.66 73.421 194.594 0 268.22-2.628 2.662-6.246 4.164-9.967 4.164v0zM317.508 493.363c0 0 0 0 0.034 0 7.748 0 14.131 6.383 14.131 14.131 0 3.755-1.502 7.373-4.164 10.001-30.242 30.242-47.275 71.339-47.275 114.142 0 42.769 17.033 83.866 47.275 114.108 2.662 2.628 4.164 6.246 4.164 10.001 0 7.748-6.383 14.131-14.165 14.131-3.721 0-7.339-1.502-10.001-4.13-73.387-73.66-73.387-194.594 0-268.254 2.662-2.628 6.281-4.13 10.001-4.13v0zM800.87 814.694c-2.628 2.662-6.246 4.13-10.001 4.13-7.748 0-14.131-6.383-14.131-14.131 0 0 0 0 0 0 0-3.755 1.502-7.339 4.13-10.001 89.805-89.873 89.805-237.67 0-327.509-2.628-2.662-4.13-6.281-4.13-10.001 0-7.782 6.383-14.131 14.131-14.131 0 0 0 0 0 0 3.755-0.034 7.373 1.468 10.001 4.13 100.762 100.83 100.762 266.684 0 367.514v0zM247.194 805.034c0 3.755-1.502 7.339-4.13 10.001-2.628 2.697-6.246 4.164-10.001 4.13-3.755 0-7.373-1.468-10.001-4.13-100.557-100.796-100.557-266.377 0-367.172 2.628-2.662 6.246-4.13 10.001-4.13 7.748 0 14.131 6.383 14.131 14.131 0 3.755-1.502 7.339-4.13 10.001-89.805 89.839-89.805 237.67 0 327.509 2.56 2.56 4.028 6.042 4.13 9.66zM524.732 579.55h3.447c19.183 6.861 32.051 25.122 32.051 45.466 0 26.487-21.777 48.265-48.265 48.265s-48.265-21.777-48.265-48.265c0-0.102 0-0.205 0-0.307 0.717-21.094 14.473-39.697 34.475-46.524h3.106l-194.458-491.281c-0.614-1.536-0.922-3.174-0.922-4.847 0-7.134 5.837-13.039 13.005-13.073 2.014-0.512 4.164-0.512 6.212 0l188.928 103.424 184.422-103.424c1.98-1.126 4.198-1.707 6.417-1.707 7.202 0 13.107 5.939 13.107 13.107 0 1.638-0.307 3.277-0.887 4.779l-192.375 494.387zM602.999 297.54l-68.983 57.583 37.239 30.003 31.744-87.586zM511.966 538.863l46.182-128.58-47.206-36.557-48.606 39.322 49.63 125.815zM451.618 386.833l37.239-31.71-71.714-54.135 34.475 85.845zM344.405 114.142l49.323 125.474 88.576-51.371-137.899-74.103zM508.518 205.482l-95.846 55.159 98.27 78.609 97.894-80.316-100.318-53.453zM539.204 190.327l88.61 49.289 47.582-126.874-136.192 77.585z" />
</svg>