<svg width="150px" height="150px" viewBox="5 -40 31 41" version="1.1" xmlns="http://www.w3.org/2000/svg">
  <path transform="scale(0.037, -0.037)" glyph-name="graduates" d="M916.48 561.493c0 3.413 0 3.413 0 0-3.413 3.413-6.827 3.413-6.827 3.413l-392.533 143.36c-3.413 0-6.827 0-10.24 0l-392.533-143.36c-6.827-3.413-10.24-10.24-10.24-17.067s3.413-13.653 10.24-17.067l167.253-61.44v-204.8c0-6.827 3.413-10.24 6.827-13.653s102.4-75.093 225.28-75.093c122.88 0 221.867 71.68 225.28 75.093s6.827 6.827 6.827 13.653v208.213l143.36 51.2v-331.093c0-10.24 6.827-17.067 17.067-17.067s17.067 6.827 17.067 17.067v358.4c0 3.413-3.413 6.827-6.827 10.24zM708.267 274.773c-23.893-17.067-102.4-64.853-197.973-64.853-92.16 0-174.080 47.787-197.973 64.853v187.733l191.147-68.267c3.413 0 6.827 0 10.24 0l191.147 68.267v-187.733h3.413zM510.293 424.96l-341.333 122.88 341.333 122.88 341.333-122.88-341.333-122.88z" />
</svg>