<svg width="150px" height="150px" viewBox="5 -40 31 41" version="1.1" xmlns="http://www.w3.org/2000/svg">
  <path transform="scale(0.037, -0.037)" glyph-name="howw_we_work" d="M803.84 244.053l-184.32 184.32v6.827c17.067 85.333-6.827 174.080-71.68 235.52-47.787 47.787-112.64 75.093-177.493 75.093-23.893 0-47.787-3.413-71.68-10.24-13.653-3.413-23.893-13.653-30.72-27.307-3.413-13.653 0-30.72 10.24-40.96l95.573-95.573-20.48-75.093-71.68-20.48-95.573 95.573c-6.827 6.827-17.067 10.24-27.307 10.24-3.413 0-6.827 0-10.24 0-13.653-3.413-23.893-13.653-27.307-27.307-23.893-92.16 0-187.733 64.853-252.587 47.787-47.787 112.64-75.093 180.907-75.093 17.067 0 37.547 3.413 54.613 6.827h6.827l184.32-184.32c23.893-23.893 58.027-37.547 95.573-37.547s71.68 13.653 95.573 40.96c51.2 51.2 51.2 133.12 3.413 184.32-3.413 3.413-3.413 6.827-3.413 6.827zM769.707 83.626c-17.067-17.067-40.96-27.307-64.853-27.307s-47.787 10.24-61.44 27.307l-194.56 194.56c-3.413 3.413-10.24 6.827-17.067 6.827-3.413 0-3.413 0-6.827 0-20.48-6.827-40.96-10.24-64.853-10.24-54.613 0-109.227 20.48-146.773 61.44-44.373 44.373-68.267 109.227-61.44 174.080l3.413 30.72 102.4-102.4c3.413-3.413 10.24-6.827 17.067-6.827 3.413 0 3.413 0 6.827 0l98.987 27.307c6.827 3.413 13.653 6.827 17.067 17.067l27.307 98.987c3.413 6.827 0 17.067-6.827 20.48l-102.4 102.4 30.72 3.413c6.827 0 17.067 0 23.893 0 54.613 0 109.227-20.48 146.773-61.44 54.613-54.613 75.093-136.533 54.613-215.040-3.413-6.827 0-17.067 6.827-20.48l194.56-194.56c30.72-34.133 30.72-92.16-3.413-126.293zM837.973 493.226c0-16.966-13.754-30.72-30.72-30.72s-30.72 13.754-30.72 30.72c0 16.966 13.754 30.72 30.72 30.72s30.72-13.754 30.72-30.72zM909.653 807.253c-13.653 44.373-61.44 68.267-102.4 68.267-51.2 0-95.573-30.72-112.64-75.093-3.413-6.827-3.413-10.24 0-17.067s6.827-10.24 13.653-10.24c3.413 0 3.413 0 6.827 0 10.24 0 17.067 6.827 20.48 13.653 13.653 34.133 44.373 44.373 71.68 44.373 23.893 0 51.2-13.653 61.44-37.547 6.827-23.893 0-54.613-20.48-68.267-6.827-3.413-64.853-47.787-64.853-98.987 0-13.653 10.24-23.893 20.48-23.893s20.48 10.24 20.48 23.893c0 17.067 20.48 44.373 47.787 61.44 37.547 27.307 51.2 75.093 37.547 119.467z" />
</svg>