<svg width="150px" height="150px" viewBox="5 -40 31 41" version="1.1" xmlns="http://www.w3.org/2000/svg">
  <path transform="scale(0.037, -0.037)" glyph-name="how_we_recruit" d="M339.251 443.562c11.571 8.909 12.459 14.268 12.459 48.401-0.307 24.439-9.865 47.889-26.726 65.638-31.539 33.109-46.694 78.677-41.267 124.109 0 67.106 55.228 122.334 122.334 122.334s122.334-55.228 122.334-122.334c0-9.796 0-29.696 0-29.696-1.468-20.787 29.696-26.112 29.696 6.827 0 7.134 0 14.268 0 21.675 0 83.968-69.086 153.088-153.054 153.088-84.002 0-153.088-69.12-153.088-153.088-5.632-53.146 12.425-106.189 49.289-144.896 11.571-12.254 18.227-28.297 18.705-45.124v-19.9c0.102-3.652-2.389-6.895-5.939-7.714l-114.62-29.696c-37.444-9.387-63.898-43.349-63.829-81.988-0.41-1.365-0.614-2.799-0.614-4.233 0-8.465 6.997-15.428 15.462-15.428s15.428 6.963 15.428 15.428c0 1.434-0.205 2.867-0.58 4.233-1.707 26.829 16.964 50.995 43.349 56.149l114.62 29.696c5.632 1.331 11.059 3.516 16.043 6.519zM643.618 615.185c-133.393-0.512-242.859-110.387-242.859-243.78 0-54.852 18.5-108.1 52.497-151.142l8.329-10.411-135.407-135.407c-2.662-2.594-4.164-6.178-4.164-9.933 0-7.646 6.315-13.961 13.961-13.961 3.652 0 7.202 1.434 9.796 4.028l135.407 135.407 10.411-8.329c43.008-34.748 96.734-53.623 152.030-53.453 133.734 0 243.78 110.046 243.78 243.78 0 133.769-110.046 243.814-243.78 243.814v-0.614zM643.618 155.511c-118.067 0.546-214.903 97.826-214.903 215.893 0 90.795 57.31 172.339 142.746 203.127 23.142 8.294 47.548 12.629 72.158 12.766 118.409 0 215.859-97.451 215.859-215.893s-97.451-215.893-215.859-215.893v0zM747.827 462.575c-5.154-0.034-10.035-2.287-13.346-6.246l-125.611-150.562-69.188 69.188c-6.861 6.588-17.783 6.588-24.644 0-6.724-6.758-6.724-17.852 0-24.644l82.534-82.534c3.311-3.311 7.817-5.12 12.493-5.052 4.813 0.273 9.353 2.526 12.459 6.246l137.796 165.376c6.076 7.441 5.018 18.534-2.389 24.644-2.901 2.253-6.451 3.482-10.103 3.584z" />
</svg>