<svg width="150px" height="150px" viewBox="5 -40 31 41" version="1.1" xmlns="http://www.w3.org/2000/svg">
  <path transform="scale(0.037, -0.037)" glyph-name="history" d="M510.293 585.386c-10.24 0-20.48-10.24-20.48-20.48v-450.56c0-10.24 10.24-20.48 20.48-20.48s20.48 10.24 20.48 20.48v450.56c0 10.24-6.827 20.48-20.48 20.48zM394.24 530.773c-10.24 0-20.48-10.24-20.48-20.48v-389.12c0-10.24 10.24-20.48 20.48-20.48s20.48 10.24 20.48 20.48v389.12c-3.413 10.24-10.24 20.48-20.48 20.48zM274.773 424.96c-10.24 0-20.48-10.24-20.48-20.48v-252.587c0-10.24 10.24-20.48 20.48-20.48s20.48 10.24 20.48 20.48v252.587c0 10.24-10.24 20.48-20.48 20.48zM817.493 793.6h-610.987c-81.92 0-146.773-64.853-146.773-146.773s64.853-146.773 146.773-146.773c81.92 0 146.773 64.853 146.773 146.773 0 10.24-10.24 20.48-20.48 20.48s-20.48-10.24-20.48-20.48c0-58.027-47.787-105.813-105.813-105.813s-105.813 47.787-105.813 105.813c0 58.027 47.787 105.813 105.813 105.813h607.573c58.027 0 105.813-47.787 105.813-105.813s-47.787-105.813-105.813-105.813c-58.027 0-105.813 47.787-105.813 105.813 0 10.24-10.24 20.48-20.48 20.48s-20.48-10.24-20.48-20.48c0-81.92 64.853-146.773 146.773-146.773s146.773 64.853 146.773 146.773c0 81.92-64.853 146.773-143.36 146.773zM629.76 530.773c-10.24 0-20.48-10.24-20.48-20.48v-389.12c0-10.24 10.24-20.48 20.48-20.48s20.48 10.24 20.48 20.48v389.12c0 10.24-10.24 20.48-20.48 20.48zM749.227 424.96c-10.24 0-20.48-10.24-20.48-20.48v-252.587c0-10.24 10.24-20.48 20.48-20.48s20.48 10.24 20.48 20.48v252.587c0 10.24-10.24 20.48-20.48 20.48z" />
</svg>