<svg width="150px" height="150px" viewBox="5 -40 31 41" version="1.1" xmlns="http://www.w3.org/2000/svg">
  <path transform="scale(0.037, -0.037)" glyph-name="how_we_are_making_it_happen" d="M851.627 121.173h-78.507v187.733h78.507c10.24 0 17.067 6.827 17.067 17.067s-6.827 17.067-17.067 17.067h-78.507v44.373c0 6.827-6.827 13.653-13.653 13.653h-75.093c-6.827 0-13.653-6.827-13.653-13.653v-44.373h-112.64v44.373c0 6.827-6.827 13.653-13.653 13.653h-75.093c-6.827 0-13.653-6.827-13.653-13.653v-44.373h-105.813v44.373c0 6.827-6.827 13.653-13.653 13.653h-75.093c-6.827 0-13.653-6.827-13.653-13.653v-44.373h-78.507c-10.24 0-17.067-6.827-17.067-17.067s6.827-17.067 17.067-17.067h78.507v-187.733h-78.507c-10.24 0-17.067-6.827-17.067-17.067s6.827-17.067 17.067-17.067h78.507v-44.373c0-6.827 6.827-13.653 13.653-13.653h75.093c6.827 0 13.653 6.827 13.653 13.653v44.373h112.64v-44.373c0-6.827 6.827-13.653 13.653-13.653h75.093c6.827 0 13.653 6.827 13.653 13.653v44.373h112.64v-44.373c0-6.827 6.827-13.653 13.653-13.653h68.267c6.827 0 13.653 6.827 13.653 13.653v44.373h78.507c10.24 0 17.067 6.827 17.067 17.067s-6.827 17.067-17.067 17.067zM349.867 121.173v187.733h112.64v-187.733h-112.64zM561.493 121.173v187.733h112.64v-187.733h-112.64zM537.6 489.813c0-15.081-12.226-27.307-27.307-27.307s-27.307 12.226-27.307 27.307c0 15.081 12.226 27.307 27.307 27.307s27.307-12.226 27.307-27.307zM421.547 756.053c3.413 0 3.413 0 6.827 0 10.24 0 17.067 6.827 20.48 13.653 13.653 34.133 40.96 44.373 68.267 44.373 23.893 0 51.2-13.653 58.027-37.547s0-51.2-20.48-64.853c-6.827-3.413-61.44-47.787-61.44-95.573 0-10.24 10.24-20.48 20.48-20.48s20.48 10.24 20.48 20.48c0 13.653 20.48 40.96 44.373 61.44 34.133 23.893 47.787 71.68 34.133 112.64-13.653 44.373-61.44 64.853-98.987 64.853-47.787 0-92.16-27.307-105.813-71.68-3.413-6.827-3.413-10.24 0-17.067 3.413-3.413 6.827-6.827 13.653-10.24z" />
</svg>