<svg width="150px" height="150px" viewBox="5 -40 31 41" version="1.1" xmlns="http://www.w3.org/2000/svg">
  <path transform="scale(0.037, -0.037)" glyph-name="innovation_and_rail_technology" d="M851.627 22.186h-78.507v187.733h78.507c10.24 0 17.067 6.827 17.067 17.067s-6.827 17.067-17.067 17.067h-78.507v44.373c0 6.827-6.827 13.653-13.653 13.653h-75.093c-6.827 0-13.653-6.827-13.653-13.653v-44.373h-112.64v44.373c0 6.827-6.827 13.653-13.653 13.653h-75.093c-6.827 0-13.653-6.827-13.653-13.653v-44.373h-105.813v44.373c0 6.827-6.827 13.653-13.653 13.653h-75.093c-6.827 0-13.653-6.827-13.653-13.653v-44.373h-78.507c-10.24 0-17.067-6.827-17.067-17.067s6.827-17.067 17.067-17.067h78.507v-187.733h-78.507c-10.24 0-17.067-6.827-17.067-17.067s6.827-17.067 17.067-17.067h78.507v-44.373c0-6.827 6.827-13.653 13.653-13.653h75.093c6.827 0 13.653 6.827 13.653 13.653v47.787h112.64v-44.373c0-6.827 6.827-13.653 13.653-13.653h75.093c6.827 0 13.653 6.827 13.653 13.653v44.373h112.64v-44.373c0-6.827 6.827-13.653 13.653-13.653h68.267c6.827 0 13.653 6.827 13.653 13.653v44.373h78.507c10.24 0 17.067 6.827 17.067 17.067s-6.827 13.653-17.067 13.653zM349.867 22.186v187.733h112.64v-187.733h-112.64zM561.493 22.186v187.733h112.64v-187.733h-112.64zM513.707 923.306c3.413 0 6.827 0 10.24 3.413s3.413 6.827 3.413 10.24c0 3.413 0 6.827-3.413 10.24s-6.827 3.413-10.24 3.413c-3.413 0-6.827 0-10.24-3.413s-3.413-6.827-3.413-10.24c0-3.413 3.413-6.827 3.413-10.24 0 0 3.413-3.413 10.24-3.413zM687.787 797.013c3.413 0 6.827 3.413 10.24 3.413 3.413 3.413 3.413 6.827 3.413 10.24s-3.413 6.827-3.413 10.24c-3.413 3.413-6.827 3.413-10.24 3.413s-6.827 0-10.24-3.413c-3.413-3.413-3.413-6.827-3.413-10.24s3.413-6.827 3.413-10.24c3.413-3.413 6.827-3.413 10.24-3.413zM807.253 619.52c3.413 0 6.827 3.413 10.24 3.413 3.413 3.413 3.413 6.827 3.413 10.24s0 6.827-3.413 10.24c-3.413 3.413-6.827 3.413-10.24 3.413s-6.827 0-10.24-3.413c-3.413 0-3.413-3.413-3.413-6.827s3.413-6.827 3.413-10.24c3.413-3.413 6.827-6.827 10.24-6.827zM735.573 646.826c-3.413-3.413-3.413-6.827-3.413-10.24s0-6.827 3.413-10.24c3.413-3.413 6.827-3.413 10.24-3.413s6.827 0 10.24 3.413c3.413 3.413 3.413 6.827 3.413 10.24s0 6.827-3.413 10.24c-3.413 3.413-6.827 3.413-10.24 3.413s-6.827 0-10.24-3.413zM735.573 844.8c3.413 0 6.827 3.413 10.24 3.413 3.413 3.413 3.413 6.827 3.413 10.24s-3.413 6.827-3.413 10.24c-3.413 3.413-6.827 3.413-10.24 3.413s-6.827 0-10.24-3.413c-3.413-3.413-3.413-6.827-3.413-10.24s3.413-6.827 3.413-10.24c3.413-3.413 6.827-3.413 10.24-3.413zM291.84 841.386c3.413 0 6.827 3.413 10.24 3.413 3.413 3.413 3.413 6.827 3.413 10.24s-3.413 6.827-3.413 10.24c-3.413 3.413-6.827 3.413-10.24 3.413s-6.827 0-10.24-3.413c-3.413-3.413-3.413-6.827-3.413-10.24s0-6.827 3.413-10.24c3.413-3.413 6.827-3.413 10.24-3.413zM513.707 855.040c3.413 0 6.827 3.413 10.24 3.413 3.413 3.413 3.413 6.827 3.413 10.24s-3.413 6.827-3.413 10.24c-3.413 3.413-6.827 3.413-10.24 3.413s-6.827 0-10.24-3.413c-3.413-3.413-3.413-6.827-3.413-10.24s3.413-6.827 3.413-10.24c0-3.413 3.413-3.413 10.24-3.413zM278.187 619.52c3.413 0 6.827 3.413 10.24 3.413 3.413 3.413 3.413 6.827 3.413 10.24s-3.413 6.827-3.413 10.24c-3.413 3.413-6.827 3.413-10.24 3.413s-6.827 0-10.24-3.413c-3.413-3.413-3.413-6.827-3.413-10.24s3.413-6.827 3.413-10.24c3.413 0 6.827-3.413 10.24-3.413zM336.213 797.013c3.413 0 6.827 3.413 10.24 3.413 3.413 3.413 3.413 6.827 3.413 10.24s-3.413 6.827-3.413 10.24c-3.413 3.413-6.827 3.413-10.24 3.413s-6.827 0-10.24-3.413c-3.413-3.413-3.413-6.827-3.413-10.24s3.413-6.827 3.413-10.24c3.413-3.413 6.827-3.413 10.24-3.413zM216.747 619.52c3.413 0 6.827 3.413 10.24 3.413 3.413 3.413 3.413 6.827 3.413 10.24s-3.413 6.827-3.413 10.24c-3.413 3.413-6.827 3.413-10.24 3.413s-6.827 0-10.24-3.413c-3.413-3.413-3.413-6.827-3.413-10.24s3.413-6.827 3.413-10.24c3.413 0 6.827-3.413 10.24-3.413zM384 541.013l3.413-3.413c51.2-61.44 51.2-71.68 51.2-102.4v-6.827c3.413-37.547 34.133-68.267 71.68-68.267s68.267 27.307 71.68 68.267v6.827c0 30.72 3.413 40.96 51.2 102.4l3.413 6.827c20.48 27.307 30.72 61.44 30.72 95.573 0 88.747-71.68 160.427-160.427 160.427s-160.427-71.68-160.427-160.427c3.413-37.547 17.067-71.68 37.547-98.987zM554.667 428.373c0-23.893-20.48-40.96-44.373-40.96s-40.96 17.067-44.373 40.96l-3.413 17.067h88.747l3.413-17.067zM513.707 766.293c71.68 0 129.707-58.027 129.707-129.707 0-30.72-10.24-58.027-27.307-78.507l-3.413-6.827c-23.893-30.72-37.547-51.2-44.373-64.853l-3.413-6.827h-98.987l-3.413 6.827c-6.827 13.653-20.48 34.133-44.373 68.267l-3.413 3.413c-20.48 23.893-27.307 51.2-27.307 81.92-6.827 68.267 51.2 126.293 126.293 126.293z" />
</svg>