<svg width="150px" height="150px" viewBox="5 -40 31 41" version="1.1" xmlns="http://www.w3.org/2000/svg">
  <path transform="scale(0.037, -0.037)" glyph-name="investor_relations" d="M883.098 222.31c-3.038 3.277-7.27 5.12-11.742 5.188h-681.438l111.855 111.855 42.155-42.189c3.004-2.867 7.031-4.403 11.196-4.301 4.301-0.034 8.499 1.502 11.742 4.301l111.002 110.729 41.301-41.609c2.833-2.935 6.793-4.608 10.889-4.574 4.062 0.205 7.919 1.843 10.889 4.574l235.179 235.179-2.867-77.414c0-0.307 0-0.58 0-0.887 0-8.602 6.895-15.735 15.497-16.043 0.58-0.068 1.161-0.102 1.741-0.102 8.465 0 15.462 6.997 15.462 15.497 0 0.034 0 0.068 0 0.102l6.315 119.296c0.171 4.642-1.468 9.182-4.574 12.629-3.379 3.072-7.782 4.71-12.356 4.574l-119.296-6.315c-8.67-0.887-15.258-8.465-14.916-17.203 0.137-8.090 6.827-14.643 14.916-14.643 0.273 0 0.58 0 0.853 0.034l79.155 4.574-223.983-223.983-42.155 42.155c-2.833 2.97-6.793 4.642-10.889 4.574-4.096-0.171-7.953-1.775-10.923-4.574l-112.401-113.015-42.189 42.189c-2.833 2.935-6.758 4.608-10.889 4.574-4.062-0.205-7.919-1.809-10.889-4.574l-123.631-122.778v425.335c0 8.499-6.963 15.497-15.462 15.497s-15.497-6.997-15.497-15.497v-463.462c0.137-8.431 7.066-15.326 15.497-15.497h718.711c8.533 0.171 15.497 7.236 15.497 15.77 0.273 3.721-1.092 7.407-3.755 10.035v0z" />
</svg>