<svg width="150px" height="150px" viewBox="5 -40 31 41" version="1.1" xmlns="http://www.w3.org/2000/svg">
  <path transform="scale(0.037, -0.037)" glyph-name="instagram" d="M887.467 490.666v-317.133c0-27.921-11.093-54.716-30.822-74.445s-46.524-30.822-74.445-30.822c-143.053 0-397.346 0-540.399 0-27.921 0-54.716 11.093-74.445 30.822s-30.822 46.524-30.822 74.445c0 143.053 0 397.346 0 540.399 0 27.921 11.093 54.716 30.822 74.445s46.524 30.822 74.445 30.822c143.053 0 397.346 0 540.399 0 27.921 0 54.716-11.093 74.445-30.822s30.822-46.524 30.822-74.445v-176.333h-223.13c-31.539 51.029-87.996 85.060-152.337 85.060s-120.798-34.031-152.337-85.060h-223.13v-46.933h202.752c-4.062-14.95-6.212-30.686-6.212-46.933 0-98.748 80.179-178.927 178.927-178.927s178.927 80.179 178.927 178.927c0 16.247-2.15 31.983-6.212 46.933h202.752zM512 575.146c72.533 0 131.413-58.88 131.413-131.413s-58.88-131.413-131.413-131.413c-72.533 0-131.413 58.88-131.413 131.413s58.88 131.413 131.413 131.413zM817.050 748.783h-93.867v-93.867h93.867v93.867z" />
</svg>