<svg width="150px" height="150px" viewBox="5 -40 31 41" version="1.1" xmlns="http://www.w3.org/2000/svg">
  <path transform="scale(0.037, -0.037)" glyph-name="industry_and_commercial" d="M878.933 738.986h-88.747v64.853c0 6.827-6.827 17.067-17.067 17.067s-17.067-6.827-17.067-17.067v-64.853h-262.827c-6.827 0-17.067-6.827-17.067-17.067v-139.947h-331.093c-6.827 0-17.067-6.827-17.067-17.067v-484.693c0-6.827 6.827-17.067 17.067-17.067h737.28c6.827 0 17.067 6.827 17.067 17.067v645.12c-3.413 6.827-10.24 13.653-20.48 13.653zM158.72 554.666h320.853v-453.973h-320.853v453.973zM865.28 97.28h-351.573v610.987h351.573v-610.987zM226.987 438.613h187.733c6.827 0 17.067 6.827 17.067 17.067s-6.827 13.653-17.067 13.653h-187.733c-6.827 0-17.067-6.827-17.067-17.067s10.24-13.653 17.067-13.653zM226.987 346.453h187.733c6.827 0 17.067 6.827 17.067 17.067s-6.827 17.067-17.067 17.067h-187.733c-6.827 0-17.067-6.827-17.067-17.067s10.24-17.067 17.067-17.067zM431.787 274.773c0 6.827-6.827 17.067-17.067 17.067h-187.733c-6.827 0-17.067-6.827-17.067-17.067s6.827-17.067 17.067-17.067h187.733c10.24 3.413 17.067 10.24 17.067 17.067zM779.947 288.426c6.827 0 17.067 6.827 17.067 17.067v61.44c0 6.827-6.827 17.067-17.067 17.067s-17.067-6.827-17.067-17.067v-61.44c0-10.24 6.827-17.067 17.067-17.067zM779.947 155.306c6.827 0 17.067 6.827 17.067 17.067v61.44c0 6.827-6.827 17.067-17.067 17.067s-17.067-6.827-17.067-17.067v-61.44c0-10.24 6.827-17.067 17.067-17.067zM779.947 551.253c6.827 0 17.067 6.827 17.067 17.067v61.44c0 6.827-6.827 17.067-17.067 17.067s-17.067-6.827-17.067-17.067v-61.44c0-10.24 6.827-17.067 17.067-17.067zM779.947 418.133c6.827 0 17.067 6.827 17.067 17.067v61.44c0 6.827-6.827 17.067-17.067 17.067s-17.067-6.827-17.067-17.067v-61.44c0-10.24 6.827-17.067 17.067-17.067zM687.787 155.306c6.827 0 17.067 6.827 17.067 17.067v61.44c0 6.827-6.827 17.067-17.067 17.067s-17.067-6.827-17.067-17.067v-61.44c3.413-10.24 10.24-17.067 17.067-17.067zM687.787 551.253c6.827 0 17.067 6.827 17.067 17.067v61.44c0 6.827-6.827 17.067-17.067 17.067s-17.067-6.827-17.067-17.067v-61.44c3.413-10.24 10.24-17.067 17.067-17.067zM687.787 288.426c6.827 0 17.067 6.827 17.067 17.067v61.44c0 6.827-6.827 17.067-17.067 17.067s-17.067-6.827-17.067-17.067v-61.44c3.413-10.24 10.24-17.067 17.067-17.067zM687.787 418.133c6.827 0 17.067 6.827 17.067 17.067v61.44c0 6.827-6.827 17.067-17.067 17.067s-17.067-6.827-17.067-17.067v-61.44c3.413-10.24 10.24-17.067 17.067-17.067zM599.040 418.133c6.827 0 17.067 6.827 17.067 17.067v61.44c0 6.827-6.827 17.067-17.067 17.067s-17.067-6.827-17.067-17.067v-61.44c0-10.24 6.827-17.067 17.067-17.067zM599.040 551.253c6.827 0 17.067 6.827 17.067 17.067v61.44c0 6.827-6.827 17.067-17.067 17.067s-17.067-6.827-17.067-17.067v-61.44c0-10.24 6.827-17.067 17.067-17.067zM599.040 155.306c6.827 0 17.067 6.827 17.067 17.067v61.44c0 6.827-6.827 17.067-17.067 17.067s-17.067-6.827-17.067-17.067v-61.44c0-10.24 6.827-17.067 17.067-17.067zM599.040 288.426c6.827 0 17.067 6.827 17.067 17.067v61.44c0 6.827-6.827 17.067-17.067 17.067s-17.067-6.827-17.067-17.067v-61.44c0-10.24 6.827-17.067 17.067-17.067z" />
</svg>