<svg width="150px" height="150px" viewBox="5 -40 31 41" version="1.1" xmlns="http://www.w3.org/2000/svg">
  <path transform="scale(0.037, -0.037)" glyph-name="latest_news" d="M414.72 267.946h-129.707c-10.24 0-17.067-6.827-17.067-17.067s6.827-17.067 17.067-17.067h129.707c10.24 0 17.067 6.827 17.067 17.067s-6.827 17.067-17.067 17.067zM865.28 718.506c-10.24 0-17.067-6.827-17.067-17.067v-515.413c0-44.373-37.547-78.507-78.507-78.507-44.373 0-78.507 37.547-78.507 78.507v580.267c0 27.307-20.48 47.787-47.787 47.787h-453.973c-27.307 0-47.787-20.48-47.787-47.787v-580.267c0-64.853 51.2-116.053 116.053-116.053h515.413c61.44 0 112.64 51.2 112.64 112.64v518.827c-3.413 10.24-10.24 17.067-20.48 17.067zM254.293 107.52c-44.373 0-81.92 37.547-81.92 81.92v593.92h481.28v-593.92c0-20.48 6.827-40.96 13.653-58.027l13.653-23.893h-426.667zM769.707 168.96c10.24 0 17.067 6.827 17.067 17.067v549.547c0 10.24-6.827 17.067-17.067 17.067s-17.067-6.827-17.067-17.067v-549.547c0-10.24 6.827-17.067 17.067-17.067zM302.080 636.586c0-9.426-7.641-17.067-17.067-17.067s-17.067 7.641-17.067 17.067c0 9.426 7.641 17.067 17.067 17.067s17.067-7.641 17.067-17.067zM544.427 653.653h-160.427c-10.24 0-17.067-6.827-17.067-17.067s6.827-17.067 17.067-17.067h160.427c10.24 0 17.067 6.827 17.067 17.067s-6.827 17.067-17.067 17.067zM544.427 397.653h-259.413c-10.24 0-17.067-6.827-17.067-17.067s6.827-17.067 17.067-17.067h259.413c10.24 0 17.067 6.827 17.067 17.067 0 6.827-6.827 17.067-17.067 17.067zM544.427 523.946h-259.413c-10.24 0-17.067-6.827-17.067-17.067s6.827-17.067 17.067-17.067h259.413c10.24 0 17.067 6.827 17.067 17.067s-6.827 17.067-17.067 17.067z" />
</svg>