<svg width="150px" height="150px" viewBox="5 -40 31 41" version="1.1" xmlns="http://www.w3.org/2000/svg">
  <path transform="scale(0.037, -0.037)" glyph-name="linkedin" d="M896.41 367.343v-290.543h-168.448v271.087c0 68.096-24.371 114.551-85.333 114.551-46.524 0-74.24-31.3-86.426-61.611-4.437-10.82-5.598-25.907-5.598-41.062v-282.965h-168.482c0 0 2.287 459.127 0 506.675h168.482v-71.817c-0.341-0.546-0.785-1.126-1.092-1.638h1.092v1.638c22.391 34.475 62.362 83.729 151.825 83.729 110.865 0 193.98-72.431 193.98-228.045zM205.892 827.733c-57.651 0-95.369-37.82-95.369-87.518 0-48.64 36.625-87.586 93.116-87.586h1.126c58.743 0 95.3 38.946 95.3 87.586-1.092 49.698-36.557 87.518-94.174 87.518zM120.559 76.8h168.414v506.675h-168.414v-506.675z" />
</svg>