<svg width="150px" height="150px" viewBox="5 -40 31 41" version="1.1" xmlns="http://www.w3.org/2000/svg">
  <path transform="scale(0.037, -0.037)" glyph-name="lineside_neighbours" d="M452.267 667.306h34.133v-180.907c0-6.827 6.827-13.653 13.653-13.653h262.827c6.827 0 13.653 6.827 13.653 13.653v180.907h34.133c6.827 0 10.24 3.413 13.653 10.24 0 3.413 3.413 10.24-3.413 17.067l-180.907 157.013c-6.827 3.413-13.653 3.413-20.48 0l-180.907-157.013c-6.827-6.827-3.413-13.653-3.413-17.067 6.827-3.413 10.24-10.24 17.067-10.24zM636.587 602.453c-30.72 0-58.027-27.307-58.027-58.027v-44.373h-61.44v167.253h235.52v-167.253h-58.027v44.373c0 34.133-27.307 58.027-58.027 58.027zM605.867 544.426c0 17.067 13.653 30.72 30.72 30.72s30.72-13.653 30.72-30.72v-44.373h-58.027v44.373h-3.413zM493.227 698.026l139.947 122.88 139.947-122.88h-279.893zM264.533 592.213v-122.88c0-10.24 6.827-17.067 17.067-17.067s17.067 6.827 17.067 17.067v119.467c61.44 6.827 109.227 58.027 109.227 122.88 0 68.267-54.613 122.88-122.88 122.88s-122.88-54.613-122.88-122.88c-3.413-61.44 44.373-112.64 102.4-119.467zM281.6 807.253c51.2 0 92.16-40.96 92.16-92.16s-40.96-92.16-92.16-92.16c-51.2 0-92.16 40.96-92.16 92.16 0 47.787 40.96 92.16 92.16 92.16zM851.627 121.173h-78.507v187.733h78.507c10.24 0 17.067 6.827 17.067 17.067s-6.827 17.067-17.067 17.067h-78.507v44.373c0 6.827-6.827 13.653-13.653 13.653h-75.093c-6.827 0-13.653-6.827-13.653-13.653v-44.373h-112.64v44.373c0 6.827-6.827 13.653-13.653 13.653h-75.093c-6.827 0-13.653-6.827-13.653-13.653v-44.373h-105.813v44.373c0 6.827-6.827 13.653-13.653 13.653h-75.093c-6.827 0-13.653-6.827-13.653-13.653v-44.373h-78.507c-10.24 0-17.067-6.827-17.067-17.067s6.827-17.067 17.067-17.067h78.507v-187.733h-78.507c-10.24 0-17.067-6.827-17.067-17.067s6.827-17.067 17.067-17.067h78.507v-44.373c0-6.827 6.827-13.653 13.653-13.653h75.093c6.827 0 13.653 6.827 13.653 13.653v44.373h112.64v-44.373c0-6.827 6.827-13.653 13.653-13.653h75.093c6.827 0 13.653 6.827 13.653 13.653v44.373h112.64v-44.373c0-6.827 6.827-13.653 13.653-13.653h68.267c6.827 0 13.653 6.827 13.653 13.653v44.373h78.507c10.24 0 17.067 6.827 17.067 17.067s-6.827 17.067-17.067 17.067zM349.867 121.173v187.733h112.64v-187.733h-112.64zM561.493 121.173v187.733h112.64v-187.733h-112.64z" />
</svg>