<svg viewBox="0 0 24 24" xmlns="http://www.w3.org/2000/svg">
  <path d="M15.07 16.17a7.37 7.37 0 0 1-9.77-.4A7.45 7.45 0 0 1 3.12 9.1a7.42 7.42 0 0 1 7.2-6.1h.18a7.3 7.3 0 0 1 5.08 2.1 7.44 7.44 0 0 1 1.5 8.52c-.24.51-.55 1-.9 1.44 1.56 1.5 3.06 3.08 4.6 4.61.07.09.13.18.17.29a.79.79 0 0 1-.13.76.78.78 0 0 1-1.12.08c-1.58-1.5-3.1-3.09-4.63-4.63ZM10.33 4.56a6.22 6.22 0 0 0-2.4.55 5.9 5.9 0 0 0-3.32 6.05 5.8 5.8 0 0 0 3.52 4.64 5.84 5.84 0 0 0 8.06-4.5 5.9 5.9 0 0 0-.57-3.55 5.92 5.92 0 0 0-5.29-3.2Z"/>
</svg>
