<svg width="150px" height="150px" viewBox="5 -40 31 41" version="1.1" xmlns="http://www.w3.org/2000/svg">
  <path transform="scale(0.037, -0.037)" glyph-name="media_resources" d="M831.147 817.493h-638.293c-27.307 0-47.787-20.48-47.787-47.787v-651.947c0-27.307 20.48-47.787 47.787-47.787h638.293c27.307 0 47.787 20.48 47.787 47.787v651.947c0 23.893-20.48 47.787-47.787 47.787zM848.213 104.106h-669.013v150.187l238.933 208.213 174.080-143.36-58.027-44.373c-6.827-6.827-6.827-13.653-3.413-20.48 3.413-3.413 6.827-6.827 13.653-6.827 3.413 0 6.827 0 10.24 3.413l150.187 119.467 143.36-116.053v-150.187zM848.213 295.253l-136.533 105.813c-3.413 3.413-6.827 3.413-10.24 3.413s-6.827 0-10.24-3.413l-78.507-61.44-187.733 157.013c-3.413 3.413-6.827 3.413-10.24 3.413s-6.827 0-10.24-3.413l-228.693-201.387v488.107h669.013v-488.107h3.413zM670.72 513.706c44.373 0 78.507 34.133 78.507 78.507s-34.133 78.507-78.507 78.507c-44.373 0-78.507-34.133-78.507-78.507s34.133-78.507 78.507-78.507zM670.72 643.413c27.307 0 47.787-20.48 47.787-47.787s-20.48-47.787-47.787-47.787c-27.307 0-47.787 20.48-47.787 47.787 0 23.893 20.48 47.787 47.787 47.787z" />
</svg>