<svg width="150px" height="150px" viewBox="5 -40 31 41" version="1.1" xmlns="http://www.w3.org/2000/svg">
  <path transform="scale(0.037, -0.037)" glyph-name="megaphone" d="M682.325 672.972l191.795 143.872 15.121 10.889v-686.592l-15.121 12.117-191.42 143.599c-63.283-0.068-126.532-0.273-189.781-0.341 0-44.715 0.546-89.395-0.034-134.076-0.102-3.618-0.375-7.202-0.922-10.786-1.263-8.499-3.789-16.794-7.441-24.576-4.949-10.411-11.913-19.831-20.48-27.546-9.557-8.67-21.026-15.189-33.417-18.91-8.226-2.526-16.759-3.789-25.395-3.823-4.437-0.034-8.875 0.137-13.278 0.649-8.533 1.092-16.93 3.413-24.781 6.895-10.513 4.642-20.105 11.401-28.023 19.729-6.929 7.305-12.595 15.77-16.691 24.986-3.482 7.851-5.803 16.213-6.827 24.747-0.444 3.55-0.649 7.1-0.683 10.684v132.301c-3.857 0.034-7.68 0.068-11.503 0.068-2.355 0.034-4.676 0.102-6.997 0.239-7.714 0.41-15.394 1.229-23.006 2.526-18.125 3.174-35.738 9.011-52.156 17.271-22.084 11.093-41.882 26.556-58.027 45.261-14.985 17.476-26.795 37.649-34.543 59.358-7.27 20.343-10.889 41.745-11.025 63.351-0.034 6.963 0.41 13.995 1.161 20.958 4.369 39.014 21.163 76.22 47.514 105.335 17.613 19.422 39.253 35.089 63.215 45.705 16.828 7.441 34.748 12.39 53.009 14.711 7.646 0.922 15.394 1.365 23.108 1.399h376.627zM360.823 296.584c0-44.339-0.512-88.678 0-133.018 0.068-1.399 0.171-2.765 0.307-4.13 0.853-6.11 2.867-11.981 6.178-17.237 4.403-6.997 10.889-12.595 18.466-15.94 5.393-2.389 11.23-3.55 17.135-3.584 3.516 0 6.963 0.102 10.411 0.785 8.090 1.638 15.633 5.666 21.436 11.503 3.652 3.652 6.588 7.953 8.704 12.663 2.389 5.427 3.516 11.196 3.584 17.135v131.721c-28.74 0-57.481 0.034-86.221 0.102zM714.035 639.385v-308.702l129.331-97.007c0 167.561 0 335.155 0 502.716l-129.331-97.007zM491.998 342.835v284.262h-186.163c-6.485 0-12.937-0.41-19.319-1.297-13.79-1.877-27.273-5.803-39.936-11.605-16.964-7.748-32.324-18.876-45.022-32.529-11.844-12.8-21.333-27.75-27.819-43.93-6.042-15.121-9.455-31.266-10.069-47.548-1.092-29.696 7.305-59.426 23.791-84.173 8.431-12.663 18.91-23.927 30.925-33.28 10.513-8.192 22.187-14.882 34.577-19.831 16.828-6.758 34.782-10.069 52.873-10.172h9.114v0.102h177.050zM537.873 627.097v-284.262h130.253v284.262h-130.253z" />
</svg>