<svg width="150px" height="150px" viewBox="5 -40 31 41" version="1.1" xmlns="http://www.w3.org/2000/svg">
  <path transform="scale(0.037, -0.037)" glyph-name="our_railway_upgrade_plan" d="M851.627 131.413h-78.507v187.733h78.507c10.24 0 17.067 6.827 17.067 17.067s-6.827 17.067-17.067 17.067h-78.507v44.373c0 6.827-6.827 13.653-13.653 13.653h-75.093c-6.827 0-13.653-6.827-13.653-13.653v-44.373h-112.64v44.373c0 6.827-6.827 13.653-13.653 13.653h-75.093c-6.827 0-13.653-6.827-13.653-13.653v-44.373h-105.813v44.373c0 6.827-6.827 13.653-13.653 13.653h-75.093c-6.827 0-13.653-6.827-13.653-13.653v-44.373h-78.507c-10.24 0-17.067-6.827-17.067-17.067s6.827-17.067 17.067-17.067h78.507v-187.733h-78.507c-10.24 0-17.067-6.827-17.067-17.067s6.827-17.067 17.067-17.067h78.507v-44.373c0-6.827 6.827-13.653 13.653-13.653h75.093c6.827 0 13.653 6.827 13.653 13.653v44.373h112.64v-44.373c0-6.827 6.827-13.653 13.653-13.653h75.093c6.827 0 13.653 6.827 13.653 13.653v44.373h112.64v-44.373c0-6.827 6.827-13.653 13.653-13.653h68.267c6.827 0 13.653 6.827 13.653 13.653v44.373h78.507c10.24 0 17.067 6.827 17.067 17.067s-6.827 17.067-17.067 17.067zM349.867 131.413v187.733h112.64v-187.733h-112.64zM561.493 131.413v187.733h112.64v-187.733h-112.64zM356.693 650.24l139.947 139.947v-293.547c0-10.24 6.827-17.067 17.067-17.067s17.067 6.827 17.067 17.067v293.547l139.947-139.947c3.413-3.413 6.827-3.413 10.24-3.413s6.827 0 10.24 3.413c6.827 6.827 6.827 17.067 0 23.893l-167.253 167.253h-3.413c0 0-3.413 0-3.413 3.413-3.413 0-3.413 0-6.827 0s-3.413 0-6.827 0c0 0-3.413 0-3.413-3.413h-3.413l-163.84-167.253c-6.827-6.827-6.827-17.067 0-23.893s17.067-6.827 23.893 0z" />
</svg>