<svg width="150px" height="150px" viewBox="5 -40 31 41" version="1.1" xmlns="http://www.w3.org/2000/svg">
  <path transform="scale(0.037, -0.037)" glyph-name="operations_and_maintance" d="M834.602 383.167l-94.827 23.64v19.341c0.457 13.002 5.588 25.439 14.506 34.922 29.845 31.161 44.485 73.927 40.026 116.855 0.322 4.916 0.322 9.859 0 14.775h16.655c7.656 0 13.969 6.313 13.969 13.969 3.277 60.362-25.144 118.279-74.948 152.583-1.558 1.612-3.492 2.821-5.641 3.492-45.13 24.714-99.931 24.714-145.061 0-53.108-33.364-83.947-93.188-80.321-155.806 0-7.656 6.313-13.969 13.969-13.969h13.432c-0.322-4.916-0.322-9.859 0-14.775-4.432-42.9 10.208-85.667 40.026-116.855 8.489-9.751 13.163-22.27 13.163-35.191v-19.341l-76.829-19.073-17.998 17.73 1.88 8.865c13.539 62.081-5.641 126.928-50.771 171.656-34.304 34.358-80.912 53.699-129.48 53.726-17.246-0.054-34.412-2.391-51.040-6.984-12.115-2.821-20.765-13.727-20.765-26.165 0-7.361 3.062-14.426 8.408-19.503l70.919-70.919-14.237-58.293-60.711-16.655-70.65 70.65c-5.131 5.104-12.115 7.898-19.341 7.79-2.418 0.295-4.835 0.295-7.253 0-9.322-2.471-16.601-9.751-19.073-19.073-17.783-64.821 0.51-134.396 47.816-182.132 34.546-34.492 81.449-53.834 130.286-53.726 12.787 0.027 25.547 1.209 38.146 3.492l6.984 4.567 138.883-138.883c18.052-17.488 42.309-27.159 67.427-26.863 53.055 0.215 96.546 43.921 96.546 96.976 0 23.64-8.623 46.473-24.284 64.203l-2.418 2.686-95.364 94.29 56.95 14.237c14.399 3.197 24.875 15.876 25.251 30.624v15.849c-0.349 19.986-8.086 39.14-21.759 53.726-24.902 26.192-36.829 62.188-32.504 98.051 0 2.149 0 4.567 0 6.984v7.79h190.191v-14.775c4.594-35.459-6.716-71.187-30.893-97.513-13.673-14.587-21.41-33.74-21.759-53.726v-16.387c-0.107-14.882 10.020-28.018 24.445-31.699l91.335-22.028c18.294-4.567 31.215-21.168 31.161-40.026-0.349-1.236-0.537-2.552-0.537-3.841 0-7.656 6.313-13.969 13.969-13.969s13.969 6.313 13.969 13.969c0 1.289-0.188 2.606-0.537 3.841 0.081 31.269-21.088 58.857-51.309 66.889zM622.92 252.343l3.492-3.492c11.068-12.76 17.139-29.066 17.139-45.936 0-38.468-31.645-70.113-70.113-70.113-0.242 0-0.51 0-0.752 0-18.079-0.107-35.459 6.958-48.354 19.61l-142.375 142.375c-2.471 2.552-5.856 4.003-9.402 4.029h-4.029c-15.5-4.755-31.618-7.199-47.816-7.253-41.396-0.027-81.127 16.413-110.408 45.667-34.277 34.063-51.094 82.013-45.667 130.018l2.955 28.475 78.709-78.709c2.552-2.606 6.044-4.056 9.671-4.029h3.492l73.874 20.147c4.54 1.289 8.113 4.862 9.402 9.402l20.416 74.948c1.316 4.701-0.027 9.751-3.492 13.163l-78.709 78.709 28.475 3.224c5.99 0.349 12.008 0.349 17.998 0 41.557 0.107 81.503-16.333 110.945-45.667 42.068-42.121 57.487-104.256 40.026-161.179-1.343-4.782-0.027-9.913 3.492-13.432l13.969-13.969 23.102-22.028 103.96-103.96zM564.358 620.906h-16.118v9.402c2.391 34.6 16.951 67.239 41.101 92.141v-18.536c-0.349-1.236-0.537-2.552-0.537-3.841 0-7.656 6.313-13.969 13.969-13.969s13.969 6.313 13.969 13.969c0 1.289-0.188 2.606-0.537 3.841v37.608c12.438 5.856 25.816 9.483 39.489 10.745v-46.742c-0.349-1.236-0.537-2.552-0.537-3.841 0-7.656 6.313-13.969 13.969-13.969s13.969 6.313 13.969 13.969c0 1.289-0.188 2.606-0.537 3.841v46.742c13.888-1.289 27.427-5.023 40.026-11.014v-37.071c-0.349-1.236-0.537-2.552-0.537-3.841 0-7.656 6.313-13.969 13.969-13.969s13.969 6.313 13.969 13.969c0 1.289-0.188 2.606-0.537 3.841v17.998c23.801-24.848 38.146-57.272 40.563-91.603v-9.402h-225.651v-0.269z" />
</svg>