<svg width="150px" height="150px" viewBox="5 -40 31 41" version="1.1" xmlns="http://www.w3.org/2000/svg">
  <path transform="scale(0.037, -0.037)" glyph-name="our_culture_of_safety" d="M909.653 179.2l-341.333 593.92c-10.24 20.48-30.72 30.72-54.613 30.72s-40.96-10.24-54.613-30.72l-344.747-593.92c-10.24-20.48-10.24-40.96 0-61.44s30.72-30.72 54.613-30.72h686.080c23.893 0 40.96 10.24 54.613 30.72 10.24 17.067 10.24 40.96 0 61.44zM875.52 134.826c-3.413-3.413-6.827-13.653-20.48-13.653h-686.080c-13.653 0-20.48 6.827-20.48 13.653-3.413 3.413-6.827 13.653 0 23.893l344.747 593.92c6.827 10.24 17.067 13.653 20.48 13.653s13.653 0 20.48-13.653l341.333-593.92c6.827-10.24 3.413-20.48 0-23.893zM626.347 445.44c-6.827 0-10.24-3.413-17.067-6.827l-143.36-174.080-78.507 78.507c-6.827 6.827-20.48 6.827-27.307 0-3.413-3.413-6.827-10.24-6.827-13.653 0-6.827 3.413-10.24 6.827-13.653l95.573-95.573c3.413-3.413 10.24-6.827 13.653-6.827 6.827 0 10.24 3.413 13.653 6.827l157.013 191.147c6.827 10.24 6.827 20.48-3.413 27.307 0 6.827-6.827 6.827-10.24 6.827z" />
</svg>