<svg width="150px" height="150px" viewBox="5 -40 31 41" version="1.1" xmlns="http://www.w3.org/2000/svg">
  <path transform="scale(0.037, -0.037)" glyph-name="our_property" horiz-adv-x="1365" d="M680.96 636.586c-27.307 0-51.2-23.893-51.2-51.2s23.893-51.2 51.2-51.2c27.307 0 51.2 23.893 51.2 51.2 3.413 27.307-20.48 51.2-51.2 51.2zM680.96 558.080c-13.653 0-27.307 13.653-27.307 27.307s13.653 27.307 27.307 27.307c13.653 0 27.307-13.653 27.307-27.307s-10.24-27.307-27.307-27.307zM680.96 373.76c-6.827 0-13.653-6.827-13.653-13.653v-88.747c0-6.827 6.827-13.653 13.653-13.653s13.653 6.827 13.653 13.653v88.747c3.413 6.827-3.413 13.653-13.653 13.653zM1261.227 496.64h-54.613v75.093c0 6.827-6.827 13.653-13.653 13.653s-13.653-6.827-13.653-13.653v-75.093h-402.773v194.56l3.413-3.413c6.827-3.413 13.653-3.413 20.48 3.413 3.413 6.827 3.413 13.653-3.413 20.48l-102.4 78.507v81.92c0 6.827-6.827 13.653-13.653 13.653s-13.653-6.827-13.653-13.653v-81.92l-102.4-78.507c-6.827-3.413-6.827-13.653-3.413-20.48 3.413-3.413 6.827-6.827 10.24-6.827s6.827 0 10.24 3.413l3.413 3.413v-194.56h-399.36v75.093c0 6.827-6.827 13.653-13.653 13.653s-13.653-6.827-13.653-13.653v-75.093h-58.027c-6.827 0-13.653-6.827-13.653-13.653v-460.8c0-6.827 6.827-13.653 13.653-13.653h1160.533c6.827 0 13.653 6.827 13.653 13.653v457.387c3.413 10.24-3.413 17.067-13.653 17.067zM1192.96 199.68c-6.827 92.16-85.333 163.84-177.493 163.84s-170.667-71.68-177.493-163.84h-58.027v204.8h471.040v-204.8h-58.027zM698.027 32.426v75.093c0 6.827-6.827 13.653-13.653 13.653s-13.653-6.827-13.653-13.653v-75.093h-54.613v136.533h136.533v-136.533h-54.613zM612.693 199.68v204.8h136.533v-204.8h-136.533zM527.36 199.68c-6.827 92.16-85.333 163.84-177.493 163.84-95.573 0-170.667-71.68-177.493-163.84h-54.613v204.8h471.040v-204.8h-61.44zM612.693 435.2v27.307h136.533v-27.307h-136.533zM1247.573 465.92v-30.72h-471.040v27.307h471.040v3.413zM680.96 762.88l68.267-51.2h-136.533l68.267 51.2zM612.693 684.373h136.533v-187.733h-136.533v187.733zM588.8 465.92v-30.72h-471.040v27.307h471.040v3.413zM117.76 168.96h471.040v-136.533h-64.853v37.547c0 23.893-20.48 44.373-44.373 44.373s-44.373-20.48-44.373-44.373v-37.547h-34.133v37.547c0 23.893-20.48 44.373-44.373 44.373s-44.373-20.48-44.373-44.373v-37.547h-37.547v37.547c0 23.893-20.48 44.373-44.373 44.373s-44.373-20.48-44.373-44.373v-37.547h-68.267v136.533zM1189.547 32.426v37.547c0 23.893-20.48 44.373-44.373 44.373s-44.373-20.48-44.373-44.373v-37.547h-34.133v37.547c0 23.893-20.48 44.373-44.373 44.373s-44.373-20.48-44.373-44.373v-37.547h-37.547v37.547c0 23.893-20.48 44.373-44.373 44.373s-44.373-20.48-44.373-44.373v-37.547h-64.853v136.533h471.040v-136.533h-68.267z" />
</svg>