<svg width="150px" height="150px" viewBox="5 -40 31 41" version="1.1" xmlns="http://www.w3.org/2000/svg">
  <path transform="scale(0.037, -0.037)" glyph-name="our_safety_vision" d="M1015.467 527.36c-6.827 20.48-17.067 37.547-30.72 54.613-13.653 20.48-30.72 40.96-51.2 58.027-61.44 54.613-139.947 81.92-228.693 81.92-61.44 0-116.053-13.653-163.84-37.547l17.067-27.307c44.373 23.893 92.16 34.133 146.773 34.133 81.92 0 150.187-23.893 208.213-75.093 17.067-17.067 34.133-34.133 44.373-51.2 6.827-13.653 13.653-23.893 20.48-37.547l3.413-6.827-3.413-6.827c-13.653-30.72-37.547-61.44-64.853-88.747-51.2-44.373-109.227-68.267-180.907-75.093l17.067-30.72c71.68 6.827 133.12 34.133 184.32 81.92 37.547 30.72 61.44 68.267 78.507 105.813 0 3.413 0 3.413 3.413 6.827 3.413 6.827 3.413 10.24 0 13.653zM708.267 435.2c-6.827 0-13.653 0-20.48 3.413l20.48-34.133c34.133 0 61.44 10.24 85.333 34.133s34.133 51.2 34.133 85.333c0 34.133-10.24 61.44-34.133 85.333s-51.2 34.133-85.333 34.133c-34.133 0-61.44-10.24-85.333-34.133-6.827-6.827-13.653-17.067-20.48-23.893l20.48-34.133c3.413 13.653 10.24 27.307 20.48 37.547 17.067 17.067 37.547 27.307 61.44 27.307s44.373-10.24 61.44-27.307c17.067-17.067 27.307-37.547 27.307-61.44s-6.827-44.373-27.307-61.44c-13.653-23.893-34.133-30.72-58.027-30.72zM462.507 769.706c-10.24 20.48-30.72 30.72-51.2 30.72s-40.96-10.24-51.2-30.72l-344.747-593.92c-10.24-20.48-10.24-40.96 0-61.44s30.72-30.72 51.2-30.72h686.080c20.48 0 40.96 10.24 51.2 30.72s10.24 40.96 0 61.44l-341.333 593.92zM776.533 134.826c-3.413-6.827-13.653-13.653-23.893-13.653h-686.080c-10.24 0-17.067 3.413-23.893 13.653-3.413 6.827-3.413 17.067 0 27.307l344.747 593.92c3.413 6.827 13.653 13.653 23.893 13.653s17.067-3.413 23.893-13.653l341.333-593.92c3.413-10.24 3.413-20.48 0-27.307zM523.947 445.44c-6.827 0-10.24-3.413-17.067-6.827l-143.36-174.080-78.507 78.507c-6.827 6.827-20.48 6.827-27.307 0-3.413-3.413-6.827-10.24-6.827-13.653 0-6.827 3.413-10.24 6.827-13.653l95.573-95.573c3.413-3.413 10.24-6.827 13.653-6.827 6.827 0 10.24 3.413 13.653 6.827l157.013 191.147c6.827 6.827 6.827 20.48-3.413 27.307 0 6.827-6.827 6.827-10.24 6.827z" />
</svg>