<svg width="150px" height="150px" viewBox="5 -40 31 41" version="1.1" xmlns="http://www.w3.org/2000/svg">
  <path transform="scale(0.037, -0.037)" glyph-name="press" d="M943.787 691.2h-81.92l-30.72 88.747c-3.413 6.827-10.24 10.24-17.067 10.24h-3.413l-331.093-98.987h-252.587c-10.24 0-17.067-6.827-17.067-17.067v-78.507l-139.947-47.787c-3.413 0-6.827-3.413-10.24-6.827s-3.413-10.24 0-13.653l153.6-419.84c0 0 0-3.413 3.413-3.413l3.413-3.413c0 0 3.413 0 3.413-3.413h716.8c10.24 0 17.067 6.827 17.067 17.067v559.787c3.413 10.24-3.413 17.067-13.653 17.067zM213.333 209.92l-112.64 314.027 112.64 37.547v-351.573zM807.253 752.64l20.48-61.44h-228.693l208.213 61.44zM926.72 131.413h-679.253v525.653h679.253v-525.653zM640 325.973h194.56c10.24 0 17.067 6.827 17.067 17.067v215.040c0 10.24-6.827 17.067-17.067 17.067h-194.56c-10.24 0-17.067-6.827-17.067-17.067v-215.040c0-10.24 10.24-17.067 17.067-17.067zM657.067 541.013h163.84v-180.907h-163.84v180.907zM346.453 541.013h184.32c10.24 0 17.067 6.827 17.067 17.067s-6.827 17.067-17.067 17.067h-184.32c-10.24 0-17.067-6.827-17.067-17.067s6.827-17.067 17.067-17.067zM346.453 435.2h184.32c10.24 0 17.067 6.827 17.067 17.067s-6.827 17.067-17.067 17.067h-184.32c-10.24 0-17.067-6.827-17.067-17.067s6.827-17.067 17.067-17.067zM346.453 325.973h184.32c10.24 0 17.067 6.827 17.067 17.067s-6.827 17.067-17.067 17.067h-184.32c-10.24 0-17.067-6.827-17.067-17.067s6.827-17.067 17.067-17.067zM346.453 216.746h488.107c10.24 0 17.067 6.827 17.067 17.067s-6.827 17.067-17.067 17.067h-488.107c-10.24 0-17.067-6.827-17.067-17.067s6.827-17.067 17.067-17.067z" />
</svg>