<svg width="150px" height="150px" viewBox="5 -40 31 41" version="1.1" xmlns="http://www.w3.org/2000/svg">
  <path transform="scale(0.037, -0.037)" glyph-name="publications" d="M414.72 643.413h-170.667c-10.24 0-17.067-6.827-17.067-17.067s6.827-17.067 17.067-17.067h170.667c10.24 0 17.067 6.827 17.067 17.067s-6.827 17.067-17.067 17.067zM779.947 643.413h-170.667c-10.24 0-17.067-6.827-17.067-17.067s6.827-17.067 17.067-17.067h170.667c10.24 0 17.067 6.827 17.067 17.067s-6.827 17.067-17.067 17.067zM414.72 547.84h-170.667c-10.24 0-17.067-6.827-17.067-17.067s6.827-17.067 17.067-17.067h170.667c10.24 0 17.067 6.827 17.067 17.067 0 6.827-6.827 17.067-17.067 17.067zM779.947 547.84h-170.667c-10.24 0-17.067-6.827-17.067-17.067s6.827-17.067 17.067-17.067h170.667c10.24 0 17.067 6.827 17.067 17.067 0 6.827-6.827 17.067-17.067 17.067zM414.72 448.853h-170.667c-10.24 0-17.067-6.827-17.067-17.067s6.827-17.067 17.067-17.067h170.667c10.24 0 17.067 6.827 17.067 17.067s-6.827 17.067-17.067 17.067zM779.947 448.853h-170.667c-10.24 0-17.067-6.827-17.067-17.067s6.827-17.067 17.067-17.067h170.667c10.24 0 17.067 6.827 17.067 17.067s-6.827 17.067-17.067 17.067zM414.72 353.28h-170.667c-10.24 0-17.067-6.827-17.067-17.067s6.827-17.067 17.067-17.067h170.667c10.24 0 17.067 6.827 17.067 17.067 0 6.827-6.827 17.067-17.067 17.067zM779.947 353.28h-170.667c-10.24 0-17.067-6.827-17.067-17.067s6.827-17.067 17.067-17.067h170.667c10.24 0 17.067 6.827 17.067 17.067 0 6.827-6.827 17.067-17.067 17.067zM841.387 790.186h-228.693c-40.96 0-78.507-20.48-98.987-54.613-20.48 34.133-54.613 54.613-98.987 54.613h-228.693c-30.72 0-54.613-23.893-54.613-54.613v-512c0-30.72 23.893-54.613 54.613-54.613h228.693c37.547 0 68.267-23.893 78.507-61.44 3.413-6.827 10.24-13.653 17.067-13.653h6.827c6.827 0 13.653 6.827 17.067 13.653 10.24 34.133 40.96 61.44 78.507 61.44h228.693c30.72 0 54.613 23.893 54.613 54.613v512c0 30.72-27.307 54.613-54.613 54.613zM414.72 206.506c0 0-3.413 0 0 0h-232.107c-10.24 0-20.48 6.827-20.48 20.48v512c0 10.24 6.827 20.48 20.48 20.48h228.693c44.373 0 78.507-34.133 78.507-78.507v-501.76c-17.067 13.653-44.373 27.307-75.093 27.307zM858.453 223.573c0-10.24-6.827-20.48-20.48-20.48h-228.693c-30.72 0-58.027-13.653-78.507-34.133v505.173c0 44.373 34.133 78.507 78.507 78.507h228.693c10.24 0 20.48-6.827 20.48-20.48v-508.587z" />
</svg>