<svg width="150px" height="150px" viewBox="5 -40 31 41" version="1.1" xmlns="http://www.w3.org/2000/svg">
  <path transform="scale(0.037, -0.037)" glyph-name="parking" d="M470.63 654.165c7.987-0.273 15.94-0.683 23.893-1.468 5.666-0.58 11.298-1.297 16.93-2.185 39.117-6.281 78.541-21.538 106.189-50.893 9.455-10.035 17.306-21.572 22.801-34.236 4.267-9.762 7.1-20.173 8.294-30.788 0.887-7.885 0.887-15.872 0-23.757-0.751-6.554-2.116-13.073-4.062-19.388-1.946-6.383-4.506-12.561-7.578-18.5-16.043-30.993-45.363-52.804-77.483-65.126-37.103-14.199-77.551-16.521-116.77-13.005v-127.454c-0.068-2.219-0.205-4.369-0.614-6.519-0.99-5.018-3.106-9.796-6.178-13.892-2.185-2.935-4.813-5.495-7.817-7.578-9.079-6.349-20.924-7.851-31.3-4.028-3.447 1.229-6.656 3.072-9.489 5.325-3.447 2.731-6.315 6.11-8.465 9.933-2.56 4.54-3.823 9.421-4.335 14.575-3.755 116.975-0.068 234.052-0.068 351.095 0.102 2.867 0.341 5.666 1.058 8.465 2.321 9.045 8.363 16.862 16.555 21.402 3.14 1.741 6.485 2.833 10.001 3.652 4.369 0.683 4.369 0.614 8.943 1.229 13.517 1.536 26.965 2.628 40.55 3.106 6.315 0.102 12.629 0.137 18.944 0.034zM458.786 585.967c-5.325-0.102-10.615-0.273-15.94-0.546v-121.993c28.809-3.072 58.675-3.004 86.46 6.076 3.857 1.263 7.646 2.697 11.332 4.335 3.345 1.468 6.588 3.106 9.728 4.949 13.926 8.021 26.999 20.582 30.106 36.966 0.444 2.287 0.683 4.608 0.683 6.963 0 3.277-0.478 6.588-1.331 9.762-1.229 4.608-3.311 8.977-5.973 12.937-3.345 5.052-7.578 9.455-12.22 13.312-8.533 6.997-18.466 12.186-28.774 16.043-18.876 7.134-38.98 9.933-59.017 10.957-5.018 0.171-10.035 0.239-15.053 0.239zM518.144 920.849c22.255-0.444 44.442-2.082 66.458-5.461 44.578-6.827 88.132-20.036 128.99-39.117 48.606-22.733 93.286-53.692 131.686-91.17 38.332-37.478 70.349-81.34 94.242-129.365 20.002-40.243 34.27-83.354 42.189-127.625 8.875-49.766 9.83-100.966 2.799-151.040-6.793-48.538-21.163-95.983-42.462-140.151-24.951-51.746-59.324-98.884-100.898-138.513-43.076-41.062-93.764-74.001-148.855-96.529-57.071-23.347-118.613-35.294-180.292-35.294s-123.221 11.947-180.292 35.294c-55.091 22.528-105.779 55.467-148.855 96.529-41.574 39.629-75.947 86.767-100.898 138.513-21.299 44.169-35.669 91.614-42.462 140.151-7.031 50.074-6.076 101.274 2.799 151.040 7.919 44.271 22.187 87.381 42.189 127.625 23.893 48.026 55.91 91.887 94.242 129.365 38.4 37.478 83.081 68.437 131.686 91.17 40.858 19.081 84.412 32.29 128.99 39.117 22.016 3.379 44.203 5.018 66.458 5.461 6.144 0.034 6.144 0.034 12.288 0zM506.709 852.582c-19.081-0.375-38.093-1.809-56.969-4.676-38.161-5.837-75.469-17.135-110.421-33.485-40.209-18.773-77.244-44.169-109.363-74.752-33.246-31.71-61.133-68.983-82.091-109.875-17.545-34.236-30.174-70.929-37.41-108.681-8.499-44.237-9.626-89.941-3.379-134.554 5.837-41.574 18.125-82.193 36.352-120.013 21.402-44.339 50.893-84.753 86.528-118.75 36.932-35.191 80.35-63.42 127.556-82.705 48.947-20.036 101.649-30.242 154.487-30.242s105.54 10.206 154.487 30.242c47.206 19.285 90.624 47.514 127.556 82.705 35.635 33.997 65.126 74.411 86.528 118.75 18.227 37.82 30.515 78.438 36.352 120.013 6.246 44.612 5.12 90.317-3.379 134.554-7.236 37.751-19.866 74.445-37.41 108.681-20.958 40.892-48.845 78.165-82.091 109.875-32.119 30.583-69.154 55.979-109.363 74.752-34.953 16.35-72.26 27.648-110.421 33.485-18.876 2.867-37.888 4.301-56.969 4.676-5.325 0.034-5.291 0.034-10.581 0z" />
</svg>