<svg width="150px" height="150px" viewBox="5 -40 31 41" version="1.1" xmlns="http://www.w3.org/2000/svg">
  <path transform="scale(0.037, -0.037)" glyph-name="passengers" d="M310.34 440.354c6.69 0 12.186 5.495 12.186 12.186-0.068 19.627 13.346 36.898 32.393 41.677l91.238 22.801c3.823 1.126 7.441 2.935 10.615 5.291 6.383 6.042 10.684 13.926 12.22 22.562s0 1.331 0 2.116v15.667c-0.273 19.695-7.817 38.605-21.231 53.043-25.122 26.351-37.205 62.566-32.905 98.714 0 53.419 43.964 97.382 97.382 97.382s97.382-43.964 97.382-97.382c4.301-36.147-7.782-72.363-32.905-98.714-13.414-14.438-20.958-33.348-21.231-53.043v-18.569c0.58-8.841 5.188-16.964 12.459-22.016 3.038-2.219 6.451-3.823 10.103-4.779l91.238-22.835c19.046-4.745 32.495-22.016 32.393-41.643 0-6.69 5.495-12.22 12.186-12.22s12.22 5.53 12.22 12.22c-0.41 30.31-21.299 56.764-50.688 64.205l-91.273 22.801c-2.833 0.649-4.847 3.209-4.779 6.11v16.179c0.375 13.449 5.666 26.317 14.882 36.079 29.286 30.788 43.657 72.909 39.253 115.166 0 66.799-54.955 121.788-121.788 121.788-66.799 0-121.754-54.989-121.754-121.788-4.403-42.257 9.967-84.378 39.253-115.166 9.216-9.762 14.507-22.63 14.848-36.079v-15.633c0.068-2.901-1.946-5.495-4.779-6.11l-90.18-23.347c-29.901-7.407-50.995-34.475-50.961-65.263 0.41-6.383 5.803-11.435 12.22-11.401zM690.517 335.803h-95.232c1.911 2.116 2.97 4.847 2.901 7.714v37.649c-0.137 16.247-13.449 29.594-29.696 29.73h-113.015c-16.452 0-30.003-13.551-30.003-29.969v-37.683c-0.034-2.833 1.024-5.598 2.935-7.714h-95.539c-21.675 0-39.526-17.818-39.526-39.526v-206.95c0.307-21.47 18.057-38.98 39.526-38.98h357.649c0.273 0 0.546 0 0.819 0 21.675 0 39.526 17.818 39.526 39.526 0 0 0 0 0 0v206.95c-0.137 21.572-17.954 39.253-39.526 39.253-0.273 0-0.546 0-0.819 0zM447.761 343.518v37.649c0 4.233 3.482 7.714 7.714 7.714h112.742c4.233 0 7.68-3.482 7.68-7.714v-37.649c-0.034-2.867 1.024-5.598 2.935-7.714h-133.973c1.911 2.116 2.935 4.847 2.901 7.714zM444.314 207.121v-59.426h-53.043v59.426l26.522 26.556 26.522-26.556zM707.755 89.6c0-9.318-7.646-16.998-16.964-16.998h-357.922c-9.284 0-16.964 7.68-16.964 16.998v206.95c0 9.318 7.68 16.964 16.964 16.964h73.523v-59.426l-33.963-34.236c-2.082-2.116-3.243-4.983-3.209-7.953v-75.332c0-6.11 5.052-11.162 11.162-11.162h75.332c6.11 0 11.162 5.052 11.162 11.162v75.332c0.034 2.97-1.126 5.837-3.209 7.953l-34.202 34.236v59.426h261.598c9.318 0 16.964-7.646 16.964-16.964l-0.273-206.95z" />
</svg>