<svg width="150px" height="150px" viewBox="5 -40 31 41" version="1.1" xmlns="http://www.w3.org/2000/svg">
  <path transform="scale(0.037, -0.037)" glyph-name="phone" d="M724.343 772.505c0-138.889 0-501.589 0-640.478 0-30.515-24.713-55.228-55.228-55.228-84.855 0-246.409 0-331.264 0-30.515 0-55.228 24.713-55.228 55.228 0 138.889 0 501.589 0 640.478 0 30.515 24.713 55.228 55.228 55.228 84.855 0 246.409 0 331.264 0 30.515 0 55.228-24.713 55.228-55.228zM503.467 176.196c-18.261 0-33.109-14.848-33.109-33.143s14.848-33.109 33.109-33.109c18.295 0 33.143 14.814 33.143 33.109s-14.848 33.143-33.143 33.143zM680.175 717.312h-353.382v-508.006h353.382v508.006zM591.838 783.564h-176.708v-22.084h176.708v22.084z" />
</svg>