<svg width="150px" height="150px" viewBox="5 -40 31 41" version="1.1" xmlns="http://www.w3.org/2000/svg">
  <path transform="scale(0.037, -0.037)" glyph-name="planning_a_trip_travel_info" d="M261.12 407.893h501.76c30.72 0 54.613 23.893 54.613 54.613v290.133c0 30.72-23.893 54.613-54.613 54.613h-133.12c3.413 3.413 3.413 6.827 3.413 10.24v54.613c0 23.893-20.48 40.96-40.96 40.96h-160.427c-23.893 0-40.96-20.48-40.96-40.96v-54.613c0-3.413 0-6.827 3.413-10.24h-133.12c-30.72 0-54.613-23.893-54.613-54.613v-290.133c0-30.72 23.893-54.613 54.613-54.613zM421.547 820.906v54.613c0 6.827 3.413 10.24 10.24 10.24h160.427c6.827 0 10.24-3.413 10.24-10.24v-54.613c0-3.413 0-6.827 3.413-10.24h-187.733c3.413 3.413 3.413 6.827 3.413 10.24zM237.227 756.053c0 13.653 10.24 23.893 23.893 23.893h102.4v-81.92l-47.787-51.2c-3.413-3.413-3.413-6.827-3.413-10.24v-105.813c0-10.24 6.827-17.067 17.067-17.067h105.813c10.24 0 17.067 6.827 17.067 17.067v105.813c0 3.413 0 6.827-3.413 10.24l-47.787 47.787v81.92h368.64c13.653 0 23.893-10.24 23.893-23.893v-290.133c0-13.653-10.24-23.893-23.893-23.893h-508.587c-13.653 0-23.893 10.24-23.893 23.893v293.547zM380.587 667.306l37.547-37.547v-81.92h-75.093v81.92l37.547 37.547zM851.627 59.733h-78.507v187.733h78.507c10.24 0 17.067 6.827 17.067 17.067s-6.827 17.067-17.067 17.067h-78.507v44.373c0 6.827-6.827 13.653-13.653 13.653h-75.093c-6.827 0-13.653-6.827-13.653-13.653v-44.373h-112.64v44.373c0 6.827-6.827 13.653-13.653 13.653h-75.093c-6.827 0-13.653-6.827-13.653-13.653v-44.373h-105.813v44.373c0 6.827-6.827 13.653-13.653 13.653h-75.093c-6.827 0-13.653-6.827-13.653-13.653v-44.373h-78.507c-10.24 0-17.067-6.827-17.067-17.067s6.827-17.067 17.067-17.067h78.507v-187.733h-78.507c-10.24 0-17.067-6.827-17.067-17.067s6.827-17.067 17.067-17.067h78.507v-44.373c0-6.827 6.827-13.653 13.653-13.653h75.093c6.827 0 13.653 6.827 13.653 13.653v44.373h112.64v-44.373c0-6.827 6.827-13.653 13.653-13.653h75.093c6.827 0 13.653 6.827 13.653 13.653v44.373h112.64v-44.373c0-6.827 6.827-13.653 13.653-13.653h68.267c6.827 0 13.653 6.827 13.653 13.653v44.373h78.507c10.24 0 17.067 6.827 17.067 17.067s-6.827 17.067-17.067 17.067zM349.867 59.733v187.733h112.64v-187.733h-112.64zM561.493 59.733v187.733h112.64v-187.733h-112.64z" />
</svg>