<svg width="150px" height="150px" viewBox="5 -40 31 41" version="1.1" xmlns="http://www.w3.org/2000/svg">
  <path transform="scale(0.037, -0.037)" glyph-name="planned_works" d="M445.44 435.2l-10.24-13.653c-13.653-17.067-30.72-37.547-44.373-54.613-3.413-3.413-3.413-6.827-3.413-10.24s3.413-6.827 3.413-10.24c3.413-3.413 6.827-3.413 10.24-3.413s6.827 3.413 10.24 3.413c17.067 20.48 30.72 37.547 47.787 54.613l10.24 13.653c3.413 3.413 3.413 6.827 3.413 10.24s-3.413 6.827-6.827 10.24c-3.413 3.413-6.827 3.413-10.24 3.413s-6.827 0-10.24-3.413zM329.387 305.493c-23.893-20.48-44.373-37.547-68.267-51.2-6.827-3.413-10.24-13.653-3.413-20.48 3.413-3.413 6.827-6.827 10.24-6.827s6.827 0 6.827 3.413c27.307 17.067 51.2 34.133 75.093 54.613 6.827 6.827 6.827 13.653 0 20.48-3.413 3.413-6.827 3.413-10.24 3.413s-6.827 0-10.24-3.413zM899.413 735.573l-112.64 112.64c-3.413 3.413-6.827 3.413-10.24 3.413s-6.827 0-10.24-3.413l-197.973-197.973c0 0-3.413-3.413-3.413-6.827l-37.547-150.187c0-3.413 0-10.24 3.413-13.653s6.827-3.413 10.24-3.413h3.413l143.36 37.547c3.413 0 3.413 0 6.827 3.413l208.213 197.973c3.413 3.413 3.413 6.827 3.413 10.24-3.413 3.413-6.827 6.827-6.827 10.24zM558.080 506.88l27.307 105.813 75.093-78.507-102.4-27.307zM680.96 544.426l-85.333 95.573 180.907 180.907 95.573-95.573-191.147-180.907zM790.187 527.36c-6.827 0-10.24-3.413-13.653-6.827v-447.147l-150.187 68.267v235.52c0 6.827-6.827 13.653-13.653 13.653s-13.653-6.827-13.653-13.653v-235.52l-238.933-71.68v68.267c0 6.827-6.827 13.653-13.653 13.653s-13.653-6.827-13.653-13.653v-68.267l-180.907 71.68v539.307l180.907-71.68v-85.333c0-6.827 6.827-13.653 13.653-13.653s13.653 6.827 13.653 13.653v85.333l146.773 44.373c3.413 3.413 6.827 10.24 3.413 13.653-3.413 6.827-6.827 10.24-17.067 10.24l-146.773-44.373-204.8 78.507c0 0-3.413 0-6.827 0s-6.827 0-6.827-3.413-6.827-6.827-6.827-10.24v-573.44c0-6.827 3.413-10.24 10.24-13.653l208.213-81.92h10.24l262.827 78.507 174.080-78.507c3.413 0 3.413 0 6.827 0s6.827 0 6.827 3.413 6.827 6.827 6.827 13.653v467.627c0 3.413 0 6.827-3.413 10.24s-10.24 3.413-13.653 3.413z" />
</svg>