<svg width="150px" height="150px" viewBox="5 -40 31 41" version="1.1" xmlns="http://www.w3.org/2000/svg">
  <path transform="scale(0.037, -0.037)" glyph-name="railway_operating_partners" d="M989.116 386.184c-1.809 15.667-6.519 30.891-13.858 44.851l-9.489 16.145c-15.258 25.532-34.065 48.777-55.876 68.983l-3.072 2.799c-58.709 54.613-135.953 85.026-216.132 85.129h-651.947l-3.857-283.273h33.587c1.707-21.641 19.968-38.537 41.677-38.537 21.675 0 39.97 16.896 41.643 38.537 1.707-21.641 19.968-38.537 41.677-38.537 21.675 0 39.97 16.896 41.643 38.537h121.788c2.355-21.060 20.343-37.171 41.54-37.171 21.163 0 39.185 16.111 41.506 37.171h1.57c2.321-21.060 20.343-37.171 41.506-37.171 21.197 0 39.185 16.111 41.54 37.171h108.954c1.707-21.641 19.968-38.537 41.677-38.537 21.675 0 39.936 16.896 41.643 38.537 1.707-21.641 19.968-38.537 41.677-38.537 21.675 0 39.936 16.896 41.643 38.537h28.194c99.499 0 159.471 0 159.471 54.067l1.297 11.298zM937.813 452.574c-73.318 0-118.682-1.536-125.338-2.048h-58.47v48.708h57.446c5.871 0 36.898 0 87.654-1.775 14.199-13.278 27.068-27.853 38.468-43.588l0.239-1.297zM110.285 304.128c-9.66 0.137-17.886 7.168-19.49 16.691h38.946c-1.604-9.523-9.83-16.555-19.456-16.691v0zM194.628 304.128c-9.66 0.137-17.886 7.168-19.49 16.691h38.946c-1.604-9.523-9.83-16.555-19.456-16.691v0zM399.701 304.128c-9.626 0.137-17.886 7.168-19.49 16.691h38.98c-1.673-10.001-10.65-17.203-20.753-16.691h1.263zM484.045 304.128c-9.626 0.137-17.852 7.168-19.49 16.691h38.98c-1.673-9.899-10.513-17.067-20.514-16.691h1.024zM676.318 304.128c-9.626 0.137-17.852 7.168-19.456 16.691h39.219c-1.673-10.001-10.684-17.203-20.787-16.691h1.024zM760.661 304.128c-9.626 0.137-17.852 7.168-19.456 16.691h39.219c-1.673-10.001-10.684-17.203-20.787-16.691h1.024zM968.329 374.886c0-31.266-39.731-32.29-137.66-32.29h-773.734l3.345 241.254h630.921c66.389 0.137 130.97-21.982 183.296-62.805-51.268 0-59.733 0-62.532 1.263h-66.935c-7.1-0.273-12.834-6.178-12.834-13.312 0-0.273 0-0.512 0.034-0.785v-63.829c-0.034-0.273-0.034-0.512-0.034-0.785 0-7.134 5.734-13.073 12.834-13.312h68.198c2.56 0 20.787 0 138.445 2.048 8.294-14.165 13.619-29.867 15.633-46.148l1.024-11.298zM166.161 522.069h-66.901c-7.134-0.273-12.868-6.212-12.868-13.346 0-0.239 0.034-0.512 0.034-0.751v-63.863c0-0.239-0.034-0.512-0.034-0.751 0-7.134 5.734-13.073 12.868-13.346h66.901c7.134 0.273 12.834 6.212 12.834 13.346 0 0.239 0 0.512-0.034 0.751v63.863c0.034 0.239 0.034 0.512 0.034 0.751 0 7.134-5.7 13.073-12.834 13.346v0zM157.184 451.55h-48.981v48.708h48.981v-48.708zM665.805 522.069h-177.664c-0.341 0-0.683 0.034-1.024 0.034-7.885 0-14.473-6.281-14.848-14.131v-63.863c0.375-7.851 6.963-14.131 14.848-14.131 0.341 0 0.683 0.034 1.024 0.034h177.664c0.375 0 0.717-0.034 1.058-0.034 7.885 0 14.473 6.281 14.848 14.131v63.863c-0.375 7.851-6.963 14.131-14.848 14.131-0.341 0-0.683-0.034-1.058-0.034v0zM659.934 451.55h-165.888v48.708h165.888v-48.708zM419.465 522.069h-177.664c-0.375 0-0.717 0.034-1.058 0.034-7.885 0-14.473-6.281-14.848-14.131v-63.863c0.375-7.851 6.963-14.131 14.848-14.131 0.341 0 0.683 0.034 1.058 0.034h177.664c0.341 0 0.683-0.034 1.024-0.034 7.885 0 14.473 6.281 14.848 14.131v63.863c-0.375 7.851-6.963 14.131-14.848 14.131-0.341 0-0.683-0.034-1.024-0.034v0zM413.559 451.55h-165.888v48.708h165.888v-48.708z" />
</svg>