<svg width="150px" height="150px" viewBox="5 -40 31 41" version="1.1" xmlns="http://www.w3.org/2000/svg">
  <path transform="scale(0.037, -0.037)" glyph-name="running_the_railway" d="M834.56 271.36h-75.093v344.747h75.093c10.24 0 17.067 6.827 17.067 17.067s-6.827 17.067-17.067 17.067h-75.093v75.093c0 6.827-6.827 13.653-13.653 13.653h-71.68c-6.827 0-13.653-6.827-13.653-13.653v-75.093h-105.813v75.093c0 6.827-6.827 13.653-13.653 13.653h-71.68c-6.827 0-13.653-6.827-13.653-13.653v-75.093h-105.813v75.093c0 6.827-6.827 13.653-13.653 13.653h-71.68c-6.827 0-13.653-6.827-13.653-13.653v-75.093h-75.093c-10.24 0-17.067-6.827-17.067-17.067s6.827-17.067 17.067-17.067h75.093v-344.747h-75.093c-10.24 0-17.067-6.827-17.067-17.067s6.827-17.067 17.067-17.067h75.093v-75.093c0-6.827 6.827-13.653 13.653-13.653h71.68c6.827 0 13.653 6.827 13.653 13.653v75.093h105.813v-75.093c0-6.827 6.827-13.653 13.653-13.653h71.68c6.827 0 13.653 6.827 13.653 13.653v75.093h105.813v-75.093c0-6.827 6.827-13.653 13.653-13.653h71.68c6.827 0 13.653 6.827 13.653 13.653v75.093h75.093c10.24 0 17.067 6.827 17.067 17.067s-6.827 17.067-17.067 17.067zM465.92 271.36h-105.813v344.747h105.813v-344.747zM667.307 271.36h-105.813v344.747h105.813v-344.747z" />
</svg>