<svg width="150px" height="150px" viewBox="5 -40 31 41" version="1.1" xmlns="http://www.w3.org/2000/svg">
  <path transform="scale(0.037, -0.037)" glyph-name="redevelopment" d="M897.673 598.118c4.369-0.307 8.636-1.161 12.732-2.867 9.899-4.096 17.749-12.356 21.367-22.426 1.297-3.584 1.911-7.236 2.219-11.025 3.823-154.59 1.946-309.316 0-463.974-0.41-10.889-2.287-21.572-6.042-31.846-9.762-26.624-30.959-48.333-57.344-58.743-10.923-4.301-22.426-6.485-34.133-6.929-218.795-2.765-437.658-2.731-656.418 0-11.571 0.444-22.869 2.56-33.69 6.724-26.999 10.479-48.572 32.666-58.231 59.972-3.584 10.138-5.359 20.685-5.734 31.403-1.161 153.975 1.434 307.951 2.185 461.961 0.102 3.755 0.614 7.441 1.741 11.059 3.345 10.615 11.366 19.422 21.641 23.757 4.13 1.741 8.465 2.594 12.902 2.935 258.867 6.519 517.939 6.417 776.806 0zM498.347 37.137v154.761h-174.626v-154.18c58.197-0.785 116.395-0.887 174.626-0.58zM700.279 39.355v152.542h-174.626v-154.59c58.197 0.444 116.429 1.229 174.626 2.048zM296.414 38.161v153.737h-174.797c0.239-31.369 0.785-62.771 1.809-94.14 0.102-1.946 0.273-3.891 0.546-5.837 0.99-6.212 2.765-12.254 5.598-17.92 6.758-13.551 18.705-24.166 32.939-29.286 5.53-1.98 11.23-3.038 17.067-3.413 38.946-1.434 77.892-2.458 116.838-3.14zM893.065 191.897h-165.478v-152.132c35.942 0.512 71.885 1.058 107.827 1.502 6.451 0.239 12.766 1.331 18.807 3.55 16.213 5.939 29.321 19.046 35.26 35.26 2.389 6.588 3.482 13.449 3.584 20.48v91.341zM296.414 221.73v146.227h-173.466c-0.819-49.596-1.468-99.157-1.434-148.719 58.266 0.137 116.599 1.195 174.899 2.492zM893.065 220.911v147.046h-165.478v-140.493c55.194-0.922 110.353-2.935 165.478-6.554zM498.347 226.44v141.517h-174.626v-145.613c58.197 1.399 116.429 2.935 174.626 4.096zM700.279 227.84v140.117h-174.626v-141.005c58.231 0.99 116.463 1.502 174.626 0.887zM296.414 397.926v159.3h-170.906c-0.239-53.965-1.195-107.93-2.116-161.929 57.651 0.239 115.337 1.297 173.022 2.628zM893.065 396.561v160.666h-165.478v-153.839c55.194-0.99 110.353-3.106 165.478-6.827zM498.347 402.636v154.59h-174.626v-158.652c58.197 1.365 116.429 2.935 174.626 4.062zM700.279 403.797v153.429h-174.626v-154.112c58.231 0.956 116.463 1.399 174.626 0.683zM698.709 787.626c0.137 26.692 0.649 53.385 1.604 80.043 0.546 4.983 3.345 9.353 7.953 11.469 1.502 0.683 3.072 1.024 4.71 1.195 0.99 0.034 0.956 0.034 1.946 0 1.638-0.171 3.174-0.512 4.676-1.195 4.642-2.116 7.407-6.485 7.953-11.469 0.956-26.658 1.502-53.35 1.604-80.043h132.198c41.267 0 74.718-33.451 74.718-74.718v-62.43h-188.962c20.855 19.422 34.987 38.81 35.055 81.169v0.375h-53.385c-0.273-15.258-0.683-30.549-1.229-45.807-0.239-2.287-0.887-4.437-2.116-6.383-0.887-1.365-2.014-2.594-3.311-3.55-5.359-4.028-13.107-3.482-17.852 1.263-2.355 2.355-3.618 5.393-3.959 8.67-0.546 15.258-0.956 30.549-1.229 45.807h-54.067c0-42.53 14.131-62.089 35.055-81.545h-307.063c20.855 19.422 34.953 33.929 35.055 76.288v0.375h-54.852c-0.273-13.653-0.649-27.273-1.126-40.926-0.273-2.287-0.887-4.437-2.15-6.383-0.887-1.365-1.98-2.594-3.311-3.55-5.359-4.028-13.073-3.482-17.818 1.263-2.389 2.355-3.618 5.393-3.959 8.67-0.512 13.653-0.887 27.273-1.126 40.926h-52.804c0-42.53 14.131-57.207 35.055-76.663h-218.044c0 0 0 30.31 0 62.43 0 41.267 33.451 74.718 74.718 74.718h160.597c0.102 26.692 0.649 53.385 1.604 80.043 0.512 4.983 3.311 9.353 7.953 11.469 1.502 0.683 3.038 1.024 4.676 1.195 0.99 0.034 0.99 0.034 1.946 0 4.983-0.546 9.353-3.345 11.469-7.953 0.683-1.502 1.024-3.072 1.195-4.71 0.956-26.658 1.468-53.35 1.57-80.043h345.054z" />
</svg>