<svg width="150px" height="150px" viewBox="5 -40 31 41" version="1.1" xmlns="http://www.w3.org/2000/svg">
  <path transform="scale(0.037, -0.037)" glyph-name="routes" d="M889.173 261.12c-30.72 0-61.44-20.48-71.68-51.2l-3.413-6.827h-368.64v221.867h136.533l3.413-6.827c10.24-30.72 40.96-51.2 71.68-51.2 40.96 0 78.507 34.133 78.507 78.507s-34.133 78.507-78.507 78.507c-30.72 0-61.44-20.48-71.68-51.2l-3.413-6.827h-136.533v221.867h368.64l3.413-6.827c10.24-30.72 40.96-51.2 71.68-51.2 40.96 0 78.507 34.133 78.507 78.507s-34.133 78.507-78.507 78.507c-30.72 0-61.44-20.48-71.68-51.2l-3.413-6.827h-358.4c-27.307 0-47.787-20.48-47.787-47.787v-211.627h-201.387c-10.24 30.72-40.96 51.2-71.68 51.2-40.96 0-78.507-34.133-78.507-78.507s34.133-78.507 78.507-78.507c30.72 0 61.44 20.48 71.68 51.2l3.413 6.827h194.56v-211.627c0-27.307 20.48-47.787 47.787-47.787h358.4l3.413-6.827c10.24-30.72 40.96-51.2 71.68-51.2 40.96 0 78.507 34.133 78.507 78.507 3.413 40.96-34.133 78.507-75.093 78.507zM657.067 482.986c20.48 0 37.547-17.067 37.547-37.547s-17.067-37.547-37.547-37.547c-20.48 0-37.547 17.067-37.547 37.547s17.067 37.547 37.547 37.547zM889.173 742.4c20.48 0 37.547-17.067 37.547-37.547s-17.067-37.547-37.547-37.547c-20.48 0-37.547 17.067-37.547 37.547s17.067 37.547 37.547 37.547zM134.827 404.48c-20.48 0-37.547 17.067-37.547 37.547s17.067 37.547 37.547 37.547c20.48 0 37.547-17.067 37.547-37.547s-17.067-37.547-37.547-37.547zM889.173 145.066c-20.48 0-37.547 17.067-37.547 37.547s17.067 37.547 37.547 37.547c20.48 0 37.547-17.067 37.547-37.547s-17.067-37.547-37.547-37.547z" />
</svg>