<svg width="150px" height="150px" viewBox="5 -40 31 41" version="1.1" xmlns="http://www.w3.org/2000/svg">
  <path transform="scale(0.037, -0.037)" glyph-name="safety2" d="M670.788 288.836v-153.498c-0.102-4.198-0.649-8.294-1.877-12.288-3.652-11.742-12.493-21.504-23.825-26.283-4.574-1.946-9.318-2.901-14.268-3.277-3.857-0.102-3.857-0.068-7.714-0.068-4.198 0.102-8.294 0.683-12.288 1.911-11.742 3.652-21.504 12.493-26.283 23.825-1.946 4.574-2.901 9.318-3.277 14.268-1.058 41.233 1.468 82.534-0.068 123.767-0.205 3.038-0.751 6.007-1.809 8.841-2.97 8.090-9.387 14.677-17.408 17.852-3.072 1.195-6.246 1.843-9.523 2.048-31.471 1.195-62.942-0.341-94.413 0.068-6.997 0.239-13.892 1.434-20.514 3.823-17.818 6.383-32.256 20.48-39.083 38.127-2.731 7.1-4.096 14.473-4.369 22.016-0.546 41.54-0.546 83.149 0 124.689 0.273 7.543 1.638 14.95 4.369 22.016 6.827 17.647 21.265 31.778 39.117 38.127 6.588 2.389 13.483 3.584 20.48 3.823 64.649 0.819 129.399 2.935 193.98 0.068 1.161 0.137 1.911 0.171 4.028 0.375 4.949 0.512 9.83 1.058 14.746 1.604 60.279 7.339 120.491 20.855 175.582 47.036 12.902 6.144 25.395 12.971 37.547 20.48l1.365 0.751c1.399 0.614 2.799 1.195 4.335 1.502 1.331 0.307 1.673 0.307 3.038 0.41 1.536 0 1.502 0 3.038-0.137 1.536-0.273 3.004-0.58 4.437-1.161 4.779-1.911 8.602-5.871 10.308-10.718 0.683-1.98 0.922-3.959 1.024-6.007v-337.34c-0.034-1.98-0.444-3.925-1.092-5.7-0.341-0.922-0.717-1.809-1.195-2.697-1.024-1.809-2.321-3.413-3.857-4.745-0.717-0.649-1.468-1.229-2.287-1.707-0.785-0.512-1.638-0.956-2.492-1.331-2.765-1.195-5.837-1.673-8.841-1.399-0.614 0.068-1.161 0.171-1.775 0.273-0.614 0.137-1.195 0.273-1.809 0.444l-0.205 0.068-0.137 0.068c-0.444 0.137-0.887 0.273-1.331 0.478-2.935 1.092-5.871 2.355-8.806 3.516-5.871 2.321-11.776 4.608-17.715 6.861-23.415 8.806-47.070 17.067-71.1 23.893-16.077 4.608-32.324 8.602-48.777 11.571-22.699 4.096-46.251 6.554-69.257 3.755zM634.709 502.579h-174.933c-3.447-0.068-6.827-0.58-10.069-1.741-8.26-2.97-14.882-9.591-17.852-17.852-1.058-2.97-1.604-6.076-1.707-9.216-0.512-41.199-1.502-82.432 0-123.631 0.239-3.379 0.922-6.69 2.219-9.83 3.174-7.646 9.557-13.722 17.34-16.521 2.731-0.99 5.598-1.502 8.499-1.673 31.437-1.195 62.908 0.341 94.345-0.068 7.27-0.273 14.37-1.536 21.163-4.028 17.681-6.485 32.085-20.514 38.98-38.059 2.867-7.236 4.301-14.848 4.608-22.665 0.512-40.789-3.038-81.681 0.034-122.368 0.375-2.833 2.526-4.983 5.359-5.359 2.185-0.137 4.437-0.137 6.622 0 2.253 0.307 4.233 1.741 5.018 3.925 0.273 0.751 0.341 1.502 0.375 2.287v366.797zM875.349 282.351v279.45c-3.413-1.775-6.861-3.482-10.342-5.188-3.174-1.502-6.349-3.038-9.557-4.506-15.974-7.202-32.256-13.585-48.879-19.115-44.066-14.575-89.771-23.313-135.782-28.604v-179.2c4.574 0.41 9.148 0.683 13.722 0.819 3.482 0.068 6.929 0.102 10.377 0.068 32.393-0.785 64.341-7.066 95.505-15.497 28.843-7.851 57.071-17.613 84.958-28.228zM357.922 346.112c0.068-1.604-115.78 0-191.898 0-3.072 0.068-6.144 0.205-9.216 0.614-6.895 0.956-13.653 2.901-20.002 5.803-8.397 3.823-16.009 9.318-22.323 16.077-8.533 9.182-14.575 20.617-17.306 32.87-1.502 6.724-2.014 13.687-1.502 20.617s2.048 13.79 4.54 20.275c1.126 2.935 2.492 5.734 3.959 8.533 62.498 109.636 128.649 217.156 192.99 325.7 2.389 3.891 5.052 7.612 8.090 11.025 8.124 9.011 18.569 15.906 30.071 19.797 5.803 1.946 11.81 3.038 17.954 3.55 2.321 0.137 4.642 0.137 6.997 0.137 4.608-0.273 9.182-0.751 13.722-1.809 12.561-2.935 24.235-9.353 33.451-18.364 3.857-3.789 7.168-7.987 10.138-12.493 48.435-78.746 74.581-123.767 121.276-203.503-13.551-19.285-35.055-21.948-43.759-12.22-41.472 72.67-72.363 120.661-118.511 190.43-3.004 4.198-7.134 7.373-12.117 8.875-1.638 0.512-3.345 0.751-5.052 0.922-0.751 0.034-1.502 0.034-2.219 0.034-1.741-0.102-3.413-0.307-5.12-0.751-5.495-1.468-10.103-4.983-13.244-9.694-66.048-107.418-133.973-213.914-192.819-325.461-1.297-2.697-2.116-5.53-2.355-8.533-0.649-9.079 4.369-17.886 12.493-21.914 2.697-1.365 5.564-2.082 8.567-2.321 76.22-3.857 116.838-0.751 193.195-0.068 18.125-5.188 20.48-42.735 0-48.128zM358.025 473.839c2.423 0 4.847-0.512 7.1-1.502 2.014-0.853 3.823-2.082 5.427-3.618 6.963-6.861 7.305-18.739 0.649-25.907-1.502-1.638-3.311-3.004-5.257-3.959-2.082-1.024-4.335-1.638-6.622-1.809-2.423-0.205-4.881 0.102-7.168 0.887-2.082 0.717-4.028 1.809-5.734 3.209-2.389 1.946-4.233 4.574-5.359 7.475-2.287 5.973-1.331 13.073 2.56 18.159 1.331 1.775 3.072 3.311 4.983 4.471 1.98 1.195 4.198 1.98 6.485 2.355 0.956 0.171 1.946 0.239 2.935 0.239zM797.833 508.552c2.116-0.171 4.164-0.785 5.973-1.98 5.188-3.447 6.861-10.513 3.823-15.94-0.887-1.536-2.082-2.833-3.482-3.891-1.741-1.126-3.516-2.253-5.291-3.345-6.315-3.823-12.834-7.339-19.593-10.377-11.742-5.222-24.132-9.045-36.83-10.991-4.096-0.649-8.158-1.058-12.254-1.331-2.526-0.171-5.188-0.512-7.68 0-1.536 0.341-2.97 0.922-4.267 1.809-1.263 0.853-2.423 1.946-3.277 3.277-0.751 1.092-1.331 2.355-1.673 3.652-1.297 4.983 0.819 10.411 5.154 13.175 1.843 1.195 3.925 1.775 6.042 1.911 2.082 0.068 4.13 0.171 6.178 0.341 4.745 0.41 9.489 1.058 14.131 2.048 10.001 2.116 19.661 5.564 28.843 10.035 4.335 2.116 8.533 4.437 12.663 6.963 1.775 1.092 3.482 2.321 5.325 3.311 0.546 0.273 1.058 0.478 1.604 0.717 1.126 0.341 2.253 0.546 3.413 0.649 0.58 0 0.58 0 1.195-0.034zM359.014 698.572c1.843-0.171 3.584-0.478 5.325-1.161 4.779-1.775 8.67-5.666 10.479-10.445 0.649-1.741 0.99-3.482 1.126-5.325 1.707-55.842 0.034-111.753 0.034-167.629-0.102-3.686-1.058-7.202-3.174-10.24-1.058-1.502-2.287-2.833-3.755-3.994-6.451-5.052-15.77-5.052-22.255 0-1.707 1.365-3.174 3.038-4.301 4.915-1.536 2.526-2.321 5.291-2.594 8.226-1.673 55.842 0 111.753 0 167.629 0.034 1.843 0.239 3.618 0.819 5.359 1.502 4.915 5.154 8.977 9.796 11.093 1.707 0.751 3.413 1.195 5.222 1.468 1.126 0.102 2.185 0.137 3.277 0.102zM845.073 534.323c1.604-0.034 3.174-0.375 4.676-1.024 1.297-0.614 2.492-1.434 3.55-2.423 0.922-0.922 1.741-2.014 2.321-3.209 2.014-4.062 1.536-9.114-1.229-12.698-0.922-1.195-2.048-2.185-3.345-2.97-2.594-1.536-5.222-3.174-8.055-4.301-1.399-0.512-2.901-0.819-4.369-0.819-4.642 0.034-8.943 2.799-10.889 6.997-0.546 1.195-0.922 2.492-1.058 3.789-0.137 1.468-0.034 2.901 0.341 4.301 0.375 1.502 1.058 2.935 1.98 4.164 1.024 1.331 2.287 2.458 3.755 3.277 2.389 1.331 5.052 3.038 7.748 4.096 0.819 0.307 1.638 0.546 2.492 0.683 0.683 0.102 1.365 0.137 2.082 0.137z" />
</svg>