<svg width="150px" height="150px" viewBox="5 -40 31 41" version="1.1" xmlns="http://www.w3.org/2000/svg">
  <path transform="scale(0.037, -0.037)" glyph-name="sustainability_and_csr" d="M834.56 148.48l-95.573 95.573 6.827 10.24c34.133 44.373 51.2 98.987 51.2 153.6 0 68.267-27.307 129.707-75.093 177.493-177.493 177.493-508.587 187.733-525.653 187.733-6.827 0-10.24-3.413-13.653-6.827s-6.827-10.24-6.827-13.653c0-13.653 10.24-348.16 187.733-522.24 47.787-47.787 109.227-75.093 177.493-75.093 54.613 0 109.227 17.067 153.6 51.2l10.24 6.827 95.573-95.573c3.413-3.413 6.827-6.827 13.653-6.827 3.413 0 10.24 3.413 13.653 6.827 13.653 10.24 13.653 20.48 6.827 30.72zM711.68 267.946l-259.413 262.827c-3.413 3.413-6.827 6.827-13.653 6.827s-10.24-3.413-13.653-6.827c-3.413-3.413-6.827-6.827-6.827-13.653 0-3.413 3.413-10.24 6.827-13.653l259.413-259.413-13.653-10.24c-37.547-23.893-78.507-37.547-122.88-37.547-58.027 0-112.64 23.893-150.187 61.44-129.707 129.707-163.84 365.227-174.080 460.8v17.067h17.067c95.573-6.827 327.68-40.96 460.8-174.080 40.96-40.96 61.44-95.573 61.44-150.187 0-44.373-13.653-85.333-37.547-122.88l-13.653-20.48z" />
</svg>