<svg width="150px" height="150px" viewBox="5 -40 31 41" version="1.1" xmlns="http://www.w3.org/2000/svg">
  <path transform="scale(0.037, -0.037)" glyph-name="safety_campaign_and_engagement" d="M906.24 254.293l-341.333 593.92c-10.24 17.067-30.72 30.72-54.613 30.72-20.48 0-40.96-10.24-51.2-30.72l-341.333-593.92c-10.24-20.48-10.24-40.96 0-61.44s30.72-30.72 51.2-30.72h375.467l184.32-150.187c3.413-3.413 6.827-3.413 10.24-3.413s6.827 0 10.24 3.413 10.24 10.24 6.827 17.067l-30.72 133.12h129.707c20.48 0 40.96 10.24 51.2 30.72s10.24 40.96 0 61.44zM878.933 209.92c-3.413-6.827-13.653-13.653-23.893-13.653h-150.187c-6.827 0-10.24-3.413-13.653-6.827s-3.413-10.24-3.413-13.653l23.893-105.813-153.6 122.88c0 3.413-3.413 3.413-10.24 3.413h-378.88c-10.24 0-17.067 3.413-23.893 13.653s-3.413 17.067 0 27.307l341.333 593.92c3.413 6.827 13.653 13.653 23.893 13.653s17.067-3.413 23.893-13.653l341.333-593.92c6.827-10.24 6.827-17.067 3.413-27.307zM640 520.533c-6.827 0-10.24-3.413-17.067-6.827l-143.36-174.080-78.507 78.507c-6.827 6.827-20.48 6.827-27.307 0-3.413-3.413-6.827-10.24-6.827-13.653s3.413-10.24 6.827-13.653l95.573-95.573c3.413-3.413 10.24-6.827 13.653-6.827 6.827 0 10.24 3.413 13.653 6.827l157.013 191.147c6.827 10.24 6.827 20.48-3.413 27.307-3.413 3.413-6.827 6.827-10.24 6.827z" />
</svg>