<svg width="150px" height="150px" viewBox="5 -40 31 41" version="1.1" xmlns="http://www.w3.org/2000/svg">
  <path transform="scale(0.037, -0.037)" glyph-name="sustainability_and_environment" d="M670.72 633.173c58.027 0 105.813 47.787 105.813 105.813s-47.787 105.813-105.813 105.813c-58.027 0-105.813-47.787-105.813-105.813s47.787-105.813 105.813-105.813zM670.72 814.080c40.96 0 75.093-34.133 75.093-75.093s-34.133-75.093-75.093-75.093c-40.96 0-75.093 34.133-75.093 75.093 0 44.373 34.133 75.093 75.093 75.093zM988.16 73.386h-146.773v92.16h95.573c3.413 0 10.24 3.413 13.653 6.827s3.413 10.24 3.413 13.653l-112.64 320.853c-3.413 13.653-23.893 13.653-30.72 0l-112.64-320.853c0-3.413 0-10.24 3.413-13.653s6.827-6.827 13.653-6.827h95.573v-92.16h-283.307v143.36c78.507 6.827 136.533 71.68 136.533 150.187 0 85.333-68.267 153.6-153.6 153.6s-153.6-68.267-153.6-153.6c0-78.507 61.44-143.36 136.533-150.187v-143.36h-279.893v92.16h95.573c3.413 0 10.24 3.413 13.653 6.827s3.413 10.24 3.413 13.653l-112.64 320.853c-3.413 13.653-23.893 13.653-30.72 0l-112.64-320.853c0-3.413 0-10.24 3.413-13.653s6.827-6.827 13.653-6.827h92.16v-92.16h-143.36c-10.24 0-17.067-6.827-17.067-17.067s6.827-17.067 17.067-17.067h952.32c10.24 0 17.067 6.827 17.067 17.067s-10.24 17.067-17.067 17.067zM824.32 455.68l88.747-256h-177.493l88.747 256zM387.413 366.933c0 68.267 54.613 122.88 122.88 122.88s122.88-54.613 122.88-122.88c0-68.267-54.613-122.88-122.88-122.88s-122.88 54.613-122.88 122.88zM196.267 455.68l88.747-256h-177.493l88.747 256z" />
</svg>