<svg width="150px" height="150px" viewBox="5 -40 31 41" version="1.1" xmlns="http://www.w3.org/2000/svg">
  <path transform="scale(0.037, -0.037)" glyph-name="safety" d="M909.653 179.2l-341.333 593.92c-10.24 20.48-30.72 30.72-54.613 30.72s-40.96-10.24-54.613-30.72l-344.747-593.92c-10.24-20.48-10.24-40.96 0-61.44s30.72-30.72 54.613-30.72h686.080c23.893 0 40.96 10.24 54.613 30.72 10.24 17.067 10.24 40.96 0 61.44zM875.52 134.826c-3.413-3.413-6.827-13.653-20.48-13.653h-686.080c-13.653 0-20.48 6.827-20.48 13.653-3.413 3.413-6.827 13.653 0 23.893l344.747 593.92c6.827 10.24 17.067 13.653 20.48 13.653s13.653 0 20.48-13.653l341.333-593.92c6.827-10.24 3.413-20.48 0-23.893zM510.293 571.733c-10.24 0-17.067-6.827-17.067-17.067v-221.867c0-10.24 6.827-17.067 17.067-17.067s17.067 6.827 17.067 17.067v221.867c0 6.827-10.24 17.067-17.067 17.067zM520.533 254.293c-3.413 3.413-6.827 3.413-13.653 3.413-3.413 0-3.413 0-6.827 0s-3.413-3.413-6.827-3.413-3.413-6.827-3.413-13.653c0-3.413 0-10.24 3.413-13.653s3.413-3.413 6.827-3.413 3.413 0 6.827 0 10.24 3.413 13.653 6.827c3.413 3.413 6.827 6.827 6.827 13.653 0 3.413 0 3.413-3.413 6.827 0-3.413 0 0-3.413 3.413z" />
</svg>