<svg width="150px" height="150px" viewBox="5 -40 31 41" version="1.1" xmlns="http://www.w3.org/2000/svg">
  <path transform="scale(0.037, -0.037)" glyph-name="supplying_us" d="M156.672 356.113h516.745c7.339 0 13.346 6.042 13.346 13.346v308.941c0 7.305-6.007 13.346-13.346 13.346h-516.745c-7.305 0-13.312-6.042-13.312-13.346v-308.668c0-0.068 0-0.171 0-0.273 0-7.305 6.007-13.346 13.312-13.346 0 0 0 0 0 0zM557.773 665.088h102.605v-282.010h-102.605v282.010zM428.544 665.088h102.298v-282.010h-102.298v282.010zM299.281 665.088h102.571v-282.010h-102.571v282.010zM170.018 665.088h102.605v-282.010h-102.605v282.010zM886.716 308.599c0 16.213 0 97.075 0 111.855-5.769 97.963-62.293 149.845-163.738 149.845-7.475 0-13.619-6.144-13.619-13.619s6.144-13.619 13.619-13.619c86.938 0 131.857-40.585 136.806-124.348 0-10.411 0-62.874 0-99.089h-709.188c-7.305 0-13.346-6.042-13.346-13.346s6.042-13.346 13.346-13.346h89.259c-8.533-10.445-13.141-23.586-13.039-37.069 0-32.939 27.068-60.006 60.006-60.006 32.905 0 59.972 27.068 59.972 60.006-0.239 13.141-4.949 25.805-13.312 35.908h341.675c-8.533-10.445-13.141-23.586-13.039-37.069 0-32.939 27.102-60.006 60.006-60.006s59.972 27.068 59.972 60.006c0.102 13.483-4.506 26.624-13.039 37.069h104.038c7.339 0 13.346 6.042 13.346 13.346 0.273 1.126 0.341 2.321 0.273 3.482v0zM287.403 219.614c-19.9 0-36.25 16.35-36.25 36.25 0 19.866 16.35 36.215 36.25 36.215 19.866 0 36.215-16.35 36.215-36.215-0.171-19.831-16.418-36.079-36.215-36.25zM722.125 219.614c-19.763 0.171-35.942 16.486-35.942 36.25 0 19.866 16.35 36.215 36.215 36.215s36.25-16.35 36.25-36.215c-0.171-19.934-16.623-36.25-36.523-36.25v0z" />
</svg>