<svg width="150px" height="150px" viewBox="5 -40 31 41" version="1.1" xmlns="http://www.w3.org/2000/svg">
  <path transform="scale(0.037, -0.037)" glyph-name="shield" d="M513.502 933.922l0.614-0.034 0.99-0.102 0.717-0.068 0.512-0.102c1.024-0.171 1.843-0.341 3.209-0.751l1.331-0.444 0.478-0.205 0.751-0.307 0.649-0.307c1.434-0.649 2.765-1.399 4.028-2.321 0.341-0.205 0.649-0.444 0.956-0.717l0.614-0.478 0.307-0.273c0.478-0.375 0.922-0.785 1.365-1.229 0.205-0.205 0.41-0.444 0.614-0.649 0.341-0.375 0.683-0.751 0.99-1.161l0.375-0.41c3.994-4.983 8.021-9.933 12.117-14.848 5.939-6.963 11.947-13.824 18.159-20.514 38.025-40.892 83.422-76.868 136.67-95.403 9.967-3.482 20.173-6.315 30.515-8.465 14.234-2.97 28.706-4.608 43.247-4.915 22.426-0.512 44.885 2.15 66.731 7.236 32.768 7.646 63.932 20.719 93.594 36.42l2.697 1.229c0.922 0.307 1.843 0.649 2.799 0.887 2.833 0.751 5.803 1.024 8.738 0.751 9.933-0.853 18.671-7.68 21.948-17.101 0.99-2.867 1.263-5.632 1.399-8.636-0.068-7.817-0.171-15.633-0.307-23.45-0.717-29.798-2.014-59.563-4.369-89.293-6.929-87.723-22.187-175.172-50.654-258.594-15.974-46.865-36.147-92.297-60.757-135.305-22.221-38.878-47.991-75.639-76.663-110.012-33.929-40.687-71.782-77.926-111.582-112.879-44.681-39.253-91.75-75.708-138.445-112.503l-0.614-0.41c-0.41-0.307-0.819-0.614-1.263-0.887l-0.546-0.41-0.649-0.341c-0.41-0.239-0.819-0.478-1.229-0.683-1.058-0.546-1.843-0.922-3.516-1.468-0.819-0.273-1.638-0.512-2.458-0.683l-0.137-0.034-0.102-0.034h-0.034c-0.512-0.102-1.024-0.205-1.536-0.273-2.697-0.41-5.461-0.375-8.124 0.102h-0.034l-0.171 0.034-0.205 0.034-0.068 0.034h-0.068l-0.205 0.034-0.137 0.034h-0.068l-0.137 0.034-0.205 0.068h-0.068c-0.307 0.068-0.614 0.137-0.922 0.239h-0.068l-0.034 0.034-0.137 0.034-0.307 0.068-0.068 0.034h-0.034l-0.137 0.034-0.307 0.102-0.068 0.034h-0.034l-0.41 0.137-0.068 0.034h-0.034l-0.137 0.068-0.307 0.102h-0.068v0.034l-0.171 0.034-0.273 0.102-0.068 0.034-0.034 0.034-0.171 0.068-0.239 0.102h-0.068l-0.034 0.034-0.205 0.068-0.205 0.102-0.034 0.034h-0.068l-0.239 0.102-0.171 0.102h-0.034l-0.478 0.239h-0.034l-0.034 0.034-0.307 0.171-0.102 0.034-0.034 0.034-0.068 0.034-0.307 0.137-0.102 0.068h-0.034l-0.034 0.034-0.307 0.171-0.102 0.068-0.034 0.034-0.068 0.034-0.239 0.137-0.137 0.068-0.034 0.034-0.068 0.034-0.137 0.102c-0.41 0.239-0.785 0.478-1.161 0.751s-0.751 0.546-1.092 0.819l-0.034 0.034c-19.866 15.667-39.765 31.3-59.563 47.036-36.864 29.457-73.318 59.426-107.827 91.648-40.994 38.229-79.189 79.497-112.401 124.689-30.447 41.37-56.627 85.845-77.995 132.574-23.211 50.756-40.755 103.97-53.623 158.242-16.145 68.13-24.986 137.865-28.911 207.701-1.502 26.692-2.219 53.419-2.458 80.145l0.137 2.935c0.171 0.956 0.273 1.946 0.478 2.901 0.649 2.867 1.775 5.598 3.345 8.090 5.325 8.431 15.394 13.073 25.259 11.639 3.004-0.41 5.598-1.468 8.363-2.697 4.54-2.423 9.148-4.779 13.756-7.1 29.491-14.404 60.416-25.975 92.774-32.017 20.787-3.891 42.018-5.427 63.113-4.164 13.483 0.819 26.897 2.799 40.038 5.871 9.318 2.185 18.466 4.949 27.443 8.192 57.719 20.958 105.916 62.054 145.749 107.827 6.212 7.134 12.254 14.473 18.159 21.879l0.58 0.649c0.341 0.375 0.649 0.751 0.99 1.126l0.41 0.444 0.478 0.41c0.341 0.341 0.683 0.649 1.024 0.956 0.239 0.205 0.478 0.41 0.751 0.614 0.614 0.478 1.297 0.956 1.98 1.399l0.171 0.102 0.205 0.137 0.137 0.068c0.307 0.205 0.683 0.41 1.024 0.58 1.365 0.751 2.799 1.365 4.267 1.843l0.137 0.068 0.205 0.068 0.341 0.102 0.068 0.034h0.068c0.205 0.068 0.41 0.102 0.614 0.171h0.034l0.137 0.034 0.341 0.102 0.273 0.068h0.102l0.171 0.068 0.307 0.034 0.137 0.034 0.068 0.034h0.034l0.307 0.034c1.399 0.273 2.219 0.375 3.243 0.375l0.546 0.068 0.717-0.034 0.99 0.034 0.649-0.068zM512 868.386c-14.575-16.657-29.901-32.563-46.353-47.377-33.246-29.935-70.963-55.33-112.777-71.714-10.82-4.233-21.845-7.851-33.075-10.82-14.677-3.857-29.662-6.554-44.783-8.055-22.596-2.287-45.431-1.843-67.959 1.024-33.997 4.335-66.935 14.165-98.509 27.307l-3.174 1.365c0.683-22.63 1.946-45.227 3.721-67.823 8.397-105.95 29.457-211.934 72.875-309.419 13.278-29.833 28.604-58.743 45.909-86.426 17.306-27.716 36.659-54.17 57.583-79.292 29.559-35.465 62.293-68.164 96.7-98.918 41.745-37.342 85.811-71.953 129.843-106.564 14.507 11.435 29.013 22.869 43.486 34.372 35.84 28.638 71.27 57.754 104.823 89.054 38.673 36.045 74.752 74.957 106.086 117.589 25.532 34.679 47.821 71.68 66.526 110.49 21.197 43.964 37.751 90.044 50.313 137.182 15.872 59.426 25.498 120.457 30.822 181.692 2.15 24.713 3.516 49.459 4.471 74.24l0.102 3.823c-4.813-2.048-9.66-4.028-14.507-5.973-5.052-1.911-10.069-3.755-15.155-5.564-29.457-10.001-59.87-16.896-90.931-18.944-20.105-1.331-40.346-0.683-60.314 2.116-15.087 2.116-30.003 5.427-44.578 9.899-11.196 3.413-22.187 7.475-32.939 12.151-52.019 22.699-97.007 59.017-135.441 100.352-4.335 4.676-8.602 9.421-12.766 14.234zM512 707.925l53.828-165.649h174.182l-140.937-102.4 53.828-165.649-140.902 102.4-140.902-102.4 53.828 165.649-140.937 102.4h174.182l53.828 165.649z" />
</svg>