<svg width="150px" height="150px" viewBox="5 -40 31 41" version="1.1" xmlns="http://www.w3.org/2000/svg">
  <path transform="scale(0.037, -0.037)" glyph-name="safety3" d="M396.732 166.775c0.341 32.973 1.331 65.98 0.068 98.953-0.205 3.584-0.887 7.066-2.116 10.445-3.482 9.523-11.059 17.271-20.48 20.992-3.618 1.434-7.407 2.15-11.264 2.423-37.001 1.399-74.138-0.41-111.172 0.068-8.26 0.307-16.384 1.707-24.132 4.506-21.026 7.509-38.059 24.132-46.046 44.954-3.209 8.294-4.847 17.033-5.188 25.907-0.614 48.947-0.614 97.929 0 146.842 0.341 8.909 1.98 17.613 5.188 25.941 7.987 20.787 25.020 37.41 46.046 44.919 7.782 2.799 15.872 4.198 24.132 4.506 76.151 0.956 152.405 3.447 228.489 0.068 1.331 0.137 2.219 0.171 4.745 0.444 5.769 0.58 11.571 1.229 17.374 1.911 70.997 8.636 141.892 24.542 206.78 55.364 15.189 7.236 29.935 15.292 44.237 24.132l1.57 0.853c1.673 0.751 3.311 1.434 5.086 1.809 1.604 0.341 2.014 0.341 3.618 0.478 1.809 0 1.775 0 3.584-0.171 1.809-0.307 3.516-0.683 5.222-1.365 5.632-2.253 10.103-6.929 12.117-12.629 0.819-2.321 1.092-4.642 1.229-7.1v-397.312c-0.068-2.321-0.512-4.608-1.297-6.724-0.375-1.092-0.819-2.15-1.434-3.14-1.126-2.116-2.662-4.028-4.471-5.598-0.853-0.751-1.775-1.434-2.697-2.014-0.956-0.614-1.946-1.126-2.97-1.57-3.277-1.399-6.895-1.98-10.411-1.638-0.717 0.068-1.399 0.205-2.082 0.341-0.751 0.137-1.434 0.307-2.15 0.512l-0.205 0.068-0.171 0.068c-0.546 0.137-1.058 0.341-1.57 0.546-3.482 1.331-6.895 2.799-10.342 4.13-6.963 2.765-13.926 5.461-20.89 8.124-27.58 10.377-55.433 20.070-83.763 28.16-18.944 5.393-38.093 10.103-57.446 13.619-26.726 4.847-54.477 7.714-81.545 4.403v-137.079c112.299-0.034 224.631 2.799 336.759 8.397 2.799 0.239 5.495 0.922 7.987 2.185 7.646 3.755 12.356 12.015 11.742 20.514-0.171 2.799-0.956 5.461-2.15 7.987-23.142 44.373-22.869 47.548-47.036 91.375l1.877 81.203c36.318-62.703 46.865-86.153 83.524-148.651 1.434-2.492 2.731-5.052 3.857-7.714 2.56-6.042 4.164-12.425 4.847-18.91 0.956-9.318-0.102-18.842-3.038-27.75-3.482-10.445-9.591-19.968-17.613-27.477-4.745-4.471-10.103-8.192-15.906-11.059-5.837-2.901-12.083-4.915-18.534-6.007-2.901-0.512-5.837-0.717-8.772-0.887-112.503-1.877-225.041-1.877-337.545-1.399v-5.53c-0.137-4.915-0.785-9.728-2.253-14.473-4.301-13.824-14.711-25.327-28.058-30.959-5.359-2.287-10.957-3.413-16.794-3.823-4.54-0.137-4.54-0.068-9.079-0.068-4.915 0.137-9.762 0.751-14.473 2.219-13.824 4.301-25.327 14.746-30.993 28.058-2.253 5.393-3.379 10.991-3.823 16.794-0.068 2.765-0.102 5.564-0.171 8.294-75.913 0.444-151.791 0.853-227.703 0.853-2.867 0.068-5.734 0.205-8.636 0.614-6.451 0.853-12.8 2.662-18.739 5.393-5.871 2.697-11.366 6.212-16.247 10.513-7.714 6.758-13.824 15.326-17.681 24.815-3.823 9.421-5.461 19.661-4.745 29.73 0.444 6.519 1.877 12.937 4.198 19.012 1.024 2.765 2.287 5.393 3.686 8.021 23.177 41.062 53.76 96.495 53.794 96.154 1.195-9.421 15.838-25.498 31.471-26.351-20.105-36.045-26.829-55.398-45.909-91.989-1.195-2.526-1.98-5.188-2.185-7.987-0.58-8.499 4.13-16.759 11.776-20.514 2.492-1.263 5.188-1.946 7.987-2.185 76.22-3.823 152.576-6.349 228.932-7.543zM459.844 554.735h-206.029c-4.062-0.068-8.021-0.683-11.844-2.048-9.728-3.482-17.545-11.298-21.026-20.992-1.263-3.516-1.911-7.168-2.048-10.889-0.58-48.538-1.741-97.075 0.068-145.579 0.239-3.994 1.058-7.919 2.594-11.605 3.721-9.011 11.23-16.145 20.412-19.422 3.243-1.161 6.588-1.809 10.001-2.014 37.001-1.365 74.103 0.41 111.138-0.068 8.499-0.341 16.862-1.809 24.883-4.745 20.821-7.612 37.786-24.166 45.909-44.783 3.413-8.567 5.086-17.545 5.427-26.726 0.614-48.026-3.55-96.222 0.068-144.145 0.444-3.311 2.97-5.871 6.315-6.315 2.56-0.171 5.188-0.171 7.782 0 2.662 0.341 4.983 2.082 5.905 4.608 0.341 0.887 0.41 1.809 0.444 2.731v431.991zM743.287 295.355v329.148c-4.028-2.082-8.090-4.096-12.186-6.11-3.721-1.775-7.475-3.55-11.264-5.291-18.807-8.499-37.99-16.009-57.583-22.494-51.883-17.203-105.677-27.511-159.881-33.724v-211.081c5.359 0.512 10.752 0.819 16.145 0.99 4.062 0.102 8.158 0.102 12.22 0.068 38.127-0.922 75.776-8.294 112.503-18.295 33.929-9.216 67.209-20.685 100.045-33.212zM652.049 558.899c2.048-0.205 3.959-0.819 5.666-2.048 4.642-3.311 6.076-9.762 3.311-14.711-0.819-1.434-1.946-2.628-3.209-3.618-2.014-1.365-4.062-2.628-6.144-3.925-7.339-4.437-14.882-8.499-22.699-12.015-15.36-6.861-31.676-11.537-48.367-13.517-4.847-0.58-9.762-0.99-14.677-1.058-0.614 0.034-1.195 0.102-1.809 0.171-1.604 0.341-3.14 0.956-4.471 1.877-1.195 0.819-2.185 1.877-2.97 3.072-3.243 4.949-2.014 11.776 2.765 15.292 1.673 1.229 3.618 1.877 5.666 2.15 1.843 0.102 3.686 0.137 5.564 0.273 5.7 0.375 11.366 1.058 17.033 2.15 11.913 2.321 23.518 6.212 34.509 11.332 5.188 2.423 10.24 5.12 15.121 8.021 2.799 1.638 5.461 3.447 8.226 5.12 0.546 0.273 1.092 0.546 1.673 0.785 1.161 0.375 2.321 0.614 3.584 0.683 0.614 0 0.58 0 1.229-0.034zM707.516 589.278c1.502-0.034 3.004-0.341 4.403-0.956 1.263-0.546 2.423-1.365 3.413-2.321 0.887-0.922 1.638-1.946 2.185-3.072 1.911-3.959 1.331-8.738-1.434-12.117-0.887-1.058-1.98-1.98-3.174-2.662-2.731-1.536-5.7-3.447-8.772-4.676-1.468-0.546-3.038-0.819-4.608-0.751-1.434 0.068-2.867 0.41-4.198 1.024-1.195 0.546-2.321 1.331-3.243 2.287-3.755 3.721-4.369 9.694-1.502 14.131 0.819 1.263 1.877 2.355 3.14 3.209 2.97 1.946 6.11 3.721 9.353 5.086 0.819 0.307 1.604 0.546 2.458 0.649 0.649 0.137 1.297 0.171 1.98 0.171zM345.361 618.257c39.663 66.833 61.577 113.766 100.898 180.804 2.287 3.686 4.745 7.168 7.612 10.411 8.090 9.079 18.671 15.838 30.31 19.388 4.881 1.468 9.83 2.287 14.916 2.697 2.185 0.102 4.369 0.171 6.554 0.102 5.12-0.239 10.103-0.887 15.019-2.219 11.742-3.14 22.562-9.557 30.925-18.364 3.004-3.209 5.632-6.656 8.021-10.308 33.621-55.159 54.374-90.010 87.142-145.681-12.698-13.312-26.453-20.617-36.693-19.456-32.188 52.19-55.467 90.351-89.054 141.585-3.038 4.369-7.509 7.543-12.698 8.772-1.843 0.41-3.686 0.546-5.564 0.512-5.325-0.239-10.377-2.321-14.199-6.076-1.161-1.161-2.15-2.423-3.038-3.789-36.079-59.29-58.812-97.621-94.993-156.945-18.5-8.192-32.358-5.393-45.158-1.434z" />
</svg>