<svg width="150px" height="150px" viewBox="5 -40 31 41" version="1.1" xmlns="http://www.w3.org/2000/svg">
  <path transform="scale(0.037, -0.037)" glyph-name="to_and_from_the_station" d="M81.852 301.124c90.59 67.891 184.866 130.765 277.265 196.164 1.604 1.092 3.209 2.082 4.949 2.935 4.096 1.946 8.397 2.935 12.902 3.311 1.911 0.034 1.911 0.034 3.823-0.034 5.154-0.444 10.069-1.707 14.609-4.198 2.799-1.57 5.359-3.516 7.612-5.769 9.66-9.66 12.595-24.576 7.339-37.205-2.219-5.393-5.803-9.865-10.274-13.619-61.918-46.49-125.577-90.59-189.235-134.758 238.353 2.389 476.843 10.615 714.854-0.751 2.867-0.41 3.584-0.41 6.383-1.229 6.246-1.809 11.913-5.461 16.179-10.377 2.833-3.277 5.018-7.1 6.451-11.196 1.058-3.072 1.673-6.281 1.843-9.523 0.614-13.21-6.69-25.907-18.466-31.983-3.857-1.98-8.090-3.209-12.39-3.618-1.092-0.102-2.15-0.102-3.243-0.171h-711.202c62.737-44.339 124.621-89.873 187.324-134.246 4.13-3.106 7.612-6.758 10.138-11.298 2.15-3.925 3.55-8.26 4.062-12.698 0.41-3.789 0.205-7.68-0.649-11.401-2.56-11.366-10.991-20.821-21.982-24.644-3.004-1.058-6.144-1.707-9.353-1.877-7.168-0.41-13.926 1.536-20.070 5.154-94.754 63.147-185.924 131.516-278.903 197.291-0.068 0.068-0.171 0.137-0.239 0.205-2.15 1.536-4.096 3.311-5.837 5.291-0.956 1.126-1.843 2.287-2.628 3.482-0.512 0.751-0.99 1.536-1.434 2.321-1.399 2.594-2.492 5.325-3.243 8.192v0.034l-0.034 0.102v0.102l-0.034 0.034v0.068l-0.034 0.102v0.102l-0.034 0.102-0.034 0.068v0.102l-0.034 0.137-0.034 0.068v0.068l-0.068 0.239v0.034c-0.614 2.935-0.819 5.939-0.649 8.943 0.205 3.994 1.161 7.953 2.731 11.639l0.068 0.068v0.068l0.068 0.137 0.034 0.034v0.068l0.068 0.137 0.034 0.034v0.034l0.034 0.068 0.034 0.034 0.068 0.171v0.034c0.034 0.068 0.068 0.171 0.137 0.239v0.034l0.068 0.102 0.034 0.102 0.034 0.068 0.034 0.034 0.068 0.137c1.263 2.594 2.867 4.983 4.745 7.168 1.365 1.57 2.867 3.004 4.471 4.301h0.034v0.034l0.068 0.034 0.034 0.034h0.034c0.444 0.375 0.887 0.717 1.365 1.058l0.102 0.068zM807.083 708.062c-60.791 43.042-120.832 87.177-181.658 130.219-4.13 3.106-7.612 6.758-10.138 11.298-1.536 2.799-2.697 5.803-3.413 8.909-3.038 13.312 2.355 27.546 13.483 35.465 5.325 3.755 11.401 5.7 17.852 6.246 1.911 0.068 1.911 0.068 3.823 0.034 3.209-0.273 6.315-0.819 9.353-1.877 2.423-0.853 4.676-1.98 6.895-3.311 94.754-63.113 185.924-131.482 278.903-197.257l0.956-0.683c1.229-0.956 2.389-1.98 3.482-3.072 0.375-0.341 0.717-0.717 1.058-1.092l0.068-0.068c0.887-0.99 1.741-2.048 2.526-3.14 0.444-0.614 0.853-1.263 1.263-1.911 0.273-0.444 0.512-0.887 0.785-1.331 2.15-3.925 3.55-8.26 4.062-12.698 0.341-3.072 0.239-6.178-0.239-9.182-0.41-2.662-1.126-5.257-2.185-7.782-0.239-0.58-0.478-1.161-0.751-1.707-0.375-0.751-0.751-1.502-1.195-2.253-1.638-2.799-3.652-5.393-6.007-7.646-0.375-0.375-0.785-0.717-1.195-1.058-0.341-0.307-0.683-0.614-1.024-0.887l-0.068-0.068h-0.034c-0.478-0.41-0.99-0.785-1.536-1.161-90.59-67.891-184.866-130.765-277.265-196.164-4.301-2.867-8.943-4.949-14.063-5.803-4.403-0.751-8.943-0.614-13.312 0.375-3.721 0.853-7.305 2.355-10.547 4.403-2.697 1.707-5.154 3.789-7.305 6.178-7.714 8.67-10.513 21.026-7.305 32.188 2.014 6.895 6.11 12.629 11.571 17.237 62.191 46.694 126.157 90.999 190.089 135.339h-712.465c-2.867 0.137-3.618 0.068-6.451 0.614-7.475 1.434-14.37 5.427-19.354 11.162-2.833 3.277-5.018 7.1-6.451 11.196-1.058 3.072-1.673 6.281-1.843 9.523-0.614 13.21 6.69 25.907 18.466 31.983 3.857 1.98 8.090 3.209 12.39 3.618 1.092 0.102 2.15 0.102 3.243 0.171 235.145 0 470.528 9.455 705.536 3.994z" />
</svg>