<svg width="150px" height="150px" viewBox="5 -40 31 41" version="1.1" xmlns="http://www.w3.org/2000/svg">
  <path transform="scale(0.037, -0.037)" glyph-name="travelling_safely" d="M465.92 861.866h245.76c6.827 0 13.653 6.827 13.653 13.653s-6.827 13.653-13.653 13.653h-245.76c-6.827 0-13.653-6.827-13.653-13.653s6.827-13.653 13.653-13.653zM926.72 18.773l-122.88 170.667 6.827 3.413c37.547 13.653 61.44 47.787 61.44 88.747v450.56c0 51.2-40.96 95.573-95.573 95.573h-375.467c-51.2 0-95.573-40.96-95.573-95.573v-221.867l-204.8-354.987c-6.827-13.653-6.827-30.72 0-44.373s23.893-23.893 37.547-23.893h163.84l-51.2-71.68c-3.413-6.827-3.413-17.067 3.413-20.48 3.413-3.413 6.827-3.413 6.827-3.413 3.413 0 10.24 3.413 10.24 6.827l61.44 88.747v3.413l-3.413-3.413h501.76l61.44-88.747c3.413-3.413 6.827-6.827 10.24-6.827s6.827 0 6.827 3.413c20.48 6.827 20.48 17.067 17.067 23.893zM844.8 281.6c0-37.547-30.72-64.853-64.853-64.853h-139.947l-157.013 273.067h361.813v-208.213zM844.8 517.12h-238.933v184.32h238.933v-184.32zM336.213 735.573c0 34.133 30.72 61.44 64.853 61.44h378.88c34.133 0 64.853-27.307 64.853-61.44v-6.827h-508.587v6.827zM336.213 698.026h238.933v-184.32h-112.64l-37.547 68.267c-6.827 17.067-23.893 23.893-37.547 23.893-17.067 0-30.72-6.827-37.547-23.893l-13.653-23.893v139.947zM650.24 124.586l-3.413-3.413c-3.413-3.413-6.827-3.413-10.24-3.413h-494.933c-10.24 0-13.653 6.827-13.653 10.24s-3.413 10.24 0 17.067l180.907 314.027 34.133 58.027 30.72 54.613c3.413 6.827 13.653 10.24 13.653 10.24s10.24 0 13.653-10.24l30.72-54.613 17.067-27.307 157.013-273.067 17.067-27.307 23.893-44.373c6.827-10.24 3.413-17.067 3.413-20.48zM674.133 121.173c3.413 10.24 3.413 23.893-3.413 37.547l-17.067 30.72h116.053l47.787-68.267h-143.36zM725.333 281.6c30.72 0 54.613 23.893 54.613 54.613s-23.893 54.613-54.613 54.613c-30.72 0-54.613-23.893-54.613-54.613s23.893-54.613 54.613-54.613zM725.333 363.52c13.653 0 27.307-13.653 27.307-27.307s-13.653-27.307-27.307-27.307c-13.653 0-27.307 13.653-27.307 27.307 0 17.067 13.653 27.307 27.307 27.307zM469.333 349.866c-3.413 0-6.827-3.413-10.24-6.827l-102.4-126.293-58.027 58.027c-6.827 6.827-13.653 6.827-20.48 0-3.413-3.413-3.413-6.827-3.413-10.24s0-6.827 3.413-10.24l68.267-68.267c3.413-3.413 6.827-3.413 10.24-3.413s6.827 3.413 10.24 6.827l112.64 136.533c3.413 3.413 3.413 6.827 3.413 10.24s-3.413 6.827-3.413 10.24c-3.413 0-6.827 3.413-10.24 3.413z" />
</svg>