<svg width="150px" height="150px" viewBox="5 -40 31 41" version="1.1" xmlns="http://www.w3.org/2000/svg">
  <path transform="scale(0.037, -0.037)" glyph-name="time_tabling" d="M370.347 766.293c3.413 0 3.413 0 6.827 0 10.24 3.413 13.653 13.653 10.24 23.893-3.413 6.827-10.24 10.24-17.067 10.24-3.413 0-3.413 0-6.827 0-10.24-3.413-13.653-13.653-10.24-23.893 3.413-6.827 10.24-10.24 17.067-10.24zM360.107 329.386c3.413-6.827 10.24-10.24 17.067-10.24 3.413 0 6.827 0 6.827 3.413l133.12 68.267c6.827 3.413 10.24 10.24 10.24 17.067v232.107c0 10.24-6.827 17.067-17.067 17.067s-17.067-6.827-17.067-17.067v-221.867l-122.88-61.44c-10.24-6.827-13.653-17.067-10.24-27.307zM250.88 687.786c3.413 0 10.24 3.413 13.653 6.827s6.827 6.827 6.827 13.653c0 3.413-3.413 10.24-6.827 13.653s-6.827 6.827-13.653 6.827c-3.413 0-10.24-3.413-13.653-6.827s-6.827-6.827-6.827-13.653c0-3.413 3.413-10.24 6.827-13.653 3.413-6.827 10.24-6.827 13.653-6.827zM510.293 831.146c-3.413 0-6.827 0-13.653-6.827-3.413-3.413-3.413-6.827-3.413-10.24s0-6.827 3.413-10.24l3.413-3.413c3.413-3.413 6.827-3.413 10.24-3.413 194.56 0 351.573-157.013 351.573-351.573s-157.013-351.573-351.573-351.573c-194.56 0-351.573 157.013-351.573 351.573 0 3.413 0 6.827-3.413 10.24l-3.413 3.413c-3.413 3.413-6.827 3.413-10.24 3.413s-6.827 0-10.24-3.413l-3.413-3.413c-3.413-3.413-3.413-6.827-3.413-10.24 0-211.627 174.080-385.707 385.707-385.707s385.707 174.080 385.707 385.707c3.413 211.627-170.667 385.707-385.707 385.707zM165.547 568.32c3.413 0 6.827 0 6.827 0 6.827 0 13.653 3.413 17.067 10.24 3.413 10.24 0 20.48-10.24 23.893-3.413 0-3.413 0-6.827 0-6.827 0-13.653-3.413-17.067-10.24-3.413-10.24 0-20.48 10.24-23.893z" />
</svg>