<svg width="150px" height="150px" viewBox="5 -40 31 41" version="1.1" xmlns="http://www.w3.org/2000/svg">
  <path transform="scale(0.037, -0.037)" glyph-name="travelling_on_the_railway" d="M390.827 861.866h245.76c6.827 0 13.653 6.827 13.653 13.653s-6.827 13.653-13.653 13.653h-245.76c-6.827 0-13.653-6.827-13.653-13.653-3.413-6.827 3.413-13.653 13.653-13.653zM848.213 18.773l-122.88 170.667 6.827 3.413c37.547 13.653 61.44 47.787 61.44 88.747v450.56c0 51.2-40.96 95.573-95.573 95.573h-375.467c-51.2 0-95.573-40.96-95.573-95.573v-453.973c0-37.547 23.893-75.093 61.44-88.747l6.827-3.413-122.88-170.667c-3.413-6.827-3.413-17.067 3.413-20.48 3.413-3.413 6.827-3.413 6.827-3.413 3.413 0 10.24 3.413 10.24 6.827l64.853 88.747h498.347l64.853-88.747c3.413-3.413 6.827-6.827 10.24-6.827s6.827 0 6.827 3.413c13.653 6.827 17.067 17.067 10.24 23.893zM766.293 517.12h-238.933v184.32h238.933v-184.32zM257.707 735.573c0 34.133 30.72 61.44 64.853 61.44h378.88c34.133 0 64.853-27.307 64.853-61.44v-6.827h-508.587v6.827zM257.707 698.026h238.933v-184.32h-238.933v184.32zM257.707 281.6v204.8h508.587v-204.8c0-37.547-30.72-64.853-64.853-64.853h-378.88c-37.547 0-64.853 27.307-64.853 64.853zM281.6 121.173l47.787 68.267h365.227l47.787-68.267h-460.8zM646.827 281.6c30.72 0 54.613 23.893 54.613 54.613s-23.893 54.613-54.613 54.613c-30.72 0-54.613-23.893-54.613-54.613s23.893-54.613 54.613-54.613zM646.827 363.52c13.653 0 27.307-13.653 27.307-27.307s-13.653-27.307-27.307-27.307c-13.653 0-27.307 13.653-27.307 27.307 3.413 17.067 13.653 27.307 27.307 27.307zM373.76 281.6c30.72 0 54.613 23.893 54.613 54.613s-23.893 54.613-54.613 54.613c-30.72 0-54.613-23.893-54.613-54.613s23.893-54.613 54.613-54.613zM373.76 363.52c13.653 0 27.307-13.653 27.307-27.307s-13.653-27.307-27.307-27.307c-13.653 0-27.307 13.653-27.307 27.307 0 17.067 13.653 27.307 27.307 27.307z" />
</svg>