<svg width="150px" height="150px" viewBox="5 -40 31 41" version="1.1" xmlns="http://www.w3.org/2000/svg">
  <path transform="scale(0.037, -0.037)" glyph-name="transparency_and_ethics" d="M423.253 431.786c-27.307-6.827-58.027-10.24-92.16-10.24-85.333 0-160.427 27.307-221.867 81.92-30.72 27.307-58.027 58.027-71.68 95.573l-3.413 6.827 3.413 6.827c6.827 13.653 13.653 27.307 23.893 40.96 13.653 20.48 30.72 37.547 47.787 54.613 61.44 54.613 136.533 81.92 221.867 81.92s157.013-27.307 218.453-75.093c0 0 6.827-6.827 10.24-6.827 10.24 6.827 20.48 13.653 30.72 17.067-3.413 3.413-6.827 6.827-13.653 10.24l-3.413 3.413c-68.267 58.027-146.773 85.333-242.347 85.333s-177.493-30.72-245.76-88.747c-20.48-20.48-40.96-40.96-54.613-61.44s-23.893-37.547-30.72-58.027c0-3.413 0-6.827 0-13.653 0-3.413 0-3.413 3.413-6.827 17.067-40.96 44.373-78.507 85.333-112.64 68.267-58.027 150.187-88.747 245.76-88.747 30.72 0 64.853 3.413 92.16 10.24-3.413 3.413-3.413 13.653-3.413 27.307zM240.64 694.613c-23.893-23.893-37.547-54.613-37.547-92.16s13.653-64.853 37.547-92.16c23.893-23.893 54.613-37.547 92.16-37.547s64.853 13.653 92.16 37.547c3.413 3.413 6.827 6.827 10.24 10.24 6.827 23.893 17.067 47.787 27.307 68.267 0 3.413 0 6.827 0 10.24 0 37.547-13.653 64.853-37.547 92.16-23.893 23.893-54.613 37.547-92.16 37.547-37.547 3.413-68.267-10.24-92.16-34.133zM397.653 670.72c17.067-17.067 27.307-40.96 27.307-68.267s-10.24-47.787-27.307-68.267c-17.067-17.067-40.96-27.307-68.267-27.307s-47.787 10.24-64.853 27.307c-17.067 17.067-27.307 40.96-27.307 68.267s10.24 47.787 27.307 68.267c17.067 17.067 40.96 27.307 68.267 27.307 23.893 0 47.787-10.24 64.853-27.307zM745.813 718.506c-153.6 0-279.893-126.293-279.893-279.893 0-64.853 20.48-126.293 61.44-174.080l10.24-10.24-157.013-157.013c-6.827-6.827-6.827-17.067 0-23.893 3.413-3.413 6.827-3.413 10.24-3.413s6.827 0 10.24 3.413l157.013 157.013 10.24-10.24c51.2-40.96 109.227-61.44 174.080-61.44 153.6 0 279.893 126.293 279.893 279.893 3.413 153.6-122.88 279.893-276.48 279.893zM745.813 189.44c-136.533 0-249.173 112.64-249.173 249.173s112.64 249.173 249.173 249.173c136.533 0 249.173-112.64 249.173-249.173s-112.64-249.173-249.173-249.173z" />
</svg>