<svg width="150px" height="150px" viewBox="5 -40 31 41" version="1.1" xmlns="http://www.w3.org/2000/svg">
  <path transform="scale(0.037, -0.037)" glyph-name="training_and_development" d="M636.587 551.253c-3.413 0-10.24 0-10.24-3.413l-51.2-51.2-85.333 54.613c-3.413 3.413-6.827 3.413-10.24 3.413s-10.24 0-10.24-3.413l-160.427-160.427c-3.413-3.413-3.413-6.827-3.413-10.24s0-10.24 3.413-10.24c3.413-3.413 6.827-3.413 10.24-3.413s10.24 0 10.24 3.413l150.187 150.187 85.333-54.613c3.413 0 6.827-3.413 10.24-3.413s10.24 0 10.24 3.413l58.027 61.44c6.827 6.827 6.827 17.067 0 23.893 0 0-3.413 0-6.827 0zM831.147 810.666h-638.293c-27.307 0-47.787-20.48-47.787-47.787v-30.72c0-17.067 10.24-34.133 23.893-40.96l6.827-3.413v-368.64c0-27.307 20.48-47.787 47.787-47.787h167.253l-58.027-170.667c-3.413-10.24 3.413-17.067 10.24-20.48 3.413 0 3.413 0 6.827 0 6.827 0 13.653 3.413 17.067 10.24l17.067 51.2h252.587l17.067-51.2c3.413-6.827 6.827-10.24 17.067-10.24 0 0 3.413 0 6.827 0s6.827 3.413 10.24 6.827c3.413 3.413 3.413 6.827 0 13.653l-58.027 170.667h167.253c27.307 0 47.787 20.48 47.787 47.787v365.227l6.827 3.413c13.653 10.24 23.893 23.893 23.893 40.96v30.72c3.413 30.72-17.067 51.2-44.373 51.2zM397.653 172.373l30.72 95.573h167.253l30.72-95.573h-228.693zM209.92 302.080v378.88h604.16v-382.293l-604.16 3.413zM848.213 715.093h-672.427v61.44h669.013v-61.44h3.413zM704.853 619.52c-3.413 0-10.24 0-10.24-3.413-3.413-3.413-3.413-6.827-3.413-10.24s0-10.24 3.413-10.24c3.413-3.413 6.827-3.413 10.24-3.413s10.24 0 10.24 3.413c3.413 3.413 3.413 6.827 3.413 10.24s0 10.24-3.413 10.24c-3.413 0-6.827 3.413-10.24 3.413z" />
</svg>