<svg width="150px" height="150px" viewBox="5 -40 31 41" version="1.1" xmlns="http://www.w3.org/2000/svg">
  <path transform="scale(0.037, -0.037)" glyph-name="vision" d="M906.24 247.466c-10.24 0-20.48-10.24-20.48-20.48v-157.013h-157.013c-10.24 0-20.48-10.24-20.48-20.48s10.24-20.48 20.48-20.48h174.080c10.24 0 20.48 10.24 20.48 20.48v177.493c0 6.827-3.413 13.653-3.413 17.067-3.413 0-10.24 3.413-13.653 3.413zM295.253 69.973h-157.013v157.013c0 10.24-10.24 20.48-20.48 20.48s-20.48-10.24-20.48-20.48v-174.080c0-10.24 10.24-20.48 20.48-20.48h174.080c10.24 0 20.48 10.24 20.48 20.48s-6.827 17.067-17.067 17.067zM117.76 640c10.24 0 20.48 10.24 20.48 20.48v157.013h157.013c10.24 0 20.48 10.24 20.48 20.48s-10.24 20.48-20.48 20.48h-177.493c-10.24 0-20.48-10.24-20.48-20.48v-174.080c0-13.653 10.24-23.893 20.48-23.893zM906.24 858.453h-174.080c-10.24 0-20.48-10.24-20.48-20.48s10.24-20.48 20.48-20.48h157.013v-157.013c0-10.24 10.24-20.48 20.48-20.48s20.48 10.24 20.48 20.48v177.493c-3.413 10.24-13.653 20.48-23.893 20.48zM513.707 571.733c-34.133 0-64.853-13.653-88.747-37.547s-37.547-54.613-37.547-88.747c0-34.133 13.653-64.853 37.547-88.747s54.613-37.547 88.747-37.547c34.133 0 64.853 13.653 88.747 37.547s37.547 54.613 37.547 88.747c0 34.133-13.653 64.853-37.547 88.747-27.307 23.893-54.613 37.547-88.747 37.547zM575.147 380.586c-17.067-17.067-37.547-27.307-64.853-27.307-23.893 0-47.787 10.24-64.853 27.307s-27.307 40.96-27.307 64.853c0 23.893 10.24 47.787 27.307 64.853s40.96 27.307 64.853 27.307c23.893 0 47.787-10.24 64.853-27.307s27.307-40.96 27.307-64.853c0-27.307-6.827-47.787-27.307-64.853zM834.56 431.786c0 3.413 0 3.413 3.413 6.827 0 3.413 0 6.827 0 10.24-6.827 20.48-17.067 40.96-30.72 58.027-13.653 20.48-30.72 40.96-54.613 61.44-64.853 58.027-146.773 85.333-238.933 85.333s-170.667-27.307-235.52-81.92l-6.827-3.413c-37.547-34.133-64.853-71.68-81.92-109.227v-3.413h-3.413v-13.653c6.827-20.48 17.067-40.96 30.72-58.027 13.653-20.48 30.72-40.96 54.613-58.027 64.853-58.027 146.773-85.333 238.933-85.333s174.080 30.72 238.933 88.747c40.96 23.893 68.267 61.44 85.333 102.4zM728.747 346.453c-58.027-51.2-133.12-78.507-218.453-78.507s-157.013 27.307-215.040 78.507c-20.48 17.067-34.133 34.133-47.787 51.2-10.24 13.653-17.067 23.893-20.48 37.547l-3.413 6.827 3.413 6.827c13.653 34.133 37.547 64.853 68.267 92.16l3.413 3.413c58.027 47.787 129.707 75.093 211.627 75.093 85.333 0 157.013-27.307 215.040-78.507 20.48-17.067 34.133-34.133 47.787-54.613 6.827-13.653 17.067-23.893 20.48-37.547l3.413-6.827-3.413-6.827c-10.24-30.72-34.133-61.44-64.853-88.747z" />
</svg>