<svg width="150px" height="150px" viewBox="5 -40 31 41" version="1.1" xmlns="http://www.w3.org/2000/svg">
  <path transform="scale(0.037, -0.037)" glyph-name="who_are_we" d="M906.24 858.453h-102.4l-6.827 3.413h-679.253c-10.24 0-20.48-10.24-20.48-20.48v-146.773l-3.413-6.827v-631.467c0-10.24 10.24-20.48 20.48-20.48h167.253l6.827-3.413h614.4c10.24 0 20.48 10.24 20.48 20.48v167.253c0 3.413 3.413 6.827 3.413 10.24v610.987c0 6.827-10.24 17.067-20.48 17.067zM885.76 230.4v-160.427h-747.52v583.68l3.413 6.827v157.013h583.68l6.827-3.413h157.013l-3.413-583.68zM510.293 585.386c10.24 0 17.067 3.413 20.48 6.827 6.827 6.827 10.24 13.653 10.24 23.893s-3.413 17.067-6.827 20.48c-3.413 3.413-13.653 6.827-20.48 6.827s-17.067-3.413-20.48-6.827c-6.827-6.827-10.24-13.653-10.24-23.893s3.413-17.067 6.827-20.48c6.827-3.413 13.653-6.827 20.48-6.827zM558.080 288.426h-23.893v204.8c0 13.653-10.24 20.48-20.48 20.48h-47.787c-13.653 0-20.48-10.24-20.48-20.48s6.827-23.893 20.48-23.893h23.893v-180.907h-23.893c-13.653 0-20.48-10.24-20.48-20.48s10.24-20.48 20.48-20.48h92.16c13.653 0 20.48 10.24 20.48 20.48s-6.827 20.48-20.48 20.48z" />
</svg>