<svg width="150px" height="150px" viewBox="5 -40 31 41" version="1.1" xmlns="http://www.w3.org/2000/svg">
  <path transform="scale(0.037, -0.037)" glyph-name="what_we_do_and_dont_do" d="M950.613 384c0 3.413 0 10.24-6.827 13.653-17.067 10.24-54.613 27.307-71.68 40.96-17.067 17.067-40.96 51.2-54.613 102.4-3.413 23.893-10.24 61.44-58.027 71.68-3.413 0-6.827 0-10.24 0-17.067 0-34.133-6.827-47.787-17.067-3.413-3.413-6.827-3.413-6.827-6.827-13.653-13.653-20.48-27.307-20.48-44.373s3.413-61.44 17.067-133.12v-10.24h-180.907c-37.547 0-64.853-27.307-64.853-64.853 0-13.653 3.413-23.893 10.24-34.133l3.413-6.827-6.827-3.413c-17.067-13.653-23.893-30.72-23.893-51.2 0-23.893 13.653-47.787 37.547-58.027l6.827-3.413-3.413-6.827c-3.413-10.24-6.827-17.067-6.827-27.307 0-27.307 20.48-54.613 47.787-61.44l6.827-3.413-3.413-6.827c-3.413-6.827-6.827-17.067-6.827-23.893 0-34.133 34.133-64.853 71.68-64.853h20.48c191.147 0 266.24 17.067 334.507 54.613 6.827 3.413 10.24 10.24 10.24 20.48l6.827 324.267zM551.253 83.626c3.413 3.413 6.827 3.413 10.24 3.413s17.067 6.827 17.067 17.067c0 10.24-6.827 17.067-17.067 17.067h-30.72c-17.067 0-30.72 13.653-30.72 30.72 0 13.653 10.24 27.307 23.893 30.72 6.827 0 13.653 6.827 13.653 17.067s-6.827 17.067-17.067 17.067h-23.893c-17.067 0-30.72 13.653-30.72 30.72s13.653 30.72 37.547 30.72c10.24 0 17.067 6.827 17.067 17.067s-6.827 17.067-17.067 17.067c-6.827 0-13.653 6.827-13.653 10.24-6.827 6.827-6.827 13.653-6.827 20.48 0 17.067 13.653 30.72 34.133 30.72h204.8l6.827 6.827-3.413 34.133c-13.653 68.267-17.067 112.64-17.067 126.293 0 10.24 6.827 20.48 17.067 27.307 6.827 6.827 17.067 10.24 27.307 10.24h3.413c20.48-3.413 27.307-13.653 30.72-44.373 13.653-61.44 40.96-98.987 64.853-119.467s51.2-34.133 71.68-44.373c0-13.653 0-286.72 0-296.96-61.44-30.72-129.707-47.787-314.027-47.787h-20.48c-20.48 0-37.547 13.653-40.96 30.72-3.413 10.24-3.413 20.48 3.413 27.307zM332.8 482.986h180.907c37.547 0 64.853 27.307 64.853 64.853 0 13.653-3.413 23.893-10.24 34.133l-3.413 6.827 6.827 3.413c17.067 13.653 23.893 30.72 23.893 51.2 0 23.893-13.653 47.787-37.547 58.027l-6.827 3.413 3.413 3.413c3.413 10.24 6.827 17.067 6.827 27.307 0 27.307-20.48 54.613-47.787 61.44l-6.827 3.413 3.413 6.827c3.413 6.827 6.827 17.067 6.827 23.893 0 34.133-34.133 64.853-71.68 64.853h-27.307c-191.147 0-266.24-17.067-334.507-54.613-6.827-3.413-10.24-10.24-10.24-20.48v-314.027c0-3.413 0-10.24 6.827-13.653 17.067-10.24 54.613-27.307 71.68-40.96 17.067-17.067 40.96-51.2 54.613-102.4 3.413-23.893 10.24-61.44 58.027-71.68 3.413 0 6.827 0 10.24 0 17.067 0 34.133 6.827 47.787 17.067 3.413 3.413 6.827 3.413 6.827 6.827 13.653 13.653 20.48 27.307 20.48 44.373s-3.413 61.44-17.067 133.12v3.413zM298.667 513.706l-6.827-6.827 6.827-37.547c13.653-68.267 17.067-109.227 17.067-126.293 0-10.24-6.827-20.48-17.067-27.307-6.827-6.827-17.067-10.24-27.307-10.24h-3.413c-20.48 3.413-27.307 13.653-30.72 44.373-13.653 61.44-40.96 98.987-64.853 119.467s-51.2 34.133-71.68 44.373c0 13.653 0 286.72 0 296.96 61.44 30.72 129.707 47.787 314.027 47.787h20.48c20.48 0 37.547-13.653 40.96-30.72 0-10.24 0-20.48-6.827-27.307-3.413-3.413-6.827-3.413-10.24-3.413s-17.067-6.827-17.067-17.067c0-10.24 6.827-17.067 17.067-17.067h30.72c17.067 0 30.72-13.653 30.72-30.72 0-13.653-10.24-27.307-23.893-30.72-6.827 0-13.653-6.827-13.653-17.067s6.827-17.067 17.067-17.067h23.893c17.067 0 30.72-13.653 30.72-30.72s-13.653-30.72-37.547-30.72c-10.24 0-17.067-6.827-17.067-17.067s6.827-17.067 17.067-17.067c6.827 0 13.653-6.827 13.653-10.24 6.827-6.827 6.827-13.653 6.827-20.48 0-17.067-17.067-30.72-34.133-30.72h-208.213l3.413 3.413z" />
</svg>