<svg width="150px" height="150px" viewBox="5 -40 31 41" version="1.1" xmlns="http://www.w3.org/2000/svg">
  <path transform="scale(0.037, -0.037)" glyph-name="what_we_maintain" d="M776.806 689.22c-44.954 0-80.282-35.294-80.282-80.247s35.328-77.039 80.282-77.039c44.919 0 80.247 35.294 80.247 80.247s-38.537 77.039-80.247 77.039zM776.806 564.019c-25.702 0-48.162 22.494-48.162 48.162s22.46 48.162 48.162 48.162c25.668 0 48.162-22.494 48.162-48.162s-22.494-48.162-48.162-48.162zM1024 634.641c0 6.417-3.209 12.868-9.626 12.868l-60.996 22.46v3.209c-3.209 6.417-3.209 9.626-6.417 16.043v3.209l28.877 57.788c3.209 6.451 3.209 12.868-3.209 16.077-9.626 12.834-22.46 25.668-35.328 35.294-3.209 3.209-6.417 3.209-9.626 3.209s-3.209 0-6.417 0l-57.788-28.877h-3.209c-6.417 3.209-9.626 3.209-16.043 6.417h-3.209l-22.494 60.996c-3.209 6.417-6.417 9.626-12.834 9.626h-51.371c-6.417 0-12.834-3.209-12.834-9.626l-22.46-60.996h-3.209c-6.451-3.209-9.66-3.209-16.077-6.417h-3.209l-57.788 28.877c-3.209 0-3.209 0-6.417 0s-6.417 0-9.626-3.209c-12.834-9.626-25.668-22.46-35.328-35.294-3.209-3.209-3.209-12.868-3.209-16.077l28.911-57.788v-3.209c-3.209-3.209-3.209-9.626-6.417-16.043v-3.209l-60.996-22.46c-6.417-3.209-9.66-6.451-9.66-12.868v-51.371c0-6.417 3.243-12.834 9.66-12.834l60.996-22.46v-3.209c3.209-6.417 3.209-9.626 6.417-16.043v-3.243l-28.911-57.788c-3.209-6.417-3.209-12.834 3.209-16.043 9.66-12.834 22.494-25.668 35.328-35.294 3.209-3.243 6.417-3.243 9.626-3.243s3.209 0 6.417 0l57.788 28.911h3.209c6.417-3.209 9.626-3.209 16.077-6.417h3.209l22.46-60.996c3.209-6.417 6.417-9.626 12.834-9.626h51.371c6.417 0 12.834 3.209 12.834 9.626l22.494 60.996h3.209c6.417 3.209 9.626 3.209 16.043 6.417h3.209l57.788-28.911c3.209 0 3.209 0 6.417 0s6.417 0 9.626 3.243c12.868 9.626 25.702 22.46 35.328 35.294 3.209 3.209 3.209 12.834 3.209 16.043l-28.877 57.788v3.243c3.209 6.417 3.209 9.626 6.417 16.043v3.209l60.996 22.46c6.417 3.209 9.626 6.417 9.626 12.834v51.371zM991.881 599.347l-60.996-22.494c-3.209-3.209-9.626-6.417-9.626-9.626-3.209-9.626-6.417-22.46-12.834-28.877-3.209-3.209-3.209-9.626 0-12.868l25.668-57.788-3.209-3.209c-3.209-3.209-6.417-6.417-9.626-9.626l-3.209-3.209-57.788 25.702c-3.209 0-3.209 0-6.417 0s-6.417 0-6.417-3.209c-9.626-6.451-19.251-9.66-28.911-12.868-6.417 0-9.626-6.417-9.626-9.626l-22.46-60.996h-25.702l-16.043 64.205c-3.209 3.209-6.417 9.626-9.626 9.626-9.626 3.209-22.46 6.451-28.911 12.868-3.209 0-6.417 3.209-6.417 3.209-3.209 0-3.209 0-6.417 0l-57.788-25.702-3.209 3.209c-3.209 3.209-6.417 6.417-9.626 9.626l-6.417-3.209 25.668 57.788c3.209 3.209 3.209 9.66 0 12.868-6.417 9.626-9.626 19.251-12.834 28.877 0 6.417-6.417 9.626-9.626 9.626l-60.996 22.494v25.668l60.996 22.494c3.209 3.209 9.626 6.417 9.626 9.626 3.209 9.626 6.417 22.46 12.834 28.877 3.209 3.209 3.209 9.626 0 12.834l-28.877 61.030 3.209 3.209c3.209 3.209 6.417 6.417 9.626 9.626l3.209 3.209 57.788-25.702c3.209 0 3.209 0 6.417 0s6.417 0 6.417 3.209c9.626 6.451 19.285 9.66 28.911 12.868 6.417 0 9.626 6.417 9.626 9.626l22.46 60.996h25.702l22.46-60.996c3.209-3.209 6.417-9.626 9.626-9.626 9.66-3.209 22.494-6.417 28.911-12.868 3.209 0 6.417-3.209 6.417-3.209 3.209 0 3.209 0 6.417 0l57.788 25.702 12.834-12.834 6.417-3.209-25.668-57.822c-3.209-3.209-3.209-9.626 0-12.834 6.417-9.626 9.626-19.251 12.834-28.877 0-6.417 6.417-9.626 9.626-9.626l60.996-22.494v-12.834l-3.209-12.834zM648.363 239.752l-176.572 173.363 3.209 12.868c16.077 80.247-6.417 163.738-64.205 218.317-44.954 44.919-102.741 67.413-166.946 67.413-22.46 0-44.919-3.209-64.205-9.626-12.834-3.243-22.46-12.868-25.668-25.702s0-25.668 9.626-32.085l89.907-89.907-19.285-73.83-77.039-22.494-89.907 89.907c-6.417 6.417-16.043 9.626-25.668 9.626-3.209 0-6.417 0-9.626 0-12.868-3.209-22.494-12.834-25.702-25.668-22.46-83.49 0-173.363 60.996-234.394 44.954-44.919 102.741-67.413 166.946-67.413 16.043 0 35.328 3.209 48.162 3.209l12.834 9.66 176.572-176.606c22.494-22.46 54.579-35.294 86.699-35.294 32.085 0 64.205 12.834 89.873 38.502 44.954 44.954 48.162 122.027 3.209 170.155-3.209-3.209-3.209 0-3.209 0zM619.486 88.883c-16.043-16.043-38.537-25.702-64.205-25.702-22.494 0-44.954 9.66-60.996 25.702l-182.989 182.989c0 3.209-6.451 3.209-9.66 3.209s-3.209 0-6.417 0c-19.251-6.417-41.711-9.626-60.996-9.626-54.579 0-102.741 19.251-141.244 57.788-44.954 41.745-64.205 102.741-57.788 166.946l3.209 35.294 99.533-99.499c3.209-3.209 6.417-6.417 12.834-6.417h3.209l93.082 25.668c6.451 0 9.66 6.417 12.868 12.834l25.668 93.116c0 6.417 0 12.834-3.209 16.043l-99.533 99.533 35.328 3.209c6.417 0 16.043 0 22.46 0 54.579 0 102.741-19.251 141.278-57.788 54.579-51.371 73.83-131.618 51.371-205.483-3.209-6.417 0-12.834 3.209-16.043l182.989-182.989c35.328-28.911 35.328-83.49 0-118.784z" />
</svg>