<svg width="150px" height="150px" viewBox="5 -40 31 41" version="1.1" xmlns="http://www.w3.org/2000/svg">
  <path transform="scale(0.037, -0.037)" glyph-name="youtube" d="M567.636 341.506c-6.36 0-12.766-3.015-19.184-9.269v-129.056c6.418-6.383 12.825-9.457 19.184-9.457 11.041 0 16.697 9.457 16.697 28.559v90.324c0.012 19.149-5.656 28.899-16.697 28.899zM708.038 341.506c-12.825 0-19.266-9.75-19.266-29.357v-19.607h38.415v19.607c0.012 19.607-6.406 29.357-19.149 29.357zM787.767 486.895c-24.112 25.098-51.123 25.203-63.525 26.647-88.658 6.336-221.633 6.336-221.633 6.336h-0.293c0 0-132.975 0-221.715-6.336-12.367-1.443-39.33-1.561-63.466-26.647-18.985-19.149-25.192-62.504-25.192-62.504s-6.289-50.958-6.289-101.905v-47.79c0-50.935 6.289-101.917 6.289-101.917s6.207-43.355 25.192-62.434c24.136-25.098 55.769-24.312 69.837-26.928 50.735-4.846 215.485-6.313 215.485-6.313s133.139 0.188 221.797 6.594c12.402 1.42 39.413 1.561 63.525 26.647 18.996 19.079 25.192 62.434 25.192 62.434s6.289 50.982 6.289 101.917v47.79c0 50.947-6.289 101.905-6.289 101.905s-6.207 43.355-25.203 62.504zM325.27 161.809h-42.733v244.079h-45.185v39.964h133.925v-39.964h-45.995v-244.079h-0.012zM476.772 161.809h-38.462v23.103c-15.242-17.471-29.803-26.060-43.907-26.060-12.367 0-20.897 5.069-24.781 15.793-2.089 6.406-3.356 16.532-3.356 31.481v167.331h38.427v-155.82c0-8.976 0-13.658 0.282-14.901 0.974-5.949 3.942-9.023 9.046-9.023 7.721 0 15.735 5.949 24.276 17.987v161.757h38.462v-211.648h0.012zM622.736 225.275c0-19.513-1.291-33.628-3.884-42.604-5.139-15.77-15.406-23.819-30.659-23.819-13.705 0-26.917 7.592-39.741 23.455v-20.498h-38.45v284.043h38.45v-92.753c12.391 15.242 25.567 22.951 39.741 22.951 15.242 0 25.508-8.073 30.659-23.889 2.593-8.554 3.884-22.505 3.884-42.569v-84.316zM765.637 260.663h-76.854v-37.535c0-19.607 6.442-29.404 19.63-29.404 9.457 0 14.96 5.163 17.166 15.383 0.34 2.089 0.857 10.654 0.857 26.036h39.201v-5.62c0-12.332-0.505-20.839-0.833-24.711-1.267-8.483-4.318-16.169-8.988-22.939-10.63-15.394-26.4-22.998-46.5-22.998-20.076 0-35.365 7.251-46.464 21.742-8.166 10.584-12.332 27.292-12.332 49.762v74.144c0 22.61 3.731 39.108 11.874 49.855 11.1 14.479 26.388 21.695 46.019 21.695 19.278 0 34.578-7.204 45.326-21.695 8.037-10.748 11.909-27.245 11.909-49.855v-43.86h-0.012zM401.033 541.045v116.255l51.768 170.745h-43.531l-29.369-112.7-30.566 112.7h-45.326c9.117-26.611 18.551-53.317 27.644-79.975 13.775-40.023 22.411-70.189 26.33-90.758v-116.255l43.050-0.012zM502.069 538.1c19.431 0 34.52 7.322 45.268 21.871 8.12 10.677 12.074 27.527 12.074 50.301v74.941c0 22.822-3.954 39.506-12.074 50.325-10.76 14.667-25.837 21.942-45.268 21.942-19.407 0-34.532-7.275-45.221-21.942-8.296-10.818-12.132-27.503-12.132-50.325v-74.941c0-22.775 3.837-39.624 12.132-50.301 10.689-14.549 25.814-21.871 45.221-21.871v0zM483.519 692.969c0 19.783 6.031 29.674 18.551 29.674 12.461 0 18.457-9.903 18.457-29.674v-89.984c0-19.794-5.996-29.686-18.457-29.686-12.52 0-18.551 9.903-18.551 29.686v89.984zM700.845 541.045v213.912h-38.814v-163.505c-8.601-12.132-16.744-18.163-24.499-18.163-5.221 0-8.307 3.109-9.117 9.070-0.493 1.279-0.493 5.984-0.493 15.077v157.521h-38.709v-169.173c0-15.124 1.267-25.356 3.438-31.809 3.896-10.795 12.531-15.875 25.027-15.875 14.127 0 28.864 8.589 44.364 26.283v-23.338h38.802z" />
</svg>
