<svg width="150px" height="150px" viewBox="5 -40 31 41" version="1.1" xmlns="http://www.w3.org/2000/svg">
  <path transform="scale(0.037, -0.037)" glyph-name="google-plus" d="M389.325 389.447h128.505c-22.557-63.773-83.648-109.497-155.17-108.969-86.782 0.641-158.539 70.064-161.908 156.783-3.611 92.956 70.965 169.732 163.134 169.732 42.143 0 80.6-16.057 109.594-42.369 6.867-6.234 17.321-6.273 24.075 0.084l47.199 44.422c7.381 6.948 7.408 18.681 0.048 25.653-45.98 43.561-107.66 70.712-175.678 72.040-145.075 2.832-267.361-116.114-268.371-261.215-1.020-146.19 117.181-265.016 263.134-265.016 140.36 0 255.022 109.9 262.703 248.34 0.205 1.736 0.339 60.395 0.339 60.395h-237.603c-9.739 0-17.633-7.894-17.633-17.633v-64.615c0-9.739 7.896-17.633 17.633-17.633zM844.67 483.46v63.132c0 8.535-6.918 15.452-15.452 15.452h-53.136c-8.535 0-15.452-6.918-15.452-15.452v-63.132h-63.132c-8.535 0-15.452-6.918-15.452-15.452v-53.136c0-8.535 6.918-15.452 15.452-15.452h63.132v-63.132c0-8.535 6.918-15.452 15.452-15.452h53.136c8.535 0 15.452 6.918 15.452 15.452v63.132h63.132c8.535 0 15.452 6.918 15.452 15.452v53.136c0 8.535-6.918 15.452-15.452 15.452h-63.132z" />
</svg>