<svg width="40" height="40" viewBox="0 0 40 40" fill="none" xmlns="http://www.w3.org/2000/svg">
  <path fill-rule="evenodd" clip-rule="evenodd" d="M20 40C31.0469 40 40 31.0457 40 20C40 8.95435 31.0469 0 20 0C8.95312 0 0 8.95435 0 20C0 31.0457 8.95312 40 20 40ZM24.0391 11.8601L23.0547 11.8218C22.4609 11.8059 21.7148 11.8018 20 11.8018C17.3281 11.8018 17.0117 11.812 15.9609 11.8601C15.3242 11.8677 14.6953 11.9841 14.1016 12.2043C13.8555 12.2998 13.6211 12.4241 13.4062 12.5745C13.2461 12.6865 13.0938 12.813 12.9531 12.9526C12.625 13.2793 12.3711 13.6711 12.2031 14.1023C11.9844 14.697 11.8672 15.3252 11.8594 15.9592C11.8125 17.0137 11.8008 17.3301 11.8008 20C11.8008 22.6702 11.8125 22.9866 11.8594 24.041C11.8672 24.675 11.9844 25.3032 12.2031 25.8979C12.3711 26.3291 12.625 26.7207 12.9531 27.0476C13.2812 27.3745 13.6719 27.6292 14.1016 27.7957C14.3555 27.8896 14.6172 27.9648 14.8789 28.0208C15.2344 28.0957 15.5977 28.1357 15.9609 28.1399C17.0117 28.1882 17.3281 28.1982 20 28.1982C22.6719 28.1982 22.9883 28.188 24.0391 28.1399L24.1914 28.1362L24.5 28.115C24.6445 28.1013 24.7891 28.082 24.9297 28.0574C25.0859 28.03 25.2422 27.9961 25.3945 27.9553C25.5664 27.9102 25.7344 27.8569 25.8984 27.7957C26.3281 27.6292 26.7188 27.3745 27.0469 27.0476C27.375 26.7207 27.6289 26.3291 27.7969 25.8979C27.8438 25.7708 27.8867 25.6421 27.9219 25.512C27.9688 25.3464 28.0117 25.1787 28.043 25.0098C28.1055 24.6909 28.1367 24.3667 28.1406 24.041C28.168 23.438 28.1836 23.0764 28.1914 22.3777C28.1992 21.8547 28.1992 21.1431 28.1992 20C28.1992 17.3301 28.1875 17.0137 28.1406 15.9592C28.1328 15.3252 28.0156 14.697 27.7969 14.1023C27.6289 13.6711 27.375 13.2795 27.0469 12.9526C26.7188 12.6257 26.3281 12.3708 25.8984 12.2046C25.3047 11.9841 24.6758 11.8677 24.0391 11.8601ZM18.2812 10.0027L20 10C21.8242 10 22.5742 10.0051 23.1914 10.0234L24.1211 10.0605L24.5586 10.0823L24.9297 10.1211L25.2227 10.1658C25.6758 10.2437 26.1211 10.3638 26.5508 10.5254C27.2148 10.7822 27.8164 11.175 28.3203 11.6787C28.8242 12.1824 29.2188 12.7856 29.4766 13.45C29.5781 13.719 29.6602 13.9934 29.7305 14.2717C29.8594 14.7966 29.9297 15.335 29.9414 15.877C29.9688 16.5356 29.9844 16.9175 29.9922 17.7527C30 18.27 30 18.9614 30 20L29.9961 21.9058L29.9922 22.6206C29.9805 23.1948 29.9648 23.5481 29.9414 24.0715V24.1226C29.9219 24.9521 29.7656 25.7729 29.4766 26.55C29.3516 26.8752 29.1914 27.186 29.0039 27.4775C28.8086 27.7812 28.5781 28.0645 28.3203 28.3215C27.8164 28.8252 27.2148 29.218 26.5508 29.4751C26.0469 29.6643 25.5195 29.7969 24.9844 29.8711C24.6992 29.9111 24.4102 29.9341 24.1211 29.9399C23.0547 29.9885 22.7148 30 20 30C17.2852 30 16.9453 29.9885 15.8789 29.9402C15.0469 29.9236 14.2266 29.7664 13.4492 29.4753C13.0508 29.321 12.6719 29.1177 12.3242 28.8706C12.0938 28.7063 11.8789 28.5229 11.6797 28.3218C11.1758 27.8181 10.7812 27.2148 10.5234 26.5505C10.2344 25.7734 10.0781 24.9526 10.0586 24.123C10.0117 23.0564 10 22.7158 10 20C10 17.2842 10.0117 16.9436 10.0586 15.8774C10.0781 15.0479 10.2344 14.2271 10.5234 13.45C10.7812 12.7856 11.1758 12.1821 11.6797 11.6785C12.1836 11.1748 12.7852 10.782 13.4492 10.5249C13.7227 10.4221 14.0039 10.3359 14.2891 10.2671C14.5117 10.2131 14.7344 10.1697 14.957 10.1365L15.25 10.0999L15.6914 10.0664L15.8789 10.0601C16.6641 10.0244 17.0547 10.0085 18.2812 10.0027ZM25.3398 15.8621C26 15.8621 26.5391 15.3247 26.5391 14.6621C26.5391 13.9993 26 13.4619 25.3398 13.4619C24.9961 13.4619 24.6875 13.6047 24.4688 13.834C24.2617 14.0493 24.1367 14.3411 24.1367 14.6621C24.1367 15.0461 24.3164 15.3879 24.5977 15.6077C24.8047 15.7671 25.0625 15.8621 25.3398 15.8621ZM20 14.8647C18.9844 14.8647 17.9922 15.166 17.1484 15.7302C16.3008 16.2944 15.6445 17.0964 15.2539 18.0349C14.8672 18.9731 14.7656 20.0056 14.9648 21.0017C15.1602 21.998 15.6523 22.9128 16.3672 23.6311C17.0859 24.3494 18.0039 24.8384 19 25.0364C19.3867 25.1133 19.7812 25.145 20.1719 25.1323C20.7852 25.1123 21.3906 24.9822 21.9648 24.7444C22.3086 24.6016 22.6328 24.4224 22.9375 24.2107C23.1484 24.0642 23.3477 23.9023 23.5352 23.7261C23.8125 23.4646 24.0586 23.1721 24.2695 22.853C24.8359 22.0085 25.1367 21.0156 25.1367 20C25.1367 18.6382 24.5938 17.332 23.6328 16.3689C22.668 15.4058 21.3633 14.8647 20 14.8647ZM20 23.3333C19.3398 23.3333 18.6953 23.1379 18.1484 22.7715C17.6016 22.4053 17.1719 21.8848 16.9219 21.2756C16.668 20.6665 16.6016 19.9963 16.7305 19.3496C16.8594 18.7031 17.1758 18.1091 17.6445 17.6431C18.1094 17.1768 18.7031 16.8594 19.3516 16.7307C19.9961 16.6021 20.668 16.6682 21.2773 16.9204C21.8828 17.1726 22.4062 17.5999 22.7734 18.1482C23.1367 18.6963 23.332 19.3408 23.332 20C23.332 20.884 22.9805 21.7319 22.3555 22.3569C21.7305 22.9822 20.8828 23.3333 20 23.3333Z" fill="currentColor"/>
</svg>
