<svg width="150px" height="150px" viewBox="5 -40 31 41" version="1.1" xmlns="http://www.w3.org/2000/svg">
  <path transform="scale(0.037, -0.037)" glyph-name="pinterest" d="M845.138 657.404c-35.238 60.369-83.036 108.167-143.406 143.403-60.369 35.234-126.298 52.848-197.794 52.848-71.491 0-137.424-17.614-197.792-52.848-60.378-35.231-108.176-83.029-143.41-143.403-35.243-60.378-52.857-126.305-52.857-197.798 0-79.702 21.718-152.056 65.16-217.032 43.44-65.005 100.392-113.060 170.857-144.186-1.369 36.598 0.855 66.869 6.666 90.812l50.799 214.482c-8.554 16.765-12.83 37.614-12.83 62.595 0 29.068 7.348 53.355 22.060 72.857 14.711 19.499 32.666 29.246 53.876 29.246 17.098 0 30.265-5.643 39.504-16.929 9.241-11.291 13.847-25.485 13.847-42.592 0-10.596-1.975-23.513-5.911-38.735-3.932-15.223-9.059-32.839-15.387-52.851-6.328-20.006-10.864-36.007-13.597-47.969-4.786-20.861-0.855-38.733 11.802-53.622 12.655-14.877 29.422-22.326 50.289-22.326 36.598 0 66.61 20.351 90.048 61.052 23.431 40.714 35.141 90.142 35.141 148.287 0 44.816-14.452 81.248-43.363 109.288-28.907 28.051-69.182 42.083-120.836 42.083-57.797 0-104.578-18.559-140.322-55.671-35.746-37.118-53.619-81.503-53.619-133.15 0-30.788 8.723-56.618 26.166-77.477 5.814-6.84 7.697-14.194 5.643-22.067-0.685-2.054-2.051-7.183-4.105-15.387-2.045-8.204-3.42-13.518-4.099-15.906-2.733-10.946-9.237-14.366-19.499-10.258-26.335 10.935-46.349 29.926-60.027 56.949-13.683 27.023-20.527 58.327-20.527 93.892 0 22.919 3.679 45.835 11.034 68.75 7.348 22.924 18.812 45.068 34.372 66.448 15.568 21.386 34.21 40.286 55.932 56.697 21.713 16.417 48.139 29.584 79.267 39.504s64.646 14.88 100.565 14.88c48.58 0 92.183-10.774 130.83-32.323 38.66-21.551 68.156-49.424 88.512-83.632 20.356-34.21 30.528-70.812 30.528-109.806 0-51.306-8.892-97.481-26.673-138.533-17.784-41.044-42.928-73.283-75.43-96.708-32.497-23.438-69.435-35.153-110.837-35.153-20.859 0-40.356 4.877-58.493 14.62-18.124 9.753-30.612 21.29-37.45 34.636-15.394-60.536-24.631-96.631-27.712-108.258-6.498-24.275-19.837-52.33-40.022-84.139 36.602-10.946 73.883-16.408 111.853-16.408 71.491 0 137.426 17.614 197.794 52.853 60.374 35.227 108.172 83.025 143.399 143.394 35.234 60.381 52.848 126.314 52.848 197.8 0.018 71.486-17.57 137.422-52.792 197.791z" />
</svg>