<svg width="40" height="40" viewBox="0 0 40 40" fill="none" xmlns="http://www.w3.org/2000/svg">
  <path fill-rule="evenodd" clip-rule="evenodd" d="M20 40C31.0469 40 40 31.0457 40 20C40 8.95435 31.0469 0 20 0C8.95312 0 0 8.95435 0 20C0 31.0457 8.95312 40 20 40ZM29.7344 10L22.1406 18.4685L30.4023 30H24.3281L18.7617 22.2344L11.8008 30H10L17.9648 21.1201L10 10H16.0742L21.3438 17.3528L27.9336 10H29.7344ZM18.8711 20.1101L19.6758 21.217L25.1719 28.76H27.9375L21.1992 19.5171L20.3945 18.4099L15.2109 11.3H12.4492L18.8711 20.1101Z" fill="currentColor"/>
</svg>
