<svg width="150px" height="150px" viewBox="5 -40 31 41" version="1.1" xmlns="http://www.w3.org/2000/svg">
  <path transform="scale(0.037, -0.037)" glyph-name="vimeo" d="M785.101 778.069c-107.281 3.516-179.917-56.695-217.941-180.634 19.593 8.055 38.605 12.117 57.173 12.117 39.117 0 56.457-21.948 51.814-65.98-2.287-26.692-19.558-65.468-51.814-116.395-32.358-51.029-56.559-76.493-72.602-76.493-20.855 0-39.868 39.424-57.173 118.135-5.837 23.177-16.213 82.227-31.095 177.254-13.961 87.996-50.825 129.126-110.797 123.358-25.361-2.321-63.351-25.566-114.039-69.53-37.001-33.587-74.479-67.209-112.572-100.762l36.284-46.865c34.645 24.337 54.921 36.454 60.553 36.454 26.556 0 51.371-41.677 74.445-125.030 20.685-76.527 41.574-152.951 62.362-229.342 30.959-83.422 69.12-125.133 114.039-125.133 72.636 0 161.587 68.335 266.445 205.005 101.478 130.833 153.839 233.95 157.389 309.282 4.642 100.727-32.836 152.269-112.469 154.556z" />
</svg>