<svg width="40" height="40" viewBox="0 0 40 40" fill="none" xmlns="http://www.w3.org/2000/svg">
  <path fill-rule="evenodd" clip-rule="evenodd" d="M20 40C31.0469 40 40 31.0457 40 20C40 8.95435 31.0469 0 20 0C8.95312 0 0 8.95435 0 20C0 31.0457 8.95312 40 20 40ZM29.3789 13.7712C29.7031 14.0964 29.9375 14.5012 30.0586 14.9451C30.3633 16.6125 30.5117 18.3049 30.5 20.0002C30.5117 21.6953 30.3633 23.3877 30.0586 25.0552C30 25.272 29.9141 25.4795 29.8047 25.6726C29.6875 25.8752 29.543 26.0625 29.3789 26.229C29.0547 26.5542 28.6484 26.7881 28.207 26.9077C26.5703 27.3501 20 27.3501 20 27.3501C20 27.3501 17.5 27.3501 15.2031 27.2461C13.7734 27.1816 12.4219 27.0771 11.7969 26.9077C11.3516 26.7881 10.9453 26.5542 10.6211 26.229C10.2969 25.9038 10.0625 25.499 9.94141 25.0552C9.75781 24.0581 9.63281 23.052 9.5625 22.042C9.51562 21.3628 9.49609 20.6816 9.5 20.0002C9.48828 18.3049 9.63672 16.6125 9.94141 14.9451C10.0625 14.5012 10.2969 14.0964 10.6211 13.7712C10.7539 13.6365 10.9023 13.5173 11.0625 13.4158C11.2891 13.272 11.5352 13.1626 11.7969 13.0925C13.4297 12.6501 20 12.6501 20 12.6501C20 12.6501 26.5703 12.6501 28.207 13.0925C28.6484 13.2122 29.0547 13.446 29.3789 13.7712ZM23.3516 20.0002L17.9023 16.8501V23.1501L23.3516 20.0002Z" fill="currentColor"/>
</svg>
