<svg xmlns="http://www.w3.org/2000/svg" style="width:100%;height:100%" viewBox="0 0 361 150">
  <defs>
    <clipPath id="a">
      <path d="M0 0h361v150H0z"/>
    </clipPath>
    <mask id="b">
      <g display="block">
        <path fill="red" d="M103.02-32.73v65.46h-206.04v-65.46h206.04z" transform="matrix(1.56558 0 0 1.14537 214.25 88.97)"/>
        <path fill-opacity="0" stroke="#FFF" stroke-width="0" d="M103.02-32.73v65.46h-206.04v-65.46h206.04z" transform="matrix(1.56558 0 0 1.14537 214.25 88.97)"/>
      </g>
    </mask>
  </defs>
  <g clip-path="url(#a)">
    <g display="block" mask="url(#b)">
      <path fill="#F36F21" d="M340.8 85.68a24.3 24.3 0 11-48.62 0 24.3 24.3 0 0148.61 0z"/>
      <path fill="#F36F21" d="M73 109.83h243.49V61.37H73v48.46z"/>
      <path fill="#FFF" d="M112.3 94.07c0 .68-.27.84-.74.84h-2.07c-.47 0-.87-.22-1.18-.65L98.2 80.43h-.07V94.1c0 .59-.28.8-.8.8H95.1c-.59 0-.84-.15-.84-.77V74.3c0-.65.28-.84.84-.84h2.02c.5 0 .74.16 1.05.59l10.2 14.01h.06v-13.8c0-.58.28-.8.8-.8h2.33c.66 0 .75.34.75.84v19.78zM122.97 95.28c-5.05 0-7.38-3.41-7.38-7.94 0-4.46 2.73-7.87 7.57-7.87 5.05 0 7.38 3.34 7.38 7.9 0 4.47-2.73 7.9-7.57 7.9zm.16-12.87c-2.76 0-3.66 2.39-3.66 4.87 0 2.54.77 5.05 3.53 5.05 2.73 0 3.66-2.42 3.66-4.96s-.8-4.96-3.53-4.96zM135.65 77.88c-1.03 0-2.11-.68-2.11-1.92 0-1.24 1.02-1.98 2.1-1.98 1.06 0 2.09.71 2.09 1.95 0 1.21-1.06 1.95-2.08 1.95zm1.89 16.25c0 .56-.25.78-.78.78h-2.17c-.56 0-.8-.22-.8-.78V80.58c0-.53.3-.71.8-.71h2.17c.5 0 .78.15.78.71v13.55zM145.66 95.28c-1.61 0-3.38-.47-4.77-1.09-.28-.12-.38-.3-.38-.5 0-.09.04-.18.07-.27l.5-1.58c.09-.31.24-.44.46-.44.1 0 .18 0 .3.07 1.37.55 2.83.96 3.92.96 1.36 0 2.29-.62 2.29-1.65 0-.87-.59-1.33-1.86-1.83l-2.45-.93c-1.77-.65-3.2-2.01-3.2-4.12 0-3.04 2.86-4.43 5.62-4.43 1.49 0 2.94.24 4.5.93.24.12.37.24.37.43 0 .1-.03.19-.07.31l-.52 1.67c-.06.22-.22.35-.44.35-.09 0-.21-.04-.3-.07-1.03-.4-2.36-.74-3.36-.74-1.3 0-1.95.71-1.95 1.43 0 .68.34 1.11 1.52 1.58l2.79 1.14c1.64.69 2.95 1.96 2.95 3.97 0 3.26-2.83 4.8-5.99 4.8zM165.66 91.53c.34-.13.65-.19.77.28l.44 1.58c.03.15.06.28.06.37 0 .22-.12.37-.5.53-1.52.68-3.6.99-5.2.99-4.87 0-7.76-3.1-7.76-7.94 0-4.65 3.07-7.87 7.7-7.87 1.88 0 3.43.7 4.52 1.85 1.43 1.5 1.83 3.45 1.83 5.56v.46c0 .74-.25.9-1.02.9h-9.09a4.3 4.3 0 004.43 4.03c1.3 0 2.6-.28 3.82-.74zm-1.83-5.74v-.34c-.06-1.61-1-3.1-2.89-3.1-2.01 0-3.22 1.61-3.47 3.44h6.36zM197.22 92.98l-.53 1.74c-.1.34-.25.47-.59.47-1.3 0-4.1-1.15-5.52-2.67a10.36 10.36 0 01-6.94 2.76c-3.82 0-6.98-2.45-6.98-6.26 0-3.07 2.45-5 4.87-6.48l-.84-.97c-1.08-1.24-1.7-2.32-1.7-3.81 0-2.76 2.63-4.71 5.55-4.71 2.94 0 5.3 1.83 5.3 4.62 0 2.26-1.86 3.84-3.6 5.08l4.62 5.27a11.38 11.38 0 002.14-6.17c.03-.46.19-.59.59-.59h1.86c.43 0 .56.13.56.5 0 3.53-1.61 6.7-3.07 8.43a9.45 9.45 0 003.9 2.11c.35.1.44.19.44.37 0 .1-.03.2-.06.31zm-13.86-8.34c-1.55 1.12-2.89 2.42-2.89 4.1 0 2.04 1.62 3.44 3.66 3.44 1.68 0 3.35-.71 4.34-1.74l-5.11-5.8zm1.24-8.8c-1.09 0-1.9.77-1.9 1.8 0 .68.38 1.36 1.03 2.14l.71.83c.93-.65 2.08-1.8 2.08-2.88 0-1.02-.74-1.9-1.92-1.9zM207.85 73.45c.65 0 .96.22 1.11.65l5.5 15.32h.09l5.17-15.23c.19-.55.47-.74 1.18-.74h2.17c.59 0 .68.37.53.78l-7.29 20a.97.97 0 01-.96.68h-2.08c-.58 0-.86-.25-1.05-.78l-7.63-19.81c-.18-.47-.06-.9.53-.87h2.73zM228.24 77.88c-1.02 0-2.1-.68-2.1-1.92 0-1.24 1.02-1.98 2.1-1.98 1.06 0 2.08.71 2.08 1.95 0 1.21-1.05 1.95-2.08 1.95zm1.9 16.25c0 .56-.25.78-.78.78h-2.17c-.56 0-.8-.22-.8-.78V80.58c0-.53.3-.71.8-.71h2.17c.5 0 .78.15.78.71v13.55zM241.57 95.28c-1.39 0-3.06-.8-3.93-1.77l-.13 1.02c-.03.28-.28.38-.68.38h-1.86c-.53 0-.74-.25-.74-.78V73.91c0-.5.12-.77.62-.83l2.6-.34c.31 0 .53.12.53.62v7.62c1-.86 2.48-1.51 4.1-1.51 1.7 0 2.97.55 3.96 1.45 1.64 1.46 2.36 3.88 2.36 6.48 0 4.28-2.2 7.88-6.83 7.88zm-.4-12.65a5 5 0 00-3.2 1.4v6.63c.75.83 1.9 1.52 3.05 1.52 2.7 0 3.5-2.33 3.5-4.75 0-2.5-.78-4.8-3.35-4.8zM259.59 79.59c.22.06.3.15.3.4 0 .1-.08.69-.36 2.48-.07.38-.25.47-.56.4-.25-.06-.56-.09-.84-.09-1.05 0-2.2.56-2.98 1.5v9.85c0 .5-.21.78-.74.78h-2.26c-.5 0-.75-.25-.75-.78V80.64c0-.62.31-.77.78-.77h1.98c.5 0 .78.15.78.59l.03.99c.96-1.21 2.01-1.98 3.75-1.98.25 0 .59.03.87.12zM275.86 94.32c0 .37-.25.59-.62.59h-1.49c-1.6 0-2.32-.78-2.54-1.83h-.06c-.77 1.14-2.8 2.2-4.5 2.2-4.37 0-6.35-3.6-6.35-7.63 0-5.36 3.22-8.18 6.7-8.18 1.64 0 3.19.74 3.96 1.8l.07-.84c.03-.35.27-.56.65-.56h2.17c.4 0 .65.21.65.68v10.76c0 .43.06.74.19.9.09.1.21.12.37.12h.24c.38 0 .56.13.56.53v1.46zm-5.11-10.2a3.97 3.97 0 00-3.07-1.59c-1.9 0-3.5 1.62-3.5 4.87 0 2.6.99 4.8 3.28 4.8a3.93 3.93 0 003.29-2.1v-5.98zM286.87 91.93c.12-.03.24-.06.34-.06.18 0 .3.09.37.37l.3 1.55c.07.37-.05.62-.42.78-.97.4-2.24.7-3.48.7-1.58 0-2.94-.4-3.72-1.3-.96-1.08-1-2.35-1-4.61v-6.92h-1.45c-.59 0-.68-.12-.68-.77v-1.18c0-.37.19-.62.56-.62h1.58v-3.38c0-.53.28-.68.78-.75l2.38-.27c.4 0 .6.21.6.68v3.72h3.5c.37 0 .58.12.58.53v1.45c0 .37-.24.6-.62.6h-3.47v7.1c0 .92.06 1.6.4 2.1.28.4.72.65 1.46.65.78 0 1.43-.18 1.99-.37zM292.44 77.88c-1.02 0-2.1-.68-2.1-1.92 0-1.24 1.02-1.98 2.1-1.98 1.06 0 2.08.71 2.08 1.95 0 1.21-1.05 1.95-2.08 1.95zm1.9 16.25c0 .56-.25.78-.78.78h-2.17c-.56 0-.8-.22-.8-.78V80.58c0-.53.3-.71.8-.71h2.17c.5 0 .78.15.78.71v13.55zM304.9 95.28c-5.05 0-7.37-3.41-7.37-7.94 0-4.46 2.73-7.87 7.56-7.87 5.06 0 7.38 3.34 7.38 7.9 0 4.47-2.73 7.9-7.56 7.9zm.16-12.87c-2.76 0-3.66 2.39-3.66 4.87 0 2.54.78 5.05 3.54 5.05 2.73 0 3.66-2.42 3.66-4.96s-.8-4.96-3.54-4.96zM328.96 94.1c0 .53-.18.8-.74.8H326c-.56 0-.75-.27-.75-.8v-8.43c0-1.7-.46-2.92-2.35-2.92-1.21 0-2.7.65-3.66 1.49v9.9c0 .52-.22.77-.75.77h-2.26c-.46 0-.74-.25-.74-.75V80.64c0-.5.21-.77.77-.77h2.02c.43 0 .71.12.74.59l.03.8a8.1 8.1 0 015.03-1.8c3.47 0 4.9 2.18 4.9 5.56v9.08z"/>
    </g>
    <path fill="#F36F21" d="M90.58 82.4c0 25.03-29.95 56.1-36.9 56.1-7.03 0-36.92-31.07-36.92-56.1a36.91 36.91 0 0173.82 0z" display="block"/>
    <path fill="#FFF" d="M71.64 82.82a18.32 18.32 0 11-36.63 0 18.32 18.32 0 0136.63 0z" display="block"/>
  </g>
</svg>