<svg width="150px" height="150px" viewBox="5 -40 31 41" version="1.1" xmlns="http://www.w3.org/2000/svg">
  <path transform="scale(0.037, -0.037)" glyph-name="arrow_left" d="M429.978 724.207c7.373-7.373 7.373-14.746 7.373-22.118s0-14.746-7.373-22.118l-190.839-190.839h609.792c22.118 0 36.864-14.746 36.864-36.864s-14.746-36.864-36.864-36.864h-609.792l190.839-190.839c7.373-7.373 7.373-14.746 7.373-22.118s0-14.746-7.373-22.118c-14.746-14.746-36.864-14.746-51.61 0l-249.822 249.822c-7.373 7.373-7.373 14.746-7.373 22.118s0 14.746 7.373 22.118l249.822 249.822c14.746 14.746 36.864 14.746 51.61 0v0z" />
</svg>