<svg width="150px" height="150px" viewBox="5 -40 31 41" version="1.1" xmlns="http://www.w3.org/2000/svg">
  <path transform="scale(0.037, -0.037)" glyph-name="arrow_right2" d="M258.867 920.473c-7.373-7.373-7.373-14.746-7.373-22.118s0-14.746 7.373-22.118l395.674-395.639c24.781-25.361 23.552-50.108 0-73.728l-395.674-395.639c-7.373-7.373-7.373-14.746-7.373-22.118s0-14.746 7.373-22.118c14.746-14.746 36.864-14.746 51.61 0l454.656 454.622c7.373 7.373 7.373 14.746 7.373 22.118s0 14.746-7.373 22.118l-454.656 454.622c-14.746 14.746-36.864 14.746-51.61 0v0z" />
</svg>