<svg width="150px" height="150px" viewBox="5 -40 31 41" version="1.1" xmlns="http://www.w3.org/2000/svg">
  <path transform="scale(0.037, -0.037)" glyph-name="arrow_left2" d="M765.133 910.54c7.373-7.373 7.373-14.746 7.373-22.118s0-14.746-7.373-22.118l-395.674-395.639c-24.781-25.361-23.552-50.108 0-73.728l395.674-395.639c7.373-7.373 7.373-14.746 7.373-22.118s0-14.746-7.373-22.118c-14.746-14.746-36.864-14.746-51.61 0l-454.656 454.622c-7.373 7.373-7.373 14.746-7.373 22.118s0 14.746 7.373 22.118l454.656 454.622c14.746 14.746 36.864 14.746 51.61 0v0z" />
</svg>