<svg width="1em" height="1em" fill="currentColor" xmlns="http://www.w3.org/2000/svg" viewBox="0 0 140.718 88.52">
            <rect x="0.754" y="29.526" width="138.957" height="1.263"/><path d="M100.067,88.52H98.805V54.451c0-8.66-12.818-15.7-28.573-15.7S41.66,45.791,41.66,54.451V88.52H40.4V54.451c0-9.356,13.384-16.968,29.835-16.968s29.835,7.612,29.835,16.968Z"/><path d="M111.138,88.52h-1.262V54.451c0-9.356,13.384-16.968,29.835-16.968v1.263c-15.755,0-28.573,7.045-28.573,15.7Z"/><path d="M30.589,88.52H29.327V54.451c0-8.66-12.818-15.7-28.573-15.7V37.483c16.451,0,29.835,7.612,29.835,16.968Z"/><path d="M119.3,5.521h-18.35A1.35,1.35,0,0,0,99.6,6.87v3.346a1.35,1.35,0,0,0,1.349,1.349H119.3a1.349,1.349,0,0,0,1.348-1.349V6.87A1.349,1.349,0,0,0,119.3,5.521ZM101.218,7.137h8.307V9.949h-8.307Zm17.816,2.812h-7.893V7.137h7.893Z"/><path d="M39.2,5.521H20.85A1.35,1.35,0,0,0,19.5,6.87v3.346a1.35,1.35,0,0,0,1.349,1.349H39.2a1.35,1.35,0,0,0,1.348-1.349V6.87A1.35,1.35,0,0,0,39.2,5.521ZM21.117,7.137H29.01V9.949H21.117ZM38.933,9.949H30.625V7.137h8.308Z"/><path d="M67.884,5.521H49.533A1.35,1.35,0,0,0,48.185,6.87v3.346a1.35,1.35,0,0,0,1.348,1.349H67.884a1.35,1.35,0,0,0,1.348-1.349V6.87A1.35,1.35,0,0,0,67.884,5.521ZM49.8,7.137h7.894V9.949H49.8ZM67.617,9.949H59.309V7.137h8.308Z"/><path d="M90.451,5.521H72.1A1.35,1.35,0,0,0,70.752,6.87v3.346A1.35,1.35,0,0,0,72.1,11.565H90.451A1.35,1.35,0,0,0,91.8,10.216V6.87A1.35,1.35,0,0,0,90.451,5.521ZM72.367,7.137h7.894V9.949H72.367ZM90.184,9.949H81.876V7.137h8.308Z"/><path d="M94.91.1,73.977.026h-7.97L45.074.1l-.151,16.848.814,0c.914,0,15.387.03,25.949.03h.74c10.561,0,20.907-.028,21.822-.03l.813,0ZM72.736,15.332H67.248c-2.517.061-15.509.011-20.7,0l.122-13.627,19.36-.065.049,0H73.9l.049,0,19.36.065.122,13.627C88.245,15.343,75.253,15.393,72.736,15.332Z"/><path d="M43.29.1,22.357.026A23.855,23.855,0,0,0,14.069,1.1a12.5,12.5,0,0,0-3.445,1.721A42.631,42.631,0,0,0,3.389,8.8L3.228,9a5.817,5.817,0,0,0-1.656,4.062c0,2.578,1.357,3.812,4.272,3.883.949.023,5.368.03,10.835.03,10.561,0,25.035-.028,25.949-.03l.813,0Zm-38.8,9.919.165-.205a18.471,18.471,0,0,1,2.288-2.2c.164-.133.305-.25.42-.346l.355-.291,8.777.159a.236.236,0,0,1,.229.236v2.34a.236.236,0,0,1-.229.236l-12,.067Zm1.4,5.316c-2.5-.061-2.7-.978-2.7-2.268a3.7,3.7,0,0,1,.355-1.681l5.536.223,2.805-.016,4.788-.061a1.834,1.834,0,0,0,1.663-1.816V7.373A1.851,1.851,0,0,0,16.5,5.521L9.753,5.4c.7-.52,1.33-.96,1.738-1.22A10.992,10.992,0,0,1,14.605,2.62a22.571,22.571,0,0,1,7.676-.981l.048,0,19.36.065.122,13.627C36.625,15.343,8.4,15.393,5.884,15.332Z"/><path d="M96.739,16.945l.814,0c.914,0,15.387.03,25.949.03,5.467,0,9.886-.007,10.834-.03,2.915-.071,4.273-1.3,4.273-3.883A5.821,5.821,0,0,0,136.953,9l-.161-.2a42.709,42.709,0,0,0-7.235-5.985A12.52,12.52,0,0,0,126.111,1.1a23.853,23.853,0,0,0-8.288-1.07L96.89.1ZM135.7,10.016l-12-.067a.236.236,0,0,1-.23-.236V7.373a.236.236,0,0,1,.23-.236l8.776-.159c.12.1.238.194.356.291s.255.213.419.346a18.471,18.471,0,0,1,2.288,2.2l.166.205ZM98.369,15.333l.122-13.627,19.36-.065.049,0a22.566,22.566,0,0,1,7.675.981,10.979,10.979,0,0,1,3.114,1.559c.409.26,1.034.7,1.738,1.22l-6.745.122a1.851,1.851,0,0,0-1.836,1.852v2.34a1.834,1.834,0,0,0,1.663,1.816l4.789.061,2.8.016,5.537-.223a3.709,3.709,0,0,1,.354,1.681c0,1.29-.193,2.207-2.7,2.268S103.555,15.343,98.369,15.333Z"/><path d="M140.718,19.75h-1.427l0-1.645-1.438,0,0,1.64h-2.831l0-1.645-1.438,0,0,1.64h-2.822l0-1.645-1.438,0,.005,1.64h-2.832l-.005-1.645-1.438,0,0,1.64h-2.831l0-1.645-1.438,0,0,1.64h-2.9l0-1.645-1.438,0,0,1.64h-2.667l0-1.644-1.438,0,0,1.64h-2.833l0-1.645-1.438,0,0,1.64h-2.831l-.005-1.645-1.438,0,0,1.64h-2.833l-.005-1.645-1.438,0,0,1.64H96.7l0-1.645-1.438,0,.005,1.64H92.431l0-1.645-1.438,0,0,1.64H88.162l-.005-1.645-1.438,0,.005,1.64H83.9l0-1.645-1.438,0,0,1.64H79.632l-.005-1.645-1.438,0,.005,1.64H75.362l0-1.645-1.438,0,.005,1.64h-2.9l-.005-1.644-1.438,0,.005,1.64H66.863l0-1.645-1.438,0,0,1.64h-2.9l0-1.645-1.438,0,.005,1.64H58.423l-.006-1.644-1.438,0,.006,1.64H54.152l-.005-1.645-1.438,0,0,1.64H49.882l0-1.645-1.438,0,.005,1.64H45.612l-.006-1.645-1.438,0,.006,1.64H41.342l0-1.645-1.438,0,.005,1.64H37.071l0-1.645-1.438,0,.005,1.64H32.8L32.8,18.105l-1.438,0,0,1.64H28.543l0-1.645-1.438,0,0,1.64H24.272l0-1.645-1.438,0,0,1.64H20L20,18.105l-1.438,0,.006,1.64h-2.9l0-1.645-1.438,0,.005,1.64H11.563l-.006-1.644-1.438,0,.006,1.64H7.291l-.005-1.645-1.438,0,0,1.64H3.022l0-1.644-1.438,0,.005,1.64H0v1.438H1.588L1.6,25.381H0v1.438H1.605l.005,1.637,1.438,0,0-1.634H5.876l0,1.638,1.438,0,0-1.633h2.831l.005,1.637,1.438,0,0-1.634h2.668l.005,1.638,1.438,0-.005-1.633h2.9l.005,1.638,1.44,0-.006-1.633h2.831l0,1.638,1.438,0,0-1.633h2.834l0,1.638,1.438,0-.005-1.633h2.82l.006,1.638,1.438,0-.006-1.633h2.831l0,1.638,1.438,0,0-1.633h2.834l.005,1.638,1.438,0,0-1.633H44.2l.005,1.638,1.438,0-.005-1.633h2.831l.006,1.638,1.438,0L49.9,26.819h2.833l.005,1.638,1.438,0-.005-1.633h2.831l0,1.637,1.438,0-.005-1.634h2.668l.005,1.638,1.438,0-.005-1.633h2.9l.006,1.638,1.438,0-.006-1.633h2.726l0,1.637,1.438,0,0-1.634h2.9l.005,1.638,1.44,0,0-1.633h2.831l.005,1.638,1.438,0-.005-1.633h2.833l.005,1.638,1.438,0-.005-1.633h2.821l.005,1.638,1.438,0,0-1.633h2.831l0,1.638,1.438,0,0-1.633h2.833l0,1.638,1.438,0,0-1.633h2.831l0,1.638,1.438,0-.005-1.633h2.832l0,1.638,1.438,0,0-1.633H108.1l.006,1.638,1.438,0-.006-1.633h2.831l0,1.637,1.438,0,0-1.634h2.669l0,1.638,1.438,0,0-1.633h2.9l0,1.637,1.44,0,0-1.633h2.831l.005,1.638,1.438,0-.005-1.633h2.833l0,1.638,1.438,0,0-1.633h2.821l0,1.638,1.438,0,0-1.633h2.831l0,1.638,1.438,0-.005-1.633h1.405V25.381h-1.409l-.014-4.193h1.423ZM3.038,25.381l-.012-4.193H5.858l.013,4.193Zm4.271,0L7.3,21.188h2.833l.012,4.193Zm4.27,0-.012-4.193h2.667l.013,4.193Zm4.106,0-.013-4.193h2.9l.013,4.193Zm4.335,0-.012-4.193h2.831l.013,4.193Zm4.27,0-.014-4.193H27.11l.013,4.193Zm4.271,0-.013-4.193h2.821l.013,4.193Zm4.259,0-.013-4.193h2.831l.013,4.193Zm4.269,0-.013-4.193h2.833l.013,4.193Zm4.271,0-.013-4.193h2.831l.013,4.193Zm4.269,0-.013-4.193h2.832l.013,4.193Zm4.27,0-.013-4.193h2.832l.014,4.193Zm4.271,0-.014-4.193h2.833L57,25.381Zm4.269,0-.012-4.193h2.667l.013,4.193Zm4.106,0-.013-4.193h2.9l.013,4.193Zm4.336,0-.013-4.193H69.6l.012,4.193Zm4.164,0-.012-4.193h2.895l.013,4.193Zm4.335,0-.013-4.193H78.2l.014,4.193Zm4.27,0-.014-4.193h2.833l.013,4.193Zm4.27,0-.013-4.193h2.821l.014,4.193Zm4.26,0-.014-4.193H91l.014,4.193Zm4.269,0-.014-4.193h2.833l.013,4.193Zm4.27,0-.013-4.193h2.831l.014,4.193Zm4.27,0-.014-4.193h2.833l.013,4.193Zm4.27,0-.013-4.193h2.832l.013,4.193Zm4.27,0-.013-4.193h2.832l.012,4.193Zm4.269,0-.012-4.193h2.668l.013,4.193Zm4.107,0-.013-4.193h2.9l.012,4.193Zm4.336,0-.014-4.193h2.831l.014,4.193Zm4.269,0-.014-4.193h2.833l.013,4.193Zm4.27,0-.013-4.193h2.821l.014,4.193Zm4.26,0-.014-4.193h2.831l.014,4.193Z"/>
        </svg>
