<svg width="1em" height="1em" fill="currentColor" xmlns="http://www.w3.org/2000/svg" viewBox="0 0 108.399 36.72"><path d="M47.1,24.706a1.444,1.444,0,0,1-1.4-1.484V7.963a1.444,1.444,0,0,1,1.4-1.484.536.536,0,1,1,0,1.072.381.381,0,0,0-.325.412V23.222a.382.382,0,0,0,.325.412.536.536,0,0,1,0,1.072Z"/><path d="M53.15,24.706a1.444,1.444,0,0,1-1.4-1.484V7.963a1.444,1.444,0,0,1,1.4-1.484.536.536,0,1,1,0,1.072.381.381,0,0,0-.324.412V23.222a.382.382,0,0,0,.324.412.536.536,0,1,1,0,1.072Z"/><path d="M59.2,24.706a1.444,1.444,0,0,1-1.4-1.484V7.963a1.444,1.444,0,0,1,1.4-1.484.536.536,0,1,1,0,1.072.381.381,0,0,0-.325.412V23.222a.382.382,0,0,0,.325.412.536.536,0,0,1,0,1.072Z"/><path d="M65.258,24.706a1.444,1.444,0,0,1-1.4-1.484V7.963a1.444,1.444,0,0,1,1.4-1.484.536.536,0,1,1,0,1.072.38.38,0,0,0-.324.412V23.222a.381.381,0,0,0,.324.412.536.536,0,0,1,0,1.072Z"/><path d="M71.311,24.706a1.444,1.444,0,0,1-1.4-1.484V7.963a1.444,1.444,0,0,1,1.4-1.484.536.536,0,1,1,0,1.072.381.381,0,0,0-.325.412V23.222a.382.382,0,0,0,.325.412.536.536,0,1,1,0,1.072Z"/><path d="M77.364,24.706a1.444,1.444,0,0,1-1.4-1.484V7.963a1.444,1.444,0,0,1,1.4-1.484.536.536,0,1,1,0,1.072.381.381,0,0,0-.325.412V23.222a.382.382,0,0,0,.325.412.536.536,0,0,1,0,1.072Z"/><path d="M83.417,24.706a1.443,1.443,0,0,1-1.4-1.484V7.963a1.443,1.443,0,0,1,1.4-1.484.536.536,0,1,1,0,1.072.38.38,0,0,0-.324.412V23.222a.381.381,0,0,0,.324.412.536.536,0,0,1,0,1.072Z"/><path d="M89.471,24.706a1.444,1.444,0,0,1-1.4-1.484V7.963a1.444,1.444,0,0,1,1.4-1.484.536.536,0,1,1,0,1.072.381.381,0,0,0-.325.412V23.222a.382.382,0,0,0,.325.412.536.536,0,1,1,0,1.072Z"/><path d="M95.523,24.706a1.444,1.444,0,0,1-1.4-1.484V7.963a1.444,1.444,0,0,1,1.4-1.484.536.536,0,1,1,0,1.072.381.381,0,0,0-.324.412V23.222a.382.382,0,0,0,.324.412.536.536,0,1,1,0,1.072Z"/><path d="M30.378,15.05,28.341,8.229a.442.442,0,0,0-.423-.315H16.4a.44.44,0,0,0-.441.441v6.821a.44.44,0,0,0,.441.441H29.955a.44.44,0,0,0,.423-.567ZM26.141,8.8v5.937H21.773V8.8Zm-9.3,0h4.047v5.937H16.844Zm10.179,5.937V8.8h.566l1.773,5.937Z"/><rect  x="5.159" y="12.027" width="0.828" height="14.509"/><rect  x="11.258" y="12.027" width="0.828" height="14.509"/><path d="M103.6,35.647a3.356,3.356,0,0,0,.88-2.266c0,.011,0,.02,0,.031h2.206V31.969h.493v.587a.536.536,0,1,0,1.072,0V28.719a.536.536,0,1,0-1.072,0v.588h-.493V27.863h-1.179V.461H102.2a2.121,2.121,0,0,0-2.092,1.6H42.519a2.122,2.122,0,0,0-2.093-1.6H37.114v27.4H35.937v1.444h-.479v-.588a.536.536,0,1,0-1.072,0v.588H33.122v-.014a.661.661,0,0,0-.66-.66H30.633l4.05-10.173a.66.66,0,0,0,.013-.451L30.89,6.484h.258a.661.661,0,0,0,.661-.66V.66A.661.661,0,0,0,31.148,0H.66A.661.661,0,0,0,0,.66V5.824c0,.009.005.016.005.025s0,.016,0,.025V33.931a.661.661,0,0,0,.66.66H11.206a.664.664,0,0,0,.418-.149l2.2-1.8h.834a3.313,3.313,0,0,0,.794,3H.1V36.72H108.4V35.647Zm3.083-5.268h.493V30.9h-.493Zm-67.476,3a2.175,2.175,0,1,1,2.173,2.26A2.221,2.221,0,0,1,39.21,33.381Zm9.566,1.5V33.49a3.361,3.361,0,0,0,.88,2.157H43.738a3.365,3.365,0,0,0,.879-2.157v1.395Zm-3.087-1.073v-.4H47.7v.4Zm4.149-.431a2.175,2.175,0,1,1,2.173,2.26A2.221,2.221,0,0,1,49.838,33.381Zm38.6,0a2.174,2.174,0,1,1,2.172,2.26A2.221,2.221,0,0,1,88.438,33.381ZM98,34.885V33.49a3.365,3.365,0,0,0,.879,2.157H92.966a3.365,3.365,0,0,0,.879-2.157v1.395Zm-3.087-1.073v-.4h2.015v.4Zm4.148-.431a2.175,2.175,0,1,1,2.173,2.26A2.221,2.221,0,0,1,99.065,33.381ZM102.02,2.889V2.5a.22.22,0,0,1,.175-.068h1.346v26.33H102.2a.234.234,0,0,1-.175-.064v-.4a1.04,1.04,0,0,0-.2-.581h1.095v-.537H102.2V25.789h.715V24.746H102.2v-1.39h.715V22.314H102.2V20.925h.715V19.883H102.2v-1.39h.715V17.451H102.2V16.062h.715V15.02H102.2V13.63h.715V12.588H102.2V11.2h.715V10.156H102.2V8.767h.715V7.725H102.2V6.335h.715V5.293H102.2V3.9h.715V3.367h-1.019A1.032,1.032,0,0,0,102.02,2.889Zm-.894,1.07a1.214,1.214,0,0,0,.183-.056h.532v1.39h-.715Zm0,2.376h.715v1.39h-.715Zm0,2.432h.715v1.389h-.715Zm0,2.431h.715v1.39h-.715Zm0,2.432h.715v1.39h-.715Zm0,2.432h.715v1.389h-.715Zm0,2.431h.715v1.39h-.715Zm0,2.432h.715v1.389h-.715Zm0,2.431h.715v1.39h-.715Zm0,2.433h.715v1.389h-.715Zm-59.273,0h.714V24.746h-.714v-1.39h.714V22.314h-.714V20.925h.714V19.883h-.714v-1.39h.714V17.451h-.714V16.062h.714V15.02h-.714V13.63h.714V12.588h-.714V11.2h.714V10.156h-.714V8.767h.714V7.725h-.714V6.335h.714V5.293h-.714V4.024h58.916V5.293h-.715V6.335h.715v1.39h-.715V8.767h.715v1.389h-.715V11.2h.715v1.39h-.715V13.63h.715v1.39h-.715v1.042h.715v1.389h-.715v1.042h.715v1.39h-.715v1.042h.715v1.389h-.715v1.042h.715v1.39h-.715v1.043h.715V27.16H41.853Zm-.18,2.515a.208.208,0,0,1,.177-.072h58.922a.235.235,0,0,1,.175.064v.4c0,.023.011.042.012.064h-59.3c0-.022.012-.041.012-.064ZM40.78,3.9h.533a1.2,1.2,0,0,0,.182.056V5.293H40.78Zm0,2.432H41.5v1.39H40.78Zm0,2.432H41.5v1.389H40.78Zm0,2.431H41.5v1.39H40.78Zm0,2.432H41.5v1.39H40.78Zm0,2.432H41.5v1.389H40.78Zm0,2.431H41.5v1.39H40.78Zm0,2.432H41.5v1.389H40.78Zm0,2.431H41.5v1.39H40.78Zm0,2.433H41.5v1.389H40.78ZM39.08,2.427h1.346a.242.242,0,0,1,.176.063v.4a1.031,1.031,0,0,0,.125.478H39.708V3.9h.715v1.39h-.715V6.335h.715v1.39h-.715V8.767h.715v1.389h-.715V11.2h.715v1.39h-.715V13.63h.715v1.39h-.715v1.042h.715v1.389h-.715v1.042h.715v1.39h-.715v1.042h.715v1.389h-.715v1.042h.715v1.39h-.715v1.043h.715v1.389h-.715v.537H40.8a1.039,1.039,0,0,0-.2.581v.39a.213.213,0,0,1-.177.071H39.08ZM37.9,29.829H104.72v1.617h-.85a3.177,3.177,0,0,0-5.264,0H93.242a3.177,3.177,0,0,0-5.264,0H86.191L83.808,33.4h-25L56.43,31.446H54.643a3.177,3.177,0,0,0-5.264,0H44.015a3.177,3.177,0,0,0-5.264,0H37.9Zm50.344,5.818H54.371a3.36,3.36,0,0,0,.878-2.267c0,.011,0,.021,0,.032h.476l2.383,1.948h26.4l2.384-1.948h.466c0-.011.006-.02.006-.031A3.357,3.357,0,0,0,88.246,35.647ZM35.458,30.379h.479V30.9h-.479Zm-2.336,0H34.37V30.9H33.122Zm0,1.6v-.013h1.264v.587a.536.536,0,1,0,1.072,0v-.587h.479v1.443h2.2c0-.011,0-.02,0-.031a3.356,3.356,0,0,0,.88,2.266H30.81a3.325,3.325,0,0,0,.794-3h.858A.661.661,0,0,0,33.122,31.982Zm-6.85,1.4a2.175,2.175,0,1,1,2.173,2.26A2.221,2.221,0,0,1,26.272,33.381ZM1.32,1.32H30.488V5.164H1.32Zm0,5.214h28.2l3.851,11.66-3.822,9.6H1.32ZM13.59,31.322a.664.664,0,0,0-.418.149l-2.2,1.8H1.32V29.953H31.8v1.369h-.824a3.154,3.154,0,0,0-5.065,0H20.35a3.154,3.154,0,0,0-5.065,0Zm11.7,1.321a3.38,3.38,0,0,0-.087.738c0-.037.01-.072.011-.109v-.629Zm-1.148,0v1.169H22.124V32.643Zm-3.077.738a3.388,3.388,0,0,0-.086-.739h.076v.629C21.053,33.309,21.062,33.344,21.062,33.381Zm-1.072,0a2.174,2.174,0,1,1-2.173-2.261A2.22,2.22,0,0,1,19.99,33.381Zm1.062.109v1.395h4.159V33.49a3.365,3.365,0,0,0,.879,2.157H20.173A3.365,3.365,0,0,0,21.052,33.49Z"/><path d="M30.279,33.381a1.834,1.834,0,1,0-1.834,1.876A1.857,1.857,0,0,0,30.279,33.381Zm-2.595,0a.763.763,0,1,1,.761.8A.785.785,0,0,1,27.684,33.381Z"/><path d="M17.817,31.5a1.877,1.877,0,1,0,1.834,1.877A1.858,1.858,0,0,0,17.817,31.5Zm0,2.681a.806.806,0,1,1,.762-.8A.784.784,0,0,1,17.817,34.185Z"/><path d="M43.217,33.381a1.834,1.834,0,1,0-1.834,1.876A1.857,1.857,0,0,0,43.217,33.381Zm-2.6,0a.763.763,0,1,1,.762.8A.786.786,0,0,1,40.621,33.381Z"/><path d="M53.845,33.381a1.834,1.834,0,1,0-1.834,1.876A1.858,1.858,0,0,0,53.845,33.381Zm-2.6,0a.763.763,0,1,1,.762.8A.786.786,0,0,1,51.249,33.381Z"/><path d="M103.072,33.381a1.834,1.834,0,1,0-1.834,1.876A1.857,1.857,0,0,0,103.072,33.381Zm-2.595,0a.763.763,0,1,1,.761.8A.785.785,0,0,1,100.477,33.381Z"/><path d="M92.444,33.381a1.834,1.834,0,1,0-1.834,1.876A1.857,1.857,0,0,0,92.444,33.381Zm-2.595,0a.763.763,0,1,1,.761.8A.785.785,0,0,1,89.849,33.381Z"/></svg>
