<svg width="1em" height="1em" fill="currentColor" xmlns="http://www.w3.org/2000/svg" viewBox="0 0 86.992 79.139"><path d="M64.714,30.982a2.794,2.794,0,1,1,2.8-2.794A2.8,2.8,0,0,1,64.714,30.982Zm0-4.648a1.855,1.855,0,1,0,1.855,1.854A1.855,1.855,0,0,0,64.714,26.334Z"/><path class="cls-1" d="M77.8,30.982a2.794,2.794,0,1,1,2.794-2.794A2.8,2.8,0,0,1,77.8,30.982Zm0-4.648a1.855,1.855,0,1,0,1.854,1.854A1.856,1.856,0,0,0,77.8,26.334Z"/><path class="cls-1" d="M71.514,35.458a2.794,2.794,0,1,1,2.8-2.794A2.8,2.8,0,0,1,71.514,35.458Zm0-4.648a1.855,1.855,0,1,0,1.855,1.854A1.855,1.855,0,0,0,71.514,30.81Z"/><path class="cls-1" d="M67.8,77.369V70.648h1.6V69.119H67.8V67.353h-1.75v1.766H62.706V67.353h-1.75v1.766H57.714V67.353h-1.75v1.766H52.477V67.353h-1.75v1.766H47.383V67.353H45.634v1.766H42.392V67.353h-1.75v1.766H37.3V67.353h-1.75v1.766H32.207V67.353h-1.75v1.766H27.114V67.353h-1.75v1.766H22.022V67.353h-1.75v1.766H16.929V67.353h-1.75v1.766H12.038V67.353h-1.75v1.766H6.945V67.353H5.2v1.766H1.853V67.353H.1V78.9H69.48V77.369Zm-1.75-6.721v6.721H62.706V70.648Zm-5.093,0v6.721H57.714V70.648Zm-4.992,0v6.721H52.477V70.648Zm-5.237,0v6.721H47.383V70.648Zm-5.093,0v6.721H42.392V70.648Zm-4.992,0v6.721H37.3V70.648Zm-5.093,0v6.721H32.207V70.648Zm-5.092,0v6.721H27.114V70.648Zm-5.093,0v6.721H22.022V70.648Zm-5.092,0v6.721H16.929V70.648Zm-5.093,0v6.721H12.038V70.648Zm-4.891,0v6.721H6.945V70.648Zm-8.435,0H5.2v6.721H1.853Z"/><path class="cls-1" d="M0,62.283v4.133H69.5V62.283Zm5.017,3.662H.47V62.754H5.017Zm9.209,0H9.57V62.754h4.656Zm9.038,0H18.779V62.754h4.485Zm9.21,0H27.817V62.754h4.657Zm4.553-3.191h4.657v3.191H37.027Zm13.867,3.191H46.237V62.754h4.657Zm9.209,0H55.447V62.754H60.1Zm8.928,0H64.656V62.754h4.375Z"/><path class="cls-1" d="M85.133,20.34H72.81V13.02l10.236,6.392,2.936-.787-.6-2.953L75.825,9.708,85.382,3.74,85.98.8,83.053,0,71.665,7.11,60.277,0,57.35.8l.6,2.943,9.557,5.968-9.553,5.964-.6,2.953,2.934.787,10.225-6.384V20.34H57.018A1.859,1.859,0,0,0,55.159,22.2V39.086a1.859,1.859,0,0,0,1.859,1.859H70.507V79.139h2.3V40.945H85.133a1.859,1.859,0,0,0,1.859-1.859V22.2A1.859,1.859,0,0,0,85.133,20.34ZM60.056,17.891,59,17.607l.216-1.06L70.167,9.708,59.208,2.865l-.214-1.054,1.059-.29L71.665,8.772,83.277,1.521l1.059.29-.214,1.054L73.163,9.708l10.955,6.839.216,1.06-1.06.284L71.665,10.643ZM83.918,37.174a.815.815,0,0,1-.814.814H59.1a.813.813,0,0,1-.813-.814V24.159a.813.813,0,0,1,.813-.814H83.1a.814.814,0,0,1,.814.814Z"/></svg>
