<svg width="1em" height="1em" fill="currentColor" xmlns="http://www.w3.org/2000/svg" viewBox="0 0 67.301 87.684"><path d="M66.744,0H60.621a.557.557,0,0,0-.557.557V4.091H58.9V3.206H57.311v.885H55.757V3.206H54.169v.885H52.615V3.206H51.027v.885h-1.1l0,.774h1.095V6.881H16.209l-.508-.45a.966.966,0,0,0-1.354,1.377L.563,31.063H.557a.557.557,0,1,0,0,1.114H3.9V37.81l3.624-3.089,9.746,2.423a.556.556,0,1,0,.269-1.08L7.235,33.5,5.012,35.4V32.177H41.789l9.238,8.194v1H49.932l0,.775h1.1v.884h1.588V42.15h1.554v.884h1.588V42.15h1.554v.884H58.9V42.15h1.165V87.127a.557.557,0,0,0,.557.557h6.123a.557.557,0,0,0,.557-.557V.557A.557.557,0,0,0,66.744,0Zm-6.68,4.865V9.454H58.9V4.865Zm-2.753,0V9.454H55.757V4.865Zm-3.142,0V9.454H52.615V4.865ZM14.761,8.2l.015.013V31.063H1.211Zm.572,22.861V8.709l25.2,22.354Zm1.5-23.625h34.19V9.454H49.932l0,.775h1.1v.884h1.588v-.884h1.554v.884h1.588v-.884h1.554v.884H58.9v-.884h1.165V36.011H58.9v-.884H57.311v.884H55.757v-.884H54.169v.884H52.615v-.884H51.027v.884h-1.1l0,.775h1.095v.98ZM52.615,41.375V40.013a.963.963,0,0,0,0-.655V36.786h1.554v4.589Zm3.142,0V36.786h1.554v4.589Zm3.142,0V36.786h1.165v4.589ZM66.187,86.57h-5.01V1.114h5.01Z"/></svg>
