<svg width="1em" height="1em" fill="currentColor" xmlns="http://www.w3.org/2000/svg" viewBox="0 0 88.403 75.011"><path d="M19.818,33.147H9.224A4.078,4.078,0,0,1,5.15,29.075v-6.84a4.078,4.078,0,0,1,4.074-4.073H19.818a4.077,4.077,0,0,1,4.072,4.073v6.84A4.076,4.076,0,0,1,19.818,33.147ZM9.224,19.662A2.576,2.576,0,0,0,6.65,22.235v6.84a2.576,2.576,0,0,0,2.574,2.572H19.818a2.575,2.575,0,0,0,2.572-2.572v-6.84a2.575,2.575,0,0,0-2.572-2.573Z"/><path d="M28.217,72.669l-.691-1.995H25.141l-1.507-5.049h2.2L25.1,63.63H23.039L21.568,58.7h1.824l-.582-2H20.972L19.7,52.439h1.475L20.5,50.444H19.1l-.532-1.781H16.363l.532,1.781H11.322l.532-1.781H9.646l-.531,1.781h-1.4l-.672,1.995H8.519L7.245,56.708H5.407l-.582,2H6.649L5.178,63.63H3.117l-.735,1.995h2.2L3.075,70.674H.69L0,72.669H2.48l-.7,2.342H3.988l.7-2.342H23.53l.7,2.342h2.207l-.7-2.342ZM10.726,52.439h6.765l1.274,4.269H9.452ZM8.856,58.7H19.361l1.471,4.927H7.385ZM5.282,70.674,6.79,65.625H21.427l1.507,5.049Z"/><path d="M23.5,46.618H5.722A5.052,5.052,0,0,1,.675,41.572V18.95A5.051,5.051,0,0,1,5.7,13.906V13.4a2,2,0,0,1,2-1.993h13.84a2,2,0,0,1,2,1.993v.51a5.052,5.052,0,0,1,5.012,5.044V41.572A5.052,5.052,0,0,1,23.5,46.618ZM5.722,15.406A3.55,3.55,0,0,0,2.175,18.95V41.572a3.551,3.551,0,0,0,3.547,3.546H23.5a3.551,3.551,0,0,0,3.547-3.546V18.95A3.55,3.55,0,0,0,23.5,15.406H22.032V13.4a.5.5,0,0,0-.5-.493H7.7a.5.5,0,0,0-.5.493v2.01Z"/><path d="M59.58,26.015l-.748-.246a3.327,3.327,0,1,0-4.1.028l-.741.23A2.579,2.579,0,0,0,52.166,28.5V35a2.537,2.537,0,0,0,1.782,2.42v5.564a2.539,2.539,0,0,0,2.536,2.536h.942a2.539,2.539,0,0,0,2.536-2.536l0-5.714a2.529,2.529,0,0,0,1.4-2.27V28.478A2.585,2.585,0,0,0,59.58,26.015Zm-5.143-2.832a2.328,2.328,0,1,1,2.327,2.327A2.33,2.33,0,0,1,54.437,23.183Zm3.852,3.46-1.356,1.771-1.68-1.732.807-.251a3.084,3.084,0,0,0,1.5-.028ZM60.364,35a1.531,1.531,0,0,1-1.059,1.459l-.343.158v6.367a1.538,1.538,0,0,1-1.536,1.536h-.942a1.538,1.538,0,0,1-1.536-1.536V36.578l-.439-.055A1.536,1.536,0,0,1,53.166,35V28.5a1.584,1.584,0,0,1,1.121-1.521l.189-.058,2.446,2.642L59.063,26.9l.2.067a1.592,1.592,0,0,1,1.1,1.514Z"/><path d="M79.322,11.653H71.184a2.142,2.142,0,0,0-2.14,2.14v8.138a2.142,2.142,0,0,0,2.14,2.14h8.138a2.142,2.142,0,0,0,2.14-2.14V13.793A2.142,2.142,0,0,0,79.322,11.653Zm1.14,2.14v3.569H75.753V12.653h3.569A1.141,1.141,0,0,1,80.462,13.793Zm-9.278-1.14h3.569v4.709H70.044V13.793A1.142,1.142,0,0,1,71.184,12.653Zm-1.14,9.278V18.362h4.709v4.709H71.184A1.141,1.141,0,0,1,70.044,21.931Zm9.278,1.14H75.753V18.362h4.709v3.569A1.141,1.141,0,0,1,79.322,23.071Z"/><path d="M88.065,8.893,75.082,0,62.1,8.892a.776.776,0,0,0,.438,1.417h1.3v2.012H41.547A4.348,4.348,0,0,0,37.2,16.665V17.3h1v-.636a3.347,3.347,0,0,1,3.343-3.344H63.833V44.977H30.212v1h8.05V66.986H86.331V10.309h1.3a.776.776,0,0,0,.439-1.416ZM85.331,65.986H39.262V45.977H85.331ZM70.35,31.543a1.74,1.74,0,0,0,1.224.7.71.71,0,0,1-.53.259.742.742,0,0,1-.742-.741A.7.7,0,0,1,70.35,31.543Zm-.314-1.27a.716.716,0,0,1-.266-.541.742.742,0,0,1,.741-.742.729.729,0,0,1,.285.058l0,.019A1.74,1.74,0,0,0,70.036,30.273Zm.975.247a.742.742,0,1,1,.742.742A.743.743,0,0,1,71.011,30.52Zm.958-1.721c-.014-.022-.022-.047-.037-.068a.73.73,0,0,1,.6-.324.742.742,0,0,1,.742.742.731.731,0,0,1-.1.347l-.019,0A1.734,1.734,0,0,0,71.969,28.8Zm1.515,1.83a.721.721,0,0,1,.337.6.742.742,0,0,1-.741.742A.707.707,0,0,1,72.8,31.9,1.73,1.73,0,0,0,73.484,30.629Zm.838,6.861v5.194H71.753V37.49Zm0,6.4v1.086H71.753V43.891Zm5.241-12.959a.666.666,0,0,1,.049.218.742.742,0,0,1-.742.741.71.71,0,0,1-.53-.259A1.731,1.731,0,0,0,79.563,30.932Zm-.446-2.5a.752.752,0,0,1,.286-.057.742.742,0,0,1,.741.742.715.715,0,0,1-.266.54,1.739,1.739,0,0,0-.759-1.205Zm-.956,2.214a.742.742,0,1,1,.742-.742A.743.743,0,0,1,78.161,30.65Zm-.216-2.462a1.727,1.727,0,0,0-1.185.694l-.019,0a.719.719,0,0,1-.1-.346.742.742,0,0,1,.741-.742.732.732,0,0,1,.6.323C77.967,28.141,77.959,28.166,77.945,28.188Zm-.83,3.105a.715.715,0,0,1-.281.065.743.743,0,0,1-.742-.742.724.724,0,0,1,.338-.6A1.736,1.736,0,0,0,77.115,31.293Zm1.194,6.2v5.194H75.74V37.49Zm0,6.4v1.086H75.74V43.891Zm7.022,1.086h-5.6V43.891h1.32V42.684h-1.32V37.49h1.32V36.283h-1.32V34.829H78.309v1.454h-1.2a16.115,16.115,0,0,1,.674-3.78,1.713,1.713,0,0,0,1.084.388,1.74,1.74,0,0,0,1.608-2.41,1.734,1.734,0,0,0-1.7-2.981,1.737,1.737,0,0,0-2.986,1.731,1.733,1.733,0,0,0,1,3.122,16.8,16.8,0,0,0-.677,3.93h-.37V34.829H74.322v1.454h-.554a17.637,17.637,0,0,0-.641-3.318,1.733,1.733,0,0,0,1-3.122,1.737,1.737,0,0,0-2.987-1.732,1.735,1.735,0,0,0-1.7,2.982,1.74,1.74,0,0,0,1.608,2.41,1.713,1.713,0,0,0,1.084-.388,16.983,16.983,0,0,1,.635,3.168h-1.01V34.829H70.334v1.454H68.971V37.49h1.363v5.194H68.971v1.207h1.363v1.086h-5.5V10.309h20.5Zm1-35.668H63.261l11.821-8.1L86.9,9.309Z"/><path d="M48.973,33.716a2.658,2.658,0,0,0,.539-1.608V29.026a3.736,3.736,0,0,0-.545-1.9c-.011-.27-.025-.684-.025-1.067,0-.9-.042-2.415-.064-2.448l-.018-.024a3.225,3.225,0,0,0-6.413.035l-.02.029c-.021.033-.059,1.5-.059,2.392,0,.488-.023,1.027-.033,1.251a4.022,4.022,0,0,0-.4,1.736v3.082a2.658,2.658,0,0,0,.748,1.853L41.065,37.98h2.417l.374,5.456a2.027,2.027,0,0,0,4.053-.017L48.3,37.98h2.408ZM43.765,22.925a1.85,1.85,0,0,1,.508-.376,2.738,2.738,0,0,0,1.886.816,7.047,7.047,0,0,0,1.6-.155,1.845,1.845,0,0,1,.185,1.048,2.556,2.556,0,0,1-2.243,2.4,2.5,2.5,0,0,1-2.249-2.4A1.85,1.85,0,0,1,43.765,22.925Zm3.6,14.055-.452,6.353a1.212,1.212,0,0,1-1.039,1.105,1.182,1.182,0,0,1-1.021-1.088l-.438-6.37H42.547l1.336-3.317-.3-.231a1.675,1.675,0,0,1-.65-1.324V29.026c0-.889.464-2.118,1.333-2.129a3.207,3.207,0,0,0,2.825-.028c.794.112,1.416,1.22,1.416,2.157v3.082a1.673,1.673,0,0,1-.475,1.167l-.226.235,1.408,3.47Z"/><path d="M7.392,41.314a3.066,3.066,0,1,1,3.066-3.066A3.068,3.068,0,0,1,7.392,41.314Zm0-4.631a1.566,1.566,0,1,0,1.566,1.565A1.566,1.566,0,0,0,7.392,36.683Z"/><path d="M21.838,41.314A3.066,3.066,0,1,1,24.9,38.248,3.068,3.068,0,0,1,21.838,41.314Zm0-4.631A1.566,1.566,0,1,0,23.4,38.248,1.566,1.566,0,0,0,21.838,36.683Z"/></svg>
