<svg width="1em" height="1em" fill="currentColor" xmlns="http://www.w3.org/2000/svg" viewBox="0 0 99.385 60.98"><path d="M90.366,53.258V45.54h7.44V41.755H90.367V31.64c2.6,1.042,4.868,2.055,6.783,2.991l.311.153,1.925-3.937-.312-.153c-2.821-1.379-5.741-2.627-8.707-3.765v-7.64h7.439V15.505h-7.44V11.794H82.88v3.742H75.391V11.794H67.9v3.742H60.4V11.794H52.915v3.711H45.476V11.794H37.989v3.742h-2.96V9.266H35.7V1.659H30.5V0H23.007V1.659h-7.5V0H8.024V15.31H.334v4.383h7.69V41.507H0V45.89H8.024v3.36h7.487V45.89h7.5v3.36H30.5V46.044c1.95.1,4.493.254,7.489.508v4.375h7.487V47.3c1.58.184,3.227.392,4.93.628.855.118,1.676.245,2.509.37v5.206H60.4V49.553q3.938.732,7.5,1.542v5.089h7.494V52.967q4.041,1.11,7.489,2.264v4.743h7.486v-2c2.459.994,4.616,1.96,6.448,2.856l.311.152,1.926-3.937-.312-.153C96.025,55.563,93.216,54.361,90.366,53.258ZM75.391,48.431V45.507H82.88v5.109C80.377,49.815,77.874,49.092,75.391,48.431ZM13.172,24.365H24.92v11.02H13.172Zm5.693-.513V19.693h1.089v4.159Zm20.435.513v11.02H27.552V24.365Zm-6.055-.513v-3.87l1.088.07v3.8ZM60.4,23.294q3.938.725,7.5,1.528v16.93H60.4ZM37.989,41.752h-2.96V35.9h2.96Zm-4.744-.425V35.9h1.088v5.43ZM45.476,21.071c1.685.194,3.438.412,5.265.664.741.1,1.45.214,2.174.321v19.7H45.476Zm-7.487,2.781h-2.96V20.1c.922.064,1.917.141,2.96.228Zm-5.439,0H30.5v-4.02c.624.03,1.3.064,2.05.108Zm-9.543,0H20.649V19.693h2.358ZM18.865,35.9h1.089v5.43H18.865Zm1.784,0h2.358v5.61H20.649Zm9.851,0h2.05v5.869q-1.114-.066-2.05-.11Zm37.4,9.61v1.1q-2.708-.6-5.305-1.095ZM82.88,41.752H75.391V26.68q4.033,1.1,7.489,2.242ZM75.391,19.279H82.88v5.035h0c-2.5-.794-5.009-1.515-7.491-2.17h0ZM67.9,20.332c-1.745-.383-3.455-.73-5.13-1.052H67.9ZM35,2.354V8.571H8.944V2.354Zm-.67,6.912v6.4c-.373-.024-.738-.048-1.088-.069V9.266ZM23.007,15.31H20.649V9.266h2.358ZM30.5,9.266h2.05v6.287c-.753-.043-1.429-.077-2.054-.106h0Zm-10.546,0V15.31H18.865V9.266Zm-4.443,0H18.17V15.31H15.511ZM1.029,16.006H26.562c.2,0,2.39.037,5.988.244l2.479.157c4.271.294,9.883.8,16.216,1.675,12.915,1.783,31.548,5.5,47.211,13.084l-1.315,2.688c-1.923-.93-4.188-1.933-6.775-2.962v-.044c-2.232-.894-4.722-1.809-7.486-2.719v.062a183.853,183.853,0,0,0-32.044-7.145C44.655,20.193,39.2,19.694,35.029,19.4l-2.479-.159C28.929,19.033,26.727,19,26.532,19H1.029ZM18.17,19.693v4.159H15.511V19.693ZM15.511,35.9H18.17v5.61H15.511Zm81.3,24.154C88.271,55.919,73.381,50.4,50.5,47.243A214.837,214.837,0,0,0,26.2,45.2H.7V42.2H26.226a221.354,221.354,0,0,1,24.685,2.076c12.914,1.783,31.547,5.5,47.21,13.084Z"/></svg>
