<svg width="1em" height="1em" fill="currentColor" xmlns="http://www.w3.org/2000/svg" viewBox="0 0 104.02 132.35"><path d="M944.5,470.61" transform="translate(-873.87 -381.31)"/><path d="M944.25,464" transform="translate(-873.87 -381.31)"/><path d="M925.61,438.45a9.92,9.92,0,1,1,9.92-9.92A9.93,9.93,0,0,1,925.61,438.45Zm0-16.84a6.92,6.92,0,1,0,6.92,6.92A6.93,6.93,0,0,0,925.61,421.61Z" transform="translate(-873.87 -381.31)"/><path d="M939.16,451.23a3.16,3.16,0,0,1,3.24,3.08v26.35a3.17,3.17,0,0,1-3.24,3.09H912.07a3.18,3.18,0,0,1-3.25-3.09V454.31a3.17,3.17,0,0,1,3.25-3.08h27.09m0-3.23H912.07a6.41,6.41,0,0,0-6.48,6.31v26.35a6.41,6.41,0,0,0,6.48,6.31h27.09a6.4,6.4,0,0,0,6.47-6.31V454.31a6.4,6.4,0,0,0-6.47-6.31Z" transform="translate(-873.87 -381.31)"/><path d="M932.16,462.56V460h-1.7v-1.72h-2.2V460h-5.38v-1.72h-2.2V460h-1.86v2.57h1.86v2.34h-1.86v2.56h1.86v2.18h-1.86v2.57h1.86v2.18h-1.86V477h1.86v2.16h-1.86v2.56h1.86v2.16h-1.86v2.56h1.86v2.35h-1.86v2.57h1.86v2.06h-1.86v2.56h1.86v1.9h-1.86v2.57h1.86v2.47h2.2V500.4h5.38v2.47h2.2V500.4h1.7v-2.57h-1.7v-1.9h1.7v-2.56h-1.7v-2.06h1.7v-2.57h-1.7v-2.35h1.7v-2.56h-1.7v-2.16h1.7v-2.56h-1.7V477h1.7v-2.56h-1.7v-2.18h1.7v-2.57h-1.7v-2.18h1.7V464.9h-1.7v-2.34Zm-3.9,35.27h-5.38v-1.9h5.38Zm0-4.46h-5.38v-2.06h5.38Zm0-4.63h-5.38v-2.35h5.38Zm0-4.91h-5.38v-2.16h5.38Zm0-4.72h-5.38V477h5.38Zm0-4.72h-5.38v-2.18h5.38Zm0-4.75h-5.38v-2.18h5.38Zm0-4.74h-5.38v-2.34h5.38Z" transform="translate(-873.87 -381.31)"/><path d="M910.5,513.66a6.22,6.22,0,1,1,6.21-6.22A6.23,6.23,0,0,1,910.5,513.66Zm0-9.43a3.22,3.22,0,1,0,3.21,3.21A3.22,3.22,0,0,0,910.5,504.23Z" transform="translate(-873.87 -381.31)"/><path d="M940.48,513.66a6.22,6.22,0,1,1,6.22-6.22A6.23,6.23,0,0,1,940.48,513.66Zm0-9.43a3.22,3.22,0,1,0,3.22,3.21A3.22,3.22,0,0,0,940.48,504.23Z" transform="translate(-873.87 -381.31)"/><rect x="39.85" y="121.54" width="23.14" height="3"/><rect x="39.85" y="127.54" width="23.14" height="3"/><path d="M913.83,448.68l-3-.23c0-.35.75-8.66,14.9-8.66s14.64,8.36,14.65,8.71l-3,.1c0-.21-.5-5.81-11.65-5.81S913.85,448.44,913.83,448.68Z" transform="translate(-873.87 -381.31)"/><path d="M881.9,511.67h-6.55a1.49,1.49,0,0,1-1.48-1.5V470.61a1.49,1.49,0,0,1,1.48-1.5h6.55a1.5,1.5,0,0,1,1.49,1.5v39.56A1.5,1.5,0,0,1,881.9,511.67Zm-5.06-3h3.58V472.11h-3.58Z" transform="translate(-873.87 -381.31)"/><path d="M976.39,511.59h-6.62a1.5,1.5,0,0,1-1.5-1.5V470.61a1.5,1.5,0,0,1,1.5-1.5h6.62a1.5,1.5,0,0,1,1.5,1.5v39.48A1.5,1.5,0,0,1,976.39,511.59Zm-5.12-3h3.62V472.11h-3.62Z" transform="translate(-873.87 -381.31)"/><path d="M907.05,472.11h-31.7a1.49,1.49,0,0,1-1.48-1.5V464a1.49,1.49,0,0,1,1.48-1.5H907a1.5,1.5,0,0,1,0,3H876.84v3.62h30.21a1.5,1.5,0,0,1,0,3Z" transform="translate(-873.87 -381.31)"/><path d="M907.4,470.61" transform="translate(-873.87 -381.31)"/><path d="M976.39,472.11h-32a1.5,1.5,0,0,1,0-3h30.51v-3.62H944.13a1.5,1.5,0,1,1,0-3h32.26a1.5,1.5,0,0,1,1.5,1.5v6.62A1.5,1.5,0,0,1,976.39,472.11Z" transform="translate(-873.87 -381.31)"/><path d="M907.38,464" transform="translate(-873.87 -381.31)"/><path d="M907.38,453.8h-5.13a1.5,1.5,0,0,1-1.5-1.5V415.41a1.5,1.5,0,0,1,1.5-1.5h47a1.5,1.5,0,0,1,1.5,1.5V452.3a1.5,1.5,0,0,1-1.5,1.5h-5.42m-36.44,0,36.44,0,0,0-.65-3h4.57V416.91h-44V450.8h4.79l-1.16,3" transform="translate(-873.87 -381.31)"/><path d="M882.39,460a1.49,1.49,0,0,1-1.5-1.5V409a1.5,1.5,0,0,1,2-1.42L902.7,414a1.5,1.5,0,0,1-.91,2.86l-17.9-5.75v45.38l17.91-5.61a1.5,1.5,0,1,1,.89,2.87l-19.85,6.21A1.41,1.41,0,0,1,882.39,460Z" transform="translate(-873.87 -381.31)"/><path d="M969.25,460a1.33,1.33,0,0,1-.45-.07l-19.86-6.21a1.5,1.5,0,0,1,.9-2.87l17.91,5.61V411.09l-17.9,5.75a1.5,1.5,0,0,1-.92-2.86l19.86-6.37a1.5,1.5,0,0,1,2,1.42v49.48a1.51,1.51,0,0,1-1.5,1.5Z" transform="translate(-873.87 -381.31)"/><path d="M896.25,390.25a4.47,4.47,0,1,1,4.47-4.47A4.47,4.47,0,0,1,896.25,390.25Zm0-5.94a1.47,1.47,0,1,0,1.47,1.47A1.46,1.46,0,0,0,896.25,384.31Z" transform="translate(-873.87 -381.31)"/><path d="M925.82,390.25a4.47,4.47,0,1,1,4.47-4.47A4.47,4.47,0,0,1,925.82,390.25Zm0-5.94a1.47,1.47,0,1,0,1.47,1.47A1.47,1.47,0,0,0,925.82,384.31Z" transform="translate(-873.87 -381.31)"/><path d="M955.5,390.25a4.47,4.47,0,1,1,4.47-4.47A4.48,4.48,0,0,1,955.5,390.25Zm0-5.94a1.47,1.47,0,1,0,1.47,1.47A1.47,1.47,0,0,0,955.5,384.31Z" transform="translate(-873.87 -381.31)"/><rect x="54.92" y="2.97" width="23.75" height="3"/><rect x="24.92" y="2.97" width="23.75" height="3"/><rect x="910.67" y="383.85" width="3" height="19.42" transform="translate(-928.17 242.18) rotate(-36.72)"/><path d="M896.25,405.25a4.47,4.47,0,1,1,4.47-4.47A4.47,4.47,0,0,1,896.25,405.25Zm0-5.94a1.47,1.47,0,1,0,1.47,1.47A1.46,1.46,0,0,0,896.25,399.31Z" transform="translate(-873.87 -381.31)"/><path d="M925.82,405.25a4.47,4.47,0,1,1,4.47-4.47A4.47,4.47,0,0,1,925.82,405.25Zm0-5.94a1.47,1.47,0,1,0,1.47,1.47A1.47,1.47,0,0,0,925.82,399.31Z" transform="translate(-873.87 -381.31)"/><path d="M955.5,405.25a4.47,4.47,0,1,1,4.47-4.47A4.48,4.48,0,0,1,955.5,405.25Zm0-5.94a1.47,1.47,0,1,0,1.47,1.47A1.47,1.47,0,0,0,955.5,399.31Z" transform="translate(-873.87 -381.31)"/><rect x="54.92" y="17.97" width="23.75" height="3"/><rect x="24.92" y="17.97" width="23.75" height="3"/><rect x="941.67" y="383.85" width="3" height="19.42" transform="translate(-922.02 260.71) rotate(-36.72)"/></svg>
