<svg width="1em" height="1em" fill="currentColor" xmlns="http://www.w3.org/2000/svg" viewBox="0 0 28.098 125.02"><path d="M14.23,22.671a6.979,6.979,0,1,1,6.978-6.978A6.987,6.987,0,0,1,14.23,22.671Zm0-11.583a4.6,4.6,0,1,0,4.6,4.605A4.611,4.611,0,0,0,14.23,11.088Z"/><path d="M14.23,44.619a6.979,6.979,0,1,1,6.978-6.979A6.987,6.987,0,0,1,14.23,44.619Zm0-11.583a4.6,4.6,0,1,0,4.6,4.6A4.61,4.61,0,0,0,14.23,33.036Z"/><path d="M5.932,37.857H3.982V36.67h.79a9.407,9.407,0,0,1,18.758,0l.765,0,0,1.187-1.928-.007,0-.771a8.22,8.22,0,0,0-16.433.17Zm18.361-21.77H22.365v-.794a8.221,8.221,0,0,0-16.433.186v.608H3.982V14.9h.789a9.408,9.408,0,0,1,18.76,0h.762Z"/><path d="M10.54,38.013a3.975,3.975,0,0,1,.968-2.95,3.881,3.881,0,0,1,2.844-1.057l.014.89a3.033,3.033,0,0,0-2.217.785,3.132,3.132,0,0,0-.719,2.314Zm.177-21.881a3.971,3.971,0,0,1,.968-2.95,3.873,3.873,0,0,1,2.843-1.057l.014.89a3.029,3.029,0,0,0-2.216.785,3.133,3.133,0,0,0-.72,2.315Z"/><path d="M14.529,0A14.547,14.547,0,0,0,0,14.531V37.157A13.583,13.583,0,0,0,11.158,50.5v1.356l-.844,0,0,1.186.84,0V54.75l-.844,0,0,1.186.84,0v1.707l-.844,0,0,1.187.84,0v1.708l-.844,0,0,1.186.84,0v1.709l-.844,0,0,1.187.84,0v1.707l-.844,0,0,1.186.84,0v1.709l-.844,0,0,1.187.84,0V72.12l-.844,0,0,1.187.84,0v1.707l-.844,0,0,1.187.84,0v1.708l-.844,0,0,1.187.84,0V80.8l-.844,0,0,1.187.84,0v1.963l-.844,0,0,1.186.84,0V86.89l-.844,0,0,1.186.84,0v1.708l-.844,0,0,1.186.84,0V92.68l-.844,0,0,1.186.84,0v1.708l-.844,0,0,1.186.84,0V98.47l-.844,0,0,1.186.84,0v1.708l-.844,0,0,1.186.84,0v1.708l-.844,0,0,1.186.84,0v1.708l-.844,0,0,1.187.84,0v1.4H7.823V125.02H20.274V109.744H16.918v-1.421l.651,0,0-1.186-.647,0v-1.708l.651,0,0-1.186-.647,0v-1.708l.651,0,0-1.186-.647,0V99.638l.651,0,0-1.186-.647,0V96.743l.651,0,0-1.186-.647,0V93.848l.651,0,0-1.186-.647,0V90.953l.651,0,0-1.186-.647,0V88.058l.651,0,0-1.186-.647,0V85.122l.651,0,0-1.186-.647,0V81.973l.651,0,0-1.187-.647,0V79.077l.651,0,0-1.186-.647,0V76.182l.651,0,0-1.186-.647,0V73.288l.651,0,0-1.187-.647,0V70.393l.651,0,0-1.187-.647,0V67.5l.651,0,0-1.187-.647,0V64.6l.651,0,0-1.186-.647,0V61.708l.651,0,0-1.187-.647,0V58.812l.651,0,0-1.186-.647,0V55.917l.651,0,0-1.186h-.647V53.022l.651,0,0-1.187-.647,0V50.5A13.583,13.583,0,0,0,28.1,37.157V13.569A13.584,13.584,0,0,0,14.529,0ZM12.345,107.151v-1.708l3.386-.011v1.708Zm3.386,1.176v1.417H12.345v-1.406Zm-3.386-4.071v-1.708l3.386-.011v1.708Zm0-2.895V99.653l3.386-.011v1.708Zm0-2.9V96.758l3.386-.011v1.708Zm0-2.895V93.863l3.386-.011V95.56Zm0-2.895V90.968l3.386-.011v1.708Zm0-2.895V88.073l3.386-.011V89.77Zm0-2.9V85.137l3.386-.012v1.75Zm0-2.936V81.987l3.386-.01v1.961Zm0-3.15V79.092l3.386-.011V80.79Zm0-2.895V76.2l3.386-.011v1.708Zm0-2.895V73.3l3.386-.011V75Zm0-2.894V70.408l3.386-.011v1.708Zm0-2.895V67.512l3.386-.011V69.21Zm0-2.9V64.618l3.386-.012v1.708Zm0-2.894V61.722l3.386-.011v1.708Zm0-2.9V58.827l3.386-.012v1.709Zm0-2.895V55.933l3.386-.012v1.707Zm0-2.894V53.038l3.386-.012v1.708Zm6.441,56.486v12.3H9.312v-12.3ZM15.731,51.839l-3.386.012V50.664c.4.036.81.062,1.223.062h.961c.406,0,.806-.026,1.2-.061Zm9.993-14.682a11.208,11.208,0,0,1-11.195,11.2h-.961A11.207,11.207,0,0,1,2.374,37.157V14.531A12.17,12.17,0,0,1,14.529,2.374a11.208,11.208,0,0,1,11.2,11.2Z"/></svg>
